G04*
G04 #@! TF.GenerationSoftware,Altium Limited,Altium Designer,19.0.14 (431)*
G04*
G04 Layer_Color=8388736*
%FSLAX25Y25*%
%MOIN*%
G70*
G01*
G75*
%ADD10C,0.01000*%
%ADD11R,0.03550X0.03550*%
%ADD12R,0.10046X0.10046*%
%ADD13R,0.01384X0.02762*%
%ADD14R,0.02762X0.01384*%
%ADD15R,0.15794X0.15400*%
%ADD16R,0.02802X0.04731*%
%ADD17R,0.02802X0.05400*%
%ADD18R,0.03943X0.03156*%
%ADD19R,0.08400X0.17900*%
%ADD20R,0.07093X0.04731*%
%ADD21R,0.17900X0.08400*%
%ADD22C,0.04400*%
%ADD23R,0.03740X0.01378*%
%ADD24O,0.03740X0.01378*%
%ADD25O,0.01378X0.03740*%
%ADD26R,0.11221X0.11221*%
%ADD27R,0.07487X0.09061*%
%ADD28R,0.10636X0.04731*%
G04:AMPARAMS|DCode=29|XSize=39.43mil|YSize=31.56mil|CornerRadius=6.13mil|HoleSize=0mil|Usage=FLASHONLY|Rotation=90.000|XOffset=0mil|YOffset=0mil|HoleType=Round|Shape=RoundedRectangle|*
%AMROUNDEDRECTD29*
21,1,0.03943,0.01929,0,0,90.0*
21,1,0.02717,0.03156,0,0,90.0*
1,1,0.01227,0.00965,0.01358*
1,1,0.01227,0.00965,-0.01358*
1,1,0.01227,-0.00965,-0.01358*
1,1,0.01227,-0.00965,0.01358*
%
%ADD29ROUNDEDRECTD29*%
%ADD30R,0.03156X0.03943*%
%ADD31R,0.05518X0.04337*%
G04:AMPARAMS|DCode=32|XSize=39.43mil|YSize=31.56mil|CornerRadius=6.13mil|HoleSize=0mil|Usage=FLASHONLY|Rotation=180.000|XOffset=0mil|YOffset=0mil|HoleType=Round|Shape=RoundedRectangle|*
%AMROUNDEDRECTD32*
21,1,0.03943,0.01929,0,0,180.0*
21,1,0.02717,0.03156,0,0,180.0*
1,1,0.01227,-0.01358,0.00965*
1,1,0.01227,0.01358,0.00965*
1,1,0.01227,0.01358,-0.00965*
1,1,0.01227,-0.01358,-0.00965*
%
%ADD32ROUNDEDRECTD32*%
%ADD33R,0.10636X0.06699*%
%ADD34R,0.27959X0.23235*%
%ADD35R,0.03943X0.05124*%
%ADD36R,0.22054X0.16935*%
%ADD37R,0.05400X0.02802*%
%ADD38R,0.04731X0.02802*%
%ADD39R,0.15400X0.15794*%
%ADD40C,0.12211*%
%ADD41C,0.09061*%
%ADD42C,0.24022*%
D10*
X-0Y173228D02*
X275590D01*
X275590Y0D02*
Y173228D01*
X0Y0D02*
X275590D01*
X-0Y173228D02*
X0Y0D01*
D11*
X215300Y7210D02*
D03*
Y13706D02*
D03*
X215100Y165584D02*
D03*
Y159088D02*
D03*
D12*
X99400Y117200D02*
D03*
D13*
X95561Y124680D02*
D03*
X98120D02*
D03*
X100680D02*
D03*
X103239D02*
D03*
Y109720D02*
D03*
X100680D02*
D03*
X98120D02*
D03*
X95561D02*
D03*
D14*
X106880Y121039D02*
D03*
Y118480D02*
D03*
Y115920D02*
D03*
Y113361D02*
D03*
X91920D02*
D03*
Y115920D02*
D03*
Y118480D02*
D03*
Y121039D02*
D03*
D15*
X139000Y118100D02*
D03*
D16*
X131600Y126300D02*
D03*
X136600D02*
D03*
X141600D02*
D03*
X146600D02*
D03*
D17*
Y104900D02*
D03*
X141600D02*
D03*
X136600D02*
D03*
X131600D02*
D03*
D18*
X215300Y151800D02*
D03*
Y145800D02*
D03*
X215300Y21100D02*
D03*
Y27100D02*
D03*
X86700Y118600D02*
D03*
Y124600D02*
D03*
X86700Y135400D02*
D03*
Y129400D02*
D03*
X81300Y135300D02*
D03*
Y129300D02*
D03*
X77600Y7400D02*
D03*
Y13400D02*
D03*
X83000D02*
D03*
Y7400D02*
D03*
X102827Y97700D02*
D03*
Y91700D02*
D03*
X113549Y114500D02*
D03*
Y120500D02*
D03*
X86900Y97200D02*
D03*
Y103200D02*
D03*
D19*
X188000Y21000D02*
D03*
Y57000D02*
D03*
X144100Y20800D02*
D03*
Y56800D02*
D03*
D20*
X193200Y77500D02*
D03*
Y88721D02*
D03*
X184000Y77500D02*
D03*
Y88721D02*
D03*
X175300Y77500D02*
D03*
Y88721D02*
D03*
X166700Y77500D02*
D03*
Y88721D02*
D03*
X118200Y32079D02*
D03*
Y43300D02*
D03*
X110100Y32179D02*
D03*
Y43400D02*
D03*
X132700Y77500D02*
D03*
Y88721D02*
D03*
X141478Y77500D02*
D03*
Y88721D02*
D03*
X149700Y77500D02*
D03*
Y88721D02*
D03*
X157900Y77500D02*
D03*
Y88721D02*
D03*
X116600Y155200D02*
D03*
Y143980D02*
D03*
X107980Y155020D02*
D03*
Y143800D02*
D03*
X99200Y155020D02*
D03*
Y143800D02*
D03*
D21*
X248700Y77400D02*
D03*
X212700D02*
D03*
X31100Y49300D02*
D03*
X67100D02*
D03*
X249000Y120700D02*
D03*
X213000D02*
D03*
X31000Y125600D02*
D03*
X67000D02*
D03*
D22*
X115600Y7900D02*
D03*
D23*
X85854Y33818D02*
D03*
D24*
Y31259D02*
D03*
Y28700D02*
D03*
Y26141D02*
D03*
Y23582D02*
D03*
X104279Y23700D02*
D03*
Y26141D02*
D03*
Y28700D02*
D03*
Y31259D02*
D03*
Y33818D02*
D03*
D25*
X89949Y19487D02*
D03*
X92508D02*
D03*
X95067D02*
D03*
X97626D02*
D03*
X100185D02*
D03*
Y37913D02*
D03*
X97626D02*
D03*
X95067D02*
D03*
X92508D02*
D03*
X89949D02*
D03*
D26*
X95067Y28700D02*
D03*
D27*
X90108Y62100D02*
D03*
X116092D02*
D03*
D28*
X75700Y31310D02*
D03*
Y20090D02*
D03*
D29*
X89100Y44000D02*
D03*
X95100D02*
D03*
X93400Y13100D02*
D03*
X99400D02*
D03*
X113647Y109500D02*
D03*
X119647D02*
D03*
D30*
X109800Y7793D02*
D03*
X103800D02*
D03*
X93300Y7800D02*
D03*
X99300D02*
D03*
X109800Y13100D02*
D03*
X103800D02*
D03*
X117000Y84000D02*
D03*
X111000D02*
D03*
X103200Y102800D02*
D03*
X97200D02*
D03*
X107017Y135300D02*
D03*
X113017D02*
D03*
X107728Y97200D02*
D03*
X113728D02*
D03*
X107600Y102800D02*
D03*
X113600D02*
D03*
X107100Y129900D02*
D03*
X113100D02*
D03*
X81094Y113300D02*
D03*
X87094D02*
D03*
D31*
X110000Y26000D02*
D03*
Y18913D02*
D03*
X119500Y127887D02*
D03*
Y120800D02*
D03*
D32*
X88500Y7400D02*
D03*
Y13400D02*
D03*
X97500Y97700D02*
D03*
Y91700D02*
D03*
X100700Y137800D02*
D03*
Y131800D02*
D03*
X95500D02*
D03*
Y137800D02*
D03*
X92200Y103200D02*
D03*
Y97200D02*
D03*
D33*
X68300Y81300D02*
D03*
Y99300D02*
D03*
D34*
X42300Y90300D02*
D03*
D35*
X92804Y84200D02*
D03*
X105796D02*
D03*
D36*
X176500Y149422D02*
D03*
Y102178D02*
D03*
D37*
X146900Y133700D02*
D03*
Y138700D02*
D03*
Y143700D02*
D03*
Y148700D02*
D03*
D38*
X125500D02*
D03*
Y143700D02*
D03*
Y138700D02*
D03*
Y133700D02*
D03*
D39*
X133700Y141100D02*
D03*
D40*
X265600Y19600D02*
D03*
X265300Y39600D02*
D03*
X265400Y59600D02*
D03*
Y79600D02*
D03*
X12800Y89600D02*
D03*
Y125300D02*
D03*
D41*
X49200Y10700D02*
D03*
D42*
X19685Y157480D02*
D03*
X236221D02*
D03*
Y15748D02*
D03*
X19685D02*
D03*
M02*
