G04*
G04 #@! TF.GenerationSoftware,Altium Limited,Altium Designer,19.0.14 (431)*
G04*
G04 Layer_Color=8388736*
%FSLAX25Y25*%
%MOIN*%
G70*
G01*
G75*
%ADD10C,0.01000*%
G36*
X-14490Y96129D02*
X-16240D01*
X-16245D01*
X-16250D01*
X-16265D01*
X-16285D01*
X-16335D01*
X-16395Y96124D01*
X-16460Y96119D01*
X-16530Y96109D01*
X-16590Y96099D01*
X-16645Y96084D01*
X-16650D01*
X-16665Y96074D01*
X-16690Y96064D01*
X-16715Y96044D01*
X-16750Y96024D01*
X-16780Y95994D01*
X-16815Y95959D01*
X-16845Y95914D01*
X-16850Y95909D01*
X-16860Y95894D01*
X-16870Y95869D01*
X-16885Y95834D01*
X-16900Y95794D01*
X-16915Y95744D01*
X-16920Y95694D01*
X-16925Y95634D01*
Y95604D01*
X-16920Y95584D01*
X-16915Y95529D01*
X-16900Y95459D01*
X-16875Y95379D01*
X-16840Y95299D01*
X-16790Y95214D01*
X-16725Y95139D01*
X-16715Y95129D01*
X-16690Y95109D01*
X-16640Y95079D01*
X-16575Y95044D01*
X-16535Y95024D01*
X-16490Y95004D01*
X-16435Y94989D01*
X-16380Y94974D01*
X-16320Y94964D01*
X-16255Y94954D01*
X-16180Y94944D01*
X-16105D01*
X-14490D01*
Y94474D01*
X-16295D01*
X-16300D01*
X-16310D01*
X-16325D01*
X-16345D01*
X-16405Y94469D01*
X-16470Y94459D01*
X-16550Y94444D01*
X-16625Y94424D01*
X-16700Y94399D01*
X-16765Y94359D01*
X-16770Y94354D01*
X-16790Y94339D01*
X-16815Y94309D01*
X-16845Y94269D01*
X-16875Y94219D01*
X-16900Y94154D01*
X-16920Y94074D01*
X-16925Y93984D01*
Y93949D01*
X-16920Y93914D01*
X-16910Y93864D01*
X-16900Y93804D01*
X-16880Y93744D01*
X-16855Y93679D01*
X-16820Y93614D01*
X-16815Y93609D01*
X-16800Y93584D01*
X-16775Y93554D01*
X-16740Y93519D01*
X-16700Y93479D01*
X-16645Y93439D01*
X-16580Y93399D01*
X-16510Y93364D01*
X-16500Y93359D01*
X-16475Y93354D01*
X-16425Y93339D01*
X-16365Y93329D01*
X-16280Y93314D01*
X-16180Y93299D01*
X-16065Y93294D01*
X-15930Y93289D01*
X-14490D01*
Y92819D01*
X-17275D01*
Y93239D01*
X-16880D01*
X-16890Y93244D01*
X-16915Y93264D01*
X-16950Y93294D01*
X-17000Y93334D01*
X-17050Y93384D01*
X-17105Y93444D01*
X-17160Y93514D01*
X-17210Y93589D01*
Y93594D01*
X-17215Y93599D01*
X-17230Y93629D01*
X-17250Y93674D01*
X-17275Y93734D01*
X-17295Y93809D01*
X-17315Y93889D01*
X-17330Y93984D01*
X-17335Y94084D01*
Y94134D01*
X-17330Y94194D01*
X-17320Y94264D01*
X-17305Y94344D01*
X-17280Y94429D01*
X-17250Y94509D01*
X-17205Y94589D01*
X-17200Y94599D01*
X-17180Y94624D01*
X-17150Y94659D01*
X-17110Y94699D01*
X-17060Y94749D01*
X-17000Y94794D01*
X-16925Y94839D01*
X-16845Y94874D01*
X-16850Y94879D01*
X-16865Y94889D01*
X-16890Y94909D01*
X-16920Y94934D01*
X-16960Y94969D01*
X-17000Y95009D01*
X-17045Y95054D01*
X-17090Y95104D01*
X-17135Y95164D01*
X-17180Y95229D01*
X-17220Y95299D01*
X-17260Y95374D01*
X-17290Y95459D01*
X-17315Y95544D01*
X-17330Y95639D01*
X-17335Y95734D01*
Y95774D01*
X-17330Y95804D01*
Y95839D01*
X-17325Y95879D01*
X-17305Y95974D01*
X-17280Y96074D01*
X-17240Y96179D01*
X-17180Y96284D01*
X-17145Y96329D01*
X-17105Y96374D01*
X-17100Y96379D01*
X-17095Y96384D01*
X-17080Y96394D01*
X-17060Y96409D01*
X-17035Y96424D01*
X-17005Y96444D01*
X-16970Y96464D01*
X-16930Y96489D01*
X-16885Y96509D01*
X-16830Y96529D01*
X-16775Y96549D01*
X-16710Y96564D01*
X-16640Y96579D01*
X-16565Y96589D01*
X-16480Y96599D01*
X-16395D01*
X-14490D01*
Y96129D01*
D02*
G37*
G36*
Y91654D02*
X-16240D01*
X-16245D01*
X-16250D01*
X-16265D01*
X-16285D01*
X-16335D01*
X-16395Y91649D01*
X-16460Y91644D01*
X-16530Y91634D01*
X-16590Y91624D01*
X-16645Y91609D01*
X-16650D01*
X-16665Y91599D01*
X-16690Y91589D01*
X-16715Y91569D01*
X-16750Y91549D01*
X-16780Y91519D01*
X-16815Y91484D01*
X-16845Y91439D01*
X-16850Y91434D01*
X-16860Y91419D01*
X-16870Y91394D01*
X-16885Y91359D01*
X-16900Y91319D01*
X-16915Y91269D01*
X-16920Y91219D01*
X-16925Y91159D01*
Y91129D01*
X-16920Y91109D01*
X-16915Y91054D01*
X-16900Y90984D01*
X-16875Y90904D01*
X-16840Y90824D01*
X-16790Y90739D01*
X-16725Y90664D01*
X-16715Y90654D01*
X-16690Y90634D01*
X-16640Y90604D01*
X-16575Y90569D01*
X-16535Y90549D01*
X-16490Y90529D01*
X-16435Y90514D01*
X-16380Y90499D01*
X-16320Y90489D01*
X-16255Y90479D01*
X-16180Y90469D01*
X-16105D01*
X-14490D01*
Y89999D01*
X-16295D01*
X-16300D01*
X-16310D01*
X-16325D01*
X-16345D01*
X-16405Y89994D01*
X-16470Y89984D01*
X-16550Y89969D01*
X-16625Y89949D01*
X-16700Y89924D01*
X-16765Y89884D01*
X-16770Y89879D01*
X-16790Y89864D01*
X-16815Y89834D01*
X-16845Y89794D01*
X-16875Y89744D01*
X-16900Y89679D01*
X-16920Y89599D01*
X-16925Y89509D01*
Y89474D01*
X-16920Y89439D01*
X-16910Y89389D01*
X-16900Y89329D01*
X-16880Y89269D01*
X-16855Y89204D01*
X-16820Y89139D01*
X-16815Y89134D01*
X-16800Y89109D01*
X-16775Y89079D01*
X-16740Y89044D01*
X-16700Y89004D01*
X-16645Y88964D01*
X-16580Y88924D01*
X-16510Y88889D01*
X-16500Y88884D01*
X-16475Y88879D01*
X-16425Y88864D01*
X-16365Y88854D01*
X-16280Y88839D01*
X-16180Y88824D01*
X-16065Y88819D01*
X-15930Y88814D01*
X-14490D01*
Y88344D01*
X-17275D01*
Y88764D01*
X-16880D01*
X-16890Y88769D01*
X-16915Y88789D01*
X-16950Y88819D01*
X-17000Y88859D01*
X-17050Y88909D01*
X-17105Y88969D01*
X-17160Y89039D01*
X-17210Y89114D01*
Y89119D01*
X-17215Y89124D01*
X-17230Y89154D01*
X-17250Y89199D01*
X-17275Y89259D01*
X-17295Y89334D01*
X-17315Y89414D01*
X-17330Y89509D01*
X-17335Y89609D01*
Y89659D01*
X-17330Y89719D01*
X-17320Y89789D01*
X-17305Y89869D01*
X-17280Y89954D01*
X-17250Y90034D01*
X-17205Y90114D01*
X-17200Y90124D01*
X-17180Y90149D01*
X-17150Y90184D01*
X-17110Y90224D01*
X-17060Y90274D01*
X-17000Y90319D01*
X-16925Y90364D01*
X-16845Y90399D01*
X-16850Y90404D01*
X-16865Y90414D01*
X-16890Y90434D01*
X-16920Y90459D01*
X-16960Y90494D01*
X-17000Y90534D01*
X-17045Y90579D01*
X-17090Y90629D01*
X-17135Y90689D01*
X-17180Y90754D01*
X-17220Y90824D01*
X-17260Y90899D01*
X-17290Y90984D01*
X-17315Y91069D01*
X-17330Y91164D01*
X-17335Y91259D01*
Y91299D01*
X-17330Y91329D01*
Y91364D01*
X-17325Y91404D01*
X-17305Y91499D01*
X-17280Y91599D01*
X-17240Y91704D01*
X-17180Y91809D01*
X-17145Y91854D01*
X-17105Y91899D01*
X-17100Y91904D01*
X-17095Y91909D01*
X-17080Y91919D01*
X-17060Y91934D01*
X-17035Y91949D01*
X-17005Y91969D01*
X-16970Y91989D01*
X-16930Y92014D01*
X-16885Y92034D01*
X-16830Y92054D01*
X-16775Y92074D01*
X-16710Y92089D01*
X-16640Y92104D01*
X-16565Y92114D01*
X-16480Y92124D01*
X-16395D01*
X-14490D01*
Y91654D01*
D02*
G37*
G36*
X-16215Y87734D02*
X-16150D01*
X-16075Y87729D01*
X-15995Y87724D01*
X-15820Y87704D01*
X-15635Y87679D01*
X-15455Y87644D01*
X-15370Y87624D01*
X-15290Y87599D01*
X-15285D01*
X-15270Y87594D01*
X-15250Y87584D01*
X-15220Y87574D01*
X-15185Y87559D01*
X-15145Y87539D01*
X-15055Y87494D01*
X-14950Y87434D01*
X-14845Y87364D01*
X-14740Y87279D01*
X-14650Y87179D01*
Y87174D01*
X-14640Y87169D01*
X-14630Y87149D01*
X-14615Y87129D01*
X-14600Y87104D01*
X-14580Y87069D01*
X-14560Y87034D01*
X-14540Y86989D01*
X-14495Y86889D01*
X-14460Y86769D01*
X-14435Y86634D01*
X-14430Y86559D01*
X-14425Y86484D01*
Y86459D01*
X-14430Y86429D01*
Y86394D01*
X-14435Y86344D01*
X-14445Y86294D01*
X-14460Y86234D01*
X-14475Y86169D01*
X-14495Y86099D01*
X-14520Y86029D01*
X-14555Y85954D01*
X-14590Y85879D01*
X-14635Y85809D01*
X-14690Y85739D01*
X-14750Y85674D01*
X-14820Y85609D01*
X-14825Y85604D01*
X-14845Y85594D01*
X-14870Y85574D01*
X-14910Y85549D01*
X-14965Y85524D01*
X-15030Y85489D01*
X-15105Y85459D01*
X-15195Y85424D01*
X-15300Y85389D01*
X-15415Y85354D01*
X-15540Y85319D01*
X-15685Y85294D01*
X-15840Y85269D01*
X-16005Y85249D01*
X-16190Y85239D01*
X-16385Y85234D01*
X-16395D01*
X-16415D01*
X-16450D01*
X-16500D01*
X-16555Y85239D01*
X-16620Y85244D01*
X-16695D01*
X-16775Y85254D01*
X-16950Y85269D01*
X-17135Y85294D01*
X-17315Y85329D01*
X-17400Y85349D01*
X-17480Y85374D01*
X-17485D01*
X-17500Y85379D01*
X-17520Y85389D01*
X-17550Y85399D01*
X-17585Y85414D01*
X-17625Y85434D01*
X-17720Y85479D01*
X-17820Y85539D01*
X-17930Y85609D01*
X-18035Y85694D01*
X-18125Y85789D01*
X-18130Y85794D01*
X-18135Y85804D01*
X-18145Y85819D01*
X-18160Y85839D01*
X-18175Y85864D01*
X-18195Y85899D01*
X-18215Y85934D01*
X-18240Y85979D01*
X-18280Y86079D01*
X-18315Y86199D01*
X-18340Y86334D01*
X-18350Y86409D01*
Y86534D01*
X-18345Y86564D01*
Y86594D01*
X-18335Y86669D01*
X-18320Y86754D01*
X-18295Y86844D01*
X-18265Y86939D01*
X-18225Y87029D01*
Y87034D01*
X-18220Y87039D01*
X-18200Y87069D01*
X-18175Y87109D01*
X-18135Y87164D01*
X-18080Y87224D01*
X-18020Y87289D01*
X-17950Y87354D01*
X-17865Y87414D01*
X-17860D01*
X-17855Y87419D01*
X-17840Y87429D01*
X-17825Y87439D01*
X-17775Y87464D01*
X-17705Y87499D01*
X-17620Y87539D01*
X-17525Y87579D01*
X-17410Y87614D01*
X-17290Y87649D01*
X-17285D01*
X-17275Y87654D01*
X-17255Y87659D01*
X-17230Y87664D01*
X-17195Y87669D01*
X-17155Y87679D01*
X-17105Y87684D01*
X-17050Y87694D01*
X-16990Y87704D01*
X-16920Y87709D01*
X-16850Y87719D01*
X-16765Y87724D01*
X-16680Y87729D01*
X-16590Y87734D01*
X-16490Y87739D01*
X-16385D01*
X-16375D01*
X-16355D01*
X-16320D01*
X-16270D01*
X-16215Y87734D01*
D02*
G37*
G36*
Y84749D02*
X-16150D01*
X-16075Y84744D01*
X-15995Y84739D01*
X-15820Y84719D01*
X-15635Y84694D01*
X-15455Y84659D01*
X-15370Y84639D01*
X-15290Y84614D01*
X-15285D01*
X-15270Y84609D01*
X-15250Y84599D01*
X-15220Y84589D01*
X-15185Y84574D01*
X-15145Y84554D01*
X-15055Y84509D01*
X-14950Y84449D01*
X-14845Y84379D01*
X-14740Y84294D01*
X-14650Y84194D01*
Y84189D01*
X-14640Y84184D01*
X-14630Y84164D01*
X-14615Y84144D01*
X-14600Y84119D01*
X-14580Y84084D01*
X-14560Y84049D01*
X-14540Y84004D01*
X-14495Y83904D01*
X-14460Y83784D01*
X-14435Y83649D01*
X-14430Y83574D01*
X-14425Y83499D01*
Y83474D01*
X-14430Y83444D01*
Y83409D01*
X-14435Y83359D01*
X-14445Y83309D01*
X-14460Y83249D01*
X-14475Y83184D01*
X-14495Y83114D01*
X-14520Y83044D01*
X-14555Y82969D01*
X-14590Y82894D01*
X-14635Y82824D01*
X-14690Y82754D01*
X-14750Y82689D01*
X-14820Y82624D01*
X-14825Y82619D01*
X-14845Y82609D01*
X-14870Y82589D01*
X-14910Y82564D01*
X-14965Y82539D01*
X-15030Y82504D01*
X-15105Y82474D01*
X-15195Y82439D01*
X-15300Y82404D01*
X-15415Y82369D01*
X-15540Y82334D01*
X-15685Y82309D01*
X-15840Y82284D01*
X-16005Y82264D01*
X-16190Y82254D01*
X-16385Y82249D01*
X-16395D01*
X-16415D01*
X-16450D01*
X-16500D01*
X-16555Y82254D01*
X-16620Y82259D01*
X-16695D01*
X-16775Y82269D01*
X-16950Y82284D01*
X-17135Y82309D01*
X-17315Y82344D01*
X-17400Y82364D01*
X-17480Y82389D01*
X-17485D01*
X-17500Y82394D01*
X-17520Y82404D01*
X-17550Y82414D01*
X-17585Y82429D01*
X-17625Y82449D01*
X-17720Y82494D01*
X-17820Y82554D01*
X-17930Y82624D01*
X-18035Y82709D01*
X-18125Y82804D01*
X-18130Y82809D01*
X-18135Y82819D01*
X-18145Y82834D01*
X-18160Y82854D01*
X-18175Y82879D01*
X-18195Y82914D01*
X-18215Y82949D01*
X-18240Y82994D01*
X-18280Y83094D01*
X-18315Y83214D01*
X-18340Y83349D01*
X-18350Y83424D01*
Y83549D01*
X-18345Y83579D01*
Y83609D01*
X-18335Y83684D01*
X-18320Y83769D01*
X-18295Y83859D01*
X-18265Y83954D01*
X-18225Y84044D01*
Y84049D01*
X-18220Y84054D01*
X-18200Y84084D01*
X-18175Y84124D01*
X-18135Y84179D01*
X-18080Y84239D01*
X-18020Y84304D01*
X-17950Y84369D01*
X-17865Y84429D01*
X-17860D01*
X-17855Y84434D01*
X-17840Y84444D01*
X-17825Y84454D01*
X-17775Y84479D01*
X-17705Y84514D01*
X-17620Y84554D01*
X-17525Y84594D01*
X-17410Y84629D01*
X-17290Y84664D01*
X-17285D01*
X-17275Y84669D01*
X-17255Y84674D01*
X-17230Y84679D01*
X-17195Y84684D01*
X-17155Y84694D01*
X-17105Y84699D01*
X-17050Y84709D01*
X-16990Y84719D01*
X-16920Y84724D01*
X-16850Y84734D01*
X-16765Y84739D01*
X-16680Y84744D01*
X-16590Y84749D01*
X-16490Y84754D01*
X-16385D01*
X-16375D01*
X-16355D01*
X-16320D01*
X-16270D01*
X-16215Y84749D01*
D02*
G37*
G36*
X-14385Y81544D02*
X-14320Y81534D01*
X-14245Y81524D01*
X-14165Y81504D01*
X-14085Y81474D01*
X-14015Y81439D01*
X-14005Y81434D01*
X-13985Y81419D01*
X-13950Y81394D01*
X-13910Y81359D01*
X-13865Y81314D01*
X-13815Y81254D01*
X-13770Y81189D01*
X-13730Y81109D01*
X-13930Y80979D01*
X-13935Y80984D01*
X-13945Y81004D01*
X-13960Y81029D01*
X-13980Y81059D01*
X-14010Y81094D01*
X-14045Y81129D01*
X-14085Y81164D01*
X-14130Y81194D01*
X-14135Y81199D01*
X-14155Y81204D01*
X-14180Y81219D01*
X-14220Y81234D01*
X-14275Y81249D01*
X-14335Y81259D01*
X-14405Y81269D01*
X-14490Y81274D01*
Y81009D01*
X-15030D01*
Y81549D01*
X-14490D01*
X-14485D01*
X-14475D01*
X-14460D01*
X-14440D01*
X-14385Y81544D01*
D02*
G37*
G36*
X-15410Y79754D02*
X-14490D01*
Y79284D01*
X-15410D01*
Y77614D01*
X-15845D01*
X-18335Y79369D01*
Y79754D01*
X-15845D01*
Y80274D01*
X-15410D01*
Y79754D01*
D02*
G37*
G36*
Y76769D02*
X-14490D01*
Y76299D01*
X-15410D01*
Y74629D01*
X-15845D01*
X-18335Y76384D01*
Y76769D01*
X-15845D01*
Y77289D01*
X-15410D01*
Y76769D01*
D02*
G37*
G36*
X146890Y-13370D02*
X146925D01*
X146965Y-13375D01*
X147060Y-13395D01*
X147160Y-13420D01*
X147265Y-13460D01*
X147370Y-13520D01*
X147415Y-13555D01*
X147460Y-13595D01*
X147465Y-13600D01*
X147470Y-13605D01*
X147480Y-13620D01*
X147495Y-13640D01*
X147510Y-13665D01*
X147530Y-13695D01*
X147550Y-13730D01*
X147575Y-13770D01*
X147595Y-13815D01*
X147615Y-13870D01*
X147635Y-13925D01*
X147650Y-13990D01*
X147665Y-14060D01*
X147675Y-14135D01*
X147685Y-14220D01*
Y-14305D01*
Y-16210D01*
X147215D01*
Y-14460D01*
Y-14455D01*
Y-14450D01*
Y-14435D01*
Y-14415D01*
Y-14365D01*
X147210Y-14305D01*
X147205Y-14240D01*
X147195Y-14170D01*
X147185Y-14110D01*
X147170Y-14055D01*
Y-14050D01*
X147160Y-14035D01*
X147150Y-14010D01*
X147130Y-13985D01*
X147110Y-13950D01*
X147080Y-13920D01*
X147045Y-13885D01*
X147000Y-13855D01*
X146995Y-13850D01*
X146980Y-13840D01*
X146955Y-13830D01*
X146920Y-13815D01*
X146880Y-13800D01*
X146830Y-13785D01*
X146780Y-13780D01*
X146720Y-13775D01*
X146690D01*
X146670Y-13780D01*
X146615Y-13785D01*
X146545Y-13800D01*
X146465Y-13825D01*
X146385Y-13860D01*
X146300Y-13910D01*
X146225Y-13975D01*
X146215Y-13985D01*
X146195Y-14010D01*
X146165Y-14060D01*
X146130Y-14125D01*
X146110Y-14165D01*
X146090Y-14210D01*
X146075Y-14265D01*
X146060Y-14320D01*
X146050Y-14380D01*
X146040Y-14445D01*
X146030Y-14520D01*
Y-14595D01*
Y-16210D01*
X145560D01*
Y-14405D01*
Y-14400D01*
Y-14390D01*
Y-14375D01*
Y-14355D01*
X145555Y-14295D01*
X145545Y-14230D01*
X145530Y-14150D01*
X145510Y-14075D01*
X145485Y-14000D01*
X145445Y-13935D01*
X145440Y-13930D01*
X145425Y-13910D01*
X145395Y-13885D01*
X145355Y-13855D01*
X145305Y-13825D01*
X145240Y-13800D01*
X145160Y-13780D01*
X145070Y-13775D01*
X145035D01*
X145000Y-13780D01*
X144950Y-13790D01*
X144890Y-13800D01*
X144830Y-13820D01*
X144765Y-13845D01*
X144700Y-13880D01*
X144695Y-13885D01*
X144670Y-13900D01*
X144640Y-13925D01*
X144605Y-13960D01*
X144565Y-14000D01*
X144525Y-14055D01*
X144485Y-14120D01*
X144450Y-14190D01*
X144445Y-14200D01*
X144440Y-14225D01*
X144425Y-14275D01*
X144415Y-14335D01*
X144400Y-14420D01*
X144385Y-14520D01*
X144380Y-14635D01*
X144375Y-14770D01*
Y-16210D01*
X143905D01*
Y-13425D01*
X144325D01*
Y-13820D01*
X144330Y-13810D01*
X144350Y-13785D01*
X144380Y-13750D01*
X144420Y-13700D01*
X144470Y-13650D01*
X144530Y-13595D01*
X144600Y-13540D01*
X144675Y-13490D01*
X144680D01*
X144685Y-13485D01*
X144715Y-13470D01*
X144760Y-13450D01*
X144820Y-13425D01*
X144895Y-13405D01*
X144975Y-13385D01*
X145070Y-13370D01*
X145170Y-13365D01*
X145220D01*
X145280Y-13370D01*
X145350Y-13380D01*
X145430Y-13395D01*
X145515Y-13420D01*
X145595Y-13450D01*
X145675Y-13495D01*
X145685Y-13500D01*
X145710Y-13520D01*
X145745Y-13550D01*
X145785Y-13590D01*
X145835Y-13640D01*
X145880Y-13700D01*
X145925Y-13775D01*
X145960Y-13855D01*
X145965Y-13850D01*
X145975Y-13835D01*
X145995Y-13810D01*
X146020Y-13780D01*
X146055Y-13740D01*
X146095Y-13700D01*
X146140Y-13655D01*
X146190Y-13610D01*
X146250Y-13565D01*
X146315Y-13520D01*
X146385Y-13480D01*
X146460Y-13440D01*
X146545Y-13410D01*
X146630Y-13385D01*
X146725Y-13370D01*
X146820Y-13365D01*
X146860D01*
X146890Y-13370D01*
D02*
G37*
G36*
X142415D02*
X142450D01*
X142490Y-13375D01*
X142585Y-13395D01*
X142685Y-13420D01*
X142790Y-13460D01*
X142895Y-13520D01*
X142940Y-13555D01*
X142985Y-13595D01*
X142990Y-13600D01*
X142995Y-13605D01*
X143005Y-13620D01*
X143020Y-13640D01*
X143035Y-13665D01*
X143055Y-13695D01*
X143075Y-13730D01*
X143100Y-13770D01*
X143120Y-13815D01*
X143140Y-13870D01*
X143160Y-13925D01*
X143175Y-13990D01*
X143190Y-14060D01*
X143200Y-14135D01*
X143210Y-14220D01*
Y-14305D01*
Y-16210D01*
X142740D01*
Y-14460D01*
Y-14455D01*
Y-14450D01*
Y-14435D01*
Y-14415D01*
Y-14365D01*
X142735Y-14305D01*
X142730Y-14240D01*
X142720Y-14170D01*
X142710Y-14110D01*
X142695Y-14055D01*
Y-14050D01*
X142685Y-14035D01*
X142675Y-14010D01*
X142655Y-13985D01*
X142635Y-13950D01*
X142605Y-13920D01*
X142570Y-13885D01*
X142525Y-13855D01*
X142520Y-13850D01*
X142505Y-13840D01*
X142480Y-13830D01*
X142445Y-13815D01*
X142405Y-13800D01*
X142355Y-13785D01*
X142305Y-13780D01*
X142245Y-13775D01*
X142215D01*
X142195Y-13780D01*
X142140Y-13785D01*
X142070Y-13800D01*
X141990Y-13825D01*
X141910Y-13860D01*
X141825Y-13910D01*
X141750Y-13975D01*
X141740Y-13985D01*
X141720Y-14010D01*
X141690Y-14060D01*
X141655Y-14125D01*
X141635Y-14165D01*
X141615Y-14210D01*
X141600Y-14265D01*
X141585Y-14320D01*
X141575Y-14380D01*
X141565Y-14445D01*
X141555Y-14520D01*
Y-14595D01*
Y-16210D01*
X141085D01*
Y-14405D01*
Y-14400D01*
Y-14390D01*
Y-14375D01*
Y-14355D01*
X141080Y-14295D01*
X141070Y-14230D01*
X141055Y-14150D01*
X141035Y-14075D01*
X141010Y-14000D01*
X140970Y-13935D01*
X140965Y-13930D01*
X140950Y-13910D01*
X140920Y-13885D01*
X140880Y-13855D01*
X140830Y-13825D01*
X140765Y-13800D01*
X140685Y-13780D01*
X140595Y-13775D01*
X140560D01*
X140525Y-13780D01*
X140475Y-13790D01*
X140415Y-13800D01*
X140355Y-13820D01*
X140290Y-13845D01*
X140225Y-13880D01*
X140220Y-13885D01*
X140195Y-13900D01*
X140165Y-13925D01*
X140130Y-13960D01*
X140090Y-14000D01*
X140050Y-14055D01*
X140010Y-14120D01*
X139975Y-14190D01*
X139970Y-14200D01*
X139965Y-14225D01*
X139950Y-14275D01*
X139940Y-14335D01*
X139925Y-14420D01*
X139910Y-14520D01*
X139905Y-14635D01*
X139900Y-14770D01*
Y-16210D01*
X139430D01*
Y-13425D01*
X139850D01*
Y-13820D01*
X139855Y-13810D01*
X139875Y-13785D01*
X139905Y-13750D01*
X139945Y-13700D01*
X139995Y-13650D01*
X140055Y-13595D01*
X140125Y-13540D01*
X140200Y-13490D01*
X140205D01*
X140210Y-13485D01*
X140240Y-13470D01*
X140285Y-13450D01*
X140345Y-13425D01*
X140420Y-13405D01*
X140500Y-13385D01*
X140595Y-13370D01*
X140695Y-13365D01*
X140745D01*
X140805Y-13370D01*
X140875Y-13380D01*
X140955Y-13395D01*
X141040Y-13420D01*
X141120Y-13450D01*
X141200Y-13495D01*
X141210Y-13500D01*
X141235Y-13520D01*
X141270Y-13550D01*
X141310Y-13590D01*
X141360Y-13640D01*
X141405Y-13700D01*
X141450Y-13775D01*
X141485Y-13855D01*
X141490Y-13850D01*
X141500Y-13835D01*
X141520Y-13810D01*
X141545Y-13780D01*
X141580Y-13740D01*
X141620Y-13700D01*
X141665Y-13655D01*
X141715Y-13610D01*
X141775Y-13565D01*
X141840Y-13520D01*
X141910Y-13480D01*
X141985Y-13440D01*
X142070Y-13410D01*
X142155Y-13385D01*
X142250Y-13370D01*
X142345Y-13365D01*
X142385D01*
X142415Y-13370D01*
D02*
G37*
G36*
X128390Y-12785D02*
X128385Y-12790D01*
X128375Y-12805D01*
X128355Y-12825D01*
X128325Y-12855D01*
X128295Y-12895D01*
X128255Y-12945D01*
X128210Y-13000D01*
X128160Y-13060D01*
X128105Y-13130D01*
X128050Y-13210D01*
X127990Y-13295D01*
X127925Y-13390D01*
X127860Y-13485D01*
X127795Y-13595D01*
X127730Y-13705D01*
X127660Y-13825D01*
X127655Y-13830D01*
X127645Y-13855D01*
X127625Y-13890D01*
X127600Y-13935D01*
X127570Y-13995D01*
X127540Y-14065D01*
X127500Y-14145D01*
X127460Y-14235D01*
X127415Y-14330D01*
X127370Y-14435D01*
X127325Y-14545D01*
X127280Y-14660D01*
X127190Y-14900D01*
X127110Y-15155D01*
Y-15160D01*
X127105Y-15175D01*
X127095Y-15205D01*
X127085Y-15240D01*
X127075Y-15285D01*
X127060Y-15340D01*
X127050Y-15400D01*
X127035Y-15470D01*
X127020Y-15545D01*
X127000Y-15625D01*
X126985Y-15715D01*
X126975Y-15805D01*
X126950Y-16000D01*
X126930Y-16210D01*
X126445D01*
Y-16205D01*
Y-16190D01*
Y-16165D01*
X126450Y-16130D01*
Y-16085D01*
X126455Y-16035D01*
X126460Y-15975D01*
X126470Y-15905D01*
X126480Y-15830D01*
X126490Y-15745D01*
X126505Y-15655D01*
X126520Y-15560D01*
X126540Y-15460D01*
X126565Y-15350D01*
X126590Y-15240D01*
X126620Y-15120D01*
Y-15110D01*
X126630Y-15090D01*
X126640Y-15055D01*
X126650Y-15010D01*
X126670Y-14950D01*
X126690Y-14885D01*
X126715Y-14810D01*
X126745Y-14725D01*
X126775Y-14630D01*
X126815Y-14535D01*
X126895Y-14325D01*
X126995Y-14105D01*
X127105Y-13880D01*
X127110Y-13875D01*
X127120Y-13855D01*
X127135Y-13820D01*
X127160Y-13780D01*
X127190Y-13730D01*
X127225Y-13670D01*
X127265Y-13600D01*
X127310Y-13530D01*
X127410Y-13370D01*
X127525Y-13200D01*
X127655Y-13030D01*
X127785Y-12870D01*
X125905D01*
Y-12415D01*
X128390D01*
Y-12785D01*
D02*
G37*
G36*
X137650Y-12355D02*
X137680D01*
X137755Y-12365D01*
X137840Y-12380D01*
X137930Y-12405D01*
X138025Y-12435D01*
X138115Y-12475D01*
X138120D01*
X138125Y-12480D01*
X138155Y-12500D01*
X138195Y-12525D01*
X138250Y-12565D01*
X138310Y-12620D01*
X138375Y-12680D01*
X138440Y-12750D01*
X138500Y-12835D01*
Y-12840D01*
X138505Y-12845D01*
X138515Y-12860D01*
X138525Y-12875D01*
X138550Y-12925D01*
X138585Y-12995D01*
X138625Y-13080D01*
X138665Y-13175D01*
X138700Y-13290D01*
X138735Y-13410D01*
Y-13415D01*
X138740Y-13425D01*
X138745Y-13445D01*
X138750Y-13470D01*
X138755Y-13505D01*
X138765Y-13545D01*
X138770Y-13595D01*
X138780Y-13650D01*
X138790Y-13710D01*
X138795Y-13780D01*
X138805Y-13850D01*
X138810Y-13935D01*
X138815Y-14020D01*
X138820Y-14110D01*
X138825Y-14210D01*
Y-14315D01*
Y-14325D01*
Y-14345D01*
Y-14380D01*
Y-14430D01*
X138820Y-14485D01*
Y-14550D01*
X138815Y-14625D01*
X138810Y-14705D01*
X138790Y-14880D01*
X138765Y-15065D01*
X138730Y-15245D01*
X138710Y-15330D01*
X138685Y-15410D01*
Y-15415D01*
X138680Y-15430D01*
X138670Y-15450D01*
X138660Y-15480D01*
X138645Y-15515D01*
X138625Y-15555D01*
X138580Y-15645D01*
X138520Y-15750D01*
X138450Y-15855D01*
X138365Y-15960D01*
X138265Y-16050D01*
X138260D01*
X138255Y-16060D01*
X138235Y-16070D01*
X138215Y-16085D01*
X138190Y-16100D01*
X138155Y-16120D01*
X138120Y-16140D01*
X138075Y-16160D01*
X137975Y-16205D01*
X137855Y-16240D01*
X137720Y-16265D01*
X137645Y-16270D01*
X137570Y-16275D01*
X137545D01*
X137515Y-16270D01*
X137480D01*
X137430Y-16265D01*
X137380Y-16255D01*
X137320Y-16240D01*
X137255Y-16225D01*
X137185Y-16205D01*
X137115Y-16180D01*
X137040Y-16145D01*
X136965Y-16110D01*
X136895Y-16065D01*
X136825Y-16010D01*
X136760Y-15950D01*
X136695Y-15880D01*
X136690Y-15875D01*
X136680Y-15855D01*
X136660Y-15830D01*
X136635Y-15790D01*
X136610Y-15735D01*
X136575Y-15670D01*
X136545Y-15595D01*
X136510Y-15505D01*
X136475Y-15400D01*
X136440Y-15285D01*
X136405Y-15160D01*
X136380Y-15015D01*
X136355Y-14860D01*
X136335Y-14695D01*
X136325Y-14510D01*
X136320Y-14315D01*
Y-14305D01*
Y-14285D01*
Y-14250D01*
Y-14200D01*
X136325Y-14145D01*
X136330Y-14080D01*
Y-14005D01*
X136340Y-13925D01*
X136355Y-13750D01*
X136380Y-13565D01*
X136415Y-13385D01*
X136435Y-13300D01*
X136460Y-13220D01*
Y-13215D01*
X136465Y-13200D01*
X136475Y-13180D01*
X136485Y-13150D01*
X136500Y-13115D01*
X136520Y-13075D01*
X136565Y-12980D01*
X136625Y-12880D01*
X136695Y-12770D01*
X136780Y-12665D01*
X136875Y-12575D01*
X136880Y-12570D01*
X136890Y-12565D01*
X136905Y-12555D01*
X136925Y-12540D01*
X136950Y-12525D01*
X136985Y-12505D01*
X137020Y-12485D01*
X137065Y-12460D01*
X137165Y-12420D01*
X137285Y-12385D01*
X137420Y-12360D01*
X137495Y-12350D01*
X137620D01*
X137650Y-12355D01*
D02*
G37*
G36*
X134665D02*
X134695D01*
X134770Y-12365D01*
X134855Y-12380D01*
X134945Y-12405D01*
X135040Y-12435D01*
X135130Y-12475D01*
X135135D01*
X135140Y-12480D01*
X135170Y-12500D01*
X135210Y-12525D01*
X135265Y-12565D01*
X135325Y-12620D01*
X135390Y-12680D01*
X135455Y-12750D01*
X135515Y-12835D01*
Y-12840D01*
X135520Y-12845D01*
X135530Y-12860D01*
X135540Y-12875D01*
X135565Y-12925D01*
X135600Y-12995D01*
X135640Y-13080D01*
X135680Y-13175D01*
X135715Y-13290D01*
X135750Y-13410D01*
Y-13415D01*
X135755Y-13425D01*
X135760Y-13445D01*
X135765Y-13470D01*
X135770Y-13505D01*
X135780Y-13545D01*
X135785Y-13595D01*
X135795Y-13650D01*
X135805Y-13710D01*
X135810Y-13780D01*
X135820Y-13850D01*
X135825Y-13935D01*
X135830Y-14020D01*
X135835Y-14110D01*
X135840Y-14210D01*
Y-14315D01*
Y-14325D01*
Y-14345D01*
Y-14380D01*
Y-14430D01*
X135835Y-14485D01*
Y-14550D01*
X135830Y-14625D01*
X135825Y-14705D01*
X135805Y-14880D01*
X135780Y-15065D01*
X135745Y-15245D01*
X135725Y-15330D01*
X135700Y-15410D01*
Y-15415D01*
X135695Y-15430D01*
X135685Y-15450D01*
X135675Y-15480D01*
X135660Y-15515D01*
X135640Y-15555D01*
X135595Y-15645D01*
X135535Y-15750D01*
X135465Y-15855D01*
X135380Y-15960D01*
X135280Y-16050D01*
X135275D01*
X135270Y-16060D01*
X135250Y-16070D01*
X135230Y-16085D01*
X135205Y-16100D01*
X135170Y-16120D01*
X135135Y-16140D01*
X135090Y-16160D01*
X134990Y-16205D01*
X134870Y-16240D01*
X134735Y-16265D01*
X134660Y-16270D01*
X134585Y-16275D01*
X134560D01*
X134530Y-16270D01*
X134495D01*
X134445Y-16265D01*
X134395Y-16255D01*
X134335Y-16240D01*
X134270Y-16225D01*
X134200Y-16205D01*
X134130Y-16180D01*
X134055Y-16145D01*
X133980Y-16110D01*
X133910Y-16065D01*
X133840Y-16010D01*
X133775Y-15950D01*
X133710Y-15880D01*
X133705Y-15875D01*
X133695Y-15855D01*
X133675Y-15830D01*
X133650Y-15790D01*
X133625Y-15735D01*
X133590Y-15670D01*
X133560Y-15595D01*
X133525Y-15505D01*
X133490Y-15400D01*
X133455Y-15285D01*
X133420Y-15160D01*
X133395Y-15015D01*
X133370Y-14860D01*
X133350Y-14695D01*
X133340Y-14510D01*
X133335Y-14315D01*
Y-14305D01*
Y-14285D01*
Y-14250D01*
Y-14200D01*
X133340Y-14145D01*
X133345Y-14080D01*
Y-14005D01*
X133355Y-13925D01*
X133370Y-13750D01*
X133395Y-13565D01*
X133430Y-13385D01*
X133450Y-13300D01*
X133475Y-13220D01*
Y-13215D01*
X133480Y-13200D01*
X133490Y-13180D01*
X133500Y-13150D01*
X133515Y-13115D01*
X133535Y-13075D01*
X133580Y-12980D01*
X133640Y-12880D01*
X133710Y-12770D01*
X133795Y-12665D01*
X133890Y-12575D01*
X133895Y-12570D01*
X133905Y-12565D01*
X133920Y-12555D01*
X133940Y-12540D01*
X133965Y-12525D01*
X134000Y-12505D01*
X134035Y-12485D01*
X134080Y-12460D01*
X134180Y-12420D01*
X134300Y-12385D01*
X134435Y-12360D01*
X134510Y-12350D01*
X134635D01*
X134665Y-12355D01*
D02*
G37*
G36*
X130190D02*
X130220D01*
X130295Y-12365D01*
X130380Y-12380D01*
X130470Y-12405D01*
X130565Y-12435D01*
X130655Y-12475D01*
X130660D01*
X130665Y-12480D01*
X130695Y-12500D01*
X130735Y-12525D01*
X130790Y-12565D01*
X130850Y-12620D01*
X130915Y-12680D01*
X130980Y-12750D01*
X131040Y-12835D01*
Y-12840D01*
X131045Y-12845D01*
X131055Y-12860D01*
X131065Y-12875D01*
X131090Y-12925D01*
X131125Y-12995D01*
X131165Y-13080D01*
X131205Y-13175D01*
X131240Y-13290D01*
X131275Y-13410D01*
Y-13415D01*
X131280Y-13425D01*
X131285Y-13445D01*
X131290Y-13470D01*
X131295Y-13505D01*
X131305Y-13545D01*
X131310Y-13595D01*
X131320Y-13650D01*
X131330Y-13710D01*
X131335Y-13780D01*
X131345Y-13850D01*
X131350Y-13935D01*
X131355Y-14020D01*
X131360Y-14110D01*
X131365Y-14210D01*
Y-14315D01*
Y-14325D01*
Y-14345D01*
Y-14380D01*
Y-14430D01*
X131360Y-14485D01*
Y-14550D01*
X131355Y-14625D01*
X131350Y-14705D01*
X131330Y-14880D01*
X131305Y-15065D01*
X131270Y-15245D01*
X131250Y-15330D01*
X131225Y-15410D01*
Y-15415D01*
X131220Y-15430D01*
X131210Y-15450D01*
X131200Y-15480D01*
X131185Y-15515D01*
X131165Y-15555D01*
X131120Y-15645D01*
X131060Y-15750D01*
X130990Y-15855D01*
X130905Y-15960D01*
X130805Y-16050D01*
X130800D01*
X130795Y-16060D01*
X130775Y-16070D01*
X130755Y-16085D01*
X130730Y-16100D01*
X130695Y-16120D01*
X130660Y-16140D01*
X130615Y-16160D01*
X130515Y-16205D01*
X130395Y-16240D01*
X130260Y-16265D01*
X130185Y-16270D01*
X130110Y-16275D01*
X130085D01*
X130055Y-16270D01*
X130020D01*
X129970Y-16265D01*
X129920Y-16255D01*
X129860Y-16240D01*
X129795Y-16225D01*
X129725Y-16205D01*
X129655Y-16180D01*
X129580Y-16145D01*
X129505Y-16110D01*
X129435Y-16065D01*
X129365Y-16010D01*
X129300Y-15950D01*
X129235Y-15880D01*
X129230Y-15875D01*
X129220Y-15855D01*
X129200Y-15830D01*
X129175Y-15790D01*
X129150Y-15735D01*
X129115Y-15670D01*
X129085Y-15595D01*
X129050Y-15505D01*
X129015Y-15400D01*
X128980Y-15285D01*
X128945Y-15160D01*
X128920Y-15015D01*
X128895Y-14860D01*
X128875Y-14695D01*
X128865Y-14510D01*
X128860Y-14315D01*
Y-14305D01*
Y-14285D01*
Y-14250D01*
Y-14200D01*
X128865Y-14145D01*
X128870Y-14080D01*
Y-14005D01*
X128880Y-13925D01*
X128895Y-13750D01*
X128920Y-13565D01*
X128955Y-13385D01*
X128975Y-13300D01*
X129000Y-13220D01*
Y-13215D01*
X129005Y-13200D01*
X129015Y-13180D01*
X129025Y-13150D01*
X129040Y-13115D01*
X129060Y-13075D01*
X129105Y-12980D01*
X129165Y-12880D01*
X129235Y-12770D01*
X129320Y-12665D01*
X129415Y-12575D01*
X129420Y-12570D01*
X129430Y-12565D01*
X129445Y-12555D01*
X129465Y-12540D01*
X129490Y-12525D01*
X129525Y-12505D01*
X129560Y-12485D01*
X129605Y-12460D01*
X129705Y-12420D01*
X129825Y-12385D01*
X129960Y-12360D01*
X130035Y-12350D01*
X130160D01*
X130190Y-12355D01*
D02*
G37*
G36*
X132635Y-16210D02*
Y-16215D01*
Y-16225D01*
Y-16240D01*
Y-16260D01*
X132630Y-16315D01*
X132620Y-16380D01*
X132610Y-16455D01*
X132590Y-16535D01*
X132560Y-16615D01*
X132525Y-16685D01*
X132520Y-16695D01*
X132505Y-16715D01*
X132480Y-16750D01*
X132445Y-16790D01*
X132400Y-16835D01*
X132340Y-16885D01*
X132275Y-16930D01*
X132195Y-16970D01*
X132065Y-16770D01*
X132070Y-16765D01*
X132090Y-16755D01*
X132115Y-16740D01*
X132145Y-16720D01*
X132180Y-16690D01*
X132215Y-16655D01*
X132250Y-16615D01*
X132280Y-16570D01*
X132285Y-16565D01*
X132290Y-16545D01*
X132305Y-16520D01*
X132320Y-16480D01*
X132335Y-16425D01*
X132345Y-16365D01*
X132355Y-16295D01*
X132360Y-16210D01*
X132095D01*
Y-15670D01*
X132635D01*
Y-16210D01*
D02*
G37*
%LPC*%
G36*
X-16215Y87254D02*
X-16385D01*
X-16390D01*
X-16395D01*
X-16425D01*
X-16475D01*
X-16540Y87249D01*
X-16615D01*
X-16700Y87244D01*
X-16800Y87234D01*
X-16900Y87224D01*
X-17110Y87199D01*
X-17215Y87179D01*
X-17320Y87159D01*
X-17415Y87134D01*
X-17500Y87104D01*
X-17580Y87069D01*
X-17645Y87029D01*
X-17650D01*
X-17660Y87019D01*
X-17675Y87009D01*
X-17695Y86989D01*
X-17745Y86944D01*
X-17805Y86879D01*
X-17860Y86799D01*
X-17910Y86704D01*
X-17930Y86654D01*
X-17945Y86599D01*
X-17955Y86539D01*
X-17960Y86479D01*
Y86449D01*
X-17955Y86424D01*
X-17945Y86364D01*
X-17925Y86294D01*
X-17890Y86209D01*
X-17840Y86124D01*
X-17810Y86079D01*
X-17775Y86039D01*
X-17730Y85999D01*
X-17680Y85959D01*
X-17675Y85954D01*
X-17665Y85949D01*
X-17640Y85939D01*
X-17610Y85924D01*
X-17570Y85904D01*
X-17520Y85884D01*
X-17460Y85864D01*
X-17385Y85839D01*
X-17305Y85819D01*
X-17210Y85794D01*
X-17105Y85774D01*
X-16985Y85759D01*
X-16855Y85739D01*
X-16710Y85729D01*
X-16555Y85724D01*
X-16385Y85719D01*
X-16380D01*
X-16375D01*
X-16345D01*
X-16295D01*
X-16230Y85724D01*
X-16155D01*
X-16070Y85729D01*
X-15975Y85739D01*
X-15870Y85749D01*
X-15660Y85774D01*
X-15555Y85789D01*
X-15455Y85814D01*
X-15355Y85839D01*
X-15270Y85869D01*
X-15190Y85899D01*
X-15125Y85939D01*
X-15120Y85944D01*
X-15110Y85949D01*
X-15095Y85964D01*
X-15075Y85979D01*
X-15025Y86024D01*
X-14970Y86089D01*
X-14915Y86169D01*
X-14865Y86264D01*
X-14845Y86314D01*
X-14830Y86369D01*
X-14820Y86424D01*
X-14815Y86484D01*
Y86514D01*
X-14820Y86539D01*
X-14825Y86564D01*
X-14830Y86599D01*
X-14855Y86674D01*
X-14890Y86759D01*
X-14915Y86804D01*
X-14945Y86849D01*
X-14980Y86899D01*
X-15025Y86944D01*
X-15070Y86989D01*
X-15125Y87029D01*
X-15130Y87034D01*
X-15140Y87039D01*
X-15160Y87049D01*
X-15190Y87064D01*
X-15225Y87079D01*
X-15275Y87099D01*
X-15330Y87119D01*
X-15400Y87144D01*
X-15480Y87164D01*
X-15570Y87184D01*
X-15675Y87204D01*
X-15790Y87219D01*
X-15920Y87234D01*
X-16060Y87244D01*
X-16215Y87254D01*
D02*
G37*
G36*
Y84269D02*
X-16385D01*
X-16390D01*
X-16395D01*
X-16425D01*
X-16475D01*
X-16540Y84264D01*
X-16615D01*
X-16700Y84259D01*
X-16800Y84249D01*
X-16900Y84239D01*
X-17110Y84214D01*
X-17215Y84194D01*
X-17320Y84174D01*
X-17415Y84149D01*
X-17500Y84119D01*
X-17580Y84084D01*
X-17645Y84044D01*
X-17650D01*
X-17660Y84034D01*
X-17675Y84024D01*
X-17695Y84004D01*
X-17745Y83959D01*
X-17805Y83894D01*
X-17860Y83814D01*
X-17910Y83719D01*
X-17930Y83669D01*
X-17945Y83614D01*
X-17955Y83554D01*
X-17960Y83494D01*
Y83464D01*
X-17955Y83439D01*
X-17945Y83379D01*
X-17925Y83309D01*
X-17890Y83224D01*
X-17840Y83139D01*
X-17810Y83094D01*
X-17775Y83054D01*
X-17730Y83014D01*
X-17680Y82974D01*
X-17675Y82969D01*
X-17665Y82964D01*
X-17640Y82954D01*
X-17610Y82939D01*
X-17570Y82919D01*
X-17520Y82899D01*
X-17460Y82879D01*
X-17385Y82854D01*
X-17305Y82834D01*
X-17210Y82809D01*
X-17105Y82789D01*
X-16985Y82774D01*
X-16855Y82754D01*
X-16710Y82744D01*
X-16555Y82739D01*
X-16385Y82734D01*
X-16380D01*
X-16375D01*
X-16345D01*
X-16295D01*
X-16230Y82739D01*
X-16155D01*
X-16070Y82744D01*
X-15975Y82754D01*
X-15870Y82764D01*
X-15660Y82789D01*
X-15555Y82804D01*
X-15455Y82829D01*
X-15355Y82854D01*
X-15270Y82884D01*
X-15190Y82914D01*
X-15125Y82954D01*
X-15120Y82959D01*
X-15110Y82964D01*
X-15095Y82979D01*
X-15075Y82994D01*
X-15025Y83039D01*
X-14970Y83104D01*
X-14915Y83184D01*
X-14865Y83279D01*
X-14845Y83329D01*
X-14830Y83384D01*
X-14820Y83439D01*
X-14815Y83499D01*
Y83529D01*
X-14820Y83554D01*
X-14825Y83579D01*
X-14830Y83614D01*
X-14855Y83689D01*
X-14890Y83774D01*
X-14915Y83819D01*
X-14945Y83864D01*
X-14980Y83914D01*
X-15025Y83959D01*
X-15070Y84004D01*
X-15125Y84044D01*
X-15130Y84049D01*
X-15140Y84054D01*
X-15160Y84064D01*
X-15190Y84079D01*
X-15225Y84094D01*
X-15275Y84114D01*
X-15330Y84134D01*
X-15400Y84159D01*
X-15480Y84179D01*
X-15570Y84199D01*
X-15675Y84219D01*
X-15790Y84234D01*
X-15920Y84249D01*
X-16060Y84259D01*
X-16215Y84269D01*
D02*
G37*
G36*
X-15845Y79284D02*
X-17580D01*
X-15845Y78074D01*
Y79284D01*
D02*
G37*
G36*
Y76299D02*
X-17580D01*
X-15845Y75089D01*
Y76299D01*
D02*
G37*
G36*
X137565Y-12740D02*
X137535D01*
X137510Y-12745D01*
X137450Y-12755D01*
X137380Y-12775D01*
X137295Y-12810D01*
X137210Y-12860D01*
X137165Y-12890D01*
X137125Y-12925D01*
X137085Y-12970D01*
X137045Y-13020D01*
X137040Y-13025D01*
X137035Y-13035D01*
X137025Y-13060D01*
X137010Y-13090D01*
X136990Y-13130D01*
X136970Y-13180D01*
X136950Y-13240D01*
X136925Y-13315D01*
X136905Y-13395D01*
X136880Y-13490D01*
X136860Y-13595D01*
X136845Y-13715D01*
X136825Y-13845D01*
X136815Y-13990D01*
X136810Y-14145D01*
X136805Y-14315D01*
Y-14320D01*
Y-14325D01*
Y-14355D01*
Y-14405D01*
X136810Y-14470D01*
Y-14545D01*
X136815Y-14630D01*
X136825Y-14725D01*
X136835Y-14830D01*
X136860Y-15040D01*
X136875Y-15145D01*
X136900Y-15245D01*
X136925Y-15345D01*
X136955Y-15430D01*
X136985Y-15510D01*
X137025Y-15575D01*
X137030Y-15580D01*
X137035Y-15590D01*
X137050Y-15605D01*
X137065Y-15625D01*
X137110Y-15675D01*
X137175Y-15730D01*
X137255Y-15785D01*
X137350Y-15835D01*
X137400Y-15855D01*
X137455Y-15870D01*
X137510Y-15880D01*
X137570Y-15885D01*
X137600D01*
X137625Y-15880D01*
X137650Y-15875D01*
X137685Y-15870D01*
X137760Y-15845D01*
X137845Y-15810D01*
X137890Y-15785D01*
X137935Y-15755D01*
X137985Y-15720D01*
X138030Y-15675D01*
X138075Y-15630D01*
X138115Y-15575D01*
X138120Y-15570D01*
X138125Y-15560D01*
X138135Y-15540D01*
X138150Y-15510D01*
X138165Y-15475D01*
X138185Y-15425D01*
X138205Y-15370D01*
X138230Y-15300D01*
X138250Y-15220D01*
X138270Y-15130D01*
X138290Y-15025D01*
X138305Y-14910D01*
X138320Y-14780D01*
X138330Y-14640D01*
X138340Y-14485D01*
Y-14315D01*
Y-14310D01*
Y-14305D01*
Y-14275D01*
Y-14225D01*
X138335Y-14160D01*
Y-14085D01*
X138330Y-14000D01*
X138320Y-13900D01*
X138310Y-13800D01*
X138285Y-13590D01*
X138265Y-13485D01*
X138245Y-13380D01*
X138220Y-13285D01*
X138190Y-13200D01*
X138155Y-13120D01*
X138115Y-13055D01*
Y-13050D01*
X138105Y-13040D01*
X138095Y-13025D01*
X138075Y-13005D01*
X138030Y-12955D01*
X137965Y-12895D01*
X137885Y-12840D01*
X137790Y-12790D01*
X137740Y-12770D01*
X137685Y-12755D01*
X137625Y-12745D01*
X137565Y-12740D01*
D02*
G37*
G36*
X134580D02*
X134550D01*
X134525Y-12745D01*
X134465Y-12755D01*
X134395Y-12775D01*
X134310Y-12810D01*
X134225Y-12860D01*
X134180Y-12890D01*
X134140Y-12925D01*
X134100Y-12970D01*
X134060Y-13020D01*
X134055Y-13025D01*
X134050Y-13035D01*
X134040Y-13060D01*
X134025Y-13090D01*
X134005Y-13130D01*
X133985Y-13180D01*
X133965Y-13240D01*
X133940Y-13315D01*
X133920Y-13395D01*
X133895Y-13490D01*
X133875Y-13595D01*
X133860Y-13715D01*
X133840Y-13845D01*
X133830Y-13990D01*
X133825Y-14145D01*
X133820Y-14315D01*
Y-14320D01*
Y-14325D01*
Y-14355D01*
Y-14405D01*
X133825Y-14470D01*
Y-14545D01*
X133830Y-14630D01*
X133840Y-14725D01*
X133850Y-14830D01*
X133875Y-15040D01*
X133890Y-15145D01*
X133915Y-15245D01*
X133940Y-15345D01*
X133970Y-15430D01*
X134000Y-15510D01*
X134040Y-15575D01*
X134045Y-15580D01*
X134050Y-15590D01*
X134065Y-15605D01*
X134080Y-15625D01*
X134125Y-15675D01*
X134190Y-15730D01*
X134270Y-15785D01*
X134365Y-15835D01*
X134415Y-15855D01*
X134470Y-15870D01*
X134525Y-15880D01*
X134585Y-15885D01*
X134615D01*
X134640Y-15880D01*
X134665Y-15875D01*
X134700Y-15870D01*
X134775Y-15845D01*
X134860Y-15810D01*
X134905Y-15785D01*
X134950Y-15755D01*
X135000Y-15720D01*
X135045Y-15675D01*
X135090Y-15630D01*
X135130Y-15575D01*
X135135Y-15570D01*
X135140Y-15560D01*
X135150Y-15540D01*
X135165Y-15510D01*
X135180Y-15475D01*
X135200Y-15425D01*
X135220Y-15370D01*
X135245Y-15300D01*
X135265Y-15220D01*
X135285Y-15130D01*
X135305Y-15025D01*
X135320Y-14910D01*
X135335Y-14780D01*
X135345Y-14640D01*
X135355Y-14485D01*
Y-14315D01*
Y-14310D01*
Y-14305D01*
Y-14275D01*
Y-14225D01*
X135350Y-14160D01*
Y-14085D01*
X135345Y-14000D01*
X135335Y-13900D01*
X135325Y-13800D01*
X135300Y-13590D01*
X135280Y-13485D01*
X135260Y-13380D01*
X135235Y-13285D01*
X135205Y-13200D01*
X135170Y-13120D01*
X135130Y-13055D01*
Y-13050D01*
X135120Y-13040D01*
X135110Y-13025D01*
X135090Y-13005D01*
X135045Y-12955D01*
X134980Y-12895D01*
X134900Y-12840D01*
X134805Y-12790D01*
X134755Y-12770D01*
X134700Y-12755D01*
X134640Y-12745D01*
X134580Y-12740D01*
D02*
G37*
G36*
X130105D02*
X130075D01*
X130050Y-12745D01*
X129990Y-12755D01*
X129920Y-12775D01*
X129835Y-12810D01*
X129750Y-12860D01*
X129705Y-12890D01*
X129665Y-12925D01*
X129625Y-12970D01*
X129585Y-13020D01*
X129580Y-13025D01*
X129575Y-13035D01*
X129565Y-13060D01*
X129550Y-13090D01*
X129530Y-13130D01*
X129510Y-13180D01*
X129490Y-13240D01*
X129465Y-13315D01*
X129445Y-13395D01*
X129420Y-13490D01*
X129400Y-13595D01*
X129385Y-13715D01*
X129365Y-13845D01*
X129355Y-13990D01*
X129350Y-14145D01*
X129345Y-14315D01*
Y-14320D01*
Y-14325D01*
Y-14355D01*
Y-14405D01*
X129350Y-14470D01*
Y-14545D01*
X129355Y-14630D01*
X129365Y-14725D01*
X129375Y-14830D01*
X129400Y-15040D01*
X129415Y-15145D01*
X129440Y-15245D01*
X129465Y-15345D01*
X129495Y-15430D01*
X129525Y-15510D01*
X129565Y-15575D01*
X129570Y-15580D01*
X129575Y-15590D01*
X129590Y-15605D01*
X129605Y-15625D01*
X129650Y-15675D01*
X129715Y-15730D01*
X129795Y-15785D01*
X129890Y-15835D01*
X129940Y-15855D01*
X129995Y-15870D01*
X130050Y-15880D01*
X130110Y-15885D01*
X130140D01*
X130165Y-15880D01*
X130190Y-15875D01*
X130225Y-15870D01*
X130300Y-15845D01*
X130385Y-15810D01*
X130430Y-15785D01*
X130475Y-15755D01*
X130525Y-15720D01*
X130570Y-15675D01*
X130615Y-15630D01*
X130655Y-15575D01*
X130660Y-15570D01*
X130665Y-15560D01*
X130675Y-15540D01*
X130690Y-15510D01*
X130705Y-15475D01*
X130725Y-15425D01*
X130745Y-15370D01*
X130770Y-15300D01*
X130790Y-15220D01*
X130810Y-15130D01*
X130830Y-15025D01*
X130845Y-14910D01*
X130860Y-14780D01*
X130870Y-14640D01*
X130880Y-14485D01*
Y-14315D01*
Y-14310D01*
Y-14305D01*
Y-14275D01*
Y-14225D01*
X130875Y-14160D01*
Y-14085D01*
X130870Y-14000D01*
X130860Y-13900D01*
X130850Y-13800D01*
X130825Y-13590D01*
X130805Y-13485D01*
X130785Y-13380D01*
X130760Y-13285D01*
X130730Y-13200D01*
X130695Y-13120D01*
X130655Y-13055D01*
Y-13050D01*
X130645Y-13040D01*
X130635Y-13025D01*
X130615Y-13005D01*
X130570Y-12955D01*
X130505Y-12895D01*
X130425Y-12840D01*
X130330Y-12790D01*
X130280Y-12770D01*
X130225Y-12755D01*
X130165Y-12745D01*
X130105Y-12740D01*
D02*
G37*
%LPD*%
D10*
X-16800Y173228D02*
X-14800Y167228D01*
X-18800D02*
X-16800Y173228D01*
X-18800Y6000D02*
X-16800Y0D01*
X-14800Y6000D01*
X-16800Y97599D02*
Y173228D01*
Y0D02*
Y73629D01*
X-17800Y173228D02*
X-1500D01*
X-17800Y0D02*
X-1500D01*
X0Y-13900D02*
X6000Y-11900D01*
X0Y-13900D02*
X6000Y-15900D01*
X269590D02*
X275590Y-13900D01*
X269590Y-11900D02*
X275590Y-13900D01*
X0D02*
X124905D01*
X148685D02*
X275590D01*
X0Y-14900D02*
Y-1500D01*
X275590Y-14900D02*
Y-1500D01*
X-0Y173228D02*
X275590D01*
X275590Y0D02*
Y173228D01*
X0Y0D02*
X275590D01*
X-0Y173228D02*
X0Y0D01*
M02*
