G04*
G04 #@! TF.GenerationSoftware,Altium Limited,Altium Designer,19.0.14 (431)*
G04*
G04 Layer_Color=8388736*
%FSLAX25Y25*%
%MOIN*%
G70*
G01*
G75*
%ADD10C,0.01000*%
G36*
X-14490Y70951D02*
X-16240D01*
X-16245D01*
X-16250D01*
X-16265D01*
X-16285D01*
X-16335D01*
X-16395Y70946D01*
X-16460Y70941D01*
X-16530Y70931D01*
X-16590Y70921D01*
X-16645Y70906D01*
X-16650D01*
X-16665Y70896D01*
X-16690Y70886D01*
X-16715Y70866D01*
X-16750Y70846D01*
X-16780Y70816D01*
X-16815Y70781D01*
X-16845Y70736D01*
X-16850Y70731D01*
X-16860Y70716D01*
X-16870Y70691D01*
X-16885Y70656D01*
X-16900Y70616D01*
X-16915Y70566D01*
X-16920Y70516D01*
X-16925Y70456D01*
Y70426D01*
X-16920Y70406D01*
X-16915Y70351D01*
X-16900Y70281D01*
X-16875Y70201D01*
X-16840Y70121D01*
X-16790Y70036D01*
X-16725Y69961D01*
X-16715Y69951D01*
X-16690Y69931D01*
X-16640Y69901D01*
X-16575Y69866D01*
X-16535Y69846D01*
X-16490Y69826D01*
X-16435Y69811D01*
X-16380Y69796D01*
X-16320Y69786D01*
X-16255Y69776D01*
X-16180Y69766D01*
X-16105D01*
X-14490D01*
Y69296D01*
X-16295D01*
X-16300D01*
X-16310D01*
X-16325D01*
X-16345D01*
X-16405Y69291D01*
X-16470Y69281D01*
X-16550Y69266D01*
X-16625Y69246D01*
X-16700Y69221D01*
X-16765Y69181D01*
X-16770Y69176D01*
X-16790Y69161D01*
X-16815Y69131D01*
X-16845Y69091D01*
X-16875Y69041D01*
X-16900Y68976D01*
X-16920Y68896D01*
X-16925Y68806D01*
Y68771D01*
X-16920Y68736D01*
X-16910Y68686D01*
X-16900Y68626D01*
X-16880Y68566D01*
X-16855Y68501D01*
X-16820Y68436D01*
X-16815Y68431D01*
X-16800Y68406D01*
X-16775Y68376D01*
X-16740Y68341D01*
X-16700Y68301D01*
X-16645Y68261D01*
X-16580Y68221D01*
X-16510Y68186D01*
X-16500Y68181D01*
X-16475Y68176D01*
X-16425Y68161D01*
X-16365Y68151D01*
X-16280Y68136D01*
X-16180Y68121D01*
X-16065Y68116D01*
X-15930Y68111D01*
X-14490D01*
Y67641D01*
X-17275D01*
Y68061D01*
X-16880D01*
X-16890Y68066D01*
X-16915Y68086D01*
X-16950Y68116D01*
X-17000Y68156D01*
X-17050Y68206D01*
X-17105Y68266D01*
X-17160Y68336D01*
X-17210Y68411D01*
Y68416D01*
X-17215Y68421D01*
X-17230Y68451D01*
X-17250Y68496D01*
X-17275Y68556D01*
X-17295Y68631D01*
X-17315Y68711D01*
X-17330Y68806D01*
X-17335Y68906D01*
Y68956D01*
X-17330Y69016D01*
X-17320Y69086D01*
X-17305Y69166D01*
X-17280Y69251D01*
X-17250Y69331D01*
X-17205Y69411D01*
X-17200Y69421D01*
X-17180Y69446D01*
X-17150Y69481D01*
X-17110Y69521D01*
X-17060Y69571D01*
X-17000Y69616D01*
X-16925Y69661D01*
X-16845Y69696D01*
X-16850Y69701D01*
X-16865Y69711D01*
X-16890Y69731D01*
X-16920Y69756D01*
X-16960Y69791D01*
X-17000Y69831D01*
X-17045Y69876D01*
X-17090Y69926D01*
X-17135Y69986D01*
X-17180Y70051D01*
X-17220Y70121D01*
X-17260Y70196D01*
X-17290Y70281D01*
X-17315Y70366D01*
X-17330Y70461D01*
X-17335Y70556D01*
Y70596D01*
X-17330Y70626D01*
Y70661D01*
X-17325Y70701D01*
X-17305Y70796D01*
X-17280Y70896D01*
X-17240Y71001D01*
X-17180Y71106D01*
X-17145Y71151D01*
X-17105Y71196D01*
X-17100Y71201D01*
X-17095Y71206D01*
X-17080Y71216D01*
X-17060Y71231D01*
X-17035Y71246D01*
X-17005Y71266D01*
X-16970Y71286D01*
X-16930Y71311D01*
X-16885Y71331D01*
X-16830Y71351D01*
X-16775Y71371D01*
X-16710Y71386D01*
X-16640Y71401D01*
X-16565Y71411D01*
X-16480Y71421D01*
X-16395D01*
X-14490D01*
Y70951D01*
D02*
G37*
G36*
Y66476D02*
X-16240D01*
X-16245D01*
X-16250D01*
X-16265D01*
X-16285D01*
X-16335D01*
X-16395Y66471D01*
X-16460Y66466D01*
X-16530Y66456D01*
X-16590Y66446D01*
X-16645Y66431D01*
X-16650D01*
X-16665Y66421D01*
X-16690Y66411D01*
X-16715Y66391D01*
X-16750Y66371D01*
X-16780Y66341D01*
X-16815Y66306D01*
X-16845Y66261D01*
X-16850Y66256D01*
X-16860Y66241D01*
X-16870Y66216D01*
X-16885Y66181D01*
X-16900Y66141D01*
X-16915Y66091D01*
X-16920Y66041D01*
X-16925Y65981D01*
Y65951D01*
X-16920Y65931D01*
X-16915Y65876D01*
X-16900Y65806D01*
X-16875Y65726D01*
X-16840Y65646D01*
X-16790Y65561D01*
X-16725Y65486D01*
X-16715Y65476D01*
X-16690Y65456D01*
X-16640Y65426D01*
X-16575Y65391D01*
X-16535Y65371D01*
X-16490Y65351D01*
X-16435Y65336D01*
X-16380Y65321D01*
X-16320Y65311D01*
X-16255Y65301D01*
X-16180Y65291D01*
X-16105D01*
X-14490D01*
Y64821D01*
X-16295D01*
X-16300D01*
X-16310D01*
X-16325D01*
X-16345D01*
X-16405Y64816D01*
X-16470Y64806D01*
X-16550Y64791D01*
X-16625Y64771D01*
X-16700Y64746D01*
X-16765Y64706D01*
X-16770Y64701D01*
X-16790Y64686D01*
X-16815Y64656D01*
X-16845Y64616D01*
X-16875Y64566D01*
X-16900Y64501D01*
X-16920Y64421D01*
X-16925Y64331D01*
Y64296D01*
X-16920Y64261D01*
X-16910Y64211D01*
X-16900Y64151D01*
X-16880Y64091D01*
X-16855Y64026D01*
X-16820Y63961D01*
X-16815Y63956D01*
X-16800Y63931D01*
X-16775Y63901D01*
X-16740Y63866D01*
X-16700Y63826D01*
X-16645Y63786D01*
X-16580Y63746D01*
X-16510Y63711D01*
X-16500Y63706D01*
X-16475Y63701D01*
X-16425Y63686D01*
X-16365Y63676D01*
X-16280Y63661D01*
X-16180Y63646D01*
X-16065Y63641D01*
X-15930Y63636D01*
X-14490D01*
Y63166D01*
X-17275D01*
Y63586D01*
X-16880D01*
X-16890Y63591D01*
X-16915Y63611D01*
X-16950Y63641D01*
X-17000Y63681D01*
X-17050Y63731D01*
X-17105Y63791D01*
X-17160Y63861D01*
X-17210Y63936D01*
Y63941D01*
X-17215Y63946D01*
X-17230Y63976D01*
X-17250Y64021D01*
X-17275Y64081D01*
X-17295Y64156D01*
X-17315Y64236D01*
X-17330Y64331D01*
X-17335Y64431D01*
Y64481D01*
X-17330Y64541D01*
X-17320Y64611D01*
X-17305Y64691D01*
X-17280Y64776D01*
X-17250Y64856D01*
X-17205Y64936D01*
X-17200Y64946D01*
X-17180Y64971D01*
X-17150Y65006D01*
X-17110Y65046D01*
X-17060Y65096D01*
X-17000Y65141D01*
X-16925Y65186D01*
X-16845Y65221D01*
X-16850Y65226D01*
X-16865Y65236D01*
X-16890Y65256D01*
X-16920Y65281D01*
X-16960Y65316D01*
X-17000Y65356D01*
X-17045Y65401D01*
X-17090Y65451D01*
X-17135Y65511D01*
X-17180Y65576D01*
X-17220Y65646D01*
X-17260Y65721D01*
X-17290Y65806D01*
X-17315Y65891D01*
X-17330Y65986D01*
X-17335Y66081D01*
Y66121D01*
X-17330Y66151D01*
Y66186D01*
X-17325Y66226D01*
X-17305Y66321D01*
X-17280Y66421D01*
X-17240Y66526D01*
X-17180Y66631D01*
X-17145Y66676D01*
X-17105Y66721D01*
X-17100Y66726D01*
X-17095Y66731D01*
X-17080Y66741D01*
X-17060Y66756D01*
X-17035Y66771D01*
X-17005Y66791D01*
X-16970Y66811D01*
X-16930Y66836D01*
X-16885Y66856D01*
X-16830Y66876D01*
X-16775Y66896D01*
X-16710Y66911D01*
X-16640Y66926D01*
X-16565Y66936D01*
X-16480Y66946D01*
X-16395D01*
X-14490D01*
Y66476D01*
D02*
G37*
G36*
X-15705Y62596D02*
X-15660Y62591D01*
X-15605Y62586D01*
X-15545Y62576D01*
X-15485Y62561D01*
X-15340Y62526D01*
X-15265Y62501D01*
X-15190Y62471D01*
X-15115Y62436D01*
X-15040Y62396D01*
X-14965Y62351D01*
X-14890Y62296D01*
X-14885Y62291D01*
X-14870Y62281D01*
X-14845Y62256D01*
X-14820Y62226D01*
X-14780Y62191D01*
X-14745Y62146D01*
X-14700Y62091D01*
X-14660Y62031D01*
X-14615Y61961D01*
X-14570Y61886D01*
X-14535Y61806D01*
X-14500Y61716D01*
X-14470Y61616D01*
X-14445Y61511D01*
X-14430Y61401D01*
X-14425Y61286D01*
Y61236D01*
X-14430Y61201D01*
X-14435Y61156D01*
X-14440Y61101D01*
X-14450Y61046D01*
X-14460Y60981D01*
X-14495Y60846D01*
X-14520Y60776D01*
X-14550Y60706D01*
X-14580Y60631D01*
X-14620Y60561D01*
X-14665Y60496D01*
X-14715Y60431D01*
X-14720Y60426D01*
X-14730Y60416D01*
X-14745Y60401D01*
X-14770Y60381D01*
X-14800Y60351D01*
X-14835Y60326D01*
X-14875Y60291D01*
X-14925Y60261D01*
X-14975Y60226D01*
X-15035Y60196D01*
X-15100Y60161D01*
X-15170Y60136D01*
X-15245Y60106D01*
X-15320Y60086D01*
X-15405Y60066D01*
X-15495Y60056D01*
X-15530Y60551D01*
X-15525D01*
X-15515Y60556D01*
X-15495D01*
X-15470Y60561D01*
X-15440Y60571D01*
X-15405Y60581D01*
X-15330Y60601D01*
X-15240Y60636D01*
X-15150Y60681D01*
X-15065Y60736D01*
X-14990Y60801D01*
X-14985Y60811D01*
X-14965Y60836D01*
X-14935Y60881D01*
X-14905Y60936D01*
X-14870Y61006D01*
X-14845Y61091D01*
X-14825Y61181D01*
X-14815Y61286D01*
Y61321D01*
X-14820Y61346D01*
X-14825Y61371D01*
X-14830Y61406D01*
X-14845Y61486D01*
X-14875Y61581D01*
X-14925Y61676D01*
X-14950Y61726D01*
X-14985Y61776D01*
X-15025Y61821D01*
X-15070Y61866D01*
X-15075Y61871D01*
X-15080Y61876D01*
X-15095Y61886D01*
X-15115Y61901D01*
X-15140Y61921D01*
X-15175Y61941D01*
X-15210Y61961D01*
X-15250Y61986D01*
X-15350Y62026D01*
X-15465Y62066D01*
X-15600Y62091D01*
X-15670Y62101D01*
X-15750D01*
X-15755D01*
X-15770D01*
X-15790D01*
X-15815Y62096D01*
X-15850D01*
X-15890Y62091D01*
X-15980Y62071D01*
X-16085Y62046D01*
X-16190Y62006D01*
X-16295Y61951D01*
X-16345Y61916D01*
X-16390Y61876D01*
X-16395D01*
X-16400Y61866D01*
X-16410Y61851D01*
X-16425Y61836D01*
X-16465Y61786D01*
X-16510Y61716D01*
X-16550Y61631D01*
X-16590Y61531D01*
X-16615Y61411D01*
X-16625Y61351D01*
Y61241D01*
X-16620Y61201D01*
X-16610Y61141D01*
X-16600Y61081D01*
X-16580Y61011D01*
X-16550Y60936D01*
X-16515Y60866D01*
X-16510Y60856D01*
X-16495Y60836D01*
X-16475Y60806D01*
X-16440Y60766D01*
X-16405Y60721D01*
X-16355Y60671D01*
X-16305Y60626D01*
X-16245Y60586D01*
X-16310Y60141D01*
X-18285Y60511D01*
Y62421D01*
X-17835D01*
Y60886D01*
X-16795Y60681D01*
X-16800Y60686D01*
X-16805Y60696D01*
X-16820Y60716D01*
X-16835Y60741D01*
X-16850Y60771D01*
X-16875Y60811D01*
X-16895Y60851D01*
X-16920Y60901D01*
X-16965Y61011D01*
X-17000Y61131D01*
X-17030Y61266D01*
X-17035Y61336D01*
X-17040Y61406D01*
Y61456D01*
X-17035Y61491D01*
X-17030Y61531D01*
X-17020Y61581D01*
X-17010Y61636D01*
X-16995Y61701D01*
X-16980Y61766D01*
X-16955Y61831D01*
X-16925Y61901D01*
X-16895Y61976D01*
X-16850Y62046D01*
X-16805Y62116D01*
X-16750Y62186D01*
X-16690Y62251D01*
X-16685Y62256D01*
X-16675Y62266D01*
X-16655Y62281D01*
X-16625Y62306D01*
X-16590Y62331D01*
X-16550Y62361D01*
X-16500Y62396D01*
X-16445Y62426D01*
X-16385Y62461D01*
X-16315Y62491D01*
X-16245Y62521D01*
X-16165Y62546D01*
X-16075Y62571D01*
X-15985Y62586D01*
X-15890Y62596D01*
X-15790Y62601D01*
X-15785D01*
X-15765D01*
X-15740D01*
X-15705Y62596D01*
D02*
G37*
G36*
X-14490Y57001D02*
X-14500D01*
X-14520D01*
X-14550D01*
X-14595Y57006D01*
X-14645Y57011D01*
X-14700Y57021D01*
X-14755Y57036D01*
X-14815Y57056D01*
X-14820D01*
X-14825Y57061D01*
X-14840Y57066D01*
X-14860Y57076D01*
X-14910Y57096D01*
X-14975Y57131D01*
X-15055Y57176D01*
X-15140Y57226D01*
X-15230Y57291D01*
X-15325Y57366D01*
X-15330Y57371D01*
X-15335Y57376D01*
X-15350Y57391D01*
X-15370Y57406D01*
X-15425Y57456D01*
X-15495Y57526D01*
X-15580Y57611D01*
X-15680Y57716D01*
X-15790Y57841D01*
X-15910Y57986D01*
X-15915Y57991D01*
X-15935Y58011D01*
X-15960Y58046D01*
X-15995Y58086D01*
X-16040Y58136D01*
X-16090Y58196D01*
X-16145Y58261D01*
X-16205Y58326D01*
X-16335Y58466D01*
X-16470Y58606D01*
X-16540Y58671D01*
X-16605Y58731D01*
X-16665Y58786D01*
X-16725Y58831D01*
X-16730Y58836D01*
X-16740Y58841D01*
X-16755Y58851D01*
X-16775Y58866D01*
X-16805Y58881D01*
X-16835Y58901D01*
X-16910Y58946D01*
X-16995Y58986D01*
X-17090Y59021D01*
X-17195Y59046D01*
X-17245Y59056D01*
X-17295D01*
X-17300D01*
X-17310D01*
X-17320D01*
X-17340Y59051D01*
X-17395Y59046D01*
X-17460Y59031D01*
X-17535Y59006D01*
X-17610Y58971D01*
X-17690Y58921D01*
X-17765Y58851D01*
X-17775Y58841D01*
X-17795Y58816D01*
X-17825Y58771D01*
X-17865Y58711D01*
X-17900Y58636D01*
X-17930Y58546D01*
X-17950Y58441D01*
X-17960Y58326D01*
Y58291D01*
X-17955Y58271D01*
Y58241D01*
X-17950Y58206D01*
X-17935Y58131D01*
X-17910Y58046D01*
X-17875Y57951D01*
X-17825Y57861D01*
X-17755Y57781D01*
X-17745Y57771D01*
X-17720Y57751D01*
X-17670Y57716D01*
X-17610Y57681D01*
X-17525Y57641D01*
X-17430Y57606D01*
X-17320Y57586D01*
X-17190Y57576D01*
X-17240Y57091D01*
X-17245D01*
X-17265Y57096D01*
X-17290D01*
X-17330Y57101D01*
X-17375Y57111D01*
X-17425Y57121D01*
X-17485Y57136D01*
X-17545Y57156D01*
X-17680Y57201D01*
X-17750Y57231D01*
X-17815Y57266D01*
X-17885Y57306D01*
X-17950Y57351D01*
X-18010Y57401D01*
X-18065Y57461D01*
X-18070Y57466D01*
X-18075Y57476D01*
X-18090Y57496D01*
X-18110Y57521D01*
X-18130Y57556D01*
X-18155Y57596D01*
X-18180Y57641D01*
X-18210Y57696D01*
X-18235Y57756D01*
X-18260Y57821D01*
X-18285Y57891D01*
X-18305Y57971D01*
X-18325Y58051D01*
X-18340Y58141D01*
X-18345Y58236D01*
X-18350Y58336D01*
Y58391D01*
X-18345Y58426D01*
X-18340Y58476D01*
X-18335Y58531D01*
X-18325Y58591D01*
X-18310Y58656D01*
X-18275Y58796D01*
X-18250Y58866D01*
X-18220Y58941D01*
X-18185Y59016D01*
X-18140Y59086D01*
X-18095Y59151D01*
X-18040Y59216D01*
X-18035Y59221D01*
X-18025Y59231D01*
X-18010Y59246D01*
X-17985Y59266D01*
X-17955Y59291D01*
X-17920Y59321D01*
X-17880Y59346D01*
X-17830Y59381D01*
X-17780Y59411D01*
X-17720Y59436D01*
X-17590Y59491D01*
X-17520Y59511D01*
X-17445Y59526D01*
X-17365Y59536D01*
X-17280Y59541D01*
X-17270D01*
X-17240D01*
X-17195Y59536D01*
X-17135Y59531D01*
X-17070Y59516D01*
X-16990Y59501D01*
X-16910Y59476D01*
X-16825Y59446D01*
X-16815Y59441D01*
X-16785Y59426D01*
X-16740Y59406D01*
X-16685Y59371D01*
X-16615Y59326D01*
X-16535Y59271D01*
X-16445Y59206D01*
X-16355Y59131D01*
X-16350D01*
X-16345Y59121D01*
X-16330Y59106D01*
X-16310Y59091D01*
X-16285Y59066D01*
X-16255Y59036D01*
X-16220Y59001D01*
X-16180Y58956D01*
X-16135Y58911D01*
X-16085Y58856D01*
X-16025Y58796D01*
X-15965Y58731D01*
X-15900Y58656D01*
X-15835Y58581D01*
X-15760Y58491D01*
X-15680Y58401D01*
X-15675Y58396D01*
X-15665Y58381D01*
X-15645Y58361D01*
X-15625Y58331D01*
X-15595Y58301D01*
X-15560Y58261D01*
X-15485Y58176D01*
X-15405Y58081D01*
X-15325Y57991D01*
X-15290Y57951D01*
X-15255Y57916D01*
X-15220Y57881D01*
X-15195Y57856D01*
X-15190Y57851D01*
X-15175Y57836D01*
X-15150Y57816D01*
X-15115Y57786D01*
X-15080Y57756D01*
X-15035Y57721D01*
X-14945Y57656D01*
Y59546D01*
X-14490D01*
Y57001D01*
D02*
G37*
G36*
X-14385Y56366D02*
X-14320Y56356D01*
X-14245Y56346D01*
X-14165Y56326D01*
X-14085Y56296D01*
X-14015Y56261D01*
X-14005Y56256D01*
X-13985Y56241D01*
X-13950Y56216D01*
X-13910Y56181D01*
X-13865Y56136D01*
X-13815Y56076D01*
X-13770Y56011D01*
X-13730Y55931D01*
X-13930Y55801D01*
X-13935Y55806D01*
X-13945Y55826D01*
X-13960Y55851D01*
X-13980Y55881D01*
X-14010Y55916D01*
X-14045Y55951D01*
X-14085Y55986D01*
X-14130Y56016D01*
X-14135Y56021D01*
X-14155Y56026D01*
X-14180Y56041D01*
X-14220Y56056D01*
X-14275Y56071D01*
X-14335Y56081D01*
X-14405Y56091D01*
X-14490Y56096D01*
Y55831D01*
X-15030D01*
Y56371D01*
X-14490D01*
X-14485D01*
X-14475D01*
X-14460D01*
X-14440D01*
X-14385Y56366D01*
D02*
G37*
G36*
X-14490Y53901D02*
X-17495D01*
X-17490Y53891D01*
X-17470Y53871D01*
X-17435Y53831D01*
X-17395Y53781D01*
X-17345Y53716D01*
X-17290Y53636D01*
X-17230Y53551D01*
X-17170Y53451D01*
Y53446D01*
X-17165Y53441D01*
X-17155Y53426D01*
X-17145Y53406D01*
X-17115Y53351D01*
X-17080Y53286D01*
X-17040Y53211D01*
X-17000Y53126D01*
X-16960Y53041D01*
X-16925Y52956D01*
X-17385D01*
Y52961D01*
X-17395Y52976D01*
X-17405Y52996D01*
X-17420Y53021D01*
X-17435Y53056D01*
X-17460Y53096D01*
X-17510Y53191D01*
X-17575Y53296D01*
X-17655Y53416D01*
X-17740Y53531D01*
X-17835Y53646D01*
X-17840Y53651D01*
X-17845Y53661D01*
X-17860Y53676D01*
X-17880Y53696D01*
X-17930Y53746D01*
X-18000Y53811D01*
X-18075Y53876D01*
X-18165Y53946D01*
X-18255Y54011D01*
X-18350Y54066D01*
Y54371D01*
X-14490D01*
Y53901D01*
D02*
G37*
G36*
X-15540Y52121D02*
X-15495Y52116D01*
X-15445Y52106D01*
X-15390Y52096D01*
X-15330Y52081D01*
X-15265Y52061D01*
X-15195Y52036D01*
X-15125Y52006D01*
X-15050Y51971D01*
X-14980Y51926D01*
X-14905Y51876D01*
X-14835Y51821D01*
X-14770Y51756D01*
X-14765Y51751D01*
X-14755Y51741D01*
X-14740Y51721D01*
X-14715Y51691D01*
X-14690Y51656D01*
X-14660Y51611D01*
X-14630Y51561D01*
X-14600Y51506D01*
X-14565Y51441D01*
X-14535Y51371D01*
X-14505Y51296D01*
X-14480Y51211D01*
X-14455Y51126D01*
X-14440Y51031D01*
X-14430Y50936D01*
X-14425Y50831D01*
Y50781D01*
X-14430Y50746D01*
X-14435Y50706D01*
X-14440Y50656D01*
X-14450Y50596D01*
X-14465Y50536D01*
X-14500Y50406D01*
X-14525Y50336D01*
X-14550Y50266D01*
X-14585Y50191D01*
X-14625Y50121D01*
X-14670Y50056D01*
X-14725Y49991D01*
X-14730Y49986D01*
X-14740Y49976D01*
X-14755Y49961D01*
X-14780Y49936D01*
X-14810Y49911D01*
X-14845Y49881D01*
X-14890Y49851D01*
X-14935Y49816D01*
X-14990Y49786D01*
X-15050Y49751D01*
X-15115Y49721D01*
X-15185Y49691D01*
X-15260Y49661D01*
X-15335Y49641D01*
X-15420Y49621D01*
X-15510Y49611D01*
X-15575Y50081D01*
X-15570D01*
X-15555Y50086D01*
X-15535Y50091D01*
X-15510Y50096D01*
X-15475Y50106D01*
X-15440Y50116D01*
X-15350Y50146D01*
X-15255Y50181D01*
X-15160Y50231D01*
X-15065Y50286D01*
X-15025Y50316D01*
X-14990Y50351D01*
X-14985Y50361D01*
X-14965Y50386D01*
X-14935Y50426D01*
X-14905Y50486D01*
X-14870Y50556D01*
X-14845Y50636D01*
X-14825Y50731D01*
X-14815Y50831D01*
Y50866D01*
X-14820Y50886D01*
Y50916D01*
X-14825Y50951D01*
X-14845Y51026D01*
X-14870Y51116D01*
X-14910Y51211D01*
X-14970Y51306D01*
X-15005Y51351D01*
X-15045Y51396D01*
X-15050Y51401D01*
X-15055Y51406D01*
X-15070Y51416D01*
X-15085Y51431D01*
X-15135Y51471D01*
X-15205Y51511D01*
X-15285Y51551D01*
X-15385Y51591D01*
X-15495Y51616D01*
X-15555Y51626D01*
X-15615D01*
X-15620D01*
X-15630D01*
X-15645D01*
X-15670Y51621D01*
X-15695D01*
X-15730Y51616D01*
X-15805Y51601D01*
X-15890Y51576D01*
X-15980Y51536D01*
X-16065Y51481D01*
X-16110Y51451D01*
X-16150Y51411D01*
X-16160Y51401D01*
X-16185Y51371D01*
X-16215Y51326D01*
X-16255Y51266D01*
X-16295Y51186D01*
X-16325Y51096D01*
X-16350Y50991D01*
X-16360Y50871D01*
Y50816D01*
X-16355Y50781D01*
X-16350Y50731D01*
X-16340Y50671D01*
X-16325Y50606D01*
X-16310Y50536D01*
X-16725Y50591D01*
Y50601D01*
X-16720Y50616D01*
X-16715Y50641D01*
Y50696D01*
X-16720Y50716D01*
X-16725Y50776D01*
X-16735Y50846D01*
X-16755Y50931D01*
X-16780Y51021D01*
X-16820Y51116D01*
X-16870Y51206D01*
Y51211D01*
X-16880Y51216D01*
X-16900Y51246D01*
X-16940Y51286D01*
X-16990Y51331D01*
X-17060Y51376D01*
X-17145Y51411D01*
X-17245Y51441D01*
X-17300Y51446D01*
X-17360Y51451D01*
X-17365D01*
X-17370D01*
X-17405Y51446D01*
X-17450Y51441D01*
X-17510Y51431D01*
X-17575Y51406D01*
X-17645Y51376D01*
X-17720Y51331D01*
X-17785Y51271D01*
X-17795Y51261D01*
X-17815Y51241D01*
X-17840Y51201D01*
X-17875Y51151D01*
X-17905Y51086D01*
X-17935Y51006D01*
X-17955Y50921D01*
X-17960Y50821D01*
Y50796D01*
X-17955Y50776D01*
X-17950Y50721D01*
X-17940Y50656D01*
X-17915Y50586D01*
X-17885Y50506D01*
X-17845Y50431D01*
X-17785Y50356D01*
X-17775Y50346D01*
X-17755Y50326D01*
X-17715Y50296D01*
X-17655Y50261D01*
X-17585Y50221D01*
X-17495Y50181D01*
X-17390Y50151D01*
X-17270Y50126D01*
X-17355Y49656D01*
X-17360D01*
X-17375Y49661D01*
X-17400Y49666D01*
X-17435Y49676D01*
X-17470Y49686D01*
X-17520Y49701D01*
X-17570Y49716D01*
X-17625Y49736D01*
X-17740Y49791D01*
X-17860Y49856D01*
X-17980Y49941D01*
X-18035Y49991D01*
X-18085Y50046D01*
X-18090Y50051D01*
X-18095Y50061D01*
X-18110Y50076D01*
X-18125Y50101D01*
X-18145Y50131D01*
X-18170Y50166D01*
X-18195Y50211D01*
X-18220Y50256D01*
X-18240Y50311D01*
X-18265Y50366D01*
X-18310Y50496D01*
X-18340Y50646D01*
X-18345Y50726D01*
X-18350Y50811D01*
Y50866D01*
X-18345Y50891D01*
Y50926D01*
X-18335Y51001D01*
X-18315Y51091D01*
X-18295Y51186D01*
X-18260Y51286D01*
X-18215Y51386D01*
Y51391D01*
X-18210Y51396D01*
X-18200Y51411D01*
X-18190Y51431D01*
X-18160Y51476D01*
X-18120Y51536D01*
X-18065Y51601D01*
X-18000Y51671D01*
X-17930Y51736D01*
X-17845Y51791D01*
X-17840D01*
X-17835Y51796D01*
X-17805Y51816D01*
X-17755Y51836D01*
X-17695Y51866D01*
X-17620Y51891D01*
X-17535Y51916D01*
X-17445Y51931D01*
X-17350Y51936D01*
X-17345D01*
X-17340D01*
X-17310D01*
X-17260Y51931D01*
X-17200Y51921D01*
X-17130Y51901D01*
X-17055Y51881D01*
X-16975Y51846D01*
X-16895Y51801D01*
X-16885Y51796D01*
X-16860Y51776D01*
X-16825Y51746D01*
X-16780Y51701D01*
X-16725Y51646D01*
X-16670Y51576D01*
X-16620Y51496D01*
X-16570Y51406D01*
Y51411D01*
X-16565Y51421D01*
X-16560Y51441D01*
X-16555Y51461D01*
X-16545Y51491D01*
X-16530Y51526D01*
X-16500Y51601D01*
X-16455Y51686D01*
X-16395Y51771D01*
X-16325Y51861D01*
X-16240Y51936D01*
X-16235D01*
X-16230Y51946D01*
X-16215Y51956D01*
X-16195Y51966D01*
X-16170Y51981D01*
X-16145Y51996D01*
X-16070Y52031D01*
X-15980Y52066D01*
X-15875Y52096D01*
X-15760Y52116D01*
X-15625Y52126D01*
X-15620D01*
X-15605D01*
X-15575D01*
X-15540Y52121D01*
D02*
G37*
G36*
X150827Y-17670D02*
X150862D01*
X150902Y-17675D01*
X150997Y-17695D01*
X151097Y-17720D01*
X151202Y-17760D01*
X151307Y-17820D01*
X151352Y-17855D01*
X151397Y-17895D01*
X151402Y-17900D01*
X151407Y-17905D01*
X151417Y-17920D01*
X151432Y-17940D01*
X151447Y-17965D01*
X151467Y-17995D01*
X151487Y-18030D01*
X151512Y-18070D01*
X151532Y-18115D01*
X151552Y-18170D01*
X151572Y-18225D01*
X151587Y-18290D01*
X151602Y-18360D01*
X151612Y-18435D01*
X151622Y-18520D01*
Y-18605D01*
Y-20510D01*
X151152D01*
Y-18760D01*
Y-18755D01*
Y-18750D01*
Y-18735D01*
Y-18715D01*
Y-18665D01*
X151147Y-18605D01*
X151142Y-18540D01*
X151132Y-18470D01*
X151122Y-18410D01*
X151107Y-18355D01*
Y-18350D01*
X151097Y-18335D01*
X151087Y-18310D01*
X151067Y-18285D01*
X151047Y-18250D01*
X151017Y-18220D01*
X150982Y-18185D01*
X150937Y-18155D01*
X150932Y-18150D01*
X150917Y-18140D01*
X150892Y-18130D01*
X150857Y-18115D01*
X150817Y-18100D01*
X150767Y-18085D01*
X150717Y-18080D01*
X150657Y-18075D01*
X150627D01*
X150607Y-18080D01*
X150552Y-18085D01*
X150482Y-18100D01*
X150402Y-18125D01*
X150322Y-18160D01*
X150237Y-18210D01*
X150162Y-18275D01*
X150152Y-18285D01*
X150132Y-18310D01*
X150102Y-18360D01*
X150067Y-18425D01*
X150047Y-18465D01*
X150027Y-18510D01*
X150012Y-18565D01*
X149997Y-18620D01*
X149987Y-18680D01*
X149977Y-18745D01*
X149967Y-18820D01*
Y-18895D01*
Y-20510D01*
X149497D01*
Y-18705D01*
Y-18700D01*
Y-18690D01*
Y-18675D01*
Y-18655D01*
X149492Y-18595D01*
X149482Y-18530D01*
X149467Y-18450D01*
X149447Y-18375D01*
X149422Y-18300D01*
X149382Y-18235D01*
X149377Y-18230D01*
X149362Y-18210D01*
X149332Y-18185D01*
X149292Y-18155D01*
X149242Y-18125D01*
X149177Y-18100D01*
X149097Y-18080D01*
X149007Y-18075D01*
X148972D01*
X148937Y-18080D01*
X148887Y-18090D01*
X148827Y-18100D01*
X148767Y-18120D01*
X148702Y-18145D01*
X148637Y-18180D01*
X148632Y-18185D01*
X148607Y-18200D01*
X148577Y-18225D01*
X148542Y-18260D01*
X148502Y-18300D01*
X148462Y-18355D01*
X148422Y-18420D01*
X148387Y-18490D01*
X148382Y-18500D01*
X148377Y-18525D01*
X148362Y-18575D01*
X148352Y-18635D01*
X148337Y-18720D01*
X148322Y-18820D01*
X148317Y-18935D01*
X148312Y-19070D01*
Y-20510D01*
X147842D01*
Y-17725D01*
X148262D01*
Y-18120D01*
X148267Y-18110D01*
X148287Y-18085D01*
X148317Y-18050D01*
X148357Y-18000D01*
X148407Y-17950D01*
X148467Y-17895D01*
X148537Y-17840D01*
X148612Y-17790D01*
X148617D01*
X148622Y-17785D01*
X148652Y-17770D01*
X148697Y-17750D01*
X148757Y-17725D01*
X148832Y-17705D01*
X148912Y-17685D01*
X149007Y-17670D01*
X149107Y-17665D01*
X149157D01*
X149217Y-17670D01*
X149287Y-17680D01*
X149367Y-17695D01*
X149452Y-17720D01*
X149532Y-17750D01*
X149612Y-17795D01*
X149622Y-17800D01*
X149647Y-17820D01*
X149682Y-17850D01*
X149722Y-17890D01*
X149772Y-17940D01*
X149817Y-18000D01*
X149862Y-18075D01*
X149897Y-18155D01*
X149902Y-18150D01*
X149912Y-18135D01*
X149932Y-18110D01*
X149957Y-18080D01*
X149992Y-18040D01*
X150032Y-18000D01*
X150077Y-17955D01*
X150127Y-17910D01*
X150187Y-17865D01*
X150252Y-17820D01*
X150322Y-17780D01*
X150397Y-17740D01*
X150482Y-17710D01*
X150567Y-17685D01*
X150662Y-17670D01*
X150757Y-17665D01*
X150797D01*
X150827Y-17670D01*
D02*
G37*
G36*
X146352D02*
X146387D01*
X146427Y-17675D01*
X146522Y-17695D01*
X146622Y-17720D01*
X146727Y-17760D01*
X146832Y-17820D01*
X146877Y-17855D01*
X146922Y-17895D01*
X146927Y-17900D01*
X146932Y-17905D01*
X146942Y-17920D01*
X146957Y-17940D01*
X146972Y-17965D01*
X146992Y-17995D01*
X147012Y-18030D01*
X147037Y-18070D01*
X147057Y-18115D01*
X147077Y-18170D01*
X147097Y-18225D01*
X147112Y-18290D01*
X147127Y-18360D01*
X147137Y-18435D01*
X147147Y-18520D01*
Y-18605D01*
Y-20510D01*
X146677D01*
Y-18760D01*
Y-18755D01*
Y-18750D01*
Y-18735D01*
Y-18715D01*
Y-18665D01*
X146672Y-18605D01*
X146667Y-18540D01*
X146657Y-18470D01*
X146647Y-18410D01*
X146632Y-18355D01*
Y-18350D01*
X146622Y-18335D01*
X146612Y-18310D01*
X146592Y-18285D01*
X146572Y-18250D01*
X146542Y-18220D01*
X146507Y-18185D01*
X146462Y-18155D01*
X146457Y-18150D01*
X146442Y-18140D01*
X146417Y-18130D01*
X146382Y-18115D01*
X146342Y-18100D01*
X146292Y-18085D01*
X146242Y-18080D01*
X146182Y-18075D01*
X146152D01*
X146132Y-18080D01*
X146077Y-18085D01*
X146007Y-18100D01*
X145927Y-18125D01*
X145847Y-18160D01*
X145762Y-18210D01*
X145687Y-18275D01*
X145677Y-18285D01*
X145657Y-18310D01*
X145627Y-18360D01*
X145592Y-18425D01*
X145572Y-18465D01*
X145552Y-18510D01*
X145537Y-18565D01*
X145522Y-18620D01*
X145512Y-18680D01*
X145502Y-18745D01*
X145492Y-18820D01*
Y-18895D01*
Y-20510D01*
X145022D01*
Y-18705D01*
Y-18700D01*
Y-18690D01*
Y-18675D01*
Y-18655D01*
X145017Y-18595D01*
X145007Y-18530D01*
X144992Y-18450D01*
X144972Y-18375D01*
X144947Y-18300D01*
X144907Y-18235D01*
X144902Y-18230D01*
X144887Y-18210D01*
X144857Y-18185D01*
X144817Y-18155D01*
X144767Y-18125D01*
X144702Y-18100D01*
X144622Y-18080D01*
X144532Y-18075D01*
X144497D01*
X144462Y-18080D01*
X144412Y-18090D01*
X144352Y-18100D01*
X144292Y-18120D01*
X144227Y-18145D01*
X144162Y-18180D01*
X144157Y-18185D01*
X144132Y-18200D01*
X144102Y-18225D01*
X144067Y-18260D01*
X144027Y-18300D01*
X143987Y-18355D01*
X143947Y-18420D01*
X143912Y-18490D01*
X143907Y-18500D01*
X143902Y-18525D01*
X143887Y-18575D01*
X143877Y-18635D01*
X143862Y-18720D01*
X143847Y-18820D01*
X143842Y-18935D01*
X143837Y-19070D01*
Y-20510D01*
X143367D01*
Y-17725D01*
X143787D01*
Y-18120D01*
X143792Y-18110D01*
X143812Y-18085D01*
X143842Y-18050D01*
X143882Y-18000D01*
X143932Y-17950D01*
X143992Y-17895D01*
X144062Y-17840D01*
X144137Y-17790D01*
X144142D01*
X144147Y-17785D01*
X144177Y-17770D01*
X144222Y-17750D01*
X144282Y-17725D01*
X144357Y-17705D01*
X144437Y-17685D01*
X144532Y-17670D01*
X144632Y-17665D01*
X144682D01*
X144742Y-17670D01*
X144812Y-17680D01*
X144892Y-17695D01*
X144977Y-17720D01*
X145057Y-17750D01*
X145137Y-17795D01*
X145147Y-17800D01*
X145172Y-17820D01*
X145207Y-17850D01*
X145247Y-17890D01*
X145297Y-17940D01*
X145342Y-18000D01*
X145387Y-18075D01*
X145422Y-18155D01*
X145427Y-18150D01*
X145437Y-18135D01*
X145457Y-18110D01*
X145482Y-18080D01*
X145517Y-18040D01*
X145557Y-18000D01*
X145602Y-17955D01*
X145652Y-17910D01*
X145712Y-17865D01*
X145777Y-17820D01*
X145847Y-17780D01*
X145922Y-17740D01*
X146007Y-17710D01*
X146092Y-17685D01*
X146187Y-17670D01*
X146282Y-17665D01*
X146322D01*
X146352Y-17670D01*
D02*
G37*
G36*
X134152Y-16655D02*
X134202Y-16660D01*
X134257Y-16665D01*
X134317Y-16675D01*
X134382Y-16690D01*
X134522Y-16725D01*
X134592Y-16750D01*
X134667Y-16780D01*
X134742Y-16815D01*
X134812Y-16860D01*
X134877Y-16905D01*
X134942Y-16960D01*
X134947Y-16965D01*
X134957Y-16975D01*
X134972Y-16990D01*
X134992Y-17015D01*
X135017Y-17045D01*
X135047Y-17080D01*
X135072Y-17120D01*
X135107Y-17170D01*
X135137Y-17220D01*
X135162Y-17280D01*
X135217Y-17410D01*
X135237Y-17480D01*
X135252Y-17555D01*
X135262Y-17635D01*
X135267Y-17720D01*
Y-17730D01*
Y-17760D01*
X135262Y-17805D01*
X135257Y-17865D01*
X135242Y-17930D01*
X135227Y-18010D01*
X135202Y-18090D01*
X135172Y-18175D01*
X135167Y-18185D01*
X135152Y-18215D01*
X135132Y-18260D01*
X135097Y-18315D01*
X135052Y-18385D01*
X134997Y-18465D01*
X134932Y-18555D01*
X134857Y-18645D01*
Y-18650D01*
X134847Y-18655D01*
X134832Y-18670D01*
X134817Y-18690D01*
X134792Y-18715D01*
X134762Y-18745D01*
X134727Y-18780D01*
X134682Y-18820D01*
X134637Y-18865D01*
X134582Y-18915D01*
X134522Y-18975D01*
X134457Y-19035D01*
X134382Y-19100D01*
X134307Y-19165D01*
X134217Y-19240D01*
X134127Y-19320D01*
X134122Y-19325D01*
X134107Y-19335D01*
X134087Y-19355D01*
X134057Y-19375D01*
X134027Y-19405D01*
X133987Y-19440D01*
X133902Y-19515D01*
X133807Y-19595D01*
X133717Y-19675D01*
X133677Y-19710D01*
X133642Y-19745D01*
X133607Y-19780D01*
X133582Y-19805D01*
X133577Y-19810D01*
X133562Y-19825D01*
X133542Y-19850D01*
X133512Y-19885D01*
X133482Y-19920D01*
X133447Y-19965D01*
X133382Y-20055D01*
X135272D01*
Y-20510D01*
X132727D01*
Y-20500D01*
Y-20480D01*
Y-20450D01*
X132732Y-20405D01*
X132737Y-20355D01*
X132747Y-20300D01*
X132762Y-20245D01*
X132782Y-20185D01*
Y-20180D01*
X132787Y-20175D01*
X132792Y-20160D01*
X132802Y-20140D01*
X132822Y-20090D01*
X132857Y-20025D01*
X132902Y-19945D01*
X132952Y-19860D01*
X133017Y-19770D01*
X133092Y-19675D01*
X133097Y-19670D01*
X133102Y-19665D01*
X133117Y-19650D01*
X133132Y-19630D01*
X133182Y-19575D01*
X133252Y-19505D01*
X133337Y-19420D01*
X133442Y-19320D01*
X133567Y-19210D01*
X133712Y-19090D01*
X133717Y-19085D01*
X133737Y-19065D01*
X133772Y-19040D01*
X133812Y-19005D01*
X133862Y-18960D01*
X133922Y-18910D01*
X133987Y-18855D01*
X134052Y-18795D01*
X134192Y-18665D01*
X134332Y-18530D01*
X134397Y-18460D01*
X134457Y-18395D01*
X134512Y-18335D01*
X134557Y-18275D01*
X134562Y-18270D01*
X134567Y-18260D01*
X134577Y-18245D01*
X134592Y-18225D01*
X134607Y-18195D01*
X134627Y-18165D01*
X134672Y-18090D01*
X134712Y-18005D01*
X134747Y-17910D01*
X134772Y-17805D01*
X134782Y-17755D01*
Y-17705D01*
Y-17700D01*
Y-17690D01*
Y-17680D01*
X134777Y-17660D01*
X134772Y-17605D01*
X134757Y-17540D01*
X134732Y-17465D01*
X134697Y-17390D01*
X134647Y-17310D01*
X134577Y-17235D01*
X134567Y-17225D01*
X134542Y-17205D01*
X134497Y-17175D01*
X134437Y-17135D01*
X134362Y-17100D01*
X134272Y-17070D01*
X134167Y-17050D01*
X134052Y-17040D01*
X134017D01*
X133997Y-17045D01*
X133967D01*
X133932Y-17050D01*
X133857Y-17065D01*
X133772Y-17090D01*
X133677Y-17125D01*
X133587Y-17175D01*
X133507Y-17245D01*
X133497Y-17255D01*
X133477Y-17280D01*
X133442Y-17330D01*
X133407Y-17390D01*
X133367Y-17475D01*
X133332Y-17570D01*
X133312Y-17680D01*
X133302Y-17810D01*
X132817Y-17760D01*
Y-17755D01*
X132822Y-17735D01*
Y-17710D01*
X132827Y-17670D01*
X132837Y-17625D01*
X132847Y-17575D01*
X132862Y-17515D01*
X132882Y-17455D01*
X132927Y-17320D01*
X132957Y-17250D01*
X132992Y-17185D01*
X133032Y-17115D01*
X133077Y-17050D01*
X133127Y-16990D01*
X133187Y-16935D01*
X133192Y-16930D01*
X133202Y-16925D01*
X133222Y-16910D01*
X133247Y-16890D01*
X133282Y-16870D01*
X133322Y-16845D01*
X133367Y-16820D01*
X133422Y-16790D01*
X133482Y-16765D01*
X133547Y-16740D01*
X133617Y-16715D01*
X133697Y-16695D01*
X133777Y-16675D01*
X133867Y-16660D01*
X133962Y-16655D01*
X134062Y-16650D01*
X134117D01*
X134152Y-16655D01*
D02*
G37*
G36*
X132327Y-17085D02*
X132322Y-17090D01*
X132312Y-17105D01*
X132292Y-17125D01*
X132262Y-17155D01*
X132232Y-17195D01*
X132192Y-17245D01*
X132147Y-17300D01*
X132097Y-17360D01*
X132042Y-17430D01*
X131987Y-17510D01*
X131927Y-17595D01*
X131862Y-17690D01*
X131797Y-17785D01*
X131732Y-17895D01*
X131667Y-18005D01*
X131597Y-18125D01*
X131592Y-18130D01*
X131582Y-18155D01*
X131562Y-18190D01*
X131537Y-18235D01*
X131507Y-18295D01*
X131477Y-18365D01*
X131437Y-18445D01*
X131397Y-18535D01*
X131352Y-18630D01*
X131307Y-18735D01*
X131262Y-18845D01*
X131217Y-18960D01*
X131127Y-19200D01*
X131047Y-19455D01*
Y-19460D01*
X131042Y-19475D01*
X131032Y-19505D01*
X131022Y-19540D01*
X131012Y-19585D01*
X130997Y-19640D01*
X130987Y-19700D01*
X130972Y-19770D01*
X130957Y-19845D01*
X130937Y-19925D01*
X130922Y-20015D01*
X130912Y-20105D01*
X130887Y-20300D01*
X130867Y-20510D01*
X130382D01*
Y-20505D01*
Y-20490D01*
Y-20465D01*
X130387Y-20430D01*
Y-20385D01*
X130392Y-20335D01*
X130397Y-20275D01*
X130407Y-20205D01*
X130417Y-20130D01*
X130427Y-20045D01*
X130442Y-19955D01*
X130457Y-19860D01*
X130477Y-19760D01*
X130502Y-19650D01*
X130527Y-19540D01*
X130557Y-19420D01*
Y-19410D01*
X130567Y-19390D01*
X130577Y-19355D01*
X130587Y-19310D01*
X130607Y-19250D01*
X130627Y-19185D01*
X130652Y-19110D01*
X130682Y-19025D01*
X130712Y-18930D01*
X130752Y-18835D01*
X130832Y-18625D01*
X130932Y-18405D01*
X131042Y-18180D01*
X131047Y-18175D01*
X131057Y-18155D01*
X131072Y-18120D01*
X131097Y-18080D01*
X131127Y-18030D01*
X131162Y-17970D01*
X131202Y-17900D01*
X131247Y-17830D01*
X131347Y-17670D01*
X131462Y-17500D01*
X131592Y-17330D01*
X131722Y-17170D01*
X129842D01*
Y-16715D01*
X132327D01*
Y-17085D01*
D02*
G37*
G36*
X141587Y-16655D02*
X141617D01*
X141692Y-16665D01*
X141777Y-16680D01*
X141867Y-16705D01*
X141962Y-16735D01*
X142052Y-16775D01*
X142057D01*
X142062Y-16780D01*
X142092Y-16800D01*
X142132Y-16825D01*
X142187Y-16865D01*
X142247Y-16920D01*
X142312Y-16980D01*
X142377Y-17050D01*
X142437Y-17135D01*
Y-17140D01*
X142442Y-17145D01*
X142452Y-17160D01*
X142462Y-17175D01*
X142487Y-17225D01*
X142522Y-17295D01*
X142562Y-17380D01*
X142602Y-17475D01*
X142637Y-17590D01*
X142672Y-17710D01*
Y-17715D01*
X142677Y-17725D01*
X142682Y-17745D01*
X142687Y-17770D01*
X142692Y-17805D01*
X142702Y-17845D01*
X142707Y-17895D01*
X142717Y-17950D01*
X142727Y-18010D01*
X142732Y-18080D01*
X142742Y-18150D01*
X142747Y-18235D01*
X142752Y-18320D01*
X142757Y-18410D01*
X142762Y-18510D01*
Y-18615D01*
Y-18625D01*
Y-18645D01*
Y-18680D01*
Y-18730D01*
X142757Y-18785D01*
Y-18850D01*
X142752Y-18925D01*
X142747Y-19005D01*
X142727Y-19180D01*
X142702Y-19365D01*
X142667Y-19545D01*
X142647Y-19630D01*
X142622Y-19710D01*
Y-19715D01*
X142617Y-19730D01*
X142607Y-19750D01*
X142597Y-19780D01*
X142582Y-19815D01*
X142562Y-19855D01*
X142517Y-19945D01*
X142457Y-20050D01*
X142387Y-20155D01*
X142302Y-20260D01*
X142202Y-20350D01*
X142197D01*
X142192Y-20360D01*
X142172Y-20370D01*
X142152Y-20385D01*
X142127Y-20400D01*
X142092Y-20420D01*
X142057Y-20440D01*
X142012Y-20460D01*
X141912Y-20505D01*
X141792Y-20540D01*
X141657Y-20565D01*
X141582Y-20570D01*
X141507Y-20575D01*
X141482D01*
X141452Y-20570D01*
X141417D01*
X141367Y-20565D01*
X141317Y-20555D01*
X141257Y-20540D01*
X141192Y-20525D01*
X141122Y-20505D01*
X141052Y-20480D01*
X140977Y-20445D01*
X140902Y-20410D01*
X140832Y-20365D01*
X140762Y-20310D01*
X140697Y-20250D01*
X140632Y-20180D01*
X140627Y-20175D01*
X140617Y-20155D01*
X140597Y-20130D01*
X140572Y-20090D01*
X140547Y-20035D01*
X140512Y-19970D01*
X140482Y-19895D01*
X140447Y-19805D01*
X140412Y-19700D01*
X140377Y-19585D01*
X140342Y-19460D01*
X140317Y-19315D01*
X140292Y-19160D01*
X140272Y-18995D01*
X140262Y-18810D01*
X140257Y-18615D01*
Y-18605D01*
Y-18585D01*
Y-18550D01*
Y-18500D01*
X140262Y-18445D01*
X140267Y-18380D01*
Y-18305D01*
X140277Y-18225D01*
X140292Y-18050D01*
X140317Y-17865D01*
X140352Y-17685D01*
X140372Y-17600D01*
X140397Y-17520D01*
Y-17515D01*
X140402Y-17500D01*
X140412Y-17480D01*
X140422Y-17450D01*
X140437Y-17415D01*
X140457Y-17375D01*
X140502Y-17280D01*
X140562Y-17180D01*
X140632Y-17070D01*
X140717Y-16965D01*
X140812Y-16875D01*
X140817Y-16870D01*
X140827Y-16865D01*
X140842Y-16855D01*
X140862Y-16840D01*
X140887Y-16825D01*
X140922Y-16805D01*
X140957Y-16785D01*
X141002Y-16760D01*
X141102Y-16720D01*
X141222Y-16685D01*
X141357Y-16660D01*
X141432Y-16650D01*
X141557D01*
X141587Y-16655D01*
D02*
G37*
G36*
X138602D02*
X138632D01*
X138707Y-16665D01*
X138792Y-16680D01*
X138882Y-16705D01*
X138977Y-16735D01*
X139067Y-16775D01*
X139072D01*
X139077Y-16780D01*
X139107Y-16800D01*
X139147Y-16825D01*
X139202Y-16865D01*
X139262Y-16920D01*
X139327Y-16980D01*
X139392Y-17050D01*
X139452Y-17135D01*
Y-17140D01*
X139457Y-17145D01*
X139467Y-17160D01*
X139477Y-17175D01*
X139502Y-17225D01*
X139537Y-17295D01*
X139577Y-17380D01*
X139617Y-17475D01*
X139652Y-17590D01*
X139687Y-17710D01*
Y-17715D01*
X139692Y-17725D01*
X139697Y-17745D01*
X139702Y-17770D01*
X139707Y-17805D01*
X139717Y-17845D01*
X139722Y-17895D01*
X139732Y-17950D01*
X139742Y-18010D01*
X139747Y-18080D01*
X139757Y-18150D01*
X139762Y-18235D01*
X139767Y-18320D01*
X139772Y-18410D01*
X139777Y-18510D01*
Y-18615D01*
Y-18625D01*
Y-18645D01*
Y-18680D01*
Y-18730D01*
X139772Y-18785D01*
Y-18850D01*
X139767Y-18925D01*
X139762Y-19005D01*
X139742Y-19180D01*
X139717Y-19365D01*
X139682Y-19545D01*
X139662Y-19630D01*
X139637Y-19710D01*
Y-19715D01*
X139632Y-19730D01*
X139622Y-19750D01*
X139612Y-19780D01*
X139597Y-19815D01*
X139577Y-19855D01*
X139532Y-19945D01*
X139472Y-20050D01*
X139402Y-20155D01*
X139317Y-20260D01*
X139217Y-20350D01*
X139212D01*
X139207Y-20360D01*
X139187Y-20370D01*
X139167Y-20385D01*
X139142Y-20400D01*
X139107Y-20420D01*
X139072Y-20440D01*
X139027Y-20460D01*
X138927Y-20505D01*
X138807Y-20540D01*
X138672Y-20565D01*
X138597Y-20570D01*
X138522Y-20575D01*
X138497D01*
X138467Y-20570D01*
X138432D01*
X138382Y-20565D01*
X138332Y-20555D01*
X138272Y-20540D01*
X138207Y-20525D01*
X138137Y-20505D01*
X138067Y-20480D01*
X137992Y-20445D01*
X137917Y-20410D01*
X137847Y-20365D01*
X137777Y-20310D01*
X137712Y-20250D01*
X137647Y-20180D01*
X137642Y-20175D01*
X137632Y-20155D01*
X137612Y-20130D01*
X137587Y-20090D01*
X137562Y-20035D01*
X137527Y-19970D01*
X137497Y-19895D01*
X137462Y-19805D01*
X137427Y-19700D01*
X137392Y-19585D01*
X137357Y-19460D01*
X137332Y-19315D01*
X137307Y-19160D01*
X137287Y-18995D01*
X137277Y-18810D01*
X137272Y-18615D01*
Y-18605D01*
Y-18585D01*
Y-18550D01*
Y-18500D01*
X137277Y-18445D01*
X137282Y-18380D01*
Y-18305D01*
X137292Y-18225D01*
X137307Y-18050D01*
X137332Y-17865D01*
X137367Y-17685D01*
X137387Y-17600D01*
X137412Y-17520D01*
Y-17515D01*
X137417Y-17500D01*
X137427Y-17480D01*
X137437Y-17450D01*
X137452Y-17415D01*
X137472Y-17375D01*
X137517Y-17280D01*
X137577Y-17180D01*
X137647Y-17070D01*
X137732Y-16965D01*
X137827Y-16875D01*
X137832Y-16870D01*
X137842Y-16865D01*
X137857Y-16855D01*
X137877Y-16840D01*
X137902Y-16825D01*
X137937Y-16805D01*
X137972Y-16785D01*
X138017Y-16760D01*
X138117Y-16720D01*
X138237Y-16685D01*
X138372Y-16660D01*
X138447Y-16650D01*
X138572D01*
X138602Y-16655D01*
D02*
G37*
G36*
X136572Y-20510D02*
Y-20515D01*
Y-20525D01*
Y-20540D01*
Y-20560D01*
X136567Y-20615D01*
X136557Y-20680D01*
X136547Y-20755D01*
X136527Y-20835D01*
X136497Y-20915D01*
X136462Y-20985D01*
X136457Y-20995D01*
X136442Y-21015D01*
X136417Y-21050D01*
X136382Y-21090D01*
X136337Y-21135D01*
X136277Y-21185D01*
X136212Y-21230D01*
X136132Y-21270D01*
X136002Y-21070D01*
X136007Y-21065D01*
X136027Y-21055D01*
X136052Y-21040D01*
X136082Y-21020D01*
X136117Y-20990D01*
X136152Y-20955D01*
X136187Y-20915D01*
X136217Y-20870D01*
X136222Y-20865D01*
X136227Y-20845D01*
X136242Y-20820D01*
X136257Y-20780D01*
X136272Y-20725D01*
X136282Y-20665D01*
X136292Y-20595D01*
X136297Y-20510D01*
X136032D01*
Y-19970D01*
X136572D01*
Y-20510D01*
D02*
G37*
%LPC*%
G36*
X141502Y-17040D02*
X141472D01*
X141447Y-17045D01*
X141387Y-17055D01*
X141317Y-17075D01*
X141232Y-17110D01*
X141147Y-17160D01*
X141102Y-17190D01*
X141062Y-17225D01*
X141022Y-17270D01*
X140982Y-17320D01*
X140977Y-17325D01*
X140972Y-17335D01*
X140962Y-17360D01*
X140947Y-17390D01*
X140927Y-17430D01*
X140907Y-17480D01*
X140887Y-17540D01*
X140862Y-17615D01*
X140842Y-17695D01*
X140817Y-17790D01*
X140797Y-17895D01*
X140782Y-18015D01*
X140762Y-18145D01*
X140752Y-18290D01*
X140747Y-18445D01*
X140742Y-18615D01*
Y-18620D01*
Y-18625D01*
Y-18655D01*
Y-18705D01*
X140747Y-18770D01*
Y-18845D01*
X140752Y-18930D01*
X140762Y-19025D01*
X140772Y-19130D01*
X140797Y-19340D01*
X140812Y-19445D01*
X140837Y-19545D01*
X140862Y-19645D01*
X140892Y-19730D01*
X140922Y-19810D01*
X140962Y-19875D01*
X140967Y-19880D01*
X140972Y-19890D01*
X140987Y-19905D01*
X141002Y-19925D01*
X141047Y-19975D01*
X141112Y-20030D01*
X141192Y-20085D01*
X141287Y-20135D01*
X141337Y-20155D01*
X141392Y-20170D01*
X141447Y-20180D01*
X141507Y-20185D01*
X141537D01*
X141562Y-20180D01*
X141587Y-20175D01*
X141622Y-20170D01*
X141697Y-20145D01*
X141782Y-20110D01*
X141827Y-20085D01*
X141872Y-20055D01*
X141922Y-20020D01*
X141967Y-19975D01*
X142012Y-19930D01*
X142052Y-19875D01*
X142057Y-19870D01*
X142062Y-19860D01*
X142072Y-19840D01*
X142087Y-19810D01*
X142102Y-19775D01*
X142122Y-19725D01*
X142142Y-19670D01*
X142167Y-19600D01*
X142187Y-19520D01*
X142207Y-19430D01*
X142227Y-19325D01*
X142242Y-19210D01*
X142257Y-19080D01*
X142267Y-18940D01*
X142277Y-18785D01*
Y-18615D01*
Y-18610D01*
Y-18605D01*
Y-18575D01*
Y-18525D01*
X142272Y-18460D01*
Y-18385D01*
X142267Y-18300D01*
X142257Y-18200D01*
X142247Y-18100D01*
X142222Y-17890D01*
X142202Y-17785D01*
X142182Y-17680D01*
X142157Y-17585D01*
X142127Y-17500D01*
X142092Y-17420D01*
X142052Y-17355D01*
Y-17350D01*
X142042Y-17340D01*
X142032Y-17325D01*
X142012Y-17305D01*
X141967Y-17255D01*
X141902Y-17195D01*
X141822Y-17140D01*
X141727Y-17090D01*
X141677Y-17070D01*
X141622Y-17055D01*
X141562Y-17045D01*
X141502Y-17040D01*
D02*
G37*
G36*
X138517D02*
X138487D01*
X138462Y-17045D01*
X138402Y-17055D01*
X138332Y-17075D01*
X138247Y-17110D01*
X138162Y-17160D01*
X138117Y-17190D01*
X138077Y-17225D01*
X138037Y-17270D01*
X137997Y-17320D01*
X137992Y-17325D01*
X137987Y-17335D01*
X137977Y-17360D01*
X137962Y-17390D01*
X137942Y-17430D01*
X137922Y-17480D01*
X137902Y-17540D01*
X137877Y-17615D01*
X137857Y-17695D01*
X137832Y-17790D01*
X137812Y-17895D01*
X137797Y-18015D01*
X137777Y-18145D01*
X137767Y-18290D01*
X137762Y-18445D01*
X137757Y-18615D01*
Y-18620D01*
Y-18625D01*
Y-18655D01*
Y-18705D01*
X137762Y-18770D01*
Y-18845D01*
X137767Y-18930D01*
X137777Y-19025D01*
X137787Y-19130D01*
X137812Y-19340D01*
X137827Y-19445D01*
X137852Y-19545D01*
X137877Y-19645D01*
X137907Y-19730D01*
X137937Y-19810D01*
X137977Y-19875D01*
X137982Y-19880D01*
X137987Y-19890D01*
X138002Y-19905D01*
X138017Y-19925D01*
X138062Y-19975D01*
X138127Y-20030D01*
X138207Y-20085D01*
X138302Y-20135D01*
X138352Y-20155D01*
X138407Y-20170D01*
X138462Y-20180D01*
X138522Y-20185D01*
X138552D01*
X138577Y-20180D01*
X138602Y-20175D01*
X138637Y-20170D01*
X138712Y-20145D01*
X138797Y-20110D01*
X138842Y-20085D01*
X138887Y-20055D01*
X138937Y-20020D01*
X138982Y-19975D01*
X139027Y-19930D01*
X139067Y-19875D01*
X139072Y-19870D01*
X139077Y-19860D01*
X139087Y-19840D01*
X139102Y-19810D01*
X139117Y-19775D01*
X139137Y-19725D01*
X139157Y-19670D01*
X139182Y-19600D01*
X139202Y-19520D01*
X139222Y-19430D01*
X139242Y-19325D01*
X139257Y-19210D01*
X139272Y-19080D01*
X139282Y-18940D01*
X139292Y-18785D01*
Y-18615D01*
Y-18610D01*
Y-18605D01*
Y-18575D01*
Y-18525D01*
X139287Y-18460D01*
Y-18385D01*
X139282Y-18300D01*
X139272Y-18200D01*
X139262Y-18100D01*
X139237Y-17890D01*
X139217Y-17785D01*
X139197Y-17680D01*
X139172Y-17585D01*
X139142Y-17500D01*
X139107Y-17420D01*
X139067Y-17355D01*
Y-17350D01*
X139057Y-17340D01*
X139047Y-17325D01*
X139027Y-17305D01*
X138982Y-17255D01*
X138917Y-17195D01*
X138837Y-17140D01*
X138742Y-17090D01*
X138692Y-17070D01*
X138637Y-17055D01*
X138577Y-17045D01*
X138517Y-17040D01*
D02*
G37*
%LPD*%
D10*
X-16800Y123031D02*
X-14800Y117032D01*
X-18800D02*
X-16800Y123031D01*
X-18800Y6000D02*
X-16800Y0D01*
X-14800Y6000D01*
X-16800Y72421D02*
Y123031D01*
Y0D02*
Y48611D01*
X-17800Y123031D02*
X-1500D01*
X-17800Y0D02*
X-1500D01*
X0Y-18200D02*
X6000Y-16200D01*
X0Y-18200D02*
X6000Y-20200D01*
X277465D02*
X283465Y-18200D01*
X277465Y-16200D02*
X283465Y-18200D01*
X0D02*
X128842D01*
X152622D02*
X283465D01*
X0Y-19200D02*
Y-1500D01*
X283465Y-19200D02*
Y-1500D01*
X-0Y123031D02*
X283465D01*
X283465D02*
X283465Y0D01*
X0D02*
X283465D01*
X-0Y123031D02*
X0Y0D01*
M02*
