G04*
G04 #@! TF.GenerationSoftware,Altium Limited,Altium Designer,19.0.14 (431)*
G04*
G04 Layer_Color=10517442*
%FSLAX25Y25*%
%MOIN*%
G70*
G01*
G75*
%ADD10C,0.01000*%
%ADD35C,0.10243*%
%ADD36R,0.10243X0.10243*%
%ADD37C,0.24022*%
%ADD38C,0.09061*%
G36*
X254718Y35500D02*
X253335D01*
X251036Y41906D01*
X252410D01*
X253984Y37166D01*
X255601Y41906D01*
X257000D01*
X254718Y35500D01*
D02*
G37*
G36*
X243439Y38482D02*
Y38291D01*
X243430Y38107D01*
Y37932D01*
X243422Y37774D01*
X243405Y37624D01*
X243397Y37491D01*
X243389Y37374D01*
X243372Y37266D01*
X243364Y37166D01*
X243355Y37083D01*
X243339Y37016D01*
X243331Y36958D01*
X243322Y36908D01*
Y36874D01*
X243314Y36858D01*
Y36849D01*
X243272Y36716D01*
X243222Y36583D01*
X243164Y36466D01*
X243106Y36358D01*
X243047Y36266D01*
X242997Y36200D01*
X242964Y36158D01*
X242956Y36141D01*
X242847Y36016D01*
X242722Y35908D01*
X242597Y35816D01*
X242481Y35742D01*
X242372Y35675D01*
X242281Y35633D01*
X242248Y35617D01*
X242223Y35600D01*
X242214Y35592D01*
X242206D01*
X242114Y35558D01*
X242006Y35525D01*
X241789Y35475D01*
X241556Y35433D01*
X241331Y35408D01*
X241223Y35400D01*
X241123Y35392D01*
X241031D01*
X240956Y35383D01*
X240807D01*
X240532Y35392D01*
X240290Y35417D01*
X240082Y35442D01*
X239990Y35458D01*
X239907Y35483D01*
X239832Y35500D01*
X239765Y35517D01*
X239707Y35533D01*
X239657Y35542D01*
X239624Y35558D01*
X239599Y35567D01*
X239582Y35575D01*
X239574D01*
X239407Y35650D01*
X239257Y35733D01*
X239124Y35825D01*
X239024Y35908D01*
X238932Y35975D01*
X238874Y36041D01*
X238832Y36075D01*
X238824Y36091D01*
X238724Y36225D01*
X238641Y36358D01*
X238574Y36491D01*
X238524Y36625D01*
X238482Y36733D01*
X238457Y36825D01*
X238441Y36858D01*
Y36883D01*
X238432Y36891D01*
Y36899D01*
X238416Y36999D01*
X238399Y37108D01*
X238383Y37233D01*
X238366Y37358D01*
X238349Y37633D01*
X238341Y37899D01*
X238333Y38024D01*
Y38141D01*
X238324Y38249D01*
Y38349D01*
Y38424D01*
Y38482D01*
Y38515D01*
Y38532D01*
Y41906D01*
X239615D01*
Y38357D01*
Y38216D01*
Y38091D01*
X239624Y37974D01*
Y37866D01*
X239632Y37766D01*
Y37674D01*
X239640Y37599D01*
Y37524D01*
X239649Y37466D01*
X239657Y37408D01*
Y37366D01*
X239665Y37333D01*
X239674Y37283D01*
Y37266D01*
X239707Y37149D01*
X239749Y37041D01*
X239807Y36949D01*
X239865Y36866D01*
X239924Y36808D01*
X239973Y36758D01*
X239999Y36724D01*
X240015Y36716D01*
X240132Y36641D01*
X240265Y36583D01*
X240407Y36550D01*
X240540Y36516D01*
X240656Y36500D01*
X240757Y36491D01*
X240848D01*
X241040Y36500D01*
X241206Y36525D01*
X241356Y36566D01*
X241481Y36608D01*
X241581Y36650D01*
X241648Y36691D01*
X241689Y36716D01*
X241706Y36724D01*
X241814Y36825D01*
X241898Y36924D01*
X241973Y37033D01*
X242023Y37133D01*
X242064Y37224D01*
X242089Y37291D01*
X242098Y37341D01*
X242106Y37349D01*
Y37358D01*
X242114Y37408D01*
X242123Y37474D01*
Y37549D01*
X242131Y37624D01*
X242139Y37807D01*
Y37982D01*
X242148Y38157D01*
Y38232D01*
Y38299D01*
Y38357D01*
Y38399D01*
Y38424D01*
Y38432D01*
Y41906D01*
X243439D01*
Y38482D01*
D02*
G37*
G36*
X237416Y40823D02*
X235517D01*
Y35500D01*
X234226D01*
Y40823D01*
X232335D01*
Y41906D01*
X237416D01*
Y40823D01*
D02*
G37*
G36*
X247837Y42014D02*
X248104Y41981D01*
X248337Y41939D01*
X248445Y41914D01*
X248537Y41897D01*
X248628Y41872D01*
X248703Y41848D01*
X248770Y41822D01*
X248828Y41806D01*
X248878Y41789D01*
X248912Y41772D01*
X248928Y41764D01*
X248937D01*
X249103Y41681D01*
X249253Y41589D01*
X249395Y41498D01*
X249520Y41398D01*
X249620Y41314D01*
X249695Y41248D01*
X249745Y41198D01*
X249753Y41189D01*
X249761Y41181D01*
X249894Y41031D01*
X250011Y40881D01*
X250111Y40740D01*
X250194Y40598D01*
X250261Y40481D01*
X250311Y40390D01*
X250328Y40356D01*
X250344Y40331D01*
X250353Y40315D01*
Y40306D01*
X250453Y40048D01*
X250519Y39765D01*
X250569Y39490D01*
X250611Y39232D01*
X250619Y39115D01*
X250628Y39007D01*
X250636Y38907D01*
Y38824D01*
X250644Y38749D01*
Y38699D01*
Y38665D01*
Y38657D01*
X250636Y38374D01*
X250611Y38116D01*
X250569Y37866D01*
X250511Y37633D01*
X250453Y37416D01*
X250378Y37224D01*
X250303Y37041D01*
X250219Y36883D01*
X250144Y36733D01*
X250069Y36608D01*
X249994Y36500D01*
X249936Y36408D01*
X249878Y36341D01*
X249836Y36291D01*
X249811Y36258D01*
X249803Y36250D01*
X249636Y36100D01*
X249461Y35967D01*
X249278Y35850D01*
X249095Y35750D01*
X248903Y35667D01*
X248720Y35592D01*
X248528Y35542D01*
X248354Y35492D01*
X248187Y35458D01*
X248029Y35433D01*
X247895Y35408D01*
X247770Y35400D01*
X247670Y35392D01*
X247604Y35383D01*
X247537D01*
X247279Y35392D01*
X247037Y35425D01*
X246804Y35467D01*
X246587Y35517D01*
X246388Y35583D01*
X246204Y35658D01*
X246038Y35742D01*
X245888Y35825D01*
X245746Y35900D01*
X245630Y35983D01*
X245530Y36058D01*
X245438Y36125D01*
X245371Y36175D01*
X245330Y36225D01*
X245296Y36250D01*
X245288Y36258D01*
X245138Y36433D01*
X245005Y36616D01*
X244897Y36808D01*
X244796Y37008D01*
X244713Y37208D01*
X244647Y37416D01*
X244588Y37607D01*
X244547Y37799D01*
X244513Y37982D01*
X244480Y38149D01*
X244463Y38299D01*
X244455Y38432D01*
X244447Y38540D01*
X244438Y38624D01*
Y38674D01*
Y38682D01*
Y38690D01*
X244447Y38974D01*
X244472Y39248D01*
X244513Y39498D01*
X244572Y39732D01*
X244638Y39957D01*
X244705Y40156D01*
X244780Y40340D01*
X244863Y40506D01*
X244938Y40648D01*
X245022Y40781D01*
X245088Y40889D01*
X245155Y40981D01*
X245213Y41048D01*
X245255Y41098D01*
X245280Y41131D01*
X245288Y41139D01*
X245455Y41298D01*
X245630Y41431D01*
X245813Y41548D01*
X245996Y41647D01*
X246188Y41739D01*
X246379Y41806D01*
X246563Y41864D01*
X246737Y41914D01*
X246904Y41947D01*
X247062Y41972D01*
X247196Y41997D01*
X247321Y42006D01*
X247421Y42014D01*
X247487Y42022D01*
X247554D01*
X247837Y42014D01*
D02*
G37*
G36*
X254718Y50500D02*
X253335D01*
X251036Y56906D01*
X252410D01*
X253984Y52166D01*
X255601Y56906D01*
X257000D01*
X254718Y50500D01*
D02*
G37*
G36*
X243439Y53482D02*
Y53290D01*
X243430Y53107D01*
Y52932D01*
X243422Y52774D01*
X243405Y52624D01*
X243397Y52491D01*
X243389Y52374D01*
X243372Y52266D01*
X243364Y52166D01*
X243355Y52083D01*
X243339Y52016D01*
X243331Y51958D01*
X243322Y51908D01*
Y51875D01*
X243314Y51858D01*
Y51850D01*
X243272Y51716D01*
X243222Y51583D01*
X243164Y51466D01*
X243106Y51358D01*
X243047Y51266D01*
X242997Y51200D01*
X242964Y51158D01*
X242956Y51141D01*
X242847Y51016D01*
X242722Y50908D01*
X242597Y50817D01*
X242481Y50742D01*
X242372Y50675D01*
X242281Y50633D01*
X242248Y50617D01*
X242223Y50600D01*
X242214Y50592D01*
X242206D01*
X242114Y50558D01*
X242006Y50525D01*
X241789Y50475D01*
X241556Y50433D01*
X241331Y50408D01*
X241223Y50400D01*
X241123Y50392D01*
X241031D01*
X240956Y50383D01*
X240807D01*
X240532Y50392D01*
X240290Y50417D01*
X240082Y50442D01*
X239990Y50458D01*
X239907Y50483D01*
X239832Y50500D01*
X239765Y50517D01*
X239707Y50533D01*
X239657Y50542D01*
X239624Y50558D01*
X239599Y50567D01*
X239582Y50575D01*
X239574D01*
X239407Y50650D01*
X239257Y50733D01*
X239124Y50825D01*
X239024Y50908D01*
X238932Y50975D01*
X238874Y51041D01*
X238832Y51075D01*
X238824Y51091D01*
X238724Y51225D01*
X238641Y51358D01*
X238574Y51491D01*
X238524Y51625D01*
X238482Y51733D01*
X238457Y51824D01*
X238441Y51858D01*
Y51883D01*
X238432Y51891D01*
Y51899D01*
X238416Y51999D01*
X238399Y52108D01*
X238383Y52233D01*
X238366Y52358D01*
X238349Y52632D01*
X238341Y52899D01*
X238333Y53024D01*
Y53141D01*
X238324Y53249D01*
Y53349D01*
Y53424D01*
Y53482D01*
Y53515D01*
Y53532D01*
Y56906D01*
X239615D01*
Y53357D01*
Y53216D01*
Y53091D01*
X239624Y52974D01*
Y52866D01*
X239632Y52766D01*
Y52674D01*
X239640Y52599D01*
Y52524D01*
X239649Y52466D01*
X239657Y52408D01*
Y52366D01*
X239665Y52333D01*
X239674Y52283D01*
Y52266D01*
X239707Y52149D01*
X239749Y52041D01*
X239807Y51949D01*
X239865Y51866D01*
X239924Y51808D01*
X239973Y51758D01*
X239999Y51724D01*
X240015Y51716D01*
X240132Y51641D01*
X240265Y51583D01*
X240407Y51550D01*
X240540Y51516D01*
X240656Y51500D01*
X240757Y51491D01*
X240848D01*
X241040Y51500D01*
X241206Y51525D01*
X241356Y51566D01*
X241481Y51608D01*
X241581Y51649D01*
X241648Y51691D01*
X241689Y51716D01*
X241706Y51724D01*
X241814Y51824D01*
X241898Y51924D01*
X241973Y52033D01*
X242023Y52133D01*
X242064Y52224D01*
X242089Y52291D01*
X242098Y52341D01*
X242106Y52349D01*
Y52358D01*
X242114Y52408D01*
X242123Y52474D01*
Y52549D01*
X242131Y52624D01*
X242139Y52807D01*
Y52982D01*
X242148Y53157D01*
Y53232D01*
Y53299D01*
Y53357D01*
Y53399D01*
Y53424D01*
Y53432D01*
Y56906D01*
X243439D01*
Y53482D01*
D02*
G37*
G36*
X237416Y55823D02*
X235517D01*
Y50500D01*
X234226D01*
Y55823D01*
X232335D01*
Y56906D01*
X237416D01*
Y55823D01*
D02*
G37*
G36*
X247837Y57014D02*
X248104Y56981D01*
X248337Y56939D01*
X248445Y56914D01*
X248537Y56897D01*
X248628Y56872D01*
X248703Y56848D01*
X248770Y56823D01*
X248828Y56806D01*
X248878Y56789D01*
X248912Y56773D01*
X248928Y56764D01*
X248937D01*
X249103Y56681D01*
X249253Y56589D01*
X249395Y56498D01*
X249520Y56398D01*
X249620Y56314D01*
X249695Y56248D01*
X249745Y56198D01*
X249753Y56189D01*
X249761Y56181D01*
X249894Y56031D01*
X250011Y55881D01*
X250111Y55740D01*
X250194Y55598D01*
X250261Y55481D01*
X250311Y55390D01*
X250328Y55356D01*
X250344Y55331D01*
X250353Y55315D01*
Y55306D01*
X250453Y55048D01*
X250519Y54765D01*
X250569Y54490D01*
X250611Y54232D01*
X250619Y54115D01*
X250628Y54007D01*
X250636Y53907D01*
Y53824D01*
X250644Y53749D01*
Y53699D01*
Y53665D01*
Y53657D01*
X250636Y53374D01*
X250611Y53116D01*
X250569Y52866D01*
X250511Y52632D01*
X250453Y52416D01*
X250378Y52224D01*
X250303Y52041D01*
X250219Y51883D01*
X250144Y51733D01*
X250069Y51608D01*
X249994Y51500D01*
X249936Y51408D01*
X249878Y51341D01*
X249836Y51291D01*
X249811Y51258D01*
X249803Y51250D01*
X249636Y51100D01*
X249461Y50967D01*
X249278Y50850D01*
X249095Y50750D01*
X248903Y50667D01*
X248720Y50592D01*
X248528Y50542D01*
X248354Y50492D01*
X248187Y50458D01*
X248029Y50433D01*
X247895Y50408D01*
X247770Y50400D01*
X247670Y50392D01*
X247604Y50383D01*
X247537D01*
X247279Y50392D01*
X247037Y50425D01*
X246804Y50467D01*
X246587Y50517D01*
X246388Y50583D01*
X246204Y50658D01*
X246038Y50742D01*
X245888Y50825D01*
X245746Y50900D01*
X245630Y50983D01*
X245530Y51058D01*
X245438Y51125D01*
X245371Y51175D01*
X245330Y51225D01*
X245296Y51250D01*
X245288Y51258D01*
X245138Y51433D01*
X245005Y51616D01*
X244897Y51808D01*
X244796Y52008D01*
X244713Y52208D01*
X244647Y52416D01*
X244588Y52608D01*
X244547Y52799D01*
X244513Y52982D01*
X244480Y53149D01*
X244463Y53299D01*
X244455Y53432D01*
X244447Y53540D01*
X244438Y53624D01*
Y53674D01*
Y53682D01*
Y53690D01*
X244447Y53974D01*
X244472Y54248D01*
X244513Y54498D01*
X244572Y54732D01*
X244638Y54957D01*
X244705Y55156D01*
X244780Y55340D01*
X244863Y55506D01*
X244938Y55648D01*
X245022Y55781D01*
X245088Y55889D01*
X245155Y55981D01*
X245213Y56048D01*
X245255Y56098D01*
X245280Y56131D01*
X245288Y56139D01*
X245455Y56298D01*
X245630Y56431D01*
X245813Y56548D01*
X245996Y56647D01*
X246188Y56739D01*
X246379Y56806D01*
X246563Y56864D01*
X246737Y56914D01*
X246904Y56947D01*
X247062Y56972D01*
X247196Y56997D01*
X247321Y57006D01*
X247421Y57014D01*
X247487Y57022D01*
X247554D01*
X247837Y57014D01*
D02*
G37*
G36*
X37638Y80500D02*
X36230D01*
X34956Y85281D01*
X33690Y80500D01*
X32307D01*
X30758Y86906D01*
X32065D01*
X33040Y82424D01*
X34165Y86906D01*
X35697D01*
X36872Y82499D01*
X37830Y86906D01*
X39154D01*
X37638Y80500D01*
D02*
G37*
G36*
X48326Y84232D02*
X50000D01*
Y83082D01*
X48326D01*
Y81425D01*
X47209D01*
Y83082D01*
X45527D01*
Y84232D01*
X47209D01*
Y85890D01*
X48326D01*
Y84232D01*
D02*
G37*
G36*
X44494Y80500D02*
X43203D01*
Y82916D01*
X42203D01*
X42053Y82924D01*
X41912D01*
X41787Y82932D01*
X41662Y82941D01*
X41553Y82949D01*
X41453Y82957D01*
X41370Y82966D01*
X41287Y82974D01*
X41220Y82982D01*
X41162D01*
X41112Y82991D01*
X41079Y82999D01*
X41054Y83007D01*
X41029D01*
X40904Y83041D01*
X40779Y83082D01*
X40670Y83132D01*
X40570Y83182D01*
X40479Y83232D01*
X40420Y83274D01*
X40379Y83299D01*
X40362Y83307D01*
X40246Y83399D01*
X40137Y83507D01*
X40046Y83607D01*
X39962Y83715D01*
X39896Y83799D01*
X39854Y83874D01*
X39821Y83924D01*
X39812Y83932D01*
Y83940D01*
X39737Y84099D01*
X39687Y84265D01*
X39646Y84432D01*
X39621Y84590D01*
X39604Y84723D01*
Y84782D01*
X39596Y84832D01*
Y84873D01*
Y84907D01*
Y84923D01*
Y84932D01*
Y85073D01*
X39612Y85206D01*
X39654Y85448D01*
X39679Y85565D01*
X39713Y85665D01*
X39746Y85756D01*
X39779Y85848D01*
X39821Y85923D01*
X39854Y85989D01*
X39887Y86048D01*
X39912Y86098D01*
X39937Y86131D01*
X39954Y86156D01*
X39962Y86173D01*
X39971Y86181D01*
X40121Y86348D01*
X40271Y86481D01*
X40429Y86589D01*
X40570Y86673D01*
X40695Y86739D01*
X40754Y86756D01*
X40795Y86773D01*
X40837Y86789D01*
X40862Y86797D01*
X40879Y86806D01*
X40887D01*
X40962Y86822D01*
X41054Y86839D01*
X41162Y86856D01*
X41278Y86864D01*
X41528Y86881D01*
X41795Y86897D01*
X42037D01*
X42145Y86906D01*
X44494D01*
Y80500D01*
D02*
G37*
G36*
X30083D02*
X28792D01*
Y83174D01*
X28375D01*
X28242Y83166D01*
X28134Y83149D01*
X28042Y83141D01*
X27967Y83124D01*
X27926Y83107D01*
X27892Y83099D01*
X27884D01*
X27809Y83066D01*
X27734Y83024D01*
X27667Y82982D01*
X27609Y82941D01*
X27559Y82899D01*
X27526Y82866D01*
X27501Y82841D01*
X27492Y82832D01*
X27451Y82791D01*
X27409Y82741D01*
X27359Y82674D01*
X27309Y82608D01*
X27193Y82449D01*
X27084Y82291D01*
X26976Y82141D01*
X26934Y82074D01*
X26893Y82008D01*
X26859Y81958D01*
X26834Y81924D01*
X26818Y81899D01*
X26809Y81891D01*
X25876Y80500D01*
X24327D01*
X25110Y81749D01*
X25193Y81883D01*
X25277Y82008D01*
X25352Y82124D01*
X25418Y82224D01*
X25485Y82316D01*
X25551Y82399D01*
X25601Y82474D01*
X25651Y82541D01*
X25701Y82599D01*
X25743Y82649D01*
X25801Y82724D01*
X25835Y82766D01*
X25851Y82782D01*
X25960Y82891D01*
X26068Y82991D01*
X26184Y83082D01*
X26293Y83166D01*
X26393Y83232D01*
X26468Y83282D01*
X26526Y83315D01*
X26534Y83324D01*
X26543D01*
X26384Y83349D01*
X26243Y83382D01*
X26110Y83424D01*
X25985Y83465D01*
X25868Y83516D01*
X25768Y83565D01*
X25668Y83615D01*
X25585Y83665D01*
X25510Y83715D01*
X25443Y83765D01*
X25393Y83807D01*
X25352Y83840D01*
X25310Y83874D01*
X25285Y83899D01*
X25277Y83907D01*
X25268Y83915D01*
X25193Y84007D01*
X25127Y84099D01*
X25068Y84198D01*
X25018Y84298D01*
X24943Y84498D01*
X24893Y84690D01*
X24877Y84773D01*
X24868Y84857D01*
X24860Y84923D01*
X24852Y84990D01*
X24843Y85040D01*
Y85073D01*
Y85098D01*
Y85106D01*
X24852Y85315D01*
X24885Y85506D01*
X24935Y85673D01*
X24985Y85823D01*
X25035Y85948D01*
X25060Y85998D01*
X25085Y86039D01*
X25102Y86073D01*
X25118Y86098D01*
X25127Y86106D01*
Y86114D01*
X25243Y86264D01*
X25360Y86398D01*
X25485Y86506D01*
X25610Y86589D01*
X25710Y86656D01*
X25801Y86698D01*
X25835Y86714D01*
X25851Y86722D01*
X25868Y86731D01*
X25876D01*
X25968Y86764D01*
X26068Y86789D01*
X26184Y86814D01*
X26301Y86831D01*
X26551Y86864D01*
X26793Y86881D01*
X26909Y86889D01*
X27018Y86897D01*
X27117D01*
X27201Y86906D01*
X30083D01*
Y80500D01*
D02*
G37*
G36*
X32125Y35500D02*
X30834D01*
Y37433D01*
X29784Y38507D01*
X28018Y35500D01*
X26344D01*
X28893Y39415D01*
X26469Y41906D01*
X28210D01*
X30834Y39057D01*
Y41906D01*
X32125D01*
Y35500D01*
D02*
G37*
G36*
X41071D02*
X39872D01*
Y39690D01*
X37281Y35500D01*
X35982D01*
Y41906D01*
X37181D01*
Y37616D01*
X39822Y41906D01*
X41071D01*
Y35500D01*
D02*
G37*
G36*
X47035D02*
X42171D01*
Y36583D01*
X45744D01*
Y38324D01*
X42537D01*
Y39407D01*
X45744D01*
Y40823D01*
X42296D01*
Y41906D01*
X47035D01*
Y35500D01*
D02*
G37*
G36*
X41071Y50500D02*
X39872D01*
Y54690D01*
X37281Y50500D01*
X35982D01*
Y56906D01*
X37181D01*
Y52616D01*
X39822Y56906D01*
X41071D01*
Y50500D01*
D02*
G37*
G36*
X47035D02*
X42171D01*
Y51583D01*
X45744D01*
Y53324D01*
X42537D01*
Y54407D01*
X45744D01*
Y55823D01*
X42296D01*
Y56906D01*
X47035D01*
Y50500D01*
D02*
G37*
G36*
X32783D02*
X31417D01*
X30884Y51958D01*
X28326D01*
X27760Y50500D01*
X26352D01*
X28909Y56906D01*
X30292D01*
X32783Y50500D01*
D02*
G37*
G36*
X39847Y65500D02*
X38647D01*
Y69690D01*
X36057Y65500D01*
X34757D01*
Y71906D01*
X35956D01*
Y67616D01*
X38597Y71906D01*
X39847D01*
Y65500D01*
D02*
G37*
G36*
X44187Y72006D02*
X44345Y71989D01*
X44486Y71972D01*
X44620Y71947D01*
X44753Y71922D01*
X44861Y71889D01*
X44970Y71864D01*
X45070Y71831D01*
X45153Y71798D01*
X45219Y71772D01*
X45286Y71747D01*
X45328Y71731D01*
X45369Y71714D01*
X45386Y71697D01*
X45394D01*
X45544Y71614D01*
X45678Y71523D01*
X45811Y71431D01*
X45928Y71331D01*
X46036Y71231D01*
X46136Y71131D01*
X46227Y71039D01*
X46311Y70939D01*
X46386Y70848D01*
X46444Y70765D01*
X46494Y70690D01*
X46544Y70631D01*
X46577Y70573D01*
X46602Y70531D01*
X46611Y70506D01*
X46619Y70498D01*
X46694Y70348D01*
X46752Y70198D01*
X46810Y70048D01*
X46861Y69898D01*
X46935Y69598D01*
X46960Y69457D01*
X46985Y69323D01*
X47002Y69199D01*
X47010Y69082D01*
X47019Y68982D01*
X47027Y68890D01*
X47035Y68824D01*
Y68765D01*
Y68732D01*
Y68724D01*
X47027Y68549D01*
X47019Y68382D01*
X46977Y68066D01*
X46952Y67916D01*
X46919Y67774D01*
X46885Y67641D01*
X46844Y67516D01*
X46810Y67408D01*
X46777Y67308D01*
X46744Y67216D01*
X46719Y67149D01*
X46694Y67091D01*
X46677Y67041D01*
X46661Y67016D01*
Y67008D01*
X46586Y66866D01*
X46502Y66733D01*
X46419Y66608D01*
X46327Y66491D01*
X46236Y66383D01*
X46144Y66283D01*
X46053Y66191D01*
X45961Y66108D01*
X45878Y66041D01*
X45803Y65975D01*
X45728Y65925D01*
X45669Y65875D01*
X45611Y65842D01*
X45578Y65816D01*
X45553Y65808D01*
X45544Y65800D01*
X45403Y65725D01*
X45253Y65667D01*
X45103Y65608D01*
X44953Y65558D01*
X44661Y65483D01*
X44520Y65458D01*
X44387Y65433D01*
X44262Y65417D01*
X44145Y65408D01*
X44045Y65400D01*
X43953Y65392D01*
X43887Y65383D01*
X43787D01*
X43495Y65400D01*
X43212Y65433D01*
X42945Y65475D01*
X42820Y65508D01*
X42712Y65533D01*
X42604Y65558D01*
X42512Y65592D01*
X42429Y65617D01*
X42362Y65633D01*
X42304Y65658D01*
X42262Y65667D01*
X42237Y65683D01*
X42229D01*
X42087Y65742D01*
X41954Y65800D01*
X41829Y65858D01*
X41721Y65917D01*
X41613Y65975D01*
X41513Y66033D01*
X41429Y66091D01*
X41346Y66141D01*
X41279Y66191D01*
X41213Y66233D01*
X41163Y66275D01*
X41121Y66308D01*
X41088Y66333D01*
X41063Y66358D01*
X41054Y66366D01*
X41046Y66375D01*
Y68932D01*
X43837D01*
Y67849D01*
X42354D01*
Y67033D01*
X42471Y66949D01*
X42587Y66874D01*
X42712Y66816D01*
X42820Y66758D01*
X42920Y66708D01*
X42995Y66675D01*
X43045Y66658D01*
X43054Y66650D01*
X43062D01*
X43212Y66600D01*
X43362Y66558D01*
X43495Y66533D01*
X43620Y66508D01*
X43720Y66500D01*
X43803Y66491D01*
X43870D01*
X44020Y66500D01*
X44162Y66516D01*
X44295Y66541D01*
X44428Y66583D01*
X44545Y66624D01*
X44653Y66675D01*
X44753Y66724D01*
X44845Y66774D01*
X44928Y66825D01*
X44995Y66883D01*
X45061Y66924D01*
X45111Y66966D01*
X45153Y67008D01*
X45178Y67033D01*
X45195Y67049D01*
X45203Y67058D01*
X45294Y67174D01*
X45369Y67299D01*
X45436Y67433D01*
X45494Y67566D01*
X45536Y67707D01*
X45578Y67857D01*
X45636Y68132D01*
X45661Y68266D01*
X45678Y68382D01*
X45686Y68490D01*
X45694Y68590D01*
X45703Y68665D01*
Y68724D01*
Y68757D01*
Y68774D01*
X45694Y68965D01*
X45678Y69148D01*
X45653Y69315D01*
X45628Y69473D01*
X45586Y69615D01*
X45544Y69748D01*
X45503Y69865D01*
X45453Y69973D01*
X45403Y70065D01*
X45361Y70148D01*
X45319Y70215D01*
X45278Y70273D01*
X45253Y70315D01*
X45228Y70348D01*
X45211Y70365D01*
X45203Y70373D01*
X45103Y70465D01*
X45003Y70548D01*
X44895Y70623D01*
X44778Y70690D01*
X44670Y70740D01*
X44561Y70781D01*
X44345Y70848D01*
X44245Y70873D01*
X44153Y70890D01*
X44070Y70898D01*
X44003Y70906D01*
X43945Y70915D01*
X43862D01*
X43662Y70906D01*
X43479Y70873D01*
X43320Y70831D01*
X43179Y70781D01*
X43070Y70723D01*
X42995Y70681D01*
X42945Y70648D01*
X42929Y70640D01*
X42795Y70531D01*
X42687Y70406D01*
X42604Y70281D01*
X42529Y70165D01*
X42479Y70056D01*
X42437Y69973D01*
X42429Y69940D01*
X42421Y69923D01*
X42412Y69907D01*
Y69898D01*
X41129Y70140D01*
X41171Y70298D01*
X41221Y70448D01*
X41288Y70590D01*
X41346Y70723D01*
X41421Y70848D01*
X41496Y70956D01*
X41571Y71064D01*
X41638Y71156D01*
X41712Y71239D01*
X41779Y71314D01*
X41837Y71373D01*
X41896Y71423D01*
X41938Y71464D01*
X41971Y71489D01*
X41996Y71506D01*
X42004Y71514D01*
X42137Y71606D01*
X42279Y71681D01*
X42421Y71747D01*
X42579Y71806D01*
X42729Y71856D01*
X42887Y71897D01*
X43179Y71956D01*
X43320Y71981D01*
X43453Y71997D01*
X43562Y72006D01*
X43662Y72014D01*
X43745Y72022D01*
X43862D01*
X44187Y72006D01*
D02*
G37*
G36*
X33391Y65500D02*
X30959D01*
X30700Y65508D01*
X30475Y65525D01*
X30284Y65542D01*
X30200Y65558D01*
X30117Y65567D01*
X30051Y65583D01*
X29992Y65592D01*
X29934Y65600D01*
X29892Y65617D01*
X29859Y65625D01*
X29834D01*
X29826Y65633D01*
X29817D01*
X29609Y65708D01*
X29434Y65791D01*
X29276Y65875D01*
X29151Y65958D01*
X29043Y66033D01*
X28968Y66091D01*
X28926Y66125D01*
X28909Y66141D01*
X28751Y66316D01*
X28609Y66500D01*
X28493Y66691D01*
X28393Y66874D01*
X28318Y67033D01*
X28285Y67099D01*
X28260Y67158D01*
X28243Y67208D01*
X28226Y67241D01*
X28218Y67266D01*
Y67274D01*
X28151Y67499D01*
X28101Y67732D01*
X28068Y67957D01*
X28043Y68174D01*
X28035Y68274D01*
X28026Y68357D01*
Y68441D01*
X28018Y68507D01*
Y68565D01*
Y68607D01*
Y68632D01*
Y68640D01*
X28026Y68965D01*
X28035Y69115D01*
X28051Y69257D01*
X28068Y69390D01*
X28085Y69515D01*
X28110Y69632D01*
X28126Y69732D01*
X28143Y69823D01*
X28168Y69907D01*
X28185Y69981D01*
X28201Y70040D01*
X28218Y70090D01*
X28226Y70123D01*
X28235Y70140D01*
Y70148D01*
X28318Y70373D01*
X28418Y70573D01*
X28518Y70748D01*
X28618Y70898D01*
X28701Y71023D01*
X28743Y71073D01*
X28776Y71114D01*
X28801Y71148D01*
X28826Y71173D01*
X28834Y71181D01*
X28843Y71189D01*
X29001Y71339D01*
X29159Y71464D01*
X29326Y71564D01*
X29476Y71648D01*
X29609Y71706D01*
X29667Y71731D01*
X29717Y71747D01*
X29751Y71764D01*
X29784Y71772D01*
X29801Y71781D01*
X29809D01*
X29892Y71806D01*
X29984Y71823D01*
X30176Y71856D01*
X30384Y71873D01*
X30584Y71889D01*
X30675Y71897D01*
X30759D01*
X30834Y71906D01*
X33391D01*
Y65500D01*
D02*
G37*
G36*
X249811D02*
X248612D01*
Y69690D01*
X246021Y65500D01*
X244722D01*
Y71906D01*
X245921D01*
Y67616D01*
X248562Y71906D01*
X249811D01*
Y65500D01*
D02*
G37*
G36*
X254151Y72006D02*
X254309Y71989D01*
X254451Y71972D01*
X254584Y71947D01*
X254718Y71922D01*
X254826Y71889D01*
X254934Y71864D01*
X255034Y71831D01*
X255117Y71798D01*
X255184Y71772D01*
X255251Y71747D01*
X255292Y71731D01*
X255334Y71714D01*
X255351Y71697D01*
X255359D01*
X255509Y71614D01*
X255642Y71523D01*
X255775Y71431D01*
X255892Y71331D01*
X256000Y71231D01*
X256100Y71131D01*
X256192Y71039D01*
X256275Y70939D01*
X256350Y70848D01*
X256409Y70765D01*
X256459Y70690D01*
X256508Y70631D01*
X256542Y70573D01*
X256567Y70531D01*
X256575Y70506D01*
X256583Y70498D01*
X256659Y70348D01*
X256717Y70198D01*
X256775Y70048D01*
X256825Y69898D01*
X256900Y69598D01*
X256925Y69457D01*
X256950Y69323D01*
X256967Y69199D01*
X256975Y69082D01*
X256983Y68982D01*
X256992Y68890D01*
X257000Y68824D01*
Y68765D01*
Y68732D01*
Y68724D01*
X256992Y68549D01*
X256983Y68382D01*
X256942Y68066D01*
X256917Y67916D01*
X256883Y67774D01*
X256850Y67641D01*
X256808Y67516D01*
X256775Y67408D01*
X256742Y67308D01*
X256708Y67216D01*
X256683Y67149D01*
X256659Y67091D01*
X256642Y67041D01*
X256625Y67016D01*
Y67008D01*
X256550Y66866D01*
X256467Y66733D01*
X256384Y66608D01*
X256292Y66491D01*
X256200Y66383D01*
X256109Y66283D01*
X256017Y66191D01*
X255925Y66108D01*
X255842Y66041D01*
X255767Y65975D01*
X255692Y65925D01*
X255634Y65875D01*
X255576Y65842D01*
X255542Y65816D01*
X255517Y65808D01*
X255509Y65800D01*
X255367Y65725D01*
X255217Y65667D01*
X255067Y65608D01*
X254918Y65558D01*
X254626Y65483D01*
X254484Y65458D01*
X254351Y65433D01*
X254226Y65417D01*
X254110Y65408D01*
X254010Y65400D01*
X253918Y65392D01*
X253851Y65383D01*
X253751D01*
X253460Y65400D01*
X253176Y65433D01*
X252910Y65475D01*
X252785Y65508D01*
X252677Y65533D01*
X252568Y65558D01*
X252477Y65592D01*
X252394Y65617D01*
X252327Y65633D01*
X252269Y65658D01*
X252227Y65667D01*
X252202Y65683D01*
X252194D01*
X252052Y65742D01*
X251919Y65800D01*
X251794Y65858D01*
X251686Y65917D01*
X251577Y65975D01*
X251477Y66033D01*
X251394Y66091D01*
X251311Y66141D01*
X251244Y66191D01*
X251177Y66233D01*
X251127Y66275D01*
X251086Y66308D01*
X251052Y66333D01*
X251027Y66358D01*
X251019Y66366D01*
X251011Y66375D01*
Y68932D01*
X253801D01*
Y67849D01*
X252319D01*
Y67033D01*
X252435Y66949D01*
X252552Y66874D01*
X252677Y66816D01*
X252785Y66758D01*
X252885Y66708D01*
X252960Y66675D01*
X253010Y66658D01*
X253018Y66650D01*
X253027D01*
X253176Y66600D01*
X253327Y66558D01*
X253460Y66533D01*
X253585Y66508D01*
X253685Y66500D01*
X253768Y66491D01*
X253835D01*
X253984Y66500D01*
X254126Y66516D01*
X254259Y66541D01*
X254393Y66583D01*
X254509Y66624D01*
X254618Y66675D01*
X254718Y66724D01*
X254809Y66774D01*
X254892Y66825D01*
X254959Y66883D01*
X255026Y66924D01*
X255076Y66966D01*
X255117Y67008D01*
X255142Y67033D01*
X255159Y67049D01*
X255167Y67058D01*
X255259Y67174D01*
X255334Y67299D01*
X255401Y67433D01*
X255459Y67566D01*
X255501Y67707D01*
X255542Y67857D01*
X255601Y68132D01*
X255626Y68266D01*
X255642Y68382D01*
X255650Y68490D01*
X255659Y68590D01*
X255667Y68665D01*
Y68724D01*
Y68757D01*
Y68774D01*
X255659Y68965D01*
X255642Y69148D01*
X255617Y69315D01*
X255592Y69473D01*
X255551Y69615D01*
X255509Y69748D01*
X255467Y69865D01*
X255417Y69973D01*
X255367Y70065D01*
X255326Y70148D01*
X255284Y70215D01*
X255242Y70273D01*
X255217Y70315D01*
X255192Y70348D01*
X255176Y70365D01*
X255167Y70373D01*
X255067Y70465D01*
X254967Y70548D01*
X254859Y70623D01*
X254743Y70690D01*
X254634Y70740D01*
X254526Y70781D01*
X254309Y70848D01*
X254209Y70873D01*
X254118Y70890D01*
X254034Y70898D01*
X253968Y70906D01*
X253910Y70915D01*
X253826D01*
X253626Y70906D01*
X253443Y70873D01*
X253285Y70831D01*
X253143Y70781D01*
X253035Y70723D01*
X252960Y70681D01*
X252910Y70648D01*
X252893Y70640D01*
X252760Y70531D01*
X252652Y70406D01*
X252568Y70281D01*
X252494Y70165D01*
X252444Y70056D01*
X252402Y69973D01*
X252394Y69940D01*
X252385Y69923D01*
X252377Y69907D01*
Y69898D01*
X251094Y70140D01*
X251136Y70298D01*
X251186Y70448D01*
X251252Y70590D01*
X251311Y70723D01*
X251386Y70848D01*
X251461Y70956D01*
X251536Y71064D01*
X251602Y71156D01*
X251677Y71239D01*
X251744Y71314D01*
X251802Y71373D01*
X251860Y71423D01*
X251902Y71464D01*
X251935Y71489D01*
X251960Y71506D01*
X251969Y71514D01*
X252102Y71606D01*
X252244Y71681D01*
X252385Y71747D01*
X252543Y71806D01*
X252693Y71856D01*
X252852Y71897D01*
X253143Y71956D01*
X253285Y71981D01*
X253418Y71997D01*
X253526Y72006D01*
X253626Y72014D01*
X253710Y72022D01*
X253826D01*
X254151Y72006D01*
D02*
G37*
G36*
X243355Y65500D02*
X240923D01*
X240665Y65508D01*
X240440Y65525D01*
X240248Y65542D01*
X240165Y65558D01*
X240082Y65567D01*
X240015Y65583D01*
X239957Y65592D01*
X239898Y65600D01*
X239857Y65617D01*
X239824Y65625D01*
X239798D01*
X239790Y65633D01*
X239782D01*
X239574Y65708D01*
X239399Y65791D01*
X239240Y65875D01*
X239116Y65958D01*
X239007Y66033D01*
X238932Y66091D01*
X238891Y66125D01*
X238874Y66141D01*
X238716Y66316D01*
X238574Y66500D01*
X238457Y66691D01*
X238357Y66874D01*
X238282Y67033D01*
X238249Y67099D01*
X238224Y67158D01*
X238208Y67208D01*
X238191Y67241D01*
X238182Y67266D01*
Y67274D01*
X238116Y67499D01*
X238066Y67732D01*
X238033Y67957D01*
X238008Y68174D01*
X237999Y68274D01*
X237991Y68357D01*
Y68441D01*
X237983Y68507D01*
Y68565D01*
Y68607D01*
Y68632D01*
Y68640D01*
X237991Y68965D01*
X237999Y69115D01*
X238016Y69257D01*
X238033Y69390D01*
X238049Y69515D01*
X238074Y69632D01*
X238091Y69732D01*
X238108Y69823D01*
X238133Y69907D01*
X238149Y69981D01*
X238166Y70040D01*
X238182Y70090D01*
X238191Y70123D01*
X238199Y70140D01*
Y70148D01*
X238282Y70373D01*
X238383Y70573D01*
X238482Y70748D01*
X238582Y70898D01*
X238666Y71023D01*
X238707Y71073D01*
X238741Y71114D01*
X238766Y71148D01*
X238791Y71173D01*
X238799Y71181D01*
X238807Y71189D01*
X238966Y71339D01*
X239124Y71464D01*
X239290Y71564D01*
X239440Y71648D01*
X239574Y71706D01*
X239632Y71731D01*
X239682Y71747D01*
X239715Y71764D01*
X239749Y71772D01*
X239765Y71781D01*
X239774D01*
X239857Y71806D01*
X239949Y71823D01*
X240140Y71856D01*
X240348Y71873D01*
X240548Y71889D01*
X240640Y71897D01*
X240723D01*
X240798Y71906D01*
X243355D01*
Y65500D01*
D02*
G37*
G36*
X249811Y80500D02*
X248612D01*
Y84690D01*
X246021Y80500D01*
X244722D01*
Y86906D01*
X245921D01*
Y82616D01*
X248562Y86906D01*
X249811D01*
Y80500D01*
D02*
G37*
G36*
X254151Y87006D02*
X254309Y86989D01*
X254451Y86972D01*
X254584Y86947D01*
X254718Y86922D01*
X254826Y86889D01*
X254934Y86864D01*
X255034Y86831D01*
X255117Y86797D01*
X255184Y86773D01*
X255251Y86747D01*
X255292Y86731D01*
X255334Y86714D01*
X255351Y86698D01*
X255359D01*
X255509Y86614D01*
X255642Y86523D01*
X255775Y86431D01*
X255892Y86331D01*
X256000Y86231D01*
X256100Y86131D01*
X256192Y86039D01*
X256275Y85940D01*
X256350Y85848D01*
X256409Y85765D01*
X256459Y85690D01*
X256508Y85631D01*
X256542Y85573D01*
X256567Y85531D01*
X256575Y85506D01*
X256583Y85498D01*
X256659Y85348D01*
X256717Y85198D01*
X256775Y85048D01*
X256825Y84898D01*
X256900Y84598D01*
X256925Y84457D01*
X256950Y84324D01*
X256967Y84198D01*
X256975Y84082D01*
X256983Y83982D01*
X256992Y83890D01*
X257000Y83824D01*
Y83765D01*
Y83732D01*
Y83724D01*
X256992Y83549D01*
X256983Y83382D01*
X256942Y83066D01*
X256917Y82916D01*
X256883Y82774D01*
X256850Y82641D01*
X256808Y82516D01*
X256775Y82408D01*
X256742Y82308D01*
X256708Y82216D01*
X256683Y82149D01*
X256659Y82091D01*
X256642Y82041D01*
X256625Y82016D01*
Y82008D01*
X256550Y81866D01*
X256467Y81733D01*
X256384Y81608D01*
X256292Y81491D01*
X256200Y81383D01*
X256109Y81283D01*
X256017Y81191D01*
X255925Y81108D01*
X255842Y81041D01*
X255767Y80975D01*
X255692Y80925D01*
X255634Y80875D01*
X255576Y80841D01*
X255542Y80817D01*
X255517Y80808D01*
X255509Y80800D01*
X255367Y80725D01*
X255217Y80667D01*
X255067Y80608D01*
X254918Y80558D01*
X254626Y80483D01*
X254484Y80458D01*
X254351Y80433D01*
X254226Y80417D01*
X254110Y80408D01*
X254010Y80400D01*
X253918Y80392D01*
X253851Y80383D01*
X253751D01*
X253460Y80400D01*
X253176Y80433D01*
X252910Y80475D01*
X252785Y80508D01*
X252677Y80533D01*
X252568Y80558D01*
X252477Y80592D01*
X252394Y80617D01*
X252327Y80633D01*
X252269Y80658D01*
X252227Y80667D01*
X252202Y80683D01*
X252194D01*
X252052Y80742D01*
X251919Y80800D01*
X251794Y80858D01*
X251686Y80917D01*
X251577Y80975D01*
X251477Y81033D01*
X251394Y81091D01*
X251311Y81141D01*
X251244Y81191D01*
X251177Y81233D01*
X251127Y81275D01*
X251086Y81308D01*
X251052Y81333D01*
X251027Y81358D01*
X251019Y81366D01*
X251011Y81375D01*
Y83932D01*
X253801D01*
Y82849D01*
X252319D01*
Y82033D01*
X252435Y81949D01*
X252552Y81875D01*
X252677Y81816D01*
X252785Y81758D01*
X252885Y81708D01*
X252960Y81674D01*
X253010Y81658D01*
X253018Y81650D01*
X253027D01*
X253176Y81600D01*
X253327Y81558D01*
X253460Y81533D01*
X253585Y81508D01*
X253685Y81500D01*
X253768Y81491D01*
X253835D01*
X253984Y81500D01*
X254126Y81516D01*
X254259Y81541D01*
X254393Y81583D01*
X254509Y81625D01*
X254618Y81674D01*
X254718Y81725D01*
X254809Y81774D01*
X254892Y81824D01*
X254959Y81883D01*
X255026Y81924D01*
X255076Y81966D01*
X255117Y82008D01*
X255142Y82033D01*
X255159Y82049D01*
X255167Y82058D01*
X255259Y82174D01*
X255334Y82299D01*
X255401Y82433D01*
X255459Y82566D01*
X255501Y82707D01*
X255542Y82857D01*
X255601Y83132D01*
X255626Y83266D01*
X255642Y83382D01*
X255650Y83491D01*
X255659Y83590D01*
X255667Y83665D01*
Y83724D01*
Y83757D01*
Y83774D01*
X255659Y83965D01*
X255642Y84149D01*
X255617Y84315D01*
X255592Y84473D01*
X255551Y84615D01*
X255509Y84748D01*
X255467Y84865D01*
X255417Y84973D01*
X255367Y85065D01*
X255326Y85148D01*
X255284Y85215D01*
X255242Y85273D01*
X255217Y85315D01*
X255192Y85348D01*
X255176Y85365D01*
X255167Y85373D01*
X255067Y85465D01*
X254967Y85548D01*
X254859Y85623D01*
X254743Y85690D01*
X254634Y85740D01*
X254526Y85781D01*
X254309Y85848D01*
X254209Y85873D01*
X254118Y85890D01*
X254034Y85898D01*
X253968Y85906D01*
X253910Y85914D01*
X253826D01*
X253626Y85906D01*
X253443Y85873D01*
X253285Y85831D01*
X253143Y85781D01*
X253035Y85723D01*
X252960Y85681D01*
X252910Y85648D01*
X252893Y85640D01*
X252760Y85531D01*
X252652Y85406D01*
X252568Y85281D01*
X252494Y85165D01*
X252444Y85057D01*
X252402Y84973D01*
X252394Y84940D01*
X252385Y84923D01*
X252377Y84907D01*
Y84898D01*
X251094Y85140D01*
X251136Y85298D01*
X251186Y85448D01*
X251252Y85590D01*
X251311Y85723D01*
X251386Y85848D01*
X251461Y85956D01*
X251536Y86064D01*
X251602Y86156D01*
X251677Y86239D01*
X251744Y86314D01*
X251802Y86373D01*
X251860Y86423D01*
X251902Y86464D01*
X251935Y86489D01*
X251960Y86506D01*
X251969Y86514D01*
X252102Y86606D01*
X252244Y86681D01*
X252385Y86747D01*
X252543Y86806D01*
X252693Y86856D01*
X252852Y86897D01*
X253143Y86956D01*
X253285Y86981D01*
X253418Y86997D01*
X253526Y87006D01*
X253626Y87014D01*
X253710Y87022D01*
X253826D01*
X254151Y87006D01*
D02*
G37*
G36*
X243355Y80500D02*
X240923D01*
X240665Y80508D01*
X240440Y80525D01*
X240248Y80542D01*
X240165Y80558D01*
X240082Y80567D01*
X240015Y80583D01*
X239957Y80592D01*
X239898Y80600D01*
X239857Y80617D01*
X239824Y80625D01*
X239798D01*
X239790Y80633D01*
X239782D01*
X239574Y80708D01*
X239399Y80791D01*
X239240Y80875D01*
X239116Y80958D01*
X239007Y81033D01*
X238932Y81091D01*
X238891Y81125D01*
X238874Y81141D01*
X238716Y81316D01*
X238574Y81500D01*
X238457Y81691D01*
X238357Y81875D01*
X238282Y82033D01*
X238249Y82099D01*
X238224Y82158D01*
X238208Y82208D01*
X238191Y82241D01*
X238182Y82266D01*
Y82274D01*
X238116Y82499D01*
X238066Y82732D01*
X238033Y82957D01*
X238008Y83174D01*
X237999Y83274D01*
X237991Y83357D01*
Y83441D01*
X237983Y83507D01*
Y83565D01*
Y83607D01*
Y83632D01*
Y83640D01*
X237991Y83965D01*
X237999Y84115D01*
X238016Y84257D01*
X238033Y84390D01*
X238049Y84515D01*
X238074Y84632D01*
X238091Y84732D01*
X238108Y84823D01*
X238133Y84907D01*
X238149Y84982D01*
X238166Y85040D01*
X238182Y85090D01*
X238191Y85123D01*
X238199Y85140D01*
Y85148D01*
X238282Y85373D01*
X238383Y85573D01*
X238482Y85748D01*
X238582Y85898D01*
X238666Y86023D01*
X238707Y86073D01*
X238741Y86114D01*
X238766Y86148D01*
X238791Y86173D01*
X238799Y86181D01*
X238807Y86189D01*
X238966Y86339D01*
X239124Y86464D01*
X239290Y86564D01*
X239440Y86647D01*
X239574Y86706D01*
X239632Y86731D01*
X239682Y86747D01*
X239715Y86764D01*
X239749Y86773D01*
X239765Y86781D01*
X239774D01*
X239857Y86806D01*
X239949Y86822D01*
X240140Y86856D01*
X240348Y86873D01*
X240548Y86889D01*
X240640Y86897D01*
X240723D01*
X240798Y86906D01*
X243355D01*
Y80500D01*
D02*
G37*
%LPC*%
G36*
X247612Y40914D02*
X247537D01*
X247387Y40906D01*
X247254Y40889D01*
X247121Y40865D01*
X246996Y40831D01*
X246887Y40790D01*
X246779Y40740D01*
X246679Y40690D01*
X246596Y40640D01*
X246521Y40590D01*
X246446Y40540D01*
X246388Y40490D01*
X246346Y40448D01*
X246304Y40415D01*
X246279Y40390D01*
X246263Y40373D01*
X246254Y40365D01*
X246171Y40256D01*
X246096Y40140D01*
X246029Y40015D01*
X245971Y39882D01*
X245929Y39748D01*
X245888Y39607D01*
X245830Y39340D01*
X245813Y39215D01*
X245796Y39099D01*
X245788Y38999D01*
X245779Y38907D01*
X245771Y38832D01*
Y38774D01*
Y38740D01*
Y38724D01*
X245779Y38524D01*
X245796Y38332D01*
X245821Y38157D01*
X245846Y37991D01*
X245888Y37841D01*
X245929Y37707D01*
X245971Y37582D01*
X246021Y37466D01*
X246071Y37374D01*
X246113Y37283D01*
X246154Y37216D01*
X246196Y37158D01*
X246221Y37108D01*
X246246Y37074D01*
X246263Y37058D01*
X246271Y37049D01*
X246363Y36949D01*
X246463Y36866D01*
X246571Y36791D01*
X246679Y36724D01*
X246779Y36674D01*
X246887Y36625D01*
X247087Y36558D01*
X247179Y36541D01*
X247262Y36525D01*
X247345Y36508D01*
X247412Y36500D01*
X247462Y36491D01*
X247537D01*
X247679Y36500D01*
X247812Y36516D01*
X247945Y36541D01*
X248062Y36583D01*
X248179Y36625D01*
X248278Y36666D01*
X248378Y36716D01*
X248462Y36775D01*
X248545Y36825D01*
X248612Y36874D01*
X248670Y36916D01*
X248720Y36966D01*
X248762Y36999D01*
X248787Y37024D01*
X248803Y37041D01*
X248812Y37049D01*
X248903Y37158D01*
X248978Y37283D01*
X249045Y37416D01*
X249103Y37549D01*
X249145Y37683D01*
X249186Y37824D01*
X249245Y38091D01*
X249270Y38216D01*
X249286Y38332D01*
X249295Y38440D01*
X249303Y38532D01*
X249311Y38599D01*
Y38657D01*
Y38699D01*
Y38707D01*
X249303Y38907D01*
X249286Y39099D01*
X249270Y39274D01*
X249236Y39432D01*
X249203Y39582D01*
X249162Y39715D01*
X249112Y39840D01*
X249070Y39948D01*
X249028Y40048D01*
X248978Y40132D01*
X248937Y40207D01*
X248903Y40265D01*
X248870Y40306D01*
X248845Y40340D01*
X248837Y40356D01*
X248828Y40365D01*
X248737Y40465D01*
X248628Y40548D01*
X248528Y40623D01*
X248420Y40681D01*
X248312Y40740D01*
X248203Y40781D01*
X247995Y40848D01*
X247904Y40873D01*
X247812Y40889D01*
X247737Y40898D01*
X247670Y40906D01*
X247612Y40914D01*
D02*
G37*
G36*
Y55914D02*
X247537D01*
X247387Y55906D01*
X247254Y55889D01*
X247121Y55865D01*
X246996Y55831D01*
X246887Y55790D01*
X246779Y55740D01*
X246679Y55690D01*
X246596Y55640D01*
X246521Y55590D01*
X246446Y55540D01*
X246388Y55490D01*
X246346Y55448D01*
X246304Y55415D01*
X246279Y55390D01*
X246263Y55373D01*
X246254Y55365D01*
X246171Y55256D01*
X246096Y55140D01*
X246029Y55015D01*
X245971Y54882D01*
X245929Y54748D01*
X245888Y54607D01*
X245830Y54340D01*
X245813Y54215D01*
X245796Y54099D01*
X245788Y53999D01*
X245779Y53907D01*
X245771Y53832D01*
Y53774D01*
Y53740D01*
Y53724D01*
X245779Y53524D01*
X245796Y53332D01*
X245821Y53157D01*
X245846Y52991D01*
X245888Y52841D01*
X245929Y52707D01*
X245971Y52583D01*
X246021Y52466D01*
X246071Y52374D01*
X246113Y52283D01*
X246154Y52216D01*
X246196Y52158D01*
X246221Y52108D01*
X246246Y52074D01*
X246263Y52058D01*
X246271Y52049D01*
X246363Y51949D01*
X246463Y51866D01*
X246571Y51791D01*
X246679Y51724D01*
X246779Y51674D01*
X246887Y51625D01*
X247087Y51558D01*
X247179Y51541D01*
X247262Y51525D01*
X247345Y51508D01*
X247412Y51500D01*
X247462Y51491D01*
X247537D01*
X247679Y51500D01*
X247812Y51516D01*
X247945Y51541D01*
X248062Y51583D01*
X248179Y51625D01*
X248278Y51666D01*
X248378Y51716D01*
X248462Y51775D01*
X248545Y51824D01*
X248612Y51875D01*
X248670Y51916D01*
X248720Y51966D01*
X248762Y51999D01*
X248787Y52024D01*
X248803Y52041D01*
X248812Y52049D01*
X248903Y52158D01*
X248978Y52283D01*
X249045Y52416D01*
X249103Y52549D01*
X249145Y52683D01*
X249186Y52824D01*
X249245Y53091D01*
X249270Y53216D01*
X249286Y53332D01*
X249295Y53440D01*
X249303Y53532D01*
X249311Y53599D01*
Y53657D01*
Y53699D01*
Y53707D01*
X249303Y53907D01*
X249286Y54099D01*
X249270Y54273D01*
X249236Y54432D01*
X249203Y54582D01*
X249162Y54715D01*
X249112Y54840D01*
X249070Y54948D01*
X249028Y55048D01*
X248978Y55132D01*
X248937Y55206D01*
X248903Y55265D01*
X248870Y55306D01*
X248845Y55340D01*
X248837Y55356D01*
X248828Y55365D01*
X248737Y55465D01*
X248628Y55548D01*
X248528Y55623D01*
X248420Y55681D01*
X248312Y55740D01*
X248203Y55781D01*
X247995Y55848D01*
X247904Y55873D01*
X247812Y55889D01*
X247737Y55898D01*
X247670Y55906D01*
X247612Y55914D01*
D02*
G37*
G36*
X43203Y85823D02*
X42345D01*
X42236Y85814D01*
X42061D01*
X41987Y85806D01*
X41920D01*
X41853Y85798D01*
X41762Y85790D01*
X41703Y85781D01*
X41662Y85773D01*
X41653D01*
X41545Y85748D01*
X41445Y85706D01*
X41353Y85656D01*
X41278Y85606D01*
X41220Y85565D01*
X41170Y85523D01*
X41145Y85498D01*
X41137Y85490D01*
X41070Y85398D01*
X41020Y85306D01*
X40979Y85206D01*
X40954Y85115D01*
X40937Y85040D01*
X40929Y84973D01*
Y84932D01*
Y84915D01*
X40937Y84807D01*
X40954Y84715D01*
X40979Y84623D01*
X41004Y84548D01*
X41029Y84490D01*
X41054Y84448D01*
X41070Y84415D01*
X41079Y84407D01*
X41137Y84332D01*
X41203Y84273D01*
X41270Y84215D01*
X41337Y84174D01*
X41395Y84140D01*
X41445Y84115D01*
X41478Y84107D01*
X41487Y84099D01*
X41537Y84082D01*
X41603Y84065D01*
X41670Y84049D01*
X41753Y84040D01*
X41920Y84024D01*
X42086Y84015D01*
X42245Y84007D01*
X42320Y83999D01*
X43203D01*
Y85823D01*
D02*
G37*
G36*
X28792D02*
X27309D01*
X27218Y85814D01*
X27018D01*
X26976Y85806D01*
X26876D01*
X26851Y85798D01*
X26843D01*
X26734Y85773D01*
X26634Y85740D01*
X26551Y85698D01*
X26476Y85656D01*
X26426Y85615D01*
X26384Y85581D01*
X26360Y85556D01*
X26351Y85548D01*
X26293Y85465D01*
X26251Y85381D01*
X26218Y85298D01*
X26201Y85215D01*
X26184Y85140D01*
X26176Y85081D01*
Y85040D01*
Y85023D01*
X26184Y84923D01*
X26193Y84832D01*
X26218Y84748D01*
X26243Y84673D01*
X26268Y84615D01*
X26285Y84573D01*
X26301Y84548D01*
X26309Y84540D01*
X26360Y84473D01*
X26426Y84415D01*
X26484Y84373D01*
X26543Y84332D01*
X26593Y84307D01*
X26634Y84290D01*
X26668Y84273D01*
X26676D01*
X26726Y84257D01*
X26793Y84249D01*
X26868Y84240D01*
X26951Y84232D01*
X27143Y84215D01*
X27342Y84207D01*
X27526D01*
X27609Y84198D01*
X28792D01*
Y85823D01*
D02*
G37*
G36*
X29617Y55415D02*
X28734Y53041D01*
X30484D01*
X29617Y55415D01*
D02*
G37*
G36*
X32100Y70823D02*
X31242D01*
X31125Y70815D01*
X31017D01*
X30917Y70806D01*
X30834D01*
X30759Y70798D01*
X30692Y70789D01*
X30634Y70781D01*
X30584D01*
X30542Y70773D01*
X30509Y70765D01*
X30475Y70756D01*
X30459D01*
X30325Y70723D01*
X30209Y70681D01*
X30109Y70631D01*
X30017Y70581D01*
X29951Y70531D01*
X29901Y70490D01*
X29867Y70465D01*
X29859Y70456D01*
X29776Y70365D01*
X29701Y70265D01*
X29634Y70157D01*
X29584Y70056D01*
X29542Y69973D01*
X29509Y69898D01*
X29492Y69848D01*
X29484Y69840D01*
Y69832D01*
X29443Y69673D01*
X29409Y69490D01*
X29384Y69298D01*
X29368Y69115D01*
X29359Y68957D01*
X29351Y68882D01*
Y68824D01*
Y68774D01*
Y68732D01*
Y68707D01*
Y68699D01*
X29359Y68432D01*
X29368Y68199D01*
X29392Y67999D01*
X29401Y67916D01*
X29417Y67832D01*
X29426Y67766D01*
X29443Y67699D01*
X29451Y67649D01*
X29459Y67607D01*
X29467Y67566D01*
X29476Y67541D01*
X29484Y67532D01*
Y67524D01*
X29534Y67374D01*
X29592Y67241D01*
X29651Y67133D01*
X29701Y67049D01*
X29751Y66983D01*
X29792Y66933D01*
X29817Y66908D01*
X29826Y66899D01*
X29909Y66833D01*
X29992Y66783D01*
X30084Y66741D01*
X30167Y66699D01*
X30242Y66675D01*
X30301Y66658D01*
X30334Y66641D01*
X30350D01*
X30450Y66624D01*
X30575Y66608D01*
X30700Y66600D01*
X30834Y66591D01*
X30950Y66583D01*
X32100D01*
Y70823D01*
D02*
G37*
G36*
X242064D02*
X241206D01*
X241090Y70815D01*
X240981D01*
X240881Y70806D01*
X240798D01*
X240723Y70798D01*
X240656Y70789D01*
X240598Y70781D01*
X240548D01*
X240507Y70773D01*
X240473Y70765D01*
X240440Y70756D01*
X240423D01*
X240290Y70723D01*
X240173Y70681D01*
X240073Y70631D01*
X239982Y70581D01*
X239915Y70531D01*
X239865Y70490D01*
X239832Y70465D01*
X239824Y70456D01*
X239740Y70365D01*
X239665Y70265D01*
X239599Y70157D01*
X239549Y70056D01*
X239507Y69973D01*
X239474Y69898D01*
X239457Y69848D01*
X239449Y69840D01*
Y69832D01*
X239407Y69673D01*
X239374Y69490D01*
X239349Y69298D01*
X239332Y69115D01*
X239324Y68957D01*
X239315Y68882D01*
Y68824D01*
Y68774D01*
Y68732D01*
Y68707D01*
Y68699D01*
X239324Y68432D01*
X239332Y68199D01*
X239357Y67999D01*
X239365Y67916D01*
X239382Y67832D01*
X239390Y67766D01*
X239407Y67699D01*
X239415Y67649D01*
X239424Y67607D01*
X239432Y67566D01*
X239440Y67541D01*
X239449Y67532D01*
Y67524D01*
X239499Y67374D01*
X239557Y67241D01*
X239615Y67133D01*
X239665Y67049D01*
X239715Y66983D01*
X239757Y66933D01*
X239782Y66908D01*
X239790Y66899D01*
X239874Y66833D01*
X239957Y66783D01*
X240049Y66741D01*
X240132Y66699D01*
X240207Y66675D01*
X240265Y66658D01*
X240298Y66641D01*
X240315D01*
X240415Y66624D01*
X240540Y66608D01*
X240665Y66600D01*
X240798Y66591D01*
X240915Y66583D01*
X242064D01*
Y70823D01*
D02*
G37*
G36*
Y85823D02*
X241206D01*
X241090Y85814D01*
X240981D01*
X240881Y85806D01*
X240798D01*
X240723Y85798D01*
X240656Y85790D01*
X240598Y85781D01*
X240548D01*
X240507Y85773D01*
X240473Y85765D01*
X240440Y85756D01*
X240423D01*
X240290Y85723D01*
X240173Y85681D01*
X240073Y85631D01*
X239982Y85581D01*
X239915Y85531D01*
X239865Y85490D01*
X239832Y85465D01*
X239824Y85456D01*
X239740Y85365D01*
X239665Y85265D01*
X239599Y85157D01*
X239549Y85057D01*
X239507Y84973D01*
X239474Y84898D01*
X239457Y84848D01*
X239449Y84840D01*
Y84832D01*
X239407Y84673D01*
X239374Y84490D01*
X239349Y84298D01*
X239332Y84115D01*
X239324Y83957D01*
X239315Y83882D01*
Y83824D01*
Y83774D01*
Y83732D01*
Y83707D01*
Y83699D01*
X239324Y83432D01*
X239332Y83199D01*
X239357Y82999D01*
X239365Y82916D01*
X239382Y82832D01*
X239390Y82766D01*
X239407Y82699D01*
X239415Y82649D01*
X239424Y82608D01*
X239432Y82566D01*
X239440Y82541D01*
X239449Y82533D01*
Y82524D01*
X239499Y82374D01*
X239557Y82241D01*
X239615Y82133D01*
X239665Y82049D01*
X239715Y81983D01*
X239757Y81933D01*
X239782Y81908D01*
X239790Y81899D01*
X239874Y81833D01*
X239957Y81783D01*
X240049Y81741D01*
X240132Y81700D01*
X240207Y81674D01*
X240265Y81658D01*
X240298Y81641D01*
X240315D01*
X240415Y81625D01*
X240540Y81608D01*
X240665Y81600D01*
X240798Y81591D01*
X240915Y81583D01*
X242064D01*
Y85823D01*
D02*
G37*
%LPD*%
D10*
X-0Y123031D02*
X283465D01*
X283465D02*
X283465Y0D01*
X0D02*
X283465D01*
X-0Y123031D02*
X0Y0D01*
D35*
X17100Y84019D02*
D03*
Y69019D02*
D03*
Y54019D02*
D03*
X264965Y38900D02*
D03*
Y53900D02*
D03*
Y68900D02*
D03*
D36*
X17100Y39019D02*
D03*
X264965Y83900D02*
D03*
D37*
X19685Y15748D02*
D03*
Y107283D02*
D03*
X263779Y107283D02*
D03*
X263779Y15748D02*
D03*
D38*
X96300Y12850D02*
D03*
M02*
