G04*
G04 #@! TF.GenerationSoftware,Altium Limited,Altium Designer,20.0.11 (256)*
G04*
G04 Layer_Physical_Order=2*
G04 Layer_Color=36540*
%FSLAX25Y25*%
%MOIN*%
G70*
G01*
G75*
%ADD11C,0.00600*%
%ADD43C,0.02500*%
%ADD45C,0.02000*%
%ADD48C,0.12000*%
%ADD49C,0.15748*%
%ADD50C,0.02559*%
%ADD51C,0.02800*%
G36*
X157919Y87529D02*
X141842D01*
X141257Y87413D01*
X140761Y87081D01*
X140429Y86585D01*
X140313Y86000D01*
Y81000D01*
X140429Y80415D01*
X140761Y79919D01*
X141257Y79587D01*
X141842Y79471D01*
X157919D01*
Y69950D01*
X142549Y69950D01*
X125049Y87450D01*
X55949D01*
Y70061D01*
X55783Y69950D01*
X48911D01*
X48836Y70450D01*
X50020Y70809D01*
X51236Y71459D01*
X52302Y72333D01*
X53177Y73399D01*
X53827Y74615D01*
X54188Y75807D01*
X47328D01*
X40468D01*
X40830Y74615D01*
X41480Y73399D01*
X42355Y72333D01*
X43420Y71459D01*
X44637Y70809D01*
X44723Y70782D01*
X44747Y70699D01*
X44395Y70119D01*
X43975Y70036D01*
X43846Y69950D01*
X32738D01*
X32310Y70236D01*
X31343Y70428D01*
X30375Y70236D01*
X29947Y69950D01*
X21352D01*
X21277Y70450D01*
X22461Y70809D01*
X23677Y71459D01*
X24743Y72333D01*
X25618Y73399D01*
X26268Y74615D01*
X26629Y75807D01*
X19769D01*
X12909D01*
X13271Y74615D01*
X13921Y73399D01*
X14796Y72333D01*
X15861Y71459D01*
X17077Y70809D01*
X18261Y70450D01*
X18187Y69950D01*
X9843D01*
Y104770D01*
X157919Y104770D01*
Y87529D01*
D02*
G37*
G36*
X100949Y21150D02*
X59949Y21150D01*
X59949Y37127D01*
X60309Y37488D01*
X60439Y37401D01*
X61406Y37208D01*
X62374Y37401D01*
X63194Y37949D01*
X63679Y38675D01*
X64065Y38665D01*
X64200Y38622D01*
X64231Y38464D01*
X64779Y37644D01*
X65599Y37096D01*
X66567Y36904D01*
X67534Y37096D01*
X68354Y37644D01*
X68902Y38464D01*
X69095Y39432D01*
X68902Y40399D01*
X68354Y41219D01*
X67534Y41767D01*
X66567Y41960D01*
X65599Y41767D01*
X64779Y41219D01*
X64294Y40493D01*
X63908Y40503D01*
X63773Y40546D01*
X63742Y40704D01*
X63194Y41524D01*
X62374Y42072D01*
X61406Y42265D01*
X60439Y42072D01*
X59619Y41524D01*
X59071Y40704D01*
X58878Y39736D01*
X59071Y38769D01*
X59139Y38666D01*
X58751Y38348D01*
X57949Y39150D01*
X47728D01*
X47658Y39241D01*
X47768Y39915D01*
X48136Y40162D01*
X48684Y40982D01*
X48877Y41950D01*
X48684Y42917D01*
X48136Y43737D01*
X47316Y44285D01*
X46349Y44478D01*
X45381Y44285D01*
X44561Y43737D01*
X44013Y42917D01*
X43821Y41950D01*
X44013Y40982D01*
X44561Y40162D01*
X44930Y39915D01*
X45040Y39241D01*
X44969Y39150D01*
X28605D01*
Y66633D01*
X29105Y66785D01*
X29555Y66112D01*
X30375Y65564D01*
X31343Y65372D01*
X32310Y65564D01*
X33130Y66112D01*
X33678Y66932D01*
X33871Y67900D01*
X34075Y68150D01*
X42110D01*
X42427Y67763D01*
X42414Y67700D01*
X42607Y66733D01*
X43155Y65912D01*
X43975Y65364D01*
X44943Y65172D01*
X45910Y65364D01*
X46730Y65912D01*
X47278Y66733D01*
X47471Y67700D01*
X47458Y67763D01*
X47775Y68150D01*
X54930D01*
X54963Y68109D01*
X55156Y67142D01*
X55704Y66322D01*
X56524Y65774D01*
X57491Y65581D01*
X58459Y65774D01*
X59279Y66322D01*
X59827Y67142D01*
X60019Y68109D01*
X59827Y69077D01*
X59279Y69897D01*
X58459Y70445D01*
X57945Y70547D01*
X57925Y84296D01*
X58278Y84650D01*
X100949Y84650D01*
X100949Y21150D01*
D02*
G37*
G36*
X125449Y78150D02*
X128788Y74811D01*
X140249Y63350D01*
X145449D01*
X147249Y61550D01*
X147249Y42950D01*
X145449Y41150D01*
X139449Y41150D01*
X128788Y30488D01*
X127442Y29142D01*
X115749Y29163D01*
X115749Y77250D01*
X116649Y78150D01*
X125449Y78150D01*
D02*
G37*
G36*
X55949Y18800D02*
X125049D01*
X142549Y36300D01*
X157919Y36300D01*
Y27029D01*
X141842D01*
X141257Y26913D01*
X140761Y26581D01*
X140429Y26085D01*
X140313Y25500D01*
Y20500D01*
X140429Y19915D01*
X140761Y19419D01*
X141257Y19087D01*
X141842Y18971D01*
X157919D01*
Y1529D01*
X9843Y1529D01*
Y37150D01*
X55949D01*
Y18800D01*
D02*
G37*
%LPC*%
G36*
X21269Y103852D02*
Y98492D01*
X26629D01*
X26268Y99684D01*
X25618Y100900D01*
X24743Y101966D01*
X23677Y102841D01*
X22461Y103491D01*
X21269Y103852D01*
D02*
G37*
G36*
X18269Y103852D02*
X17077Y103491D01*
X15861Y102841D01*
X14796Y101966D01*
X13921Y100900D01*
X13271Y99684D01*
X12909Y98492D01*
X18269D01*
Y103852D01*
D02*
G37*
G36*
X48828D02*
Y98492D01*
X54188D01*
X53827Y99684D01*
X53177Y100900D01*
X52302Y101966D01*
X51236Y102841D01*
X50020Y103491D01*
X48828Y103852D01*
D02*
G37*
G36*
X45828Y103852D02*
X44637Y103491D01*
X43420Y102841D01*
X42355Y101966D01*
X41480Y100900D01*
X40830Y99684D01*
X40468Y98492D01*
X45828D01*
Y103852D01*
D02*
G37*
G36*
X18269Y95492D02*
X12909D01*
X13271Y94300D01*
X13921Y93084D01*
X14796Y92018D01*
X15861Y91144D01*
X17077Y90494D01*
X18269Y90132D01*
Y95492D01*
D02*
G37*
G36*
X54188Y95492D02*
X48828D01*
Y90132D01*
X50020Y90494D01*
X51236Y91144D01*
X52302Y92018D01*
X53177Y93084D01*
X53827Y94300D01*
X54188Y95492D01*
D02*
G37*
G36*
X45828D02*
X40468D01*
X40830Y94300D01*
X41480Y93084D01*
X42355Y92018D01*
X43420Y91144D01*
X44637Y90494D01*
X45828Y90132D01*
Y95492D01*
D02*
G37*
G36*
X26629Y95492D02*
X21269D01*
Y90132D01*
X22461Y90494D01*
X23677Y91144D01*
X24743Y92018D01*
X25618Y93084D01*
X26268Y94300D01*
X26629Y95492D01*
D02*
G37*
G36*
X35049Y95919D02*
Y88650D01*
X42318D01*
X42294Y88889D01*
X41787Y90562D01*
X40963Y92104D01*
X39854Y93455D01*
X38503Y94564D01*
X36961Y95388D01*
X35288Y95895D01*
X35049Y95919D01*
D02*
G37*
G36*
X32049D02*
X31809Y95895D01*
X30136Y95388D01*
X28595Y94564D01*
X27244Y93455D01*
X26135Y92104D01*
X25311Y90562D01*
X24803Y88889D01*
X24780Y88650D01*
X32049D01*
Y95919D01*
D02*
G37*
G36*
X21269Y84167D02*
Y78807D01*
X26629D01*
X26268Y79999D01*
X25618Y81215D01*
X24743Y82281D01*
X23677Y83156D01*
X22461Y83806D01*
X21269Y84167D01*
D02*
G37*
G36*
X18269Y84167D02*
X17077Y83806D01*
X15861Y83156D01*
X14796Y82281D01*
X13921Y81215D01*
X13271Y79999D01*
X12909Y78807D01*
X18269D01*
Y84167D01*
D02*
G37*
G36*
X48828Y84167D02*
Y78807D01*
X54188D01*
X53827Y79999D01*
X53177Y81215D01*
X52302Y82281D01*
X51236Y83156D01*
X50020Y83806D01*
X48828Y84167D01*
D02*
G37*
G36*
X45828Y84167D02*
X44637Y83806D01*
X43420Y83156D01*
X42355Y82281D01*
X41480Y81215D01*
X40830Y79999D01*
X40468Y78807D01*
X45828D01*
Y84167D01*
D02*
G37*
G36*
X42318Y85650D02*
X35049D01*
Y78380D01*
X35288Y78404D01*
X36961Y78911D01*
X38503Y79735D01*
X39854Y80844D01*
X40963Y82196D01*
X41787Y83737D01*
X42294Y85410D01*
X42318Y85650D01*
D02*
G37*
G36*
X32049D02*
X24780D01*
X24803Y85410D01*
X25311Y83737D01*
X26135Y82196D01*
X27244Y80844D01*
X28595Y79735D01*
X30136Y78911D01*
X31809Y78404D01*
X32049Y78380D01*
Y85650D01*
D02*
G37*
G36*
X84906Y81646D02*
X83939Y81454D01*
X83119Y80906D01*
X82571Y80086D01*
X82378Y79118D01*
X82571Y78151D01*
X83119Y77330D01*
X83939Y76783D01*
X84906Y76590D01*
X85874Y76783D01*
X86694Y77330D01*
X87242Y78151D01*
X87434Y79118D01*
X87242Y80086D01*
X86694Y80906D01*
X85874Y81454D01*
X84906Y81646D01*
D02*
G37*
G36*
X71549Y83678D02*
X70581Y83485D01*
X69761Y82937D01*
X69213Y82117D01*
X69021Y81150D01*
X69213Y80182D01*
X69761Y79362D01*
X69888Y79277D01*
X69513Y78717D01*
X69321Y77750D01*
X69513Y76782D01*
X70061Y75962D01*
X70881Y75414D01*
X71849Y75222D01*
X72816Y75414D01*
X73637Y75962D01*
X74185Y76782D01*
X74377Y77750D01*
X74185Y78717D01*
X73637Y79537D01*
X73510Y79622D01*
X73884Y80182D01*
X74077Y81150D01*
X73884Y82117D01*
X73336Y82937D01*
X72516Y83485D01*
X71549Y83678D01*
D02*
G37*
G36*
X94371Y74619D02*
X93404Y74426D01*
X92583Y73878D01*
X92035Y73058D01*
X91843Y72091D01*
X92035Y71123D01*
X92583Y70303D01*
X93404Y69755D01*
X94371Y69563D01*
X95338Y69755D01*
X96159Y70303D01*
X96707Y71123D01*
X96899Y72091D01*
X96707Y73058D01*
X96159Y73878D01*
X95338Y74426D01*
X94371Y74619D01*
D02*
G37*
G36*
X70849Y70078D02*
X69881Y69885D01*
X69061Y69337D01*
X68513Y68517D01*
X68321Y67550D01*
X68513Y66582D01*
X69061Y65762D01*
X69881Y65214D01*
X70849Y65022D01*
X71816Y65214D01*
X72636Y65762D01*
X72689Y65840D01*
X73159Y65645D01*
X73121Y65450D01*
X73313Y64482D01*
X73861Y63662D01*
X74681Y63114D01*
X75649Y62922D01*
X76616Y63114D01*
X77437Y63662D01*
X77984Y64482D01*
X78177Y65450D01*
X77984Y66417D01*
X77437Y67237D01*
X76616Y67785D01*
X75649Y67978D01*
X74681Y67785D01*
X73861Y67237D01*
X73809Y67159D01*
X73338Y67354D01*
X73377Y67550D01*
X73185Y68517D01*
X72636Y69337D01*
X71816Y69885D01*
X70849Y70078D01*
D02*
G37*
G36*
X50343Y66428D02*
X49375Y66236D01*
X48555Y65688D01*
X48007Y64868D01*
X47814Y63900D01*
X48007Y62932D01*
X48555Y62112D01*
X49375Y61564D01*
X50343Y61372D01*
X51310Y61564D01*
X52130Y62112D01*
X52678Y62932D01*
X52871Y63900D01*
X52678Y64868D01*
X52130Y65688D01*
X51310Y66236D01*
X50343Y66428D01*
D02*
G37*
G36*
X94769Y64378D02*
X93802Y64185D01*
X92982Y63637D01*
X92434Y62817D01*
X92241Y61850D01*
X92434Y60882D01*
X92982Y60062D01*
X93802Y59514D01*
X94769Y59321D01*
X95737Y59514D01*
X96557Y60062D01*
X97105Y60882D01*
X97297Y61850D01*
X97105Y62817D01*
X96557Y63637D01*
X95737Y64185D01*
X94769Y64378D01*
D02*
G37*
G36*
X97449Y55778D02*
X96851Y55659D01*
X94943D01*
X94849Y55678D01*
X93881Y55485D01*
X93061Y54937D01*
X92513Y54117D01*
X92321Y53150D01*
X92513Y52182D01*
X93061Y51362D01*
X93881Y50814D01*
X94849Y50621D01*
X95057Y50663D01*
X97344D01*
X98300Y50853D01*
X98381Y50907D01*
X98416Y50914D01*
X99237Y51462D01*
X99784Y52282D01*
X99977Y53250D01*
X99784Y54217D01*
X99237Y55037D01*
X98416Y55585D01*
X97449Y55778D01*
D02*
G37*
G36*
X60349Y59778D02*
X59381Y59585D01*
X58561Y59037D01*
X58013Y58217D01*
X57821Y57250D01*
X58013Y56282D01*
X58561Y55462D01*
X59381Y54914D01*
X60349Y54721D01*
X61316Y54914D01*
X62137Y55462D01*
X62685Y56282D01*
X62877Y57250D01*
X62685Y58217D01*
X62137Y59037D01*
X61316Y59585D01*
X60349Y59778D01*
D02*
G37*
G36*
X55349Y53078D02*
X54381Y52885D01*
X53561Y52337D01*
X53013Y51517D01*
X52821Y50550D01*
X53013Y49582D01*
X53561Y48762D01*
X54381Y48214D01*
X55349Y48022D01*
X56316Y48214D01*
X57136Y48762D01*
X57684Y49582D01*
X57877Y50550D01*
X57684Y51517D01*
X57136Y52337D01*
X56316Y52885D01*
X55349Y53078D01*
D02*
G37*
G36*
X75249Y55272D02*
X74570Y55183D01*
X73938Y54921D01*
X73395Y54504D01*
X72978Y53961D01*
X72716Y53328D01*
X72626Y52650D01*
Y50150D01*
X72716Y49471D01*
X72978Y48838D01*
X73395Y48295D01*
X73938Y47879D01*
X74570Y47616D01*
X75249Y47527D01*
X75928Y47616D01*
X76560Y47879D01*
X77103Y48295D01*
X77520Y48838D01*
X77782Y49471D01*
X77871Y50150D01*
Y52650D01*
X77782Y53328D01*
X77520Y53961D01*
X77103Y54504D01*
X76560Y54921D01*
X75928Y55183D01*
X75249Y55272D01*
D02*
G37*
G36*
X48667Y52320D02*
X47699Y52127D01*
X46879Y51579D01*
X46331Y50759D01*
X46139Y49792D01*
X46331Y48824D01*
X46879Y48004D01*
X47699Y47456D01*
X48667Y47264D01*
X49634Y47456D01*
X50455Y48004D01*
X51003Y48824D01*
X51195Y49792D01*
X51003Y50759D01*
X50455Y51579D01*
X49634Y52127D01*
X48667Y52320D01*
D02*
G37*
G36*
X37205Y47728D02*
X36238Y47536D01*
X35418Y46988D01*
X34870Y46167D01*
X34677Y45200D01*
X34870Y44232D01*
X35418Y43412D01*
X36238Y42864D01*
X37205Y42672D01*
X38173Y42864D01*
X38993Y43412D01*
X39541Y44232D01*
X39734Y45200D01*
X39541Y46167D01*
X38993Y46988D01*
X38173Y47536D01*
X37205Y47728D01*
D02*
G37*
G36*
X66149Y28678D02*
X65997Y28648D01*
X63400D01*
X63249Y28678D01*
X62281Y28485D01*
X61461Y27937D01*
X60913Y27117D01*
X60721Y26150D01*
X60913Y25182D01*
X61461Y24362D01*
X62281Y23814D01*
X63249Y23621D01*
X63400Y23652D01*
X65997D01*
X66149Y23621D01*
X67116Y23814D01*
X67936Y24362D01*
X68484Y25182D01*
X68677Y26150D01*
X68484Y27117D01*
X67936Y27937D01*
X67116Y28485D01*
X66149Y28678D01*
D02*
G37*
G36*
X95549Y30578D02*
X94581Y30385D01*
X93761Y29837D01*
X93213Y29017D01*
X93021Y28050D01*
X93213Y27082D01*
X93761Y26262D01*
X94581Y25714D01*
X95549Y25521D01*
X96516Y25714D01*
X97337Y26262D01*
X97885Y27082D01*
X98077Y28050D01*
X97885Y29017D01*
X97337Y29837D01*
X96516Y30385D01*
X95549Y30578D01*
D02*
G37*
G36*
X119949Y72978D02*
X118981Y72785D01*
X118161Y72237D01*
X117613Y71417D01*
X117421Y70450D01*
X117613Y69482D01*
X118161Y68662D01*
X118578Y68384D01*
Y67782D01*
X118061Y67437D01*
X117513Y66617D01*
X117321Y65650D01*
X117513Y64682D01*
X118061Y63862D01*
X118881Y63314D01*
X119849Y63121D01*
X120816Y63314D01*
X121636Y63862D01*
X122185Y64682D01*
X122377Y65650D01*
X122185Y66617D01*
X121636Y67437D01*
X121220Y67716D01*
Y68317D01*
X121737Y68662D01*
X122284Y69482D01*
X122477Y70450D01*
X122284Y71417D01*
X121737Y72237D01*
X120916Y72785D01*
X119949Y72978D01*
D02*
G37*
G36*
X141949Y62678D02*
X140981Y62485D01*
X140161Y61937D01*
X139613Y61117D01*
X139421Y60150D01*
X139613Y59182D01*
X140161Y58362D01*
X140981Y57814D01*
X141949Y57622D01*
X142916Y57814D01*
X143737Y58362D01*
X144284Y59182D01*
X144477Y60150D01*
X144284Y61117D01*
X143737Y61937D01*
X142916Y62485D01*
X141949Y62678D01*
D02*
G37*
G36*
X142949Y55578D02*
X141981Y55385D01*
X141161Y54837D01*
X140613Y54017D01*
X140421Y53050D01*
X140613Y52082D01*
X141161Y51262D01*
X141981Y50714D01*
X142949Y50521D01*
X143916Y50714D01*
X144737Y51262D01*
X145284Y52082D01*
X145477Y53050D01*
X145284Y54017D01*
X144737Y54837D01*
X143916Y55385D01*
X142949Y55578D01*
D02*
G37*
G36*
Y47678D02*
X141981Y47485D01*
X141161Y46937D01*
X140613Y46117D01*
X140421Y45150D01*
X140613Y44182D01*
X141161Y43362D01*
X141981Y42814D01*
X142949Y42621D01*
X143916Y42814D01*
X144737Y43362D01*
X145284Y44182D01*
X145477Y45150D01*
X145284Y46117D01*
X144737Y46937D01*
X143916Y47485D01*
X142949Y47678D01*
D02*
G37*
G36*
X119849Y38278D02*
X118881Y38085D01*
X118061Y37537D01*
X117513Y36717D01*
X117321Y35750D01*
X117513Y34782D01*
X118061Y33962D01*
X118881Y33414D01*
X119849Y33222D01*
X120816Y33414D01*
X121636Y33962D01*
X122185Y34782D01*
X122377Y35750D01*
X122185Y36717D01*
X121636Y37537D01*
X120816Y38085D01*
X119849Y38278D01*
D02*
G37*
G36*
X21269Y35810D02*
Y30450D01*
X26629D01*
X26268Y31641D01*
X25618Y32857D01*
X24743Y33923D01*
X23677Y34798D01*
X22461Y35448D01*
X21269Y35810D01*
D02*
G37*
G36*
X18269Y35810D02*
X17077Y35448D01*
X15861Y34798D01*
X14796Y33923D01*
X13921Y32857D01*
X13271Y31641D01*
X12909Y30450D01*
X18269D01*
Y35810D01*
D02*
G37*
G36*
X48828D02*
Y30450D01*
X54188D01*
X53827Y31641D01*
X53177Y32857D01*
X52302Y33923D01*
X51236Y34798D01*
X50020Y35448D01*
X48828Y35810D01*
D02*
G37*
G36*
X45828Y35810D02*
X44637Y35448D01*
X43420Y34798D01*
X42355Y33923D01*
X41480Y32857D01*
X40830Y31641D01*
X40468Y30450D01*
X45828D01*
Y35810D01*
D02*
G37*
G36*
X18269Y27450D02*
X12909D01*
X13271Y26258D01*
X13921Y25042D01*
X14796Y23976D01*
X15861Y23101D01*
X17077Y22451D01*
X18269Y22090D01*
Y27450D01*
D02*
G37*
G36*
X54188Y27450D02*
X48828D01*
Y22090D01*
X50020Y22451D01*
X51236Y23101D01*
X52302Y23976D01*
X53177Y25042D01*
X53827Y26258D01*
X54188Y27450D01*
D02*
G37*
G36*
X45828D02*
X40468D01*
X40830Y26258D01*
X41480Y25042D01*
X42355Y23976D01*
X43420Y23101D01*
X44637Y22451D01*
X45828Y22090D01*
Y27450D01*
D02*
G37*
G36*
X26629Y27450D02*
X21269D01*
Y22090D01*
X22461Y22451D01*
X23677Y23101D01*
X24743Y23976D01*
X25618Y25042D01*
X26268Y26258D01*
X26629Y27450D01*
D02*
G37*
G36*
X35049Y27876D02*
Y20607D01*
X42318D01*
X42294Y20847D01*
X41787Y22520D01*
X40963Y24061D01*
X39854Y25412D01*
X38503Y26521D01*
X36961Y27345D01*
X35288Y27853D01*
X35049Y27876D01*
D02*
G37*
G36*
X32049D02*
X31809Y27853D01*
X30136Y27345D01*
X28595Y26521D01*
X27244Y25412D01*
X26135Y24061D01*
X25311Y22520D01*
X24803Y20847D01*
X24780Y20607D01*
X32049D01*
Y27876D01*
D02*
G37*
G36*
X21269Y16125D02*
Y10765D01*
X26629D01*
X26268Y11956D01*
X25618Y13172D01*
X24743Y14238D01*
X23677Y15113D01*
X22461Y15763D01*
X21269Y16125D01*
D02*
G37*
G36*
X18269Y16125D02*
X17077Y15763D01*
X15861Y15113D01*
X14796Y14238D01*
X13921Y13172D01*
X13271Y11956D01*
X12909Y10765D01*
X18269D01*
Y16125D01*
D02*
G37*
G36*
X48828Y16125D02*
Y10765D01*
X54188D01*
X53827Y11956D01*
X53177Y13172D01*
X52302Y14238D01*
X51236Y15113D01*
X50020Y15763D01*
X48828Y16125D01*
D02*
G37*
G36*
X45828Y16125D02*
X44637Y15763D01*
X43420Y15113D01*
X42355Y14238D01*
X41480Y13172D01*
X40830Y11956D01*
X40468Y10765D01*
X45828D01*
Y16125D01*
D02*
G37*
G36*
X42318Y17607D02*
X35049D01*
Y10338D01*
X35288Y10362D01*
X36961Y10869D01*
X38503Y11693D01*
X39854Y12802D01*
X40963Y14153D01*
X41787Y15695D01*
X42294Y17368D01*
X42318Y17607D01*
D02*
G37*
G36*
X32049D02*
X24780D01*
X24803Y17368D01*
X25311Y15695D01*
X26135Y14153D01*
X27244Y12802D01*
X28595Y11693D01*
X30136Y10869D01*
X31809Y10362D01*
X32049Y10338D01*
Y17607D01*
D02*
G37*
G36*
X18269Y7765D02*
X12909D01*
X13271Y6573D01*
X13921Y5357D01*
X14796Y4291D01*
X15861Y3416D01*
X17077Y2766D01*
X18269Y2405D01*
Y7765D01*
D02*
G37*
G36*
X45828Y7765D02*
X40468D01*
X40830Y6573D01*
X41480Y5357D01*
X42355Y4291D01*
X43420Y3416D01*
X44637Y2766D01*
X45828Y2405D01*
Y7765D01*
D02*
G37*
G36*
X54188D02*
X48828D01*
Y2405D01*
X50020Y2766D01*
X51236Y3416D01*
X52302Y4291D01*
X53177Y5357D01*
X53827Y6573D01*
X54188Y7765D01*
D02*
G37*
G36*
X26629Y7765D02*
X21269D01*
Y2405D01*
X22461Y2766D01*
X23677Y3416D01*
X24743Y4291D01*
X25618Y5357D01*
X26268Y6573D01*
X26629Y7765D01*
D02*
G37*
%LPD*%
D11*
X141149Y19685D02*
X159449D01*
X141149D02*
Y25984D01*
X159449Y50D02*
Y19685D01*
X141049Y86614D02*
X159449D01*
Y106250D01*
X141149Y25984D02*
X159449D01*
Y80315D01*
X141049D02*
X159449D01*
X141049D02*
Y86614D01*
X0Y0D02*
Y106299D01*
Y106299D02*
X159449Y106299D01*
X49Y0D02*
X159449Y0D01*
D43*
X63249Y26150D02*
X66149D01*
X94849Y53150D02*
X94860Y53161D01*
X97344D01*
X97433Y53250D01*
X97449D01*
D45*
X35243Y54200D02*
Y70435D01*
X34738Y70939D02*
X35243Y70435D01*
X34738Y70939D02*
X35949Y72150D01*
D48*
X47328Y9265D02*
D03*
Y28950D02*
D03*
X19769D02*
D03*
Y9265D02*
D03*
X47328Y77307D02*
D03*
Y96992D02*
D03*
X19769D02*
D03*
Y77307D02*
D03*
D49*
X33549Y19107D02*
D03*
Y87150D02*
D03*
D50*
X40106Y42100D02*
D03*
X52543Y59000D02*
D03*
X35243Y54200D02*
D03*
X13949Y19150D02*
D03*
Y87150D02*
D03*
X149035Y9650D02*
D03*
X152432D02*
D03*
X145639D02*
D03*
X142242D02*
D03*
X138845D02*
D03*
X135449D02*
D03*
X149035Y96650D02*
D03*
X152432D02*
D03*
X145639D02*
D03*
X142242D02*
D03*
X138845D02*
D03*
X135449D02*
D03*
X141449Y16650D02*
D03*
Y29150D02*
D03*
X140449Y77150D02*
D03*
Y89650D02*
D03*
X137949Y19150D02*
D03*
Y22150D02*
D03*
Y25150D02*
D03*
Y80650D02*
D03*
Y84150D02*
D03*
Y87650D02*
D03*
X135449Y47150D02*
D03*
X78949Y67650D02*
D03*
X121623Y89150D02*
D03*
X125188D02*
D03*
X118057D02*
D03*
X114492D02*
D03*
X110927D02*
D03*
X100231D02*
D03*
X103797D02*
D03*
X107362D02*
D03*
X96666D02*
D03*
X93101D02*
D03*
X89536D02*
D03*
X78840D02*
D03*
X82405D02*
D03*
X85970D02*
D03*
X75275D02*
D03*
X71710D02*
D03*
X68144D02*
D03*
X61014D02*
D03*
X64579D02*
D03*
X57449D02*
D03*
X121623Y17150D02*
D03*
X125188D02*
D03*
X118057D02*
D03*
X114492D02*
D03*
X110927D02*
D03*
X100231D02*
D03*
X103797D02*
D03*
X107362D02*
D03*
X96666D02*
D03*
X93101D02*
D03*
X89536D02*
D03*
X78840D02*
D03*
X82405D02*
D03*
X85970D02*
D03*
X75275D02*
D03*
X71710D02*
D03*
X68144D02*
D03*
X61014D02*
D03*
X64579D02*
D03*
X57449D02*
D03*
X135570Y103150D02*
D03*
X132173D02*
D03*
X128776D02*
D03*
X118587D02*
D03*
X121983D02*
D03*
X125380D02*
D03*
X115190D02*
D03*
X111794D02*
D03*
X108397D02*
D03*
X98207D02*
D03*
X101604D02*
D03*
X105000D02*
D03*
X94811D02*
D03*
X91414D02*
D03*
X88018D02*
D03*
X77828D02*
D03*
X81225D02*
D03*
X84621D02*
D03*
X74432D02*
D03*
X71035D02*
D03*
X67638D02*
D03*
X60845D02*
D03*
X64242D02*
D03*
X57449D02*
D03*
Y3150D02*
D03*
X64242D02*
D03*
X60845D02*
D03*
X67638D02*
D03*
X71035D02*
D03*
X74432D02*
D03*
X84621D02*
D03*
X81225D02*
D03*
X77828D02*
D03*
X88018D02*
D03*
X91414D02*
D03*
X94811D02*
D03*
X105000D02*
D03*
X101604D02*
D03*
X98207D02*
D03*
X108397D02*
D03*
X111794D02*
D03*
X115190D02*
D03*
X125380D02*
D03*
X121983D02*
D03*
X118587D02*
D03*
X128776D02*
D03*
X132173D02*
D03*
X135570D02*
D03*
X52449Y19150D02*
D03*
X49949D02*
D03*
X47449D02*
D03*
X44949D02*
D03*
X37449Y4650D02*
D03*
X34949D02*
D03*
X32449D02*
D03*
X29949D02*
D03*
X36949Y33150D02*
D03*
X34449D02*
D03*
X31949D02*
D03*
X29449D02*
D03*
X21449Y19150D02*
D03*
X18949D02*
D03*
X16449D02*
D03*
X53449Y87150D02*
D03*
X50949D02*
D03*
X48449D02*
D03*
X45949D02*
D03*
X21449D02*
D03*
X18949D02*
D03*
X16449D02*
D03*
X37949Y103150D02*
D03*
X35449D02*
D03*
X32949D02*
D03*
X30449D02*
D03*
X37949Y72650D02*
D03*
X35449D02*
D03*
X32949D02*
D03*
X30449D02*
D03*
X155949Y6525D02*
D03*
Y9900D02*
D03*
Y13275D02*
D03*
Y99775D02*
D03*
Y96400D02*
D03*
Y93025D02*
D03*
X144349Y29150D02*
D03*
X147249D02*
D03*
X155949D02*
D03*
X153049D02*
D03*
X150149D02*
D03*
X143549Y77150D02*
D03*
X146649D02*
D03*
X155949D02*
D03*
X152849D02*
D03*
X149749D02*
D03*
X143549Y89650D02*
D03*
X146649D02*
D03*
X155949D02*
D03*
X152849D02*
D03*
X149749D02*
D03*
X138966Y3150D02*
D03*
X142363D02*
D03*
X145759D02*
D03*
X155949D02*
D03*
X152552D02*
D03*
X149156D02*
D03*
X138966Y103150D02*
D03*
X142363D02*
D03*
X145759D02*
D03*
X155949D02*
D03*
X152552D02*
D03*
X149156D02*
D03*
X144349Y16650D02*
D03*
X147249D02*
D03*
X155949D02*
D03*
X153049D02*
D03*
X150149D02*
D03*
X143449Y71650D02*
D03*
X145949D02*
D03*
X148449D02*
D03*
X155949D02*
D03*
X153449D02*
D03*
X150949D02*
D03*
Y34650D02*
D03*
X153449D02*
D03*
X155949D02*
D03*
X148449D02*
D03*
X145949D02*
D03*
X143449D02*
D03*
X60549Y72750D02*
D03*
X94469Y58379D02*
D03*
X94649Y40750D02*
D03*
Y43450D02*
D03*
X97449Y53250D02*
D03*
X94749Y65250D02*
D03*
X63212Y49207D02*
D03*
X63149Y29550D02*
D03*
X63249Y26150D02*
D03*
X66149D02*
D03*
X65649Y29550D02*
D03*
X94449Y75450D02*
D03*
X119849Y40650D02*
D03*
Y55650D02*
D03*
X119649Y30650D02*
D03*
X119949Y75750D02*
D03*
X94849Y53150D02*
D03*
X79349Y37750D02*
D03*
X75249Y52650D02*
D03*
Y50150D02*
D03*
X76189Y25910D02*
D03*
D51*
X75249Y50150D02*
Y52650D01*
M02*
