G04*
G04 #@! TF.GenerationSoftware,Altium Limited,Altium Designer,20.0.11 (256)*
G04*
G04 Layer_Color=8388736*
%FSLAX25Y25*%
%MOIN*%
G70*
G01*
G75*
%ADD10C,0.03000*%
%ADD11C,0.00600*%
%ADD12R,0.03943X0.03156*%
%ADD13O,0.01581X0.03550*%
%ADD14R,0.03156X0.03943*%
G04:AMPARAMS|DCode=15|XSize=39.43mil|YSize=31.56mil|CornerRadius=6.13mil|HoleSize=0mil|Usage=FLASHONLY|Rotation=270.000|XOffset=0mil|YOffset=0mil|HoleType=Round|Shape=RoundedRectangle|*
%AMROUNDEDRECTD15*
21,1,0.03943,0.01929,0,0,270.0*
21,1,0.02717,0.03156,0,0,270.0*
1,1,0.01227,-0.00965,-0.01358*
1,1,0.01227,-0.00965,0.01358*
1,1,0.01227,0.00965,0.01358*
1,1,0.01227,0.00965,-0.01358*
%
%ADD15ROUNDEDRECTD15*%
G04:AMPARAMS|DCode=16|XSize=27.62mil|YSize=43.37mil|CornerRadius=4.01mil|HoleSize=0mil|Usage=FLASHONLY|Rotation=0.000|XOffset=0mil|YOffset=0mil|HoleType=Round|Shape=RoundedRectangle|*
%AMROUNDEDRECTD16*
21,1,0.02762,0.03535,0,0,0.0*
21,1,0.01961,0.04337,0,0,0.0*
1,1,0.00802,0.00980,-0.01768*
1,1,0.00802,-0.00980,-0.01768*
1,1,0.00802,-0.00980,0.01768*
1,1,0.00802,0.00980,0.01768*
%
%ADD16ROUNDEDRECTD16*%
%ADD17R,0.03943X0.05124*%
%ADD18R,0.06896X0.10046*%
%ADD19R,0.02565X0.01778*%
%ADD20R,0.12211X0.12211*%
G04:AMPARAMS|DCode=21|XSize=39.43mil|YSize=31.56mil|CornerRadius=6.13mil|HoleSize=0mil|Usage=FLASHONLY|Rotation=0.000|XOffset=0mil|YOffset=0mil|HoleType=Round|Shape=RoundedRectangle|*
%AMROUNDEDRECTD21*
21,1,0.03943,0.01929,0,0,0.0*
21,1,0.02717,0.03156,0,0,0.0*
1,1,0.01227,0.01358,-0.00965*
1,1,0.01227,-0.01358,-0.00965*
1,1,0.01227,-0.01358,0.00965*
1,1,0.01227,0.01358,0.00965*
%
%ADD21ROUNDEDRECTD21*%
%ADD22R,0.08274X0.02762*%
%ADD23O,0.08274X0.02762*%
%ADD24R,0.05518X0.05518*%
%ADD25C,0.05518*%
%ADD26C,0.12400*%
%ADD27C,0.16148*%
G36*
X157949Y25984D02*
X141049D01*
Y19685D01*
X157449D01*
X157449Y11500D01*
X133949Y11500D01*
X133949Y27650D01*
X142549Y36250D01*
X157949D01*
Y25984D01*
D02*
G37*
G36*
X157449Y86650D02*
X140549Y86650D01*
Y80350D01*
X157449D01*
Y69985D01*
X142149D01*
X133843Y78291D01*
Y94500D01*
X157449D01*
X157449Y86650D01*
D02*
G37*
G36*
X154224Y64000D02*
X153449D01*
Y65680D01*
X151924D01*
Y64000D01*
X151149D01*
Y67845D01*
X151924D01*
Y66330D01*
X153449D01*
Y67845D01*
X154224D01*
Y64000D01*
D02*
G37*
G36*
X64174Y10887D02*
X66786D01*
Y9787D01*
X64174D01*
Y7150D01*
X63061D01*
Y9787D01*
X60449D01*
Y10887D01*
X63061D01*
Y13500D01*
X64174D01*
Y10887D01*
D02*
G37*
G36*
X63842Y94500D02*
X62260D01*
Y99331D01*
X63842D01*
Y94500D01*
D02*
G37*
D10*
X139949Y89650D02*
G03*
X137949Y87650I0J-2000D01*
G01*
Y77150D02*
X140449D01*
X137949D02*
X143449Y71650D01*
X137949Y77150D02*
Y80650D01*
X52449Y19150D02*
X54449Y17150D01*
X57449D01*
X53449Y87150D02*
X55449Y89150D01*
X57449D01*
X29949Y4650D02*
X37449D01*
X44949Y19150D02*
X52449D01*
X13949D02*
X21449D01*
X29449Y33150D02*
X36949D01*
X30449Y72650D02*
X37949D01*
X45949Y87150D02*
X53449D01*
X13949D02*
X21449D01*
X30449Y103150D02*
X37949D01*
X155949Y71650D02*
Y77150D01*
X140449D02*
X155949D01*
X137949Y79650D02*
Y87650D01*
X139949Y89650D02*
X155949D01*
X140449Y16650D02*
X141449D01*
X137949Y25150D02*
Y25650D01*
Y19150D02*
Y25150D01*
X141449Y29150D02*
X155949D01*
X143449Y34650D02*
X155949D01*
X141449Y16650D02*
X155949D01*
Y3150D02*
Y16650D01*
X57449Y3150D02*
X155949D01*
X57449Y17150D02*
X125188D01*
X57449Y89150D02*
X125188D01*
X57449Y103150D02*
X155949D01*
Y89650D02*
Y103150D01*
X143449Y71650D02*
X155949D01*
D11*
X141149Y19685D02*
X159449D01*
X141149D02*
Y25984D01*
X159449Y50D02*
Y19685D01*
X141049Y86614D02*
X159449D01*
Y106250D01*
X141149Y25984D02*
X159449D01*
Y80315D01*
X141049D02*
X159449D01*
X141049D02*
Y86614D01*
X0Y0D02*
Y106299D01*
Y106299D02*
X159449Y106299D01*
X49Y0D02*
X159449Y0D01*
D12*
X75249Y47150D02*
D03*
Y41150D02*
D03*
D13*
X68902Y42850D02*
D03*
X64965D02*
D03*
X66933D02*
D03*
X62996D02*
D03*
X68902Y55449D02*
D03*
X66933D02*
D03*
X62996D02*
D03*
X64965D02*
D03*
D14*
X57949Y42050D02*
D03*
X51949D02*
D03*
X81449Y77150D02*
D03*
X75449D02*
D03*
X66249Y22750D02*
D03*
X72249D02*
D03*
X63149Y35350D02*
D03*
X69149D02*
D03*
X138449Y60150D02*
D03*
X132449D02*
D03*
X138449Y50650D02*
D03*
X132449D02*
D03*
X60949Y61150D02*
D03*
X66949D02*
D03*
X60949Y67650D02*
D03*
X66949D02*
D03*
D15*
X58149Y47450D02*
D03*
X52149D02*
D03*
X75249Y56150D02*
D03*
X81249D02*
D03*
X52449Y53550D02*
D03*
X58449D02*
D03*
X132449Y44150D02*
D03*
X138449D02*
D03*
D16*
X75949Y71851D02*
D03*
X72208D02*
D03*
X79689D02*
D03*
X72208Y61024D02*
D03*
X75949D02*
D03*
X79689D02*
D03*
D17*
X72245Y29050D02*
D03*
X59253D02*
D03*
D18*
X37343Y57000D02*
D03*
D19*
X31988Y53161D02*
D03*
Y55721D02*
D03*
Y58280D02*
D03*
Y60839D02*
D03*
X42697D02*
D03*
Y58280D02*
D03*
Y55721D02*
D03*
Y53161D02*
D03*
D20*
X151649Y53150D02*
D03*
D21*
X66649Y78650D02*
D03*
Y72650D02*
D03*
X81449Y51650D02*
D03*
Y45650D02*
D03*
X46643Y61700D02*
D03*
Y55700D02*
D03*
X81449Y41150D02*
D03*
Y35150D02*
D03*
D22*
X88445Y75650D02*
D03*
D23*
Y70650D02*
D03*
Y65650D02*
D03*
Y60650D02*
D03*
Y55650D02*
D03*
Y50650D02*
D03*
Y45650D02*
D03*
Y40650D02*
D03*
Y35650D02*
D03*
Y30650D02*
D03*
X125453Y75650D02*
D03*
Y70650D02*
D03*
Y65650D02*
D03*
Y60650D02*
D03*
Y55650D02*
D03*
Y50650D02*
D03*
Y45650D02*
D03*
Y40650D02*
D03*
Y35650D02*
D03*
Y30650D02*
D03*
D24*
X24749Y49213D02*
D03*
D25*
Y57087D02*
D03*
D26*
X47328Y9265D02*
D03*
Y28950D02*
D03*
X19769D02*
D03*
Y9265D02*
D03*
X47328Y77307D02*
D03*
Y96992D02*
D03*
X19769D02*
D03*
Y77307D02*
D03*
D27*
X33549Y19107D02*
D03*
Y87150D02*
D03*
M02*
