G04*
G04 #@! TF.GenerationSoftware,Altium Limited,Altium Designer,20.0.11 (256)*
G04*
G04 Layer_Physical_Order=4*
G04 Layer_Color=9720587*
%FSLAX25Y25*%
%MOIN*%
G70*
G01*
G75*
%ADD11C,0.00600*%
%ADD28R,0.03543X0.02756*%
%ADD30R,0.02756X0.03543*%
G04:AMPARAMS|DCode=31|XSize=35.43mil|YSize=27.56mil|CornerRadius=4.13mil|HoleSize=0mil|Usage=FLASHONLY|Rotation=270.000|XOffset=0mil|YOffset=0mil|HoleType=Round|Shape=RoundedRectangle|*
%AMROUNDEDRECTD31*
21,1,0.03543,0.01929,0,0,270.0*
21,1,0.02717,0.02756,0,0,270.0*
1,1,0.00827,-0.00965,-0.01358*
1,1,0.00827,-0.00965,0.01358*
1,1,0.00827,0.00965,0.01358*
1,1,0.00827,0.00965,-0.01358*
%
%ADD31ROUNDEDRECTD31*%
G04:AMPARAMS|DCode=32|XSize=23.62mil|YSize=39.37mil|CornerRadius=2.01mil|HoleSize=0mil|Usage=FLASHONLY|Rotation=0.000|XOffset=0mil|YOffset=0mil|HoleType=Round|Shape=RoundedRectangle|*
%AMROUNDEDRECTD32*
21,1,0.02362,0.03535,0,0,0.0*
21,1,0.01961,0.03937,0,0,0.0*
1,1,0.00402,0.00980,-0.01768*
1,1,0.00402,-0.00980,-0.01768*
1,1,0.00402,-0.00980,0.01768*
1,1,0.00402,0.00980,0.01768*
%
%ADD32ROUNDEDRECTD32*%
%ADD33R,0.03543X0.04724*%
%ADD36R,0.11811X0.11811*%
G04:AMPARAMS|DCode=37|XSize=35.43mil|YSize=27.56mil|CornerRadius=4.13mil|HoleSize=0mil|Usage=FLASHONLY|Rotation=0.000|XOffset=0mil|YOffset=0mil|HoleType=Round|Shape=RoundedRectangle|*
%AMROUNDEDRECTD37*
21,1,0.03543,0.01929,0,0,0.0*
21,1,0.02717,0.02756,0,0,0.0*
1,1,0.00827,0.01358,-0.00965*
1,1,0.00827,-0.01358,-0.00965*
1,1,0.00827,-0.01358,0.00965*
1,1,0.00827,0.01358,0.00965*
%
%ADD37ROUNDEDRECTD37*%
%ADD40C,0.01000*%
%ADD41C,0.00700*%
%ADD42C,0.00800*%
%ADD43C,0.02500*%
%ADD44C,0.01500*%
%ADD45C,0.02000*%
%ADD46R,0.05118X0.05118*%
%ADD47C,0.05118*%
%ADD48C,0.12000*%
%ADD49C,0.15748*%
%ADD50C,0.02559*%
%ADD52R,0.08500X0.07000*%
%ADD53O,0.05512X0.01772*%
%ADD54R,0.05512X0.01772*%
%ADD55O,0.03150X0.01181*%
%ADD56R,0.06693X0.04331*%
%ADD57C,0.04000*%
%ADD58R,0.04724X0.14567*%
%ADD59R,0.04724X0.02362*%
%ADD60O,0.04724X0.02362*%
%ADD61C,0.04000*%
%ADD62R,0.07000X0.06500*%
%ADD63R,0.06100X0.06400*%
G36*
X157919Y87529D02*
X141842D01*
X141257Y87413D01*
X140761Y87081D01*
X140429Y86585D01*
X140313Y86000D01*
Y81000D01*
X140429Y80415D01*
X140761Y79919D01*
X141257Y79587D01*
X141842Y79471D01*
X157919D01*
Y69999D01*
X142549Y69999D01*
X125049Y87499D01*
X55949D01*
Y70061D01*
X55854Y69997D01*
X48172Y69854D01*
X48143Y70353D01*
X48701Y70408D01*
X50020Y70809D01*
X51236Y71459D01*
X52302Y72333D01*
X53177Y73399D01*
X53827Y74615D01*
X54188Y75807D01*
X47328D01*
X40468D01*
X40830Y74615D01*
X41480Y73399D01*
X42355Y72333D01*
X43420Y71459D01*
X44637Y70809D01*
X44723Y70782D01*
X44747Y70699D01*
X44395Y70119D01*
X43975Y70036D01*
X43575Y69768D01*
X33206Y69574D01*
X33130Y69688D01*
X32310Y70236D01*
X31343Y70428D01*
X30375Y70236D01*
X29555Y69688D01*
X29007Y68867D01*
X28814Y67900D01*
X28890Y67521D01*
X28658Y66700D01*
X10196Y66700D01*
X9843Y67054D01*
X9843Y69999D01*
Y104770D01*
X157919Y104770D01*
Y87529D01*
D02*
G37*
G36*
X55949Y18800D02*
X58702D01*
Y18584D01*
X67795D01*
Y18800D01*
X125049D01*
X142549Y36300D01*
X157919Y36300D01*
Y27029D01*
X141842D01*
X141257Y26913D01*
X140761Y26581D01*
X140429Y26085D01*
X140313Y25500D01*
Y20500D01*
X140429Y19915D01*
X140761Y19419D01*
X141257Y19087D01*
X141842Y18971D01*
X157919D01*
Y1529D01*
X9843Y1529D01*
Y37500D01*
X55949D01*
Y18800D01*
D02*
G37*
G36*
X7249Y56200D02*
X4544D01*
Y56850D01*
X6474D01*
Y60015D01*
X7249D01*
Y56200D01*
D02*
G37*
G36*
X7349Y44100D02*
X6574D01*
Y45780D01*
X5049D01*
Y44100D01*
X4274D01*
Y47945D01*
X5049D01*
Y46430D01*
X6574D01*
Y47945D01*
X7349D01*
Y44100D01*
D02*
G37*
%LPC*%
G36*
X21269Y103852D02*
Y98492D01*
X26629D01*
X26268Y99684D01*
X25618Y100900D01*
X24743Y101966D01*
X23677Y102841D01*
X22461Y103491D01*
X21269Y103852D01*
D02*
G37*
G36*
X18269Y103852D02*
X17077Y103491D01*
X15861Y102841D01*
X14796Y101966D01*
X13921Y100900D01*
X13271Y99684D01*
X12909Y98492D01*
X18269D01*
Y103852D01*
D02*
G37*
G36*
X48828D02*
Y98492D01*
X54188D01*
X53827Y99684D01*
X53177Y100900D01*
X52302Y101966D01*
X51236Y102841D01*
X50020Y103491D01*
X48828Y103852D01*
D02*
G37*
G36*
X45828Y103852D02*
X44637Y103491D01*
X43420Y102841D01*
X42355Y101966D01*
X41480Y100900D01*
X40830Y99684D01*
X40468Y98492D01*
X45828D01*
Y103852D01*
D02*
G37*
G36*
X18269Y95492D02*
X12909D01*
X13271Y94300D01*
X13921Y93084D01*
X14796Y92018D01*
X15861Y91144D01*
X17077Y90494D01*
X18269Y90132D01*
Y95492D01*
D02*
G37*
G36*
X54188Y95492D02*
X48828D01*
Y90132D01*
X50020Y90494D01*
X51236Y91144D01*
X52302Y92018D01*
X53177Y93084D01*
X53827Y94300D01*
X54188Y95492D01*
D02*
G37*
G36*
X45828D02*
X40468D01*
X40830Y94300D01*
X41480Y93084D01*
X42355Y92018D01*
X43420Y91144D01*
X44637Y90494D01*
X45828Y90132D01*
Y95492D01*
D02*
G37*
G36*
X26629Y95492D02*
X21269D01*
Y90132D01*
X22461Y90494D01*
X23677Y91144D01*
X24743Y92018D01*
X25618Y93084D01*
X26268Y94300D01*
X26629Y95492D01*
D02*
G37*
G36*
X35049Y95919D02*
Y88650D01*
X42318D01*
X42294Y88889D01*
X41787Y90562D01*
X40963Y92104D01*
X39854Y93455D01*
X38503Y94564D01*
X36961Y95388D01*
X35288Y95895D01*
X35049Y95919D01*
D02*
G37*
G36*
X32049D02*
X31809Y95895D01*
X30136Y95388D01*
X28595Y94564D01*
X27244Y93455D01*
X26135Y92104D01*
X25311Y90562D01*
X24803Y88889D01*
X24780Y88650D01*
X32049D01*
Y95919D01*
D02*
G37*
G36*
X21269Y84167D02*
Y78807D01*
X26629D01*
X26268Y79999D01*
X25618Y81215D01*
X24743Y82281D01*
X23677Y83156D01*
X22461Y83806D01*
X21269Y84167D01*
D02*
G37*
G36*
X18269Y84167D02*
X17077Y83806D01*
X15861Y83156D01*
X14796Y82281D01*
X13921Y81215D01*
X13271Y79999D01*
X12909Y78807D01*
X18269D01*
Y84167D01*
D02*
G37*
G36*
X48828Y84167D02*
Y78807D01*
X54188D01*
X53827Y79999D01*
X53177Y81215D01*
X52302Y82281D01*
X51236Y83156D01*
X50020Y83806D01*
X48828Y84167D01*
D02*
G37*
G36*
X45828Y84167D02*
X44637Y83806D01*
X43420Y83156D01*
X42355Y82281D01*
X41480Y81215D01*
X40830Y79999D01*
X40468Y78807D01*
X45828D01*
Y84167D01*
D02*
G37*
G36*
X42318Y85650D02*
X35049D01*
Y78380D01*
X35288Y78404D01*
X36961Y78911D01*
X38503Y79735D01*
X39854Y80844D01*
X40963Y82196D01*
X41787Y83737D01*
X42294Y85410D01*
X42318Y85650D01*
D02*
G37*
G36*
X32049D02*
X24780D01*
X24803Y85410D01*
X25311Y83737D01*
X26135Y82196D01*
X27244Y80844D01*
X28595Y79735D01*
X30136Y78911D01*
X31809Y78404D01*
X32049Y78380D01*
Y85650D01*
D02*
G37*
G36*
X18269Y75807D02*
X12909D01*
X13271Y74615D01*
X13921Y73399D01*
X14796Y72333D01*
X15861Y71459D01*
X17077Y70809D01*
X18269Y70447D01*
Y75807D01*
D02*
G37*
G36*
X26629D02*
X21269D01*
Y70447D01*
X22461Y70809D01*
X23677Y71459D01*
X24743Y72333D01*
X25618Y73399D01*
X26268Y74615D01*
X26629Y75807D01*
D02*
G37*
G36*
X21269Y35810D02*
Y30450D01*
X26629D01*
X26268Y31641D01*
X25618Y32857D01*
X24743Y33923D01*
X23677Y34798D01*
X22461Y35448D01*
X21269Y35810D01*
D02*
G37*
G36*
X18269Y35810D02*
X17077Y35448D01*
X15861Y34798D01*
X14796Y33923D01*
X13921Y32857D01*
X13271Y31641D01*
X12909Y30450D01*
X18269D01*
Y35810D01*
D02*
G37*
G36*
X48828D02*
Y30450D01*
X54188D01*
X53827Y31641D01*
X53177Y32857D01*
X52302Y33923D01*
X51236Y34798D01*
X50020Y35448D01*
X48828Y35810D01*
D02*
G37*
G36*
X45828Y35810D02*
X44637Y35448D01*
X43420Y34798D01*
X42355Y33923D01*
X41480Y32857D01*
X40830Y31641D01*
X40468Y30450D01*
X45828D01*
Y35810D01*
D02*
G37*
G36*
X18269Y27450D02*
X12909D01*
X13271Y26258D01*
X13921Y25042D01*
X14796Y23976D01*
X15861Y23101D01*
X17077Y22451D01*
X18269Y22090D01*
Y27450D01*
D02*
G37*
G36*
X54188Y27450D02*
X48828D01*
Y22090D01*
X50020Y22451D01*
X51236Y23101D01*
X52302Y23976D01*
X53177Y25042D01*
X53827Y26258D01*
X54188Y27450D01*
D02*
G37*
G36*
X45828D02*
X40468D01*
X40830Y26258D01*
X41480Y25042D01*
X42355Y23976D01*
X43420Y23101D01*
X44637Y22451D01*
X45828Y22090D01*
Y27450D01*
D02*
G37*
G36*
X26629Y27450D02*
X21269D01*
Y22090D01*
X22461Y22451D01*
X23677Y23101D01*
X24743Y23976D01*
X25618Y25042D01*
X26268Y26258D01*
X26629Y27450D01*
D02*
G37*
G36*
X35049Y27876D02*
Y20607D01*
X42318D01*
X42294Y20847D01*
X41787Y22520D01*
X40963Y24061D01*
X39854Y25412D01*
X38503Y26521D01*
X36961Y27345D01*
X35288Y27853D01*
X35049Y27876D01*
D02*
G37*
G36*
X32049D02*
X31809Y27853D01*
X30136Y27345D01*
X28595Y26521D01*
X27244Y25412D01*
X26135Y24061D01*
X25311Y22520D01*
X24803Y20847D01*
X24780Y20607D01*
X32049D01*
Y27876D01*
D02*
G37*
G36*
X21269Y16125D02*
Y10765D01*
X26629D01*
X26268Y11956D01*
X25618Y13172D01*
X24743Y14238D01*
X23677Y15113D01*
X22461Y15763D01*
X21269Y16125D01*
D02*
G37*
G36*
X18269Y16125D02*
X17077Y15763D01*
X15861Y15113D01*
X14796Y14238D01*
X13921Y13172D01*
X13271Y11956D01*
X12909Y10765D01*
X18269D01*
Y16125D01*
D02*
G37*
G36*
X48828Y16125D02*
Y10765D01*
X54188D01*
X53827Y11956D01*
X53177Y13172D01*
X52302Y14238D01*
X51236Y15113D01*
X50020Y15763D01*
X48828Y16125D01*
D02*
G37*
G36*
X45828Y16125D02*
X44637Y15763D01*
X43420Y15113D01*
X42355Y14238D01*
X41480Y13172D01*
X40830Y11956D01*
X40468Y10765D01*
X45828D01*
Y16125D01*
D02*
G37*
G36*
X42318Y17607D02*
X35049D01*
Y10338D01*
X35288Y10362D01*
X36961Y10869D01*
X38503Y11693D01*
X39854Y12802D01*
X40963Y14153D01*
X41787Y15695D01*
X42294Y17368D01*
X42318Y17607D01*
D02*
G37*
G36*
X32049D02*
X24780D01*
X24803Y17368D01*
X25311Y15695D01*
X26135Y14153D01*
X27244Y12802D01*
X28595Y11693D01*
X30136Y10869D01*
X31809Y10362D01*
X32049Y10338D01*
Y17607D01*
D02*
G37*
G36*
X18269Y7765D02*
X12909D01*
X13271Y6573D01*
X13921Y5357D01*
X14796Y4291D01*
X15861Y3416D01*
X17077Y2766D01*
X18269Y2405D01*
Y7765D01*
D02*
G37*
G36*
X45828Y7765D02*
X40468D01*
X40830Y6573D01*
X41480Y5357D01*
X42355Y4291D01*
X43420Y3416D01*
X44637Y2766D01*
X45828Y2405D01*
Y7765D01*
D02*
G37*
G36*
X54188D02*
X48828D01*
Y2405D01*
X50020Y2766D01*
X51236Y3416D01*
X52302Y4291D01*
X53177Y5357D01*
X53827Y6573D01*
X54188Y7765D01*
D02*
G37*
G36*
X26629Y7765D02*
X21269D01*
Y2405D01*
X22461Y2766D01*
X23677Y3416D01*
X24743Y4291D01*
X25618Y5357D01*
X26268Y6573D01*
X26629Y7765D01*
D02*
G37*
%LPD*%
D11*
X141149Y19685D02*
X159449D01*
X141149D02*
Y25984D01*
X159449Y50D02*
Y19685D01*
X141049Y86614D02*
X159449D01*
Y106250D01*
X141149Y25984D02*
X159449D01*
Y80315D01*
X141049D02*
X159449D01*
X141049D02*
Y86614D01*
X0Y0D02*
Y106299D01*
Y106299D02*
X159449Y106299D01*
X49Y0D02*
X159449Y0D01*
D28*
X123249Y65650D02*
D03*
Y59650D02*
D03*
X85949Y28650D02*
D03*
Y22650D02*
D03*
X91449D02*
D03*
Y28650D02*
D03*
D30*
X24805Y63600D02*
D03*
X30806D02*
D03*
X24705Y41700D02*
D03*
X30705D02*
D03*
X43149Y50250D02*
D03*
X37149D02*
D03*
D31*
Y55850D02*
D03*
X43149D02*
D03*
X76449Y34650D02*
D03*
X70449D02*
D03*
D32*
X52449Y56563D02*
D03*
X56189D02*
D03*
X48709D02*
D03*
X56189Y45736D02*
D03*
X52449D02*
D03*
X48709D02*
D03*
D33*
X83445Y40650D02*
D03*
X70453D02*
D03*
D36*
X151649Y53150D02*
D03*
D37*
X123249Y35050D02*
D03*
Y41050D02*
D03*
X123349Y75850D02*
D03*
Y69850D02*
D03*
X32305Y50600D02*
D03*
Y56600D02*
D03*
X37249Y60450D02*
D03*
Y66450D02*
D03*
X61949Y51750D02*
D03*
Y45750D02*
D03*
D40*
X81461Y52650D02*
Y53150D01*
Y50661D02*
Y52650D01*
X91449Y31850D02*
X97249Y37650D01*
Y53050D01*
X97549Y53350D01*
X50599Y39300D02*
X52449Y41150D01*
X37205Y41352D02*
X39257Y39300D01*
X50599D01*
X11349Y29986D02*
Y33800D01*
X19654Y29065D02*
X19769Y28950D01*
X12269Y29065D02*
X19654D01*
X11349Y29986D02*
X12269Y29065D01*
X14249Y36700D02*
Y45200D01*
X11349Y33800D02*
X14249Y36700D01*
X11849Y71600D02*
Y71700D01*
Y71600D02*
X14249Y69200D01*
Y60987D02*
Y69200D01*
X31931Y47325D02*
Y50581D01*
X30806Y46200D02*
X31931Y47325D01*
X30705Y41700D02*
X30806Y41800D01*
Y46200D01*
X31034Y51478D02*
X31931Y50581D01*
X28905Y53222D02*
Y58800D01*
Y53222D02*
X30650Y51478D01*
X31034D01*
X24705Y41700D02*
Y49169D01*
X24749Y49213D01*
X24777Y63572D02*
X24805Y63600D01*
X24777Y57115D02*
Y63572D01*
X24749Y57087D02*
X24777Y57115D01*
X32305Y56600D02*
X32681Y56225D01*
X36774D01*
X37149Y55850D01*
X30806Y60700D02*
Y63600D01*
X28905Y58800D02*
X30806Y60700D01*
X37177Y45228D02*
X37205Y45200D01*
X37177Y45228D02*
Y50221D01*
X37149Y50250D02*
X37177Y50221D01*
X37205Y41352D02*
Y45200D01*
X35243Y54200D02*
X35664D01*
X36042Y54578D01*
X36271D01*
X37149Y55456D01*
Y55850D01*
X31343Y67900D02*
X31764D01*
X32643Y67021D01*
X36677D01*
X37349Y66350D01*
X35243Y53778D02*
Y54200D01*
X32152Y56753D02*
X32305Y56600D01*
X52496Y58953D02*
X52543Y59000D01*
X52496Y56610D02*
Y58953D01*
X52449Y56563D02*
X52496Y56610D01*
X37349Y66350D02*
X42982D01*
X44644Y67402D02*
X44943Y67700D01*
X44034Y67402D02*
X44644D01*
X42982Y66350D02*
X44034Y67402D01*
X151449Y52950D02*
X151549Y53050D01*
X151449Y44650D02*
Y52950D01*
X151649Y53150D02*
Y60950D01*
X151449Y61150D02*
X151649Y60950D01*
X140369Y47729D02*
X142949Y45150D01*
X140369Y47729D02*
Y58148D01*
X141949Y59728D02*
Y60150D01*
X140369Y58148D02*
X141949Y59728D01*
X52449Y41150D02*
Y45736D01*
X97549Y53350D02*
X98528Y54329D01*
X62849Y32770D02*
X63149Y32470D01*
X151549Y53050D02*
X151649Y53150D01*
X142949Y53050D02*
X151549D01*
X120147Y55948D02*
Y56548D01*
X121977Y58772D02*
X122855Y59650D01*
X121977Y58378D02*
Y58772D01*
X120147Y56548D02*
X121977Y58378D01*
X122855Y59650D02*
X123249D01*
X98528Y54329D02*
Y77139D01*
X93195Y82473D02*
X98528Y77139D01*
X89449Y41929D02*
X90628Y40750D01*
X94649D01*
Y43450D01*
X85949Y28650D02*
Y34250D01*
X83445Y36754D02*
Y40650D01*
Y36754D02*
X85949Y34250D01*
X83445Y40650D02*
X88169D01*
X89449Y41929D01*
X89702Y65111D02*
X94610D01*
X89563Y64973D02*
X89702Y65111D01*
X94610D02*
X94749Y65250D01*
X62036Y51750D02*
X62914Y50872D01*
X61949Y51750D02*
X62036D01*
X62914Y49505D02*
Y50872D01*
Y49505D02*
X63212Y49207D01*
X62849Y32770D02*
X63249Y33170D01*
X71549Y81150D02*
X82549D01*
X71127D02*
X71549D01*
X63984Y33170D02*
X65649Y31505D01*
X63249Y33170D02*
X63984D01*
X53603Y60444D02*
X54547D01*
X52249Y59090D02*
X53603Y60444D01*
X83872Y82473D02*
X93195D01*
X82549Y81150D02*
X83872Y82473D01*
X84906Y79118D02*
X85328D01*
X86151Y79941D02*
X89177D01*
X85328Y79118D02*
X86151Y79941D01*
X89177D02*
X89563Y80327D01*
X119849Y55650D02*
X120147Y55948D01*
X122847Y35451D02*
X123249Y35050D01*
X120147Y35451D02*
X122847D01*
X119849Y35750D02*
X120147Y35451D01*
X123049Y40850D02*
X123249Y41050D01*
X120049Y40850D02*
X123049D01*
X119849Y40650D02*
X120049Y40850D01*
X119849Y65650D02*
X123249D01*
X123047Y70151D02*
X123349Y69850D01*
X120247Y70151D02*
X123047D01*
X119949Y70450D02*
X120247Y70151D01*
X123299Y75800D02*
X123349Y75850D01*
X119999Y75800D02*
X123299D01*
X119949Y75750D02*
X119999Y75800D01*
X123249Y65650D02*
X123249Y65650D01*
X37149Y55850D02*
X37199Y55900D01*
Y60400D01*
X37249Y60450D01*
X66335Y80327D02*
X66357Y80350D01*
X70327D01*
X71127Y81150D01*
X80961Y52650D02*
X81461Y53150D01*
X75249Y52650D02*
X80961D01*
X80949Y50150D02*
X81461Y50661D01*
X75249Y50150D02*
X80949D01*
X80291Y25910D02*
X84091D01*
X76189D02*
X80291D01*
X89449Y41929D02*
X90969Y43450D01*
X94649D01*
X91449Y28650D02*
Y31850D01*
X77149Y29650D02*
X80291D01*
X76449Y30350D02*
X77149Y29650D01*
X76449Y30350D02*
Y34650D01*
X85949Y22650D02*
X91449D01*
X85709Y22410D02*
X85949Y22650D01*
X80532Y22410D02*
X85709D01*
X80291Y22169D02*
X80532Y22410D01*
X85555Y28650D02*
X85949D01*
X84677Y27772D02*
X85555Y28650D01*
X84677Y26495D02*
Y27772D01*
X84091Y25910D02*
X84677Y26495D01*
D41*
X63585Y69885D02*
X66130D01*
X62194Y68494D02*
X63585Y69885D01*
X62194Y59595D02*
Y68494D01*
X61406Y39736D02*
Y39781D01*
X61756Y40131D01*
Y40957D01*
X61949Y41150D01*
Y45750D01*
X96878Y71041D02*
Y76456D01*
X93369Y67532D02*
X96878Y71041D01*
X89563Y67532D02*
X93369D01*
X66130Y69885D02*
X66335Y70091D01*
X66549Y39450D02*
Y52450D01*
X64549Y54450D02*
Y61350D01*
Y54450D02*
X66549Y52450D01*
Y39450D02*
X66567Y39432D01*
X48809Y68109D02*
X57491D01*
X45080Y64381D02*
X48809Y68109D01*
X41949Y64381D02*
X45080D01*
X82949Y69550D02*
X83490Y70091D01*
X82949Y64250D02*
Y69550D01*
X73278Y66543D02*
Y74220D01*
X81676Y62977D02*
X82949Y64250D01*
X66176Y62977D02*
X81676D01*
X71707Y64973D02*
X73278Y66543D01*
X83490Y70091D02*
X89563D01*
X60349Y57250D02*
Y57750D01*
X60549Y57950D01*
X62194Y59595D01*
X64549Y61350D02*
X66176Y62977D01*
X95455Y77879D02*
X96878Y76456D01*
X66549Y75150D02*
X72349D01*
X73278Y74220D01*
X89674Y77879D02*
X95455D01*
X89563Y77768D02*
X89674Y77879D01*
X56189Y45736D02*
X61935D01*
X61949Y45750D01*
X66335Y64973D02*
X71707D01*
D42*
X46649Y63750D02*
X49279Y66379D01*
X50381Y63804D02*
Y63862D01*
X50343Y63900D02*
X50381Y63862D01*
X52349Y65687D02*
Y66350D01*
Y65687D02*
X53655Y64381D01*
X54547D01*
X52319Y66379D02*
X52349Y66350D01*
X49279Y66379D02*
X52319D01*
X70840Y67541D02*
X70849Y67550D01*
X66335Y67532D02*
X66344Y67541D01*
X70840D01*
X56189Y53390D02*
Y57350D01*
X63945Y72464D02*
X66149D01*
X60457Y68976D02*
X63945Y72464D01*
X60457Y61619D02*
Y68976D01*
X56189Y57350D02*
X60457Y61619D01*
X46246Y42053D02*
X46349Y41950D01*
X44546Y42053D02*
X46246D01*
X40249Y46350D02*
X44546Y42053D01*
X40249Y46350D02*
Y57850D01*
X41521Y59122D01*
Y60268D01*
X41697Y60444D01*
X48667Y49792D02*
Y49868D01*
X48679Y49880D01*
Y56533D01*
X51772Y62413D02*
X54547D01*
X50381Y63804D02*
X51772Y62413D01*
X55349Y50550D02*
Y52550D01*
X56189Y53390D01*
X48679Y56533D02*
X48709Y56563D01*
X66149Y72464D02*
X66335Y72650D01*
X93336D02*
X93895Y72091D01*
X89563Y72650D02*
X93336D01*
X43149Y56243D02*
X46649Y59743D01*
Y63750D01*
X71840Y77759D02*
X71849Y77750D01*
X66344Y77759D02*
X71840D01*
X66335Y77768D02*
X66344Y77759D01*
X44549Y60913D02*
Y61944D01*
X41949Y60444D02*
X42022Y60517D01*
X44153D01*
X44549Y60913D01*
X41949Y62413D02*
X44080D01*
X44549Y61944D01*
X41697Y60444D02*
X41949D01*
X93895Y72091D02*
X94371D01*
X77308Y75209D02*
X89563D01*
X75649Y65450D02*
Y73550D01*
X44862Y45736D02*
X48709D01*
X43149Y47450D02*
X44862Y45736D01*
X43149Y47450D02*
Y50250D01*
Y55850D01*
Y56243D01*
X75649Y73550D02*
X77308Y75209D01*
X52349Y66350D02*
X54547D01*
D43*
X63249Y21950D02*
Y26150D01*
X66149D01*
X63149Y29550D02*
X65649D01*
X75249Y50150D02*
Y52650D01*
D44*
X65845Y25745D02*
X70284D01*
X63149Y29550D02*
Y32470D01*
X65845Y23365D02*
Y25745D01*
X64540Y22060D02*
X70339D01*
X65845Y25745D02*
X65845Y25745D01*
X70284D02*
X70449Y25910D01*
X65649Y29550D02*
Y31505D01*
X70144Y22169D02*
Y25604D01*
X70284Y25745D01*
X63359Y22060D02*
X64540D01*
X65845Y23365D01*
X70339Y22060D02*
X70449Y22169D01*
X63249Y21950D02*
X63359Y22060D01*
X70449Y34650D02*
Y53138D01*
X70437Y53150D02*
X70449Y53138D01*
Y29650D02*
Y34650D01*
D45*
X94749Y53150D02*
X94849D01*
X89449D02*
Y58650D01*
D46*
X24749Y49213D02*
D03*
D47*
Y57087D02*
D03*
D48*
X47328Y9265D02*
D03*
Y28950D02*
D03*
X19769D02*
D03*
Y9265D02*
D03*
X47328Y77307D02*
D03*
Y96992D02*
D03*
X19769D02*
D03*
Y77307D02*
D03*
D49*
X33549Y19107D02*
D03*
Y87150D02*
D03*
D50*
X40106Y42100D02*
D03*
X37205Y45200D02*
D03*
X31343Y67900D02*
D03*
X52543Y59000D02*
D03*
X50343Y63900D02*
D03*
X44943Y67700D02*
D03*
X35243Y54200D02*
D03*
X13949Y19150D02*
D03*
Y87150D02*
D03*
X154949Y44650D02*
D03*
Y61150D02*
D03*
X151449Y44650D02*
D03*
Y61150D02*
D03*
X70849Y67550D02*
D03*
X149035Y9650D02*
D03*
X152432D02*
D03*
X145639D02*
D03*
X142242D02*
D03*
X138845D02*
D03*
X135449D02*
D03*
X149035Y96650D02*
D03*
X152432D02*
D03*
X145639D02*
D03*
X142242D02*
D03*
X138845D02*
D03*
X135449D02*
D03*
X141449Y16650D02*
D03*
Y29150D02*
D03*
X140449Y77150D02*
D03*
Y89650D02*
D03*
X137949Y19150D02*
D03*
Y22150D02*
D03*
Y25150D02*
D03*
Y80650D02*
D03*
Y84150D02*
D03*
Y87650D02*
D03*
X142949Y45150D02*
D03*
X135449Y47150D02*
D03*
X78949Y67650D02*
D03*
X121623Y89150D02*
D03*
X125188D02*
D03*
X118057D02*
D03*
X114492D02*
D03*
X110927D02*
D03*
X100231D02*
D03*
X103797D02*
D03*
X107362D02*
D03*
X96666D02*
D03*
X93101D02*
D03*
X89536D02*
D03*
X78840D02*
D03*
X82405D02*
D03*
X85970D02*
D03*
X75275D02*
D03*
X71710D02*
D03*
X68144D02*
D03*
X61014D02*
D03*
X64579D02*
D03*
X57449D02*
D03*
X121623Y17150D02*
D03*
X125188D02*
D03*
X118057D02*
D03*
X114492D02*
D03*
X110927D02*
D03*
X100231D02*
D03*
X103797D02*
D03*
X107362D02*
D03*
X96666D02*
D03*
X93101D02*
D03*
X89536D02*
D03*
X78840D02*
D03*
X82405D02*
D03*
X85970D02*
D03*
X75275D02*
D03*
X71710D02*
D03*
X68144D02*
D03*
X61014D02*
D03*
X64579D02*
D03*
X57449D02*
D03*
X135570Y103150D02*
D03*
X132173D02*
D03*
X128776D02*
D03*
X118587D02*
D03*
X121983D02*
D03*
X125380D02*
D03*
X115190D02*
D03*
X111794D02*
D03*
X108397D02*
D03*
X98207D02*
D03*
X101604D02*
D03*
X105000D02*
D03*
X94811D02*
D03*
X91414D02*
D03*
X88018D02*
D03*
X77828D02*
D03*
X81225D02*
D03*
X84621D02*
D03*
X74432D02*
D03*
X71035D02*
D03*
X67638D02*
D03*
X60845D02*
D03*
X64242D02*
D03*
X57449D02*
D03*
Y3150D02*
D03*
X64242D02*
D03*
X60845D02*
D03*
X67638D02*
D03*
X71035D02*
D03*
X74432D02*
D03*
X84621D02*
D03*
X81225D02*
D03*
X77828D02*
D03*
X88018D02*
D03*
X91414D02*
D03*
X94811D02*
D03*
X105000D02*
D03*
X101604D02*
D03*
X98207D02*
D03*
X108397D02*
D03*
X111794D02*
D03*
X115190D02*
D03*
X125380D02*
D03*
X121983D02*
D03*
X118587D02*
D03*
X128776D02*
D03*
X132173D02*
D03*
X135570D02*
D03*
X52449Y19150D02*
D03*
X49949D02*
D03*
X47449D02*
D03*
X44949D02*
D03*
X37449Y4650D02*
D03*
X34949D02*
D03*
X32449D02*
D03*
X29949D02*
D03*
X36949Y33150D02*
D03*
X34449D02*
D03*
X31949D02*
D03*
X29449D02*
D03*
X21449Y19150D02*
D03*
X18949D02*
D03*
X16449D02*
D03*
X53449Y87150D02*
D03*
X50949D02*
D03*
X48449D02*
D03*
X45949D02*
D03*
X21449D02*
D03*
X18949D02*
D03*
X16449D02*
D03*
X37949Y103150D02*
D03*
X35449D02*
D03*
X32949D02*
D03*
X30449D02*
D03*
X37949Y72650D02*
D03*
X35449D02*
D03*
X32949D02*
D03*
X30449D02*
D03*
X155949Y6525D02*
D03*
Y9900D02*
D03*
Y13275D02*
D03*
Y99775D02*
D03*
Y96400D02*
D03*
Y93025D02*
D03*
X144349Y29150D02*
D03*
X147249D02*
D03*
X155949D02*
D03*
X153049D02*
D03*
X150149D02*
D03*
X143549Y77150D02*
D03*
X146649D02*
D03*
X155949D02*
D03*
X152849D02*
D03*
X149749D02*
D03*
X143549Y89650D02*
D03*
X146649D02*
D03*
X155949D02*
D03*
X152849D02*
D03*
X149749D02*
D03*
X138966Y3150D02*
D03*
X142363D02*
D03*
X145759D02*
D03*
X155949D02*
D03*
X152552D02*
D03*
X149156D02*
D03*
X138966Y103150D02*
D03*
X142363D02*
D03*
X145759D02*
D03*
X155949D02*
D03*
X152552D02*
D03*
X149156D02*
D03*
X144349Y16650D02*
D03*
X147249D02*
D03*
X155949D02*
D03*
X153049D02*
D03*
X150149D02*
D03*
X143449Y71650D02*
D03*
X145949D02*
D03*
X148449D02*
D03*
X155949D02*
D03*
X153449D02*
D03*
X150949D02*
D03*
Y34650D02*
D03*
X153449D02*
D03*
X155949D02*
D03*
X148449D02*
D03*
X145949D02*
D03*
X143449D02*
D03*
X60549Y72750D02*
D03*
X61406Y39736D02*
D03*
X46349Y41950D02*
D03*
X94469Y58379D02*
D03*
X48667Y49792D02*
D03*
X55349Y50550D02*
D03*
X142949Y53050D02*
D03*
X94649Y40750D02*
D03*
Y43450D02*
D03*
X97449Y53250D02*
D03*
X94749Y65250D02*
D03*
X94769Y61850D02*
D03*
X63212Y49207D02*
D03*
X63149Y29550D02*
D03*
X63249Y26150D02*
D03*
X66149D02*
D03*
X65649Y29550D02*
D03*
X66567Y39432D02*
D03*
X95549Y28050D02*
D03*
X84906Y79118D02*
D03*
X71849Y77750D02*
D03*
X94371Y72091D02*
D03*
X75649Y65450D02*
D03*
X71549Y81150D02*
D03*
X94449Y75450D02*
D03*
X119849Y35750D02*
D03*
Y40650D02*
D03*
Y55650D02*
D03*
X119649Y30650D02*
D03*
X119849Y65650D02*
D03*
X119949Y70450D02*
D03*
Y75750D02*
D03*
X60349Y57250D02*
D03*
X94849Y53150D02*
D03*
X57491Y68109D02*
D03*
X79349Y37750D02*
D03*
X75249Y52650D02*
D03*
Y50150D02*
D03*
X76189Y25910D02*
D03*
X141949Y60150D02*
D03*
D52*
X14249Y45200D02*
D03*
Y60987D02*
D03*
D53*
X66335Y64973D02*
D03*
Y67532D02*
D03*
Y70091D02*
D03*
Y72650D02*
D03*
Y75209D02*
D03*
Y77768D02*
D03*
Y80327D02*
D03*
X89563Y64973D02*
D03*
Y67532D02*
D03*
Y70091D02*
D03*
Y72650D02*
D03*
Y75209D02*
D03*
Y77768D02*
D03*
D54*
Y80327D02*
D03*
D55*
X41949Y64381D02*
D03*
Y66350D02*
D03*
Y62413D02*
D03*
Y60444D02*
D03*
X54547Y66350D02*
D03*
Y62413D02*
D03*
Y64381D02*
D03*
Y60444D02*
D03*
D56*
X89449Y53150D02*
D03*
Y41929D02*
D03*
X63249Y21950D02*
D03*
Y33170D02*
D03*
D57*
X89449Y58650D02*
D03*
D58*
X81461Y53150D02*
D03*
X70437D02*
D03*
D59*
X80291Y29650D02*
D03*
D60*
Y25910D02*
D03*
Y22169D02*
D03*
X70449D02*
D03*
Y29650D02*
D03*
Y25910D02*
D03*
D61*
X94849Y53150D02*
X97349D01*
X89449D02*
X94749D01*
X81461D02*
X89449D01*
D62*
X14349Y39450D02*
D03*
D63*
X13999Y64500D02*
D03*
M02*
