G04*
G04 #@! TF.GenerationSoftware,Altium Limited,Altium Designer,20.0.11 (256)*
G04*
G04 Layer_Color=16711935*
%FSLAX25Y25*%
%MOIN*%
G70*
G01*
G75*
%ADD10C,0.03000*%
%ADD11C,0.00600*%
%ADD12R,0.03943X0.03156*%
%ADD14R,0.03156X0.03943*%
G04:AMPARAMS|DCode=15|XSize=39.43mil|YSize=31.56mil|CornerRadius=6.13mil|HoleSize=0mil|Usage=FLASHONLY|Rotation=270.000|XOffset=0mil|YOffset=0mil|HoleType=Round|Shape=RoundedRectangle|*
%AMROUNDEDRECTD15*
21,1,0.03943,0.01929,0,0,270.0*
21,1,0.02717,0.03156,0,0,270.0*
1,1,0.01227,-0.00965,-0.01358*
1,1,0.01227,-0.00965,0.01358*
1,1,0.01227,0.00965,0.01358*
1,1,0.01227,0.00965,-0.01358*
%
%ADD15ROUNDEDRECTD15*%
G04:AMPARAMS|DCode=16|XSize=27.62mil|YSize=43.37mil|CornerRadius=4.01mil|HoleSize=0mil|Usage=FLASHONLY|Rotation=0.000|XOffset=0mil|YOffset=0mil|HoleType=Round|Shape=RoundedRectangle|*
%AMROUNDEDRECTD16*
21,1,0.02762,0.03535,0,0,0.0*
21,1,0.01961,0.04337,0,0,0.0*
1,1,0.00802,0.00980,-0.01768*
1,1,0.00802,-0.00980,-0.01768*
1,1,0.00802,-0.00980,0.01768*
1,1,0.00802,0.00980,0.01768*
%
%ADD16ROUNDEDRECTD16*%
%ADD17R,0.03943X0.05124*%
%ADD20R,0.12211X0.12211*%
G04:AMPARAMS|DCode=21|XSize=39.43mil|YSize=31.56mil|CornerRadius=6.13mil|HoleSize=0mil|Usage=FLASHONLY|Rotation=0.000|XOffset=0mil|YOffset=0mil|HoleType=Round|Shape=RoundedRectangle|*
%AMROUNDEDRECTD21*
21,1,0.03943,0.01929,0,0,0.0*
21,1,0.02717,0.03156,0,0,0.0*
1,1,0.01227,0.01358,-0.00965*
1,1,0.01227,-0.01358,-0.00965*
1,1,0.01227,-0.01358,0.00965*
1,1,0.01227,0.01358,0.00965*
%
%ADD21ROUNDEDRECTD21*%
%ADD24R,0.05518X0.05518*%
%ADD25C,0.05518*%
%ADD26C,0.12400*%
%ADD27C,0.16148*%
%ADD64R,0.08900X0.07400*%
%ADD65O,0.05912X0.02172*%
%ADD66R,0.05912X0.02172*%
%ADD67O,0.03550X0.01581*%
%ADD68R,0.07093X0.04731*%
%ADD69C,0.04400*%
%ADD70R,0.05124X0.14967*%
%ADD71R,0.05124X0.02762*%
%ADD72O,0.05124X0.02762*%
G36*
X157449Y94500D02*
X157449Y86664D01*
X141049Y86664D01*
Y80365D01*
X157949D01*
Y69950D01*
X142698D01*
X133949Y78699D01*
X133949Y94500D01*
X157449Y94500D01*
D02*
G37*
G36*
X110349Y63340D02*
X110630D01*
Y63293D01*
X110771D01*
Y63246D01*
X110864D01*
Y63199D01*
X110911D01*
Y63152D01*
X111005D01*
Y63105D01*
X111052D01*
Y63058D01*
X111099D01*
Y63011D01*
X111146D01*
Y62965D01*
X111193D01*
Y62918D01*
X111239D01*
Y62871D01*
Y62824D01*
X111286D01*
Y62777D01*
X111333D01*
Y62730D01*
Y62683D01*
X111380D01*
Y62637D01*
X111427D01*
Y62590D01*
Y62543D01*
X111474D01*
Y62496D01*
Y62449D01*
X111521D01*
Y62402D01*
X111567D01*
Y62355D01*
Y62309D01*
X111614D01*
Y62262D01*
X111661D01*
Y62215D01*
Y62168D01*
X111708D01*
Y62121D01*
Y62074D01*
X111755D01*
Y62027D01*
X111802D01*
Y61980D01*
Y61933D01*
X111849D01*
Y61887D01*
X111896D01*
Y61840D01*
Y61793D01*
X111942D01*
Y61746D01*
Y61699D01*
X111989D01*
Y61652D01*
X112036D01*
Y61605D01*
Y61559D01*
X112083D01*
Y61512D01*
Y61465D01*
X112130D01*
Y61418D01*
X112177D01*
Y61371D01*
Y61324D01*
X112224D01*
Y61277D01*
X112270D01*
Y61230D01*
Y61184D01*
X112317D01*
Y61137D01*
Y61090D01*
X112364D01*
Y61043D01*
X112411D01*
Y60996D01*
Y60949D01*
X112458D01*
Y60902D01*
Y60856D01*
X112505D01*
Y60809D01*
X112552D01*
Y60762D01*
Y60715D01*
X112599D01*
Y60668D01*
Y60621D01*
X112645D01*
Y60574D01*
X112692D01*
Y60527D01*
Y60480D01*
X112739D01*
Y60434D01*
Y60387D01*
X112786D01*
Y60340D01*
X112833D01*
Y60293D01*
Y60246D01*
X112880D01*
Y60199D01*
X112927D01*
Y60152D01*
Y60106D01*
X112973D01*
Y60059D01*
Y60012D01*
X113020D01*
Y59965D01*
X113067D01*
Y59918D01*
Y59871D01*
X113114D01*
Y59824D01*
Y59777D01*
X113161D01*
Y59731D01*
X113208D01*
Y59684D01*
Y59637D01*
X113255D01*
Y59590D01*
Y59543D01*
X113302D01*
Y59496D01*
X113348D01*
Y59449D01*
Y59403D01*
X113395D01*
Y59356D01*
Y59309D01*
X113442D01*
Y59262D01*
X113489D01*
Y59215D01*
Y59168D01*
X113536D01*
Y59121D01*
Y59074D01*
X113583D01*
Y59028D01*
X113630D01*
Y58981D01*
Y58934D01*
X113677D01*
Y58887D01*
Y58840D01*
X113723D01*
Y58793D01*
X113770D01*
Y58746D01*
Y58700D01*
X113817D01*
Y58653D01*
Y58606D01*
X113864D01*
Y58559D01*
X113911D01*
Y58512D01*
Y58465D01*
X113958D01*
Y58418D01*
Y58371D01*
X114005D01*
Y58324D01*
X114051D01*
Y58278D01*
Y58231D01*
X114098D01*
Y58184D01*
Y58137D01*
X114145D01*
Y58090D01*
X114192D01*
Y58043D01*
Y57996D01*
X114239D01*
Y57950D01*
Y57903D01*
X114286D01*
Y57856D01*
X114333D01*
Y57809D01*
Y57762D01*
X114380D01*
Y57715D01*
Y57668D01*
X114427D01*
Y57622D01*
X114473D01*
Y57575D01*
Y57528D01*
X114520D01*
Y57481D01*
Y57434D01*
X114567D01*
Y57387D01*
X114614D01*
Y57340D01*
Y57293D01*
X114661D01*
Y57247D01*
Y57200D01*
X114708D01*
Y57153D01*
Y57106D01*
X114755D01*
Y57059D01*
X114801D01*
Y57012D01*
Y56965D01*
X114848D01*
Y56919D01*
Y56872D01*
X114895D01*
Y56825D01*
X114942D01*
Y56778D01*
Y56731D01*
X114989D01*
Y56684D01*
Y56637D01*
X115036D01*
Y56590D01*
X115083D01*
Y56543D01*
Y56497D01*
X115129D01*
Y56450D01*
Y56403D01*
X115176D01*
Y56356D01*
X115223D01*
Y56309D01*
Y56262D01*
X115270D01*
Y56215D01*
Y56169D01*
X115317D01*
Y56122D01*
X115364D01*
Y56075D01*
Y56028D01*
X115411D01*
Y55981D01*
Y55934D01*
X115458D01*
Y55887D01*
X115505D01*
Y55840D01*
Y55794D01*
X115551D01*
Y55747D01*
Y55700D01*
X115598D01*
Y55653D01*
X115645D01*
Y55606D01*
Y55559D01*
X115692D01*
Y55512D01*
Y55466D01*
X115739D01*
Y55419D01*
X115786D01*
Y55372D01*
Y55325D01*
X115833D01*
Y55278D01*
Y55231D01*
X115879D01*
Y55184D01*
Y55137D01*
X115926D01*
Y55090D01*
X115973D01*
Y55044D01*
Y54997D01*
X116020D01*
Y54950D01*
Y54903D01*
X116067D01*
Y54856D01*
X116114D01*
Y54809D01*
Y54763D01*
X116161D01*
Y54716D01*
Y54669D01*
X116208D01*
Y54622D01*
X116254D01*
Y54575D01*
Y54528D01*
X116301D01*
Y54481D01*
Y54434D01*
X116348D01*
Y54387D01*
X116395D01*
Y54341D01*
Y54294D01*
X116442D01*
Y54247D01*
Y54200D01*
X116489D01*
Y54153D01*
X116536D01*
Y54106D01*
Y54059D01*
X116583D01*
Y54013D01*
Y53966D01*
X116629D01*
Y53919D01*
X116676D01*
Y53872D01*
Y53825D01*
X116723D01*
Y53778D01*
Y53731D01*
X116770D01*
Y53685D01*
Y53638D01*
X116817D01*
Y53591D01*
X116864D01*
Y53544D01*
Y53497D01*
X116911D01*
Y53450D01*
Y53403D01*
X116957D01*
Y53356D01*
X117004D01*
Y53310D01*
Y53263D01*
X117051D01*
Y53216D01*
Y53169D01*
X117098D01*
Y53122D01*
X117145D01*
Y53075D01*
Y53028D01*
X117192D01*
Y52981D01*
Y52934D01*
X117239D01*
Y52888D01*
X117286D01*
Y52841D01*
Y52794D01*
X117332D01*
Y52747D01*
Y52700D01*
X117379D01*
Y52653D01*
X117426D01*
Y52606D01*
Y52560D01*
X117473D01*
Y52513D01*
Y52466D01*
X117520D01*
Y52419D01*
X117567D01*
Y52372D01*
Y52325D01*
X117614D01*
Y52278D01*
Y52232D01*
X117660D01*
Y52185D01*
Y52138D01*
X117707D01*
Y52091D01*
X117754D01*
Y52044D01*
Y51997D01*
X117801D01*
Y51950D01*
Y51903D01*
X117848D01*
Y51856D01*
X117895D01*
Y51810D01*
Y51763D01*
X117942D01*
Y51716D01*
Y51669D01*
X117989D01*
Y51622D01*
X118035D01*
Y51575D01*
Y51528D01*
X118082D01*
Y51482D01*
Y51435D01*
X118129D01*
Y51388D01*
X118176D01*
Y51341D01*
Y51294D01*
X118223D01*
Y51247D01*
Y51200D01*
X118270D01*
Y51153D01*
X118317D01*
Y51107D01*
Y51060D01*
X118363D01*
Y51013D01*
Y50966D01*
X118410D01*
Y50919D01*
Y50872D01*
X118457D01*
Y50825D01*
X118504D01*
Y50779D01*
Y50732D01*
X118551D01*
Y50685D01*
Y50638D01*
X118598D01*
Y50591D01*
X118645D01*
Y50544D01*
Y50497D01*
X118692D01*
Y50450D01*
Y50404D01*
X118738D01*
Y50357D01*
X118785D01*
Y50310D01*
Y50263D01*
X118832D01*
Y50216D01*
Y50169D01*
X118879D01*
Y50122D01*
Y50076D01*
X118926D01*
Y50029D01*
Y49982D01*
X118973D01*
Y49935D01*
Y49888D01*
X119020D01*
Y49841D01*
Y49794D01*
Y49747D01*
Y49700D01*
X119067D01*
Y49654D01*
Y49607D01*
Y49560D01*
Y49513D01*
X119020D01*
Y49466D01*
Y49419D01*
Y49372D01*
Y49326D01*
Y49279D01*
Y49232D01*
Y49185D01*
Y49138D01*
X118973D01*
Y49091D01*
Y49044D01*
Y48998D01*
X118926D01*
Y48951D01*
Y48904D01*
X118879D01*
Y48857D01*
Y48810D01*
X118832D01*
Y48763D01*
Y48716D01*
X118785D01*
Y48669D01*
X118738D01*
Y48623D01*
X118692D01*
Y48576D01*
X118645D01*
Y48529D01*
X118598D01*
Y48482D01*
X118504D01*
Y48435D01*
X118410D01*
Y48388D01*
X118317D01*
Y48341D01*
X118129D01*
Y48294D01*
X113208D01*
Y48341D01*
X112833D01*
Y48388D01*
X112692D01*
Y48435D01*
X112599D01*
Y48482D01*
X112552D01*
Y48529D01*
X112458D01*
Y48576D01*
X112411D01*
Y48623D01*
X112364D01*
Y48669D01*
X112317D01*
Y48716D01*
X112270D01*
Y48763D01*
X112224D01*
Y48810D01*
Y48857D01*
X112177D01*
Y48904D01*
X112130D01*
Y48951D01*
Y48998D01*
X112083D01*
Y49044D01*
Y49091D01*
X112036D01*
Y49138D01*
X111989D01*
Y49185D01*
Y49232D01*
X111942D01*
Y49279D01*
X111896D01*
Y49326D01*
Y49372D01*
X111849D01*
Y49419D01*
Y49466D01*
X111802D01*
Y49513D01*
X111755D01*
Y49560D01*
Y49607D01*
X111708D01*
Y49654D01*
Y49700D01*
X111661D01*
Y49747D01*
X111614D01*
Y49794D01*
Y49841D01*
X111567D01*
Y49888D01*
Y49935D01*
X111521D01*
Y49982D01*
X111474D01*
Y50029D01*
Y50076D01*
X111427D01*
Y50122D01*
Y50169D01*
X111380D01*
Y50216D01*
X111333D01*
Y50263D01*
Y50310D01*
X111286D01*
Y50357D01*
Y50404D01*
X111239D01*
Y50450D01*
X111193D01*
Y50497D01*
Y50544D01*
X111146D01*
Y50591D01*
Y50638D01*
X111099D01*
Y50685D01*
X111052D01*
Y50732D01*
Y50779D01*
X111005D01*
Y50825D01*
Y50872D01*
X110958D01*
Y50919D01*
X110911D01*
Y50966D01*
Y51013D01*
X110864D01*
Y51060D01*
Y51107D01*
X110818D01*
Y51153D01*
X110771D01*
Y51200D01*
Y51247D01*
X110724D01*
Y51294D01*
Y51341D01*
X110677D01*
Y51388D01*
X110630D01*
Y51435D01*
Y51482D01*
X110583D01*
Y51528D01*
Y51575D01*
X110536D01*
Y51622D01*
X110489D01*
Y51669D01*
Y51716D01*
X110443D01*
Y51763D01*
Y51810D01*
X110396D01*
Y51856D01*
X110349D01*
Y51903D01*
Y51950D01*
X110302D01*
Y51997D01*
Y52044D01*
X110255D01*
Y52091D01*
X110208D01*
Y52138D01*
Y52185D01*
X110161D01*
Y52232D01*
Y52278D01*
X110115D01*
Y52325D01*
Y52372D01*
X110068D01*
Y52419D01*
X110021D01*
Y52466D01*
Y52513D01*
X109974D01*
Y52560D01*
Y52606D01*
X109927D01*
Y52653D01*
X109880D01*
Y52700D01*
Y52747D01*
X109833D01*
Y52794D01*
Y52841D01*
X109786D01*
Y52888D01*
X109739D01*
Y52934D01*
Y52981D01*
X109693D01*
Y53028D01*
Y53075D01*
X109646D01*
Y53122D01*
X109599D01*
Y53169D01*
Y53216D01*
X109552D01*
Y53263D01*
Y53310D01*
X109505D01*
Y53356D01*
X109458D01*
Y53403D01*
Y53450D01*
X109411D01*
Y53497D01*
Y53544D01*
X109365D01*
Y53591D01*
Y53638D01*
X109318D01*
Y53685D01*
X109271D01*
Y53731D01*
Y53778D01*
X109224D01*
Y53825D01*
Y53872D01*
X109177D01*
Y53919D01*
X109130D01*
Y53966D01*
Y54013D01*
X109083D01*
Y54059D01*
Y54106D01*
X109037D01*
Y54153D01*
X108990D01*
Y54200D01*
Y54247D01*
X108943D01*
Y54294D01*
Y54341D01*
X108896D01*
Y54387D01*
Y54434D01*
X108849D01*
Y54481D01*
X108802D01*
Y54528D01*
Y54575D01*
X108755D01*
Y54622D01*
Y54669D01*
X108708D01*
Y54716D01*
X108661D01*
Y54763D01*
Y54809D01*
X108615D01*
Y54856D01*
Y54903D01*
X108568D01*
Y54950D01*
X108521D01*
Y54997D01*
Y55044D01*
X108474D01*
Y55090D01*
Y55137D01*
X108427D01*
Y55184D01*
Y55231D01*
X108380D01*
Y55278D01*
X108333D01*
Y55325D01*
Y55372D01*
X108287D01*
Y55419D01*
Y55466D01*
X108240D01*
Y55512D01*
X108193D01*
Y55559D01*
Y55606D01*
X108146D01*
Y55653D01*
Y55700D01*
X108099D01*
Y55747D01*
Y55794D01*
X108052D01*
Y55840D01*
X108005D01*
Y55887D01*
Y55934D01*
X107958D01*
Y55981D01*
Y56028D01*
X107912D01*
Y56075D01*
X107865D01*
Y56122D01*
Y56169D01*
X107818D01*
Y56215D01*
Y56262D01*
X107771D01*
Y56309D01*
X107724D01*
Y56356D01*
Y56403D01*
X107677D01*
Y56450D01*
Y56497D01*
X107630D01*
Y56543D01*
Y56590D01*
X107583D01*
Y56637D01*
X107537D01*
Y56684D01*
Y56731D01*
X107490D01*
Y56778D01*
Y56825D01*
X107443D01*
Y56872D01*
Y56919D01*
X107396D01*
Y56965D01*
X107349D01*
Y57012D01*
Y57059D01*
X107302D01*
Y57106D01*
Y57153D01*
X107255D01*
Y57200D01*
X107209D01*
Y57247D01*
Y57293D01*
X107162D01*
Y57340D01*
Y57387D01*
X107115D01*
Y57434D01*
Y57481D01*
X107068D01*
Y57528D01*
X107021D01*
Y57575D01*
Y57622D01*
X106974D01*
Y57668D01*
Y57715D01*
X106927D01*
Y57762D01*
Y57809D01*
X106880D01*
Y57856D01*
Y57903D01*
X106834D01*
Y57950D01*
Y57996D01*
X106787D01*
Y58043D01*
Y58090D01*
Y58137D01*
Y58184D01*
Y58231D01*
Y58278D01*
Y58324D01*
Y58371D01*
Y58418D01*
Y58465D01*
Y58512D01*
X106834D01*
Y58559D01*
Y58606D01*
X106880D01*
Y58653D01*
Y58700D01*
Y58746D01*
X106927D01*
Y58793D01*
Y58840D01*
X106974D01*
Y58887D01*
Y58934D01*
X107021D01*
Y58981D01*
Y59028D01*
X107068D01*
Y59074D01*
Y59121D01*
X107115D01*
Y59168D01*
Y59215D01*
X107162D01*
Y59262D01*
X107209D01*
Y59309D01*
Y59356D01*
X107255D01*
Y59403D01*
Y59449D01*
X107302D01*
Y59496D01*
Y59543D01*
X107349D01*
Y59590D01*
Y59637D01*
X107396D01*
Y59684D01*
X107443D01*
Y59731D01*
Y59777D01*
X107490D01*
Y59824D01*
Y59871D01*
X107537D01*
Y59918D01*
X107583D01*
Y59965D01*
Y60012D01*
X107630D01*
Y60059D01*
Y60106D01*
X107677D01*
Y60152D01*
Y60199D01*
X107724D01*
Y60246D01*
X107771D01*
Y60293D01*
Y60340D01*
X107818D01*
Y60387D01*
Y60434D01*
X107865D01*
Y60480D01*
X107912D01*
Y60527D01*
Y60574D01*
X107958D01*
Y60621D01*
Y60668D01*
X108005D01*
Y60715D01*
X108052D01*
Y60762D01*
Y60809D01*
X108099D01*
Y60856D01*
Y60902D01*
X108146D01*
Y60949D01*
X108193D01*
Y60996D01*
Y61043D01*
X108240D01*
Y61090D01*
Y61137D01*
X108287D01*
Y61184D01*
X108333D01*
Y61230D01*
Y61277D01*
X108380D01*
Y61324D01*
X108427D01*
Y61371D01*
Y61418D01*
X108474D01*
Y61465D01*
Y61512D01*
X108521D01*
Y61559D01*
X108568D01*
Y61605D01*
Y61652D01*
X108615D01*
Y61699D01*
Y61746D01*
X108661D01*
Y61793D01*
X108708D01*
Y61840D01*
Y61887D01*
X108755D01*
Y61933D01*
X108802D01*
Y61980D01*
Y62027D01*
X108849D01*
Y62074D01*
Y62121D01*
X108896D01*
Y62168D01*
X108943D01*
Y62215D01*
Y62262D01*
X108990D01*
Y62309D01*
X109037D01*
Y62355D01*
Y62402D01*
X109083D01*
Y62449D01*
Y62496D01*
X109130D01*
Y62543D01*
X109177D01*
Y62590D01*
X109224D01*
Y62637D01*
Y62683D01*
X109271D01*
Y62730D01*
X109318D01*
Y62777D01*
Y62824D01*
X109365D01*
Y62871D01*
X109411D01*
Y62918D01*
Y62965D01*
X109458D01*
Y63011D01*
X109505D01*
Y63058D01*
X109552D01*
Y63105D01*
X109599D01*
Y63152D01*
X109693D01*
Y63199D01*
X109739D01*
Y63246D01*
X109880D01*
Y63293D01*
X110021D01*
Y63340D01*
X110255D01*
Y63386D01*
X110349D01*
Y63340D01*
D02*
G37*
G36*
X105896Y56075D02*
X106131D01*
Y56028D01*
X106271D01*
Y55981D01*
X106365D01*
Y55934D01*
X106459D01*
Y55887D01*
X106506D01*
Y55840D01*
X106552D01*
Y55794D01*
Y55747D01*
X106599D01*
Y55700D01*
X106646D01*
Y55653D01*
X106693D01*
Y55606D01*
Y55559D01*
X106740D01*
Y55512D01*
X106787D01*
Y55466D01*
Y55419D01*
X106834D01*
Y55372D01*
X106880D01*
Y55325D01*
Y55278D01*
X106927D01*
Y55231D01*
Y55184D01*
X106974D01*
Y55137D01*
X107021D01*
Y55090D01*
Y55044D01*
X107068D01*
Y54997D01*
X107115D01*
Y54950D01*
Y54903D01*
X107162D01*
Y54856D01*
X107209D01*
Y54809D01*
Y54763D01*
X107255D01*
Y54716D01*
X107302D01*
Y54669D01*
Y54622D01*
X107349D01*
Y54575D01*
Y54528D01*
X107396D01*
Y54481D01*
X107443D01*
Y54434D01*
Y54387D01*
X107490D01*
Y54341D01*
X107537D01*
Y54294D01*
Y54247D01*
X107583D01*
Y54200D01*
Y54153D01*
X107630D01*
Y54106D01*
X107677D01*
Y54059D01*
Y54013D01*
X107724D01*
Y53966D01*
X107771D01*
Y53919D01*
Y53872D01*
X107818D01*
Y53825D01*
Y53778D01*
X107865D01*
Y53731D01*
X107912D01*
Y53685D01*
Y53638D01*
X107958D01*
Y53591D01*
X108005D01*
Y53544D01*
Y53497D01*
X108052D01*
Y53450D01*
Y53403D01*
X108099D01*
Y53356D01*
X108146D01*
Y53310D01*
Y53263D01*
X108193D01*
Y53216D01*
Y53169D01*
X108240D01*
Y53122D01*
X108287D01*
Y53075D01*
Y53028D01*
X108333D01*
Y52981D01*
X108380D01*
Y52934D01*
Y52888D01*
X108427D01*
Y52841D01*
Y52794D01*
X108474D01*
Y52747D01*
X108521D01*
Y52700D01*
Y52653D01*
X108568D01*
Y52606D01*
Y52560D01*
X108615D01*
Y52513D01*
X108661D01*
Y52466D01*
Y52419D01*
X108708D01*
Y52372D01*
Y52325D01*
X108755D01*
Y52278D01*
X108802D01*
Y52232D01*
Y52185D01*
X108849D01*
Y52138D01*
Y52091D01*
X108896D01*
Y52044D01*
X108943D01*
Y51997D01*
Y51950D01*
X108990D01*
Y51903D01*
Y51856D01*
X109037D01*
Y51810D01*
X109083D01*
Y51763D01*
Y51716D01*
X109130D01*
Y51669D01*
Y51622D01*
X109177D01*
Y51575D01*
X109224D01*
Y51528D01*
Y51482D01*
X109271D01*
Y51435D01*
Y51388D01*
X109318D01*
Y51341D01*
X109365D01*
Y51294D01*
Y51247D01*
X109411D01*
Y51200D01*
Y51153D01*
X109458D01*
Y51107D01*
Y51060D01*
X109505D01*
Y51013D01*
X109552D01*
Y50966D01*
Y50919D01*
X109599D01*
Y50872D01*
Y50825D01*
X109646D01*
Y50779D01*
X109693D01*
Y50732D01*
Y50685D01*
X109739D01*
Y50638D01*
Y50591D01*
X109786D01*
Y50544D01*
Y50497D01*
X109833D01*
Y50450D01*
X109880D01*
Y50404D01*
Y50357D01*
X109927D01*
Y50310D01*
Y50263D01*
X109974D01*
Y50216D01*
Y50169D01*
X110021D01*
Y50122D01*
X110068D01*
Y50076D01*
Y50029D01*
X110115D01*
Y49982D01*
Y49935D01*
X110161D01*
Y49888D01*
Y49841D01*
X110208D01*
Y49794D01*
Y49747D01*
X110255D01*
Y49700D01*
Y49654D01*
X110302D01*
Y49607D01*
Y49560D01*
Y49513D01*
Y49466D01*
Y49419D01*
Y49372D01*
Y49326D01*
Y49279D01*
Y49232D01*
Y49185D01*
Y49138D01*
X110255D01*
Y49091D01*
Y49044D01*
Y48998D01*
X110208D01*
Y48951D01*
Y48904D01*
X110161D01*
Y48857D01*
Y48810D01*
X110115D01*
Y48763D01*
X110068D01*
Y48716D01*
X110021D01*
Y48669D01*
Y48623D01*
X109974D01*
Y48576D01*
X109927D01*
Y48529D01*
X109833D01*
Y48482D01*
X109786D01*
Y48435D01*
X109693D01*
Y48388D01*
X109552D01*
Y48341D01*
X108990D01*
Y48294D01*
X103834D01*
Y48341D01*
X101959D01*
Y48388D01*
X101912D01*
Y48435D01*
X101819D01*
Y48482D01*
X101772D01*
Y48529D01*
X101725D01*
Y48576D01*
X101631D01*
Y48623D01*
X101584D01*
Y48669D01*
Y48716D01*
X101537D01*
Y48763D01*
X101490D01*
Y48810D01*
X101444D01*
Y48857D01*
Y48904D01*
X101397D01*
Y48951D01*
Y48998D01*
X101350D01*
Y49044D01*
Y49091D01*
Y49138D01*
X101303D01*
Y49185D01*
Y49232D01*
Y49279D01*
Y49326D01*
Y49372D01*
Y49419D01*
Y49466D01*
Y49513D01*
Y49560D01*
Y49607D01*
Y49654D01*
Y49700D01*
X101350D01*
Y49747D01*
Y49794D01*
X101397D01*
Y49841D01*
Y49888D01*
X101444D01*
Y49935D01*
Y49982D01*
X101490D01*
Y50029D01*
Y50076D01*
X101537D01*
Y50122D01*
Y50169D01*
X101584D01*
Y50216D01*
X101631D01*
Y50263D01*
Y50310D01*
X101678D01*
Y50357D01*
Y50404D01*
X101725D01*
Y50450D01*
Y50497D01*
X101772D01*
Y50544D01*
X101819D01*
Y50591D01*
Y50638D01*
X101865D01*
Y50685D01*
Y50732D01*
X101912D01*
Y50779D01*
X101959D01*
Y50825D01*
Y50872D01*
X102006D01*
Y50919D01*
Y50966D01*
X102053D01*
Y51013D01*
X102100D01*
Y51060D01*
Y51107D01*
X102147D01*
Y51153D01*
Y51200D01*
X102193D01*
Y51247D01*
X102240D01*
Y51294D01*
Y51341D01*
X102287D01*
Y51388D01*
Y51435D01*
X102334D01*
Y51482D01*
X102381D01*
Y51528D01*
Y51575D01*
X102428D01*
Y51622D01*
Y51669D01*
X102475D01*
Y51716D01*
X102522D01*
Y51763D01*
Y51810D01*
X102568D01*
Y51856D01*
Y51903D01*
X102615D01*
Y51950D01*
X102662D01*
Y51997D01*
Y52044D01*
X102709D01*
Y52091D01*
Y52138D01*
X102756D01*
Y52185D01*
X102803D01*
Y52232D01*
Y52278D01*
X102850D01*
Y52325D01*
X102897D01*
Y52372D01*
Y52419D01*
X102943D01*
Y52466D01*
Y52513D01*
X102990D01*
Y52560D01*
X103037D01*
Y52606D01*
Y52653D01*
X103084D01*
Y52700D01*
Y52747D01*
X103131D01*
Y52794D01*
X103178D01*
Y52841D01*
Y52888D01*
X103225D01*
Y52934D01*
Y52981D01*
X103271D01*
Y53028D01*
X103318D01*
Y53075D01*
Y53122D01*
X103365D01*
Y53169D01*
Y53216D01*
X103412D01*
Y53263D01*
X103459D01*
Y53310D01*
Y53356D01*
X103506D01*
Y53403D01*
Y53450D01*
X103553D01*
Y53497D01*
X103600D01*
Y53544D01*
Y53591D01*
X103647D01*
Y53638D01*
Y53685D01*
X103693D01*
Y53731D01*
X103740D01*
Y53778D01*
Y53825D01*
X103787D01*
Y53872D01*
Y53919D01*
X103834D01*
Y53966D01*
X103881D01*
Y54013D01*
Y54059D01*
X103928D01*
Y54106D01*
X103975D01*
Y54153D01*
Y54200D01*
X104021D01*
Y54247D01*
Y54294D01*
X104068D01*
Y54341D01*
X104115D01*
Y54387D01*
Y54434D01*
X104162D01*
Y54481D01*
Y54528D01*
X104209D01*
Y54575D01*
X104256D01*
Y54622D01*
Y54669D01*
X104303D01*
Y54716D01*
X104350D01*
Y54763D01*
Y54809D01*
X104396D01*
Y54856D01*
Y54903D01*
X104443D01*
Y54950D01*
X104490D01*
Y54997D01*
Y55044D01*
X104537D01*
Y55090D01*
X104584D01*
Y55137D01*
Y55184D01*
X104631D01*
Y55231D01*
X104678D01*
Y55278D01*
Y55325D01*
X104725D01*
Y55372D01*
X104771D01*
Y55419D01*
Y55466D01*
X104818D01*
Y55512D01*
X104865D01*
Y55559D01*
Y55606D01*
X104912D01*
Y55653D01*
X104959D01*
Y55700D01*
X105006D01*
Y55747D01*
X105053D01*
Y55794D01*
X105099D01*
Y55840D01*
X105146D01*
Y55887D01*
X105193D01*
Y55934D01*
X105240D01*
Y55981D01*
X105334D01*
Y56028D01*
X105428D01*
Y56075D01*
X105662D01*
Y56122D01*
X105896D01*
Y56075D01*
D02*
G37*
G36*
X117567Y46139D02*
Y46092D01*
Y46045D01*
Y45998D01*
Y45951D01*
Y45904D01*
Y45857D01*
Y45810D01*
Y45763D01*
Y45717D01*
Y45670D01*
Y45623D01*
Y45576D01*
Y45529D01*
Y45482D01*
Y45435D01*
Y45388D01*
Y45342D01*
Y45295D01*
Y45248D01*
Y45201D01*
Y45154D01*
Y45107D01*
Y45060D01*
Y45014D01*
Y44967D01*
Y44920D01*
Y44873D01*
Y44826D01*
Y44779D01*
Y44732D01*
Y44686D01*
Y44639D01*
Y44592D01*
Y44545D01*
Y44498D01*
Y44451D01*
Y44404D01*
Y44357D01*
Y44311D01*
Y44264D01*
Y44217D01*
Y44170D01*
Y44123D01*
Y44076D01*
Y44029D01*
Y43982D01*
X117004D01*
Y44029D01*
Y44076D01*
Y44123D01*
Y44170D01*
Y44217D01*
Y44264D01*
Y44311D01*
Y44357D01*
Y44404D01*
Y44451D01*
Y44498D01*
Y44545D01*
Y44592D01*
Y44639D01*
Y44686D01*
Y44732D01*
Y44779D01*
Y44826D01*
X115598D01*
Y44779D01*
Y44732D01*
Y44686D01*
Y44639D01*
Y44592D01*
Y44545D01*
Y44498D01*
Y44451D01*
Y44404D01*
Y44357D01*
Y44311D01*
Y44264D01*
Y44217D01*
Y44170D01*
Y44123D01*
Y44076D01*
Y44029D01*
Y43982D01*
X115129D01*
Y44029D01*
Y44076D01*
Y44123D01*
Y44170D01*
Y44217D01*
Y44264D01*
Y44311D01*
Y44357D01*
Y44404D01*
Y44451D01*
Y44498D01*
Y44545D01*
Y44592D01*
Y44639D01*
Y44686D01*
Y44732D01*
Y44779D01*
Y44826D01*
Y44873D01*
Y44920D01*
Y44967D01*
Y45014D01*
Y45060D01*
Y45107D01*
Y45154D01*
Y45201D01*
Y45248D01*
Y45295D01*
Y45342D01*
Y45388D01*
Y45435D01*
Y45482D01*
Y45529D01*
Y45576D01*
Y45623D01*
Y45670D01*
Y45717D01*
Y45763D01*
Y45810D01*
Y45857D01*
Y45904D01*
Y45951D01*
Y45998D01*
Y46045D01*
Y46092D01*
Y46139D01*
Y46185D01*
X115645D01*
Y46139D01*
Y46092D01*
Y46045D01*
Y45998D01*
Y45951D01*
Y45904D01*
Y45857D01*
Y45810D01*
Y45763D01*
Y45717D01*
Y45670D01*
Y45623D01*
Y45576D01*
Y45529D01*
Y45482D01*
Y45435D01*
Y45388D01*
Y45342D01*
X116254D01*
Y45388D01*
X116442D01*
Y45342D01*
X117004D01*
Y45388D01*
Y45435D01*
Y45482D01*
Y45529D01*
Y45576D01*
Y45623D01*
Y45670D01*
Y45717D01*
Y45763D01*
Y45810D01*
Y45857D01*
Y45904D01*
Y45951D01*
Y45998D01*
Y46045D01*
Y46092D01*
Y46139D01*
Y46185D01*
X117567D01*
Y46139D01*
D02*
G37*
G36*
X107115D02*
Y46092D01*
Y46045D01*
Y45998D01*
Y45951D01*
Y45904D01*
Y45857D01*
Y45810D01*
Y45763D01*
Y45717D01*
Y45670D01*
Y45623D01*
Y45576D01*
Y45529D01*
Y45482D01*
Y45435D01*
Y45388D01*
X107162D01*
Y45342D01*
Y45295D01*
Y45248D01*
Y45201D01*
Y45154D01*
Y45107D01*
Y45060D01*
Y45014D01*
Y44967D01*
Y44920D01*
Y44873D01*
Y44826D01*
Y44779D01*
Y44732D01*
Y44686D01*
Y44639D01*
Y44592D01*
Y44545D01*
Y44498D01*
Y44451D01*
Y44404D01*
Y44357D01*
Y44311D01*
Y44264D01*
Y44217D01*
Y44170D01*
Y44123D01*
Y44076D01*
Y44029D01*
Y43982D01*
X106599D01*
Y44029D01*
Y44076D01*
Y44123D01*
Y44170D01*
Y44217D01*
Y44264D01*
Y44311D01*
Y44357D01*
Y44404D01*
Y44451D01*
Y44498D01*
Y44545D01*
Y44592D01*
Y44639D01*
Y44686D01*
Y44732D01*
Y44779D01*
Y44826D01*
X105193D01*
Y44779D01*
Y44732D01*
Y44686D01*
Y44639D01*
Y44592D01*
Y44545D01*
Y44498D01*
Y44451D01*
Y44404D01*
Y44357D01*
Y44311D01*
Y44264D01*
Y44217D01*
Y44170D01*
Y44123D01*
Y44076D01*
Y44029D01*
Y43982D01*
X104678D01*
Y44029D01*
Y44076D01*
Y44123D01*
Y44170D01*
Y44217D01*
Y44264D01*
Y44311D01*
Y44357D01*
Y44404D01*
Y44451D01*
Y44498D01*
Y44545D01*
Y44592D01*
Y44639D01*
Y44686D01*
Y44732D01*
Y44779D01*
Y44826D01*
Y44873D01*
Y44920D01*
Y44967D01*
Y45014D01*
Y45060D01*
Y45107D01*
Y45154D01*
Y45201D01*
Y45248D01*
Y45295D01*
Y45342D01*
Y45388D01*
Y45435D01*
Y45482D01*
Y45529D01*
Y45576D01*
Y45623D01*
Y45670D01*
Y45717D01*
Y45763D01*
Y45810D01*
Y45857D01*
Y45904D01*
Y45951D01*
Y45998D01*
Y46045D01*
Y46092D01*
Y46139D01*
Y46185D01*
X105193D01*
Y46139D01*
Y46092D01*
Y46045D01*
Y45998D01*
Y45951D01*
Y45904D01*
Y45857D01*
Y45810D01*
Y45763D01*
Y45717D01*
Y45670D01*
Y45623D01*
Y45576D01*
Y45529D01*
Y45482D01*
Y45435D01*
Y45388D01*
Y45342D01*
X106599D01*
Y45388D01*
Y45435D01*
Y45482D01*
Y45529D01*
Y45576D01*
Y45623D01*
Y45670D01*
Y45717D01*
Y45763D01*
Y45810D01*
Y45857D01*
Y45904D01*
Y45951D01*
Y45998D01*
Y46045D01*
Y46092D01*
Y46139D01*
Y46185D01*
X107115D01*
Y46139D01*
D02*
G37*
G36*
X121691D02*
X121738D01*
Y46092D01*
Y46045D01*
Y45998D01*
Y45951D01*
Y45904D01*
Y45857D01*
X121691D01*
Y45810D01*
Y45763D01*
Y45717D01*
Y45670D01*
Y45623D01*
Y45576D01*
X121644D01*
Y45529D01*
Y45482D01*
Y45435D01*
Y45388D01*
Y45342D01*
X121598D01*
Y45295D01*
Y45248D01*
Y45201D01*
Y45154D01*
Y45107D01*
Y45060D01*
X121551D01*
Y45014D01*
Y44967D01*
Y44920D01*
Y44873D01*
Y44826D01*
Y44779D01*
X121504D01*
Y44732D01*
Y44686D01*
Y44639D01*
Y44592D01*
Y44545D01*
Y44498D01*
X121457D01*
Y44451D01*
Y44404D01*
Y44357D01*
Y44311D01*
X121410D01*
Y44264D01*
Y44217D01*
X121363D01*
Y44170D01*
Y44123D01*
X121316D01*
Y44076D01*
X121223D01*
Y44029D01*
X121129D01*
Y43982D01*
X120660D01*
Y44029D01*
X120519D01*
Y44076D01*
X120473D01*
Y44123D01*
X120426D01*
Y44170D01*
X120379D01*
Y44217D01*
Y44264D01*
Y44311D01*
X120332D01*
Y44357D01*
Y44404D01*
X120285D01*
Y44451D01*
Y44498D01*
Y44545D01*
X120238D01*
Y44592D01*
Y44639D01*
Y44686D01*
X120191D01*
Y44732D01*
Y44779D01*
Y44826D01*
X120145D01*
Y44873D01*
Y44920D01*
Y44967D01*
X120098D01*
Y45014D01*
Y45060D01*
Y45107D01*
X120051D01*
Y45154D01*
Y45201D01*
Y45248D01*
Y45295D01*
X120004D01*
Y45342D01*
Y45388D01*
Y45435D01*
X119957D01*
Y45482D01*
Y45529D01*
Y45576D01*
Y45623D01*
X119910D01*
Y45670D01*
Y45717D01*
X119863D01*
Y45763D01*
X119817D01*
Y45717D01*
X119770D01*
Y45670D01*
X119723D01*
Y45623D01*
Y45576D01*
X119676D01*
Y45529D01*
Y45482D01*
Y45435D01*
X119629D01*
Y45388D01*
Y45342D01*
Y45295D01*
X119582D01*
Y45248D01*
Y45201D01*
Y45154D01*
Y45107D01*
X119535D01*
Y45060D01*
Y45014D01*
Y44967D01*
X119488D01*
Y44920D01*
Y44873D01*
Y44826D01*
Y44779D01*
X119441D01*
Y44732D01*
Y44686D01*
Y44639D01*
X119395D01*
Y44592D01*
Y44545D01*
Y44498D01*
X119348D01*
Y44451D01*
Y44404D01*
Y44357D01*
X119301D01*
Y44311D01*
Y44264D01*
X119254D01*
Y44217D01*
Y44170D01*
X119207D01*
Y44123D01*
X119160D01*
Y44076D01*
X119113D01*
Y44029D01*
X119020D01*
Y43982D01*
X118551D01*
Y44029D01*
X118457D01*
Y44076D01*
X118410D01*
Y44123D01*
X118363D01*
Y44170D01*
X118317D01*
Y44217D01*
X118270D01*
Y44264D01*
Y44311D01*
X118223D01*
Y44357D01*
Y44404D01*
Y44451D01*
Y44498D01*
X118176D01*
Y44545D01*
Y44592D01*
Y44639D01*
Y44686D01*
X118129D01*
Y44732D01*
Y44779D01*
Y44826D01*
Y44873D01*
Y44920D01*
X118082D01*
Y44967D01*
Y45014D01*
Y45060D01*
Y45107D01*
Y45154D01*
X118035D01*
Y45201D01*
Y45248D01*
Y45295D01*
Y45342D01*
Y45388D01*
X117989D01*
Y45435D01*
Y45482D01*
Y45529D01*
Y45576D01*
Y45623D01*
X117942D01*
Y45670D01*
Y45717D01*
Y45763D01*
Y45810D01*
Y45857D01*
Y45904D01*
X117895D01*
Y45951D01*
Y45998D01*
Y46045D01*
Y46092D01*
Y46139D01*
X117942D01*
Y46185D01*
X118317D01*
Y46139D01*
X118363D01*
Y46092D01*
X118410D01*
Y46045D01*
Y45998D01*
Y45951D01*
X118457D01*
Y45904D01*
Y45857D01*
Y45810D01*
Y45763D01*
Y45717D01*
X118504D01*
Y45670D01*
Y45623D01*
Y45576D01*
Y45529D01*
Y45482D01*
Y45435D01*
X118551D01*
Y45388D01*
Y45342D01*
Y45295D01*
Y45248D01*
Y45201D01*
Y45154D01*
X118598D01*
Y45107D01*
Y45060D01*
Y45014D01*
Y44967D01*
Y44920D01*
Y44873D01*
X118645D01*
Y44826D01*
Y44779D01*
Y44732D01*
Y44686D01*
X118692D01*
Y44639D01*
Y44592D01*
Y44545D01*
X118738D01*
Y44498D01*
X118879D01*
Y44545D01*
X118926D01*
Y44592D01*
Y44639D01*
Y44686D01*
X118973D01*
Y44732D01*
Y44779D01*
Y44826D01*
X119020D01*
Y44873D01*
Y44920D01*
Y44967D01*
Y45014D01*
X119067D01*
Y45060D01*
Y45107D01*
Y45154D01*
Y45201D01*
X119113D01*
Y45248D01*
Y45295D01*
Y45342D01*
X119160D01*
Y45388D01*
Y45435D01*
Y45482D01*
Y45529D01*
X119207D01*
Y45576D01*
Y45623D01*
Y45670D01*
X119254D01*
Y45717D01*
Y45763D01*
X119301D01*
Y45810D01*
Y45857D01*
Y45904D01*
X119348D01*
Y45951D01*
X119395D01*
Y45998D01*
Y46045D01*
X119441D01*
Y46092D01*
X119535D01*
Y46139D01*
X119676D01*
Y46185D01*
X119957D01*
Y46139D01*
X120145D01*
Y46092D01*
X120191D01*
Y46045D01*
X120238D01*
Y45998D01*
X120285D01*
Y45951D01*
Y45904D01*
X120332D01*
Y45857D01*
Y45810D01*
X120379D01*
Y45763D01*
Y45717D01*
X120426D01*
Y45670D01*
Y45623D01*
Y45576D01*
X120473D01*
Y45529D01*
Y45482D01*
Y45435D01*
Y45388D01*
X120519D01*
Y45342D01*
Y45295D01*
Y45248D01*
X120566D01*
Y45201D01*
Y45154D01*
Y45107D01*
X120613D01*
Y45060D01*
Y45014D01*
Y44967D01*
Y44920D01*
X120660D01*
Y44873D01*
Y44826D01*
Y44779D01*
X120707D01*
Y44732D01*
Y44686D01*
X120754D01*
Y44639D01*
Y44592D01*
Y44545D01*
X120801D01*
Y44498D01*
X120941D01*
Y44545D01*
Y44592D01*
Y44639D01*
X120988D01*
Y44686D01*
Y44732D01*
Y44779D01*
Y44826D01*
X121035D01*
Y44873D01*
Y44920D01*
Y44967D01*
Y45014D01*
Y45060D01*
Y45107D01*
X121082D01*
Y45154D01*
Y45201D01*
Y45248D01*
Y45295D01*
Y45342D01*
Y45388D01*
X121129D01*
Y45435D01*
Y45482D01*
Y45529D01*
Y45576D01*
Y45623D01*
Y45670D01*
Y45717D01*
X121176D01*
Y45763D01*
Y45810D01*
Y45857D01*
Y45904D01*
Y45951D01*
X121223D01*
Y45998D01*
Y46045D01*
Y46092D01*
X121269D01*
Y46139D01*
X121363D01*
Y46185D01*
X121691D01*
Y46139D01*
D02*
G37*
G36*
X114708D02*
Y46092D01*
Y46045D01*
Y45998D01*
Y45951D01*
Y45904D01*
Y45857D01*
Y45810D01*
Y45763D01*
Y45717D01*
Y45670D01*
Y45623D01*
Y45576D01*
Y45529D01*
Y45482D01*
Y45435D01*
Y45388D01*
Y45342D01*
Y45295D01*
Y45248D01*
Y45201D01*
Y45154D01*
Y45107D01*
Y45060D01*
Y45014D01*
Y44967D01*
Y44920D01*
Y44873D01*
Y44826D01*
Y44779D01*
Y44732D01*
Y44686D01*
Y44639D01*
Y44592D01*
Y44545D01*
Y44498D01*
Y44451D01*
Y44404D01*
Y44357D01*
Y44311D01*
Y44264D01*
Y44217D01*
Y44170D01*
Y44123D01*
Y44076D01*
Y44029D01*
Y43982D01*
X114145D01*
Y44029D01*
Y44076D01*
Y44123D01*
Y44170D01*
Y44217D01*
Y44264D01*
Y44311D01*
Y44357D01*
Y44404D01*
Y44451D01*
Y44498D01*
Y44545D01*
Y44592D01*
Y44639D01*
Y44686D01*
Y44732D01*
Y44779D01*
Y44826D01*
Y44873D01*
Y44920D01*
Y44967D01*
Y45014D01*
Y45060D01*
Y45107D01*
Y45154D01*
Y45201D01*
Y45248D01*
Y45295D01*
Y45342D01*
Y45388D01*
Y45435D01*
Y45482D01*
Y45529D01*
Y45576D01*
Y45623D01*
Y45670D01*
Y45717D01*
Y45763D01*
Y45810D01*
Y45857D01*
Y45904D01*
Y45951D01*
Y45998D01*
Y46045D01*
Y46092D01*
Y46139D01*
Y46185D01*
X114708D01*
Y46139D01*
D02*
G37*
G36*
X113864D02*
Y46092D01*
Y46045D01*
Y45998D01*
Y45951D01*
Y45904D01*
Y45857D01*
Y45810D01*
Y45763D01*
Y45717D01*
Y45670D01*
Y45623D01*
X112880D01*
Y45576D01*
Y45529D01*
Y45482D01*
Y45435D01*
Y45388D01*
Y45342D01*
Y45295D01*
Y45248D01*
Y45201D01*
Y45154D01*
Y45107D01*
Y45060D01*
Y45014D01*
Y44967D01*
Y44920D01*
Y44873D01*
Y44826D01*
Y44779D01*
Y44732D01*
Y44686D01*
Y44639D01*
Y44592D01*
Y44545D01*
Y44498D01*
Y44451D01*
Y44404D01*
Y44357D01*
Y44311D01*
Y44264D01*
Y44217D01*
Y44170D01*
Y44123D01*
Y44076D01*
Y44029D01*
Y43982D01*
X112317D01*
Y44029D01*
Y44076D01*
Y44123D01*
Y44170D01*
Y44217D01*
Y44264D01*
Y44311D01*
Y44357D01*
Y44404D01*
Y44451D01*
Y44498D01*
Y44545D01*
Y44592D01*
Y44639D01*
Y44686D01*
Y44732D01*
Y44779D01*
Y44826D01*
Y44873D01*
Y44920D01*
Y44967D01*
Y45014D01*
Y45060D01*
Y45107D01*
Y45154D01*
Y45201D01*
Y45248D01*
Y45295D01*
Y45342D01*
Y45388D01*
Y45435D01*
Y45482D01*
Y45529D01*
Y45576D01*
Y45623D01*
X111380D01*
Y45670D01*
Y45717D01*
Y45763D01*
Y45810D01*
Y45857D01*
Y45904D01*
Y45951D01*
Y45998D01*
Y46045D01*
Y46092D01*
X111333D01*
Y46139D01*
X113161D01*
Y46185D01*
X113864D01*
Y46139D01*
D02*
G37*
G36*
X110255D02*
X110911D01*
Y46092D01*
X110958D01*
Y46045D01*
X111005D01*
Y45998D01*
Y45951D01*
X111052D01*
Y45904D01*
Y45857D01*
Y45810D01*
Y45763D01*
Y45717D01*
Y45670D01*
Y45623D01*
Y45576D01*
Y45529D01*
Y45482D01*
Y45435D01*
Y45388D01*
Y45342D01*
Y45295D01*
Y45248D01*
Y45201D01*
Y45154D01*
Y45107D01*
Y45060D01*
Y45014D01*
Y44967D01*
Y44920D01*
Y44873D01*
Y44826D01*
Y44779D01*
Y44732D01*
Y44686D01*
Y44639D01*
Y44592D01*
Y44545D01*
Y44498D01*
Y44451D01*
Y44404D01*
Y44357D01*
Y44311D01*
Y44264D01*
Y44217D01*
Y44170D01*
X111005D01*
Y44123D01*
Y44076D01*
Y44029D01*
X109365D01*
Y43982D01*
X108849D01*
Y44029D01*
Y44076D01*
Y44123D01*
Y44170D01*
Y44217D01*
Y44264D01*
Y44311D01*
Y44357D01*
Y44404D01*
Y44451D01*
Y44498D01*
X110583D01*
Y44545D01*
Y44592D01*
Y44639D01*
Y44686D01*
Y44732D01*
Y44779D01*
Y44826D01*
Y44873D01*
Y44920D01*
X108849D01*
Y44967D01*
Y45014D01*
Y45060D01*
Y45107D01*
Y45154D01*
Y45201D01*
Y45248D01*
X110583D01*
Y45295D01*
Y45342D01*
Y45388D01*
Y45435D01*
Y45482D01*
Y45529D01*
Y45576D01*
Y45623D01*
X108849D01*
Y45670D01*
Y45717D01*
Y45763D01*
Y45810D01*
Y45857D01*
Y45904D01*
Y45951D01*
Y45998D01*
Y46045D01*
Y46092D01*
Y46139D01*
Y46185D01*
X110255D01*
Y46139D01*
D02*
G37*
G36*
X104256D02*
Y46092D01*
Y46045D01*
Y45998D01*
Y45951D01*
Y45904D01*
Y45857D01*
Y45810D01*
Y45763D01*
Y45717D01*
Y45670D01*
Y45623D01*
Y45576D01*
Y45529D01*
Y45482D01*
Y45435D01*
Y45388D01*
Y45342D01*
Y45295D01*
Y45248D01*
Y45201D01*
Y45154D01*
Y45107D01*
Y45060D01*
Y45014D01*
Y44967D01*
Y44920D01*
Y44873D01*
Y44826D01*
Y44779D01*
Y44732D01*
Y44686D01*
Y44639D01*
Y44592D01*
Y44545D01*
Y44498D01*
Y44451D01*
Y44404D01*
Y44357D01*
Y44311D01*
Y44264D01*
Y44217D01*
Y44170D01*
Y44123D01*
Y44076D01*
Y44029D01*
Y43982D01*
X103740D01*
Y44029D01*
Y44076D01*
Y44123D01*
Y44170D01*
Y44217D01*
Y44264D01*
Y44311D01*
Y44357D01*
Y44404D01*
Y44451D01*
Y44498D01*
Y44545D01*
Y44592D01*
Y44639D01*
Y44686D01*
Y44732D01*
Y44779D01*
Y44826D01*
Y44873D01*
Y44920D01*
Y44967D01*
Y45014D01*
Y45060D01*
Y45107D01*
Y45154D01*
Y45201D01*
Y45248D01*
Y45295D01*
Y45342D01*
Y45388D01*
Y45435D01*
Y45482D01*
Y45529D01*
Y45576D01*
Y45623D01*
Y45670D01*
Y45717D01*
Y45763D01*
Y45810D01*
Y45857D01*
Y45904D01*
Y45951D01*
Y45998D01*
Y46045D01*
Y46092D01*
Y46139D01*
Y46185D01*
X104256D01*
Y46139D01*
D02*
G37*
G36*
X103318D02*
Y46092D01*
Y46045D01*
Y45998D01*
Y45951D01*
Y45904D01*
Y45857D01*
Y45810D01*
Y45763D01*
Y45717D01*
Y45670D01*
Y45623D01*
Y45576D01*
Y45529D01*
Y45482D01*
Y45435D01*
Y45388D01*
Y45342D01*
Y45295D01*
Y45248D01*
Y45201D01*
Y45154D01*
Y45107D01*
Y45060D01*
Y45014D01*
Y44967D01*
Y44920D01*
Y44873D01*
Y44826D01*
Y44779D01*
Y44732D01*
Y44686D01*
Y44639D01*
Y44592D01*
Y44545D01*
Y44498D01*
X103271D01*
Y44451D01*
Y44404D01*
Y44357D01*
Y44311D01*
Y44264D01*
X103225D01*
Y44217D01*
Y44170D01*
X103178D01*
Y44123D01*
X103084D01*
Y44076D01*
X102943D01*
Y44029D01*
X101631D01*
Y43982D01*
X101116D01*
Y44029D01*
Y44076D01*
Y44123D01*
Y44170D01*
Y44217D01*
Y44264D01*
Y44311D01*
Y44357D01*
Y44404D01*
Y44451D01*
Y44498D01*
X102662D01*
Y44545D01*
X102756D01*
Y44592D01*
X102803D01*
Y44639D01*
Y44686D01*
Y44732D01*
Y44779D01*
X102850D01*
Y44826D01*
Y44873D01*
Y44920D01*
Y44967D01*
Y45014D01*
Y45060D01*
Y45107D01*
Y45154D01*
Y45201D01*
Y45248D01*
Y45295D01*
Y45342D01*
Y45388D01*
Y45435D01*
Y45482D01*
Y45529D01*
Y45576D01*
Y45623D01*
Y45670D01*
Y45717D01*
Y45763D01*
Y45810D01*
Y45857D01*
Y45904D01*
Y45951D01*
Y45998D01*
Y46045D01*
Y46092D01*
Y46139D01*
Y46185D01*
X103318D01*
Y46139D01*
D02*
G37*
G36*
X100881D02*
Y46092D01*
Y46045D01*
Y45998D01*
Y45951D01*
Y45904D01*
Y45857D01*
X100834D01*
Y45810D01*
Y45763D01*
Y45717D01*
Y45670D01*
Y45623D01*
Y45576D01*
Y45529D01*
Y45482D01*
Y45435D01*
Y45388D01*
Y45342D01*
Y45295D01*
Y45248D01*
Y45201D01*
Y45154D01*
Y45107D01*
Y45060D01*
Y45014D01*
Y44967D01*
Y44920D01*
Y44873D01*
Y44826D01*
Y44779D01*
Y44732D01*
Y44686D01*
Y44639D01*
Y44592D01*
X100787D01*
Y44545D01*
Y44498D01*
Y44451D01*
Y44404D01*
Y44357D01*
Y44311D01*
X100741D01*
Y44264D01*
Y44217D01*
X100694D01*
Y44170D01*
X100647D01*
Y44123D01*
X100553D01*
Y44076D01*
X100412D01*
Y44029D01*
X99147D01*
Y43982D01*
X98538D01*
Y44029D01*
Y44076D01*
Y44123D01*
Y44170D01*
Y44217D01*
Y44264D01*
Y44311D01*
Y44357D01*
Y44404D01*
Y44451D01*
Y44498D01*
X100272D01*
Y44545D01*
Y44592D01*
Y44639D01*
Y44686D01*
Y44732D01*
Y44779D01*
Y44826D01*
Y44873D01*
Y44920D01*
Y44967D01*
Y45014D01*
Y45060D01*
X100319D01*
Y45107D01*
Y45154D01*
Y45201D01*
Y45248D01*
Y45295D01*
Y45342D01*
Y45388D01*
Y45435D01*
Y45482D01*
Y45529D01*
Y45576D01*
Y45623D01*
Y45670D01*
Y45717D01*
Y45763D01*
Y45810D01*
Y45857D01*
Y45904D01*
Y45951D01*
Y45998D01*
Y46045D01*
Y46092D01*
Y46139D01*
Y46185D01*
X100881D01*
Y46139D01*
D02*
G37*
G36*
X157949Y25984D02*
X141049D01*
Y19685D01*
X157449D01*
X157449Y11500D01*
X133949Y11500D01*
X133949Y27650D01*
X142549Y36250D01*
X157949D01*
Y25984D01*
D02*
G37*
G36*
X121836Y11312D02*
X124349D01*
Y9588D01*
X121836D01*
Y7100D01*
X120161D01*
Y9588D01*
X117636D01*
Y11312D01*
X120161D01*
Y13800D01*
X121836D01*
Y11312D01*
D02*
G37*
G36*
X124949Y95500D02*
X121324D01*
Y97338D01*
X124949D01*
Y95500D01*
D02*
G37*
G36*
X153849Y38000D02*
X151144D01*
Y38650D01*
X153074D01*
Y41815D01*
X153849D01*
Y38000D01*
D02*
G37*
%LPC*%
G36*
X110349Y62215D02*
X110255D01*
Y62168D01*
Y62121D01*
X110208D01*
Y62074D01*
X110161D01*
Y62027D01*
Y61980D01*
X110115D01*
Y61933D01*
X110068D01*
Y61887D01*
Y61840D01*
X110021D01*
Y61793D01*
Y61746D01*
X109974D01*
Y61699D01*
X109927D01*
Y61652D01*
Y61605D01*
X109880D01*
Y61559D01*
X109833D01*
Y61512D01*
Y61465D01*
X109786D01*
Y61418D01*
Y61371D01*
X109739D01*
Y61324D01*
X109693D01*
Y61277D01*
Y61230D01*
X109646D01*
Y61184D01*
Y61137D01*
X109599D01*
Y61090D01*
X109552D01*
Y61043D01*
Y60996D01*
X109505D01*
Y60949D01*
Y60902D01*
X109458D01*
Y60856D01*
X109411D01*
Y60809D01*
Y60762D01*
X109365D01*
Y60715D01*
Y60668D01*
X109318D01*
Y60621D01*
X109271D01*
Y60574D01*
Y60527D01*
X109224D01*
Y60480D01*
Y60434D01*
X109177D01*
Y60387D01*
X109130D01*
Y60340D01*
Y60293D01*
X109083D01*
Y60246D01*
Y60199D01*
X109037D01*
Y60152D01*
X108990D01*
Y60106D01*
Y60059D01*
X108943D01*
Y60012D01*
Y59965D01*
X108896D01*
Y59918D01*
X108849D01*
Y59871D01*
Y59824D01*
X108802D01*
Y59777D01*
Y59731D01*
X108755D01*
Y59684D01*
Y59637D01*
X108708D01*
Y59590D01*
X108661D01*
Y59543D01*
Y59496D01*
X108615D01*
Y59449D01*
Y59403D01*
X108568D01*
Y59356D01*
X108521D01*
Y59309D01*
Y59262D01*
X108474D01*
Y59215D01*
Y59168D01*
X108427D01*
Y59121D01*
Y59074D01*
X108380D01*
Y59028D01*
X108333D01*
Y58981D01*
Y58934D01*
X108287D01*
Y58887D01*
Y58840D01*
X108240D01*
Y58793D01*
Y58746D01*
X108193D01*
Y58700D01*
X108146D01*
Y58653D01*
Y58606D01*
X108099D01*
Y58559D01*
Y58512D01*
X108052D01*
Y58465D01*
Y58418D01*
X108005D01*
Y58371D01*
Y58324D01*
X107958D01*
Y58278D01*
Y58231D01*
X108005D01*
Y58184D01*
Y58137D01*
X108052D01*
Y58090D01*
Y58043D01*
X108099D01*
Y57996D01*
Y57950D01*
X108146D01*
Y57903D01*
X108193D01*
Y57856D01*
Y57809D01*
X108240D01*
Y57762D01*
Y57715D01*
X108287D01*
Y57668D01*
Y57622D01*
X108333D01*
Y57575D01*
X108380D01*
Y57528D01*
Y57481D01*
X108427D01*
Y57434D01*
Y57387D01*
X108474D01*
Y57340D01*
Y57293D01*
X108521D01*
Y57247D01*
X108568D01*
Y57200D01*
Y57153D01*
X108615D01*
Y57106D01*
Y57059D01*
X108661D01*
Y57012D01*
Y56965D01*
X108708D01*
Y56919D01*
X108755D01*
Y56872D01*
Y56825D01*
X108802D01*
Y56778D01*
Y56731D01*
X108849D01*
Y56684D01*
X108896D01*
Y56637D01*
Y56590D01*
X108943D01*
Y56543D01*
Y56497D01*
X108990D01*
Y56450D01*
Y56403D01*
X109037D01*
Y56356D01*
X109083D01*
Y56309D01*
Y56262D01*
X109130D01*
Y56215D01*
Y56169D01*
X109177D01*
Y56122D01*
X109224D01*
Y56075D01*
Y56028D01*
X109271D01*
Y55981D01*
Y55934D01*
X109318D01*
Y55887D01*
X109365D01*
Y55840D01*
Y55794D01*
X109411D01*
Y55747D01*
Y55700D01*
X109458D01*
Y55653D01*
Y55606D01*
X109505D01*
Y55559D01*
X109552D01*
Y55512D01*
Y55466D01*
X109599D01*
Y55419D01*
Y55372D01*
X109646D01*
Y55325D01*
X109693D01*
Y55278D01*
Y55231D01*
X109739D01*
Y55184D01*
Y55137D01*
X109786D01*
Y55090D01*
Y55044D01*
X109833D01*
Y54997D01*
X109880D01*
Y54950D01*
Y54903D01*
X109927D01*
Y54856D01*
Y54809D01*
X109974D01*
Y54763D01*
X110021D01*
Y54716D01*
Y54669D01*
X110068D01*
Y54622D01*
Y54575D01*
X110115D01*
Y54528D01*
X110161D01*
Y54481D01*
Y54434D01*
X110208D01*
Y54387D01*
Y54341D01*
X110255D01*
Y54294D01*
X110302D01*
Y54247D01*
Y54200D01*
X110349D01*
Y54153D01*
Y54106D01*
X110396D01*
Y54059D01*
X110443D01*
Y54013D01*
Y53966D01*
X110489D01*
Y53919D01*
Y53872D01*
X110536D01*
Y53825D01*
Y53778D01*
X110583D01*
Y53731D01*
X110630D01*
Y53685D01*
Y53638D01*
X110677D01*
Y53591D01*
Y53544D01*
X110724D01*
Y53497D01*
X110771D01*
Y53450D01*
Y53403D01*
X110818D01*
Y53356D01*
Y53310D01*
X110864D01*
Y53263D01*
X110911D01*
Y53216D01*
Y53169D01*
X110958D01*
Y53122D01*
Y53075D01*
X111005D01*
Y53028D01*
X111052D01*
Y52981D01*
Y52934D01*
X111099D01*
Y52888D01*
Y52841D01*
X111146D01*
Y52794D01*
X111193D01*
Y52747D01*
Y52700D01*
X111239D01*
Y52653D01*
Y52606D01*
X111286D01*
Y52560D01*
X111333D01*
Y52513D01*
Y52466D01*
X111380D01*
Y52419D01*
Y52372D01*
X111427D01*
Y52325D01*
Y52278D01*
X111474D01*
Y52232D01*
X111521D01*
Y52185D01*
Y52138D01*
X111567D01*
Y52091D01*
Y52044D01*
X111614D01*
Y51997D01*
X111661D01*
Y51950D01*
Y51903D01*
X111708D01*
Y51856D01*
Y51810D01*
X111755D01*
Y51763D01*
X111802D01*
Y51716D01*
Y51669D01*
X111849D01*
Y51622D01*
Y51575D01*
X111896D01*
Y51528D01*
X111942D01*
Y51482D01*
Y51435D01*
X111989D01*
Y51388D01*
Y51341D01*
X112036D01*
Y51294D01*
X112083D01*
Y51247D01*
Y51200D01*
X112130D01*
Y51153D01*
Y51107D01*
X112177D01*
Y51060D01*
X112224D01*
Y51013D01*
Y50966D01*
X112270D01*
Y50919D01*
Y50872D01*
X112317D01*
Y50825D01*
X112364D01*
Y50779D01*
Y50732D01*
X112411D01*
Y50685D01*
Y50638D01*
X112458D01*
Y50591D01*
Y50544D01*
X112505D01*
Y50497D01*
X112552D01*
Y50450D01*
Y50404D01*
X112599D01*
Y50357D01*
Y50310D01*
X112645D01*
Y50263D01*
X112692D01*
Y50216D01*
Y50169D01*
X112739D01*
Y50122D01*
Y50076D01*
X112786D01*
Y50029D01*
X112833D01*
Y49982D01*
Y49935D01*
X112880D01*
Y49888D01*
Y49841D01*
X112927D01*
Y49794D01*
X112973D01*
Y49747D01*
Y49700D01*
X113020D01*
Y49654D01*
Y49607D01*
X113067D01*
Y49560D01*
X113114D01*
Y49513D01*
Y49466D01*
X113161D01*
Y49419D01*
X117754D01*
Y49466D01*
X117942D01*
Y49513D01*
X117895D01*
Y49560D01*
Y49607D01*
X117848D01*
Y49654D01*
X117801D01*
Y49700D01*
Y49747D01*
X117754D01*
Y49794D01*
Y49841D01*
X117707D01*
Y49888D01*
Y49935D01*
X117660D01*
Y49982D01*
X117614D01*
Y50029D01*
Y50076D01*
X117567D01*
Y50122D01*
Y50169D01*
X117520D01*
Y50216D01*
Y50263D01*
X117473D01*
Y50310D01*
X117426D01*
Y50357D01*
Y50404D01*
X117379D01*
Y50450D01*
Y50497D01*
X117332D01*
Y50544D01*
X117286D01*
Y50591D01*
Y50638D01*
X117239D01*
Y50685D01*
Y50732D01*
X117192D01*
Y50779D01*
X117145D01*
Y50825D01*
Y50872D01*
X117098D01*
Y50919D01*
Y50966D01*
X117051D01*
Y51013D01*
X117004D01*
Y51060D01*
Y51107D01*
X116957D01*
Y51153D01*
Y51200D01*
X116911D01*
Y51247D01*
Y51294D01*
X116864D01*
Y51341D01*
X116817D01*
Y51388D01*
Y51435D01*
X116770D01*
Y51482D01*
Y51528D01*
X116723D01*
Y51575D01*
X116676D01*
Y51622D01*
Y51669D01*
X116629D01*
Y51716D01*
Y51763D01*
X116583D01*
Y51810D01*
X116536D01*
Y51856D01*
Y51903D01*
X116489D01*
Y51950D01*
Y51997D01*
X116442D01*
Y52044D01*
X116395D01*
Y52091D01*
Y52138D01*
X116348D01*
Y52185D01*
Y52232D01*
X116301D01*
Y52278D01*
X116254D01*
Y52325D01*
Y52372D01*
X116208D01*
Y52419D01*
Y52466D01*
X116161D01*
Y52513D01*
X116114D01*
Y52560D01*
Y52606D01*
X116067D01*
Y52653D01*
Y52700D01*
X116020D01*
Y52747D01*
X115973D01*
Y52794D01*
Y52841D01*
X115926D01*
Y52888D01*
Y52934D01*
X115879D01*
Y52981D01*
Y53028D01*
X115833D01*
Y53075D01*
X115786D01*
Y53122D01*
Y53169D01*
X115739D01*
Y53216D01*
Y53263D01*
X115692D01*
Y53310D01*
X115645D01*
Y53356D01*
Y53403D01*
X115598D01*
Y53450D01*
Y53497D01*
X115551D01*
Y53544D01*
X115505D01*
Y53591D01*
Y53638D01*
X115458D01*
Y53685D01*
Y53731D01*
X115411D01*
Y53778D01*
X115364D01*
Y53825D01*
Y53872D01*
X115317D01*
Y53919D01*
Y53966D01*
X115270D01*
Y54013D01*
X115223D01*
Y54059D01*
Y54106D01*
X115176D01*
Y54153D01*
Y54200D01*
X115129D01*
Y54247D01*
X115083D01*
Y54294D01*
Y54341D01*
X115036D01*
Y54387D01*
Y54434D01*
X114989D01*
Y54481D01*
X114942D01*
Y54528D01*
Y54575D01*
X114895D01*
Y54622D01*
Y54669D01*
X114848D01*
Y54716D01*
X114801D01*
Y54763D01*
Y54809D01*
X114755D01*
Y54856D01*
Y54903D01*
X114708D01*
Y54950D01*
X114661D01*
Y54997D01*
Y55044D01*
X114614D01*
Y55090D01*
Y55137D01*
X114567D01*
Y55184D01*
X114520D01*
Y55231D01*
Y55278D01*
X114473D01*
Y55325D01*
Y55372D01*
X114427D01*
Y55419D01*
Y55466D01*
X114380D01*
Y55512D01*
X114333D01*
Y55559D01*
Y55606D01*
X114286D01*
Y55653D01*
Y55700D01*
X114239D01*
Y55747D01*
X114192D01*
Y55794D01*
Y55840D01*
X114145D01*
Y55887D01*
Y55934D01*
X114098D01*
Y55981D01*
X114051D01*
Y56028D01*
Y56075D01*
X114005D01*
Y56122D01*
Y56169D01*
X113958D01*
Y56215D01*
X113911D01*
Y56262D01*
Y56309D01*
X113864D01*
Y56356D01*
Y56403D01*
X113817D01*
Y56450D01*
X113770D01*
Y56497D01*
Y56543D01*
X113723D01*
Y56590D01*
Y56637D01*
X113677D01*
Y56684D01*
X113630D01*
Y56731D01*
Y56778D01*
X113583D01*
Y56825D01*
Y56872D01*
X113536D01*
Y56919D01*
X113489D01*
Y56965D01*
Y57012D01*
X113442D01*
Y57059D01*
Y57106D01*
X113395D01*
Y57153D01*
X113348D01*
Y57200D01*
Y57247D01*
X113302D01*
Y57293D01*
Y57340D01*
X113255D01*
Y57387D01*
X113208D01*
Y57434D01*
Y57481D01*
X113161D01*
Y57528D01*
Y57575D01*
X113114D01*
Y57622D01*
X113067D01*
Y57668D01*
Y57715D01*
X113020D01*
Y57762D01*
Y57809D01*
X112973D01*
Y57856D01*
X112927D01*
Y57903D01*
Y57950D01*
X112880D01*
Y57996D01*
Y58043D01*
X112833D01*
Y58090D01*
X112786D01*
Y58137D01*
Y58184D01*
X112739D01*
Y58231D01*
Y58278D01*
X112692D01*
Y58324D01*
X112645D01*
Y58371D01*
Y58418D01*
X112599D01*
Y58465D01*
Y58512D01*
X112552D01*
Y58559D01*
X112505D01*
Y58606D01*
Y58653D01*
X112458D01*
Y58700D01*
Y58746D01*
X112411D01*
Y58793D01*
X112364D01*
Y58840D01*
Y58887D01*
X112317D01*
Y58934D01*
Y58981D01*
X112270D01*
Y59028D01*
X112224D01*
Y59074D01*
Y59121D01*
X112177D01*
Y59168D01*
Y59215D01*
X112130D01*
Y59262D01*
X112083D01*
Y59309D01*
Y59356D01*
X112036D01*
Y59403D01*
Y59449D01*
X111989D01*
Y59496D01*
X111942D01*
Y59543D01*
Y59590D01*
X111896D01*
Y59637D01*
Y59684D01*
X111849D01*
Y59731D01*
X111802D01*
Y59777D01*
Y59824D01*
X111755D01*
Y59871D01*
Y59918D01*
X111708D01*
Y59965D01*
X111661D01*
Y60012D01*
Y60059D01*
X111614D01*
Y60106D01*
Y60152D01*
X111567D01*
Y60199D01*
X111521D01*
Y60246D01*
Y60293D01*
X111474D01*
Y60340D01*
Y60387D01*
X111427D01*
Y60434D01*
X111380D01*
Y60480D01*
Y60527D01*
X111333D01*
Y60574D01*
Y60621D01*
X111286D01*
Y60668D01*
X111239D01*
Y60715D01*
Y60762D01*
X111193D01*
Y60809D01*
Y60856D01*
X111146D01*
Y60902D01*
X111099D01*
Y60949D01*
Y60996D01*
X111052D01*
Y61043D01*
Y61090D01*
X111005D01*
Y61137D01*
X110958D01*
Y61184D01*
Y61230D01*
X110911D01*
Y61277D01*
X110864D01*
Y61324D01*
Y61371D01*
X110818D01*
Y61418D01*
Y61465D01*
X110771D01*
Y61512D01*
X110724D01*
Y61559D01*
Y61605D01*
X110677D01*
Y61652D01*
Y61699D01*
X110630D01*
Y61746D01*
X110583D01*
Y61793D01*
Y61840D01*
X110536D01*
Y61887D01*
Y61933D01*
X110489D01*
Y61980D01*
X110443D01*
Y62027D01*
Y62074D01*
X110396D01*
Y62121D01*
X110349D01*
Y62168D01*
Y62215D01*
D02*
G37*
G36*
X105849Y54856D02*
X105756D01*
Y54809D01*
Y54763D01*
X105709D01*
Y54716D01*
X105662D01*
Y54669D01*
Y54622D01*
X105615D01*
Y54575D01*
X105568D01*
Y54528D01*
Y54481D01*
X105521D01*
Y54434D01*
X105474D01*
Y54387D01*
Y54341D01*
X105428D01*
Y54294D01*
X105381D01*
Y54247D01*
Y54200D01*
X105334D01*
Y54153D01*
Y54106D01*
X105287D01*
Y54059D01*
X105240D01*
Y54013D01*
Y53966D01*
X105193D01*
Y53919D01*
X105146D01*
Y53872D01*
Y53825D01*
X105099D01*
Y53778D01*
Y53731D01*
X105053D01*
Y53685D01*
X105006D01*
Y53638D01*
Y53591D01*
X104959D01*
Y53544D01*
Y53497D01*
X104912D01*
Y53450D01*
X104865D01*
Y53403D01*
Y53356D01*
X104818D01*
Y53310D01*
X104771D01*
Y53263D01*
Y53216D01*
X104725D01*
Y53169D01*
Y53122D01*
X104678D01*
Y53075D01*
X104631D01*
Y53028D01*
Y52981D01*
X104584D01*
Y52934D01*
Y52888D01*
X104537D01*
Y52841D01*
X104490D01*
Y52794D01*
Y52747D01*
X104443D01*
Y52700D01*
X104396D01*
Y52653D01*
Y52606D01*
X104350D01*
Y52560D01*
Y52513D01*
X104303D01*
Y52466D01*
X104256D01*
Y52419D01*
Y52372D01*
X104209D01*
Y52325D01*
Y52278D01*
X104162D01*
Y52232D01*
X104115D01*
Y52185D01*
Y52138D01*
X104068D01*
Y52091D01*
X104021D01*
Y52044D01*
Y51997D01*
X103975D01*
Y51950D01*
Y51903D01*
X103928D01*
Y51856D01*
X103881D01*
Y51810D01*
Y51763D01*
X103834D01*
Y51716D01*
Y51669D01*
X103787D01*
Y51622D01*
X103740D01*
Y51575D01*
Y51528D01*
X103693D01*
Y51482D01*
Y51435D01*
X103647D01*
Y51388D01*
X103600D01*
Y51341D01*
Y51294D01*
X103553D01*
Y51247D01*
Y51200D01*
X103506D01*
Y51153D01*
X103459D01*
Y51107D01*
Y51060D01*
X103412D01*
Y51013D01*
Y50966D01*
X103365D01*
Y50919D01*
X103318D01*
Y50872D01*
Y50825D01*
X103271D01*
Y50779D01*
Y50732D01*
X103225D01*
Y50685D01*
X103178D01*
Y50638D01*
Y50591D01*
X103131D01*
Y50544D01*
Y50497D01*
X103084D01*
Y50450D01*
X103037D01*
Y50404D01*
Y50357D01*
X102990D01*
Y50310D01*
Y50263D01*
X102943D01*
Y50216D01*
X102897D01*
Y50169D01*
Y50122D01*
X102850D01*
Y50076D01*
Y50029D01*
X102803D01*
Y49982D01*
Y49935D01*
X102756D01*
Y49888D01*
X102709D01*
Y49841D01*
Y49794D01*
X102662D01*
Y49747D01*
Y49700D01*
X102615D01*
Y49654D01*
Y49607D01*
X102568D01*
Y49560D01*
Y49513D01*
Y49466D01*
X103131D01*
Y49419D01*
X108427D01*
Y49466D01*
X109083D01*
Y49513D01*
Y49560D01*
X109037D01*
Y49607D01*
Y49654D01*
X108990D01*
Y49700D01*
X108943D01*
Y49747D01*
Y49794D01*
X108896D01*
Y49841D01*
Y49888D01*
X108849D01*
Y49935D01*
Y49982D01*
X108802D01*
Y50029D01*
X108755D01*
Y50076D01*
Y50122D01*
X108708D01*
Y50169D01*
Y50216D01*
X108661D01*
Y50263D01*
X108615D01*
Y50310D01*
Y50357D01*
X108568D01*
Y50404D01*
Y50450D01*
X108521D01*
Y50497D01*
X108474D01*
Y50544D01*
Y50591D01*
X108427D01*
Y50638D01*
Y50685D01*
X108380D01*
Y50732D01*
X108333D01*
Y50779D01*
Y50825D01*
X108287D01*
Y50872D01*
Y50919D01*
X108240D01*
Y50966D01*
X108193D01*
Y51013D01*
Y51060D01*
X108146D01*
Y51107D01*
Y51153D01*
X108099D01*
Y51200D01*
X108052D01*
Y51247D01*
Y51294D01*
X108005D01*
Y51341D01*
Y51388D01*
X107958D01*
Y51435D01*
X107912D01*
Y51482D01*
Y51528D01*
X107865D01*
Y51575D01*
X107818D01*
Y51622D01*
Y51669D01*
X107771D01*
Y51716D01*
Y51763D01*
X107724D01*
Y51810D01*
X107677D01*
Y51856D01*
Y51903D01*
X107630D01*
Y51950D01*
Y51997D01*
X107583D01*
Y52044D01*
X107537D01*
Y52091D01*
Y52138D01*
X107490D01*
Y52185D01*
Y52232D01*
X107443D01*
Y52278D01*
X107396D01*
Y52325D01*
Y52372D01*
X107349D01*
Y52419D01*
Y52466D01*
X107302D01*
Y52513D01*
X107255D01*
Y52560D01*
Y52606D01*
X107209D01*
Y52653D01*
Y52700D01*
X107162D01*
Y52747D01*
X107115D01*
Y52794D01*
Y52841D01*
X107068D01*
Y52888D01*
X107021D01*
Y52934D01*
Y52981D01*
X106974D01*
Y53028D01*
Y53075D01*
X106927D01*
Y53122D01*
X106880D01*
Y53169D01*
Y53216D01*
X106834D01*
Y53263D01*
Y53310D01*
X106787D01*
Y53356D01*
X106740D01*
Y53403D01*
Y53450D01*
X106693D01*
Y53497D01*
X106646D01*
Y53544D01*
Y53591D01*
X106599D01*
Y53638D01*
Y53685D01*
X106552D01*
Y53731D01*
X106506D01*
Y53778D01*
Y53825D01*
X106459D01*
Y53872D01*
Y53919D01*
X106412D01*
Y53966D01*
X106365D01*
Y54013D01*
Y54059D01*
X106318D01*
Y54106D01*
Y54153D01*
X106271D01*
Y54200D01*
X106224D01*
Y54247D01*
Y54294D01*
X106177D01*
Y54341D01*
X106131D01*
Y54387D01*
Y54434D01*
X106084D01*
Y54481D01*
Y54528D01*
X106037D01*
Y54575D01*
X105990D01*
Y54622D01*
Y54669D01*
X105943D01*
Y54716D01*
X105896D01*
Y54763D01*
Y54809D01*
X105849D01*
Y54856D01*
D02*
G37*
%LPD*%
D10*
X29949Y4650D02*
X37449D01*
X52449Y19150D02*
X54449Y17150D01*
X57449D01*
X125188D01*
X57449Y3150D02*
X155949D01*
X155949Y3150D02*
Y13275D01*
X44949Y19150D02*
X52449D01*
X13949D02*
X21449D01*
X29449Y33150D02*
X36949D01*
X30449Y103150D02*
X37949D01*
X13949Y87150D02*
X21449D01*
X30449Y72650D02*
X37949D01*
X45949Y87150D02*
X53449D01*
X55449Y89150D01*
X125188D01*
X155949Y93025D02*
Y103150D01*
X155949Y103150D01*
X57449Y103150D02*
X155949D01*
D11*
X141149Y19685D02*
X159449D01*
X141149D02*
Y25984D01*
X159449Y50D02*
Y19685D01*
X141049Y86614D02*
X159449D01*
Y106250D01*
X141149Y25984D02*
X159449D01*
Y80315D01*
X141049D02*
X159449D01*
X141049D02*
Y86614D01*
X0Y0D02*
Y106299D01*
Y106299D02*
X159449Y106299D01*
X49Y0D02*
X159449Y0D01*
D12*
X123249Y65650D02*
D03*
Y59650D02*
D03*
X85949Y28650D02*
D03*
Y22650D02*
D03*
X91449D02*
D03*
Y28650D02*
D03*
D14*
X24805Y63600D02*
D03*
X30806D02*
D03*
X24705Y41700D02*
D03*
X30705D02*
D03*
X43149Y50250D02*
D03*
X37149D02*
D03*
D15*
Y55850D02*
D03*
X43149D02*
D03*
X76449Y34650D02*
D03*
X70449D02*
D03*
D16*
X52449Y56563D02*
D03*
X56189D02*
D03*
X48709D02*
D03*
X56189Y45736D02*
D03*
X52449D02*
D03*
X48709D02*
D03*
D17*
X83445Y40650D02*
D03*
X70453D02*
D03*
D20*
X151649Y53150D02*
D03*
D21*
X123249Y35050D02*
D03*
Y41050D02*
D03*
X123349Y75850D02*
D03*
Y69850D02*
D03*
X32305Y50600D02*
D03*
Y56600D02*
D03*
X37249Y60450D02*
D03*
Y66450D02*
D03*
X61949Y51750D02*
D03*
Y45750D02*
D03*
D24*
X24749Y49213D02*
D03*
D25*
Y57087D02*
D03*
D26*
X47328Y9265D02*
D03*
Y28950D02*
D03*
X19769D02*
D03*
Y9265D02*
D03*
X47328Y77307D02*
D03*
Y96992D02*
D03*
X19769D02*
D03*
Y77307D02*
D03*
D27*
X33549Y19107D02*
D03*
Y87150D02*
D03*
D64*
X14249Y45200D02*
D03*
Y60987D02*
D03*
D65*
X66335Y64973D02*
D03*
Y67532D02*
D03*
Y70091D02*
D03*
Y72650D02*
D03*
Y75209D02*
D03*
Y77768D02*
D03*
Y80327D02*
D03*
X89563Y64973D02*
D03*
Y67532D02*
D03*
Y70091D02*
D03*
Y72650D02*
D03*
Y75209D02*
D03*
Y77768D02*
D03*
D66*
Y80327D02*
D03*
D67*
X41949Y64381D02*
D03*
Y66350D02*
D03*
Y62413D02*
D03*
Y60444D02*
D03*
X54547Y66350D02*
D03*
Y62413D02*
D03*
Y64381D02*
D03*
Y60444D02*
D03*
D68*
X89449Y53150D02*
D03*
Y41929D02*
D03*
X63249Y21950D02*
D03*
Y33170D02*
D03*
D69*
X89449Y58650D02*
D03*
D70*
X81461Y53150D02*
D03*
X70437D02*
D03*
D71*
X80291Y29650D02*
D03*
D72*
Y25910D02*
D03*
Y22169D02*
D03*
X70449D02*
D03*
Y29650D02*
D03*
Y25910D02*
D03*
M02*
