G04*
G04 #@! TF.GenerationSoftware,Altium Limited,Altium Designer,20.0.11 (256)*
G04*
G04 Layer_Physical_Order=1*
G04 Layer_Color=794757*
%FSLAX25Y25*%
%MOIN*%
G70*
G01*
G75*
%ADD11C,0.00600*%
%ADD28R,0.03543X0.02756*%
%ADD29O,0.01181X0.03150*%
%ADD30R,0.02756X0.03543*%
G04:AMPARAMS|DCode=31|XSize=35.43mil|YSize=27.56mil|CornerRadius=4.13mil|HoleSize=0mil|Usage=FLASHONLY|Rotation=270.000|XOffset=0mil|YOffset=0mil|HoleType=Round|Shape=RoundedRectangle|*
%AMROUNDEDRECTD31*
21,1,0.03543,0.01929,0,0,270.0*
21,1,0.02717,0.02756,0,0,270.0*
1,1,0.00827,-0.00965,-0.01358*
1,1,0.00827,-0.00965,0.01358*
1,1,0.00827,0.00965,0.01358*
1,1,0.00827,0.00965,-0.01358*
%
%ADD31ROUNDEDRECTD31*%
G04:AMPARAMS|DCode=32|XSize=23.62mil|YSize=39.37mil|CornerRadius=2.01mil|HoleSize=0mil|Usage=FLASHONLY|Rotation=0.000|XOffset=0mil|YOffset=0mil|HoleType=Round|Shape=RoundedRectangle|*
%AMROUNDEDRECTD32*
21,1,0.02362,0.03535,0,0,0.0*
21,1,0.01961,0.03937,0,0,0.0*
1,1,0.00402,0.00980,-0.01768*
1,1,0.00402,-0.00980,-0.01768*
1,1,0.00402,-0.00980,0.01768*
1,1,0.00402,0.00980,0.01768*
%
%ADD32ROUNDEDRECTD32*%
%ADD33R,0.03543X0.04724*%
%ADD34R,0.06496X0.09646*%
%ADD35R,0.02165X0.01378*%
%ADD36R,0.11811X0.11811*%
G04:AMPARAMS|DCode=37|XSize=35.43mil|YSize=27.56mil|CornerRadius=4.13mil|HoleSize=0mil|Usage=FLASHONLY|Rotation=0.000|XOffset=0mil|YOffset=0mil|HoleType=Round|Shape=RoundedRectangle|*
%AMROUNDEDRECTD37*
21,1,0.03543,0.01929,0,0,0.0*
21,1,0.02717,0.02756,0,0,0.0*
1,1,0.00827,0.01358,-0.00965*
1,1,0.00827,-0.01358,-0.00965*
1,1,0.00827,-0.01358,0.00965*
1,1,0.00827,0.01358,0.00965*
%
%ADD37ROUNDEDRECTD37*%
%ADD38R,0.07874X0.02362*%
%ADD39O,0.07874X0.02362*%
%ADD40C,0.01000*%
%ADD41C,0.00700*%
%ADD42C,0.00800*%
%ADD43C,0.02500*%
%ADD44C,0.01500*%
%ADD45C,0.02000*%
%ADD46R,0.05118X0.05118*%
%ADD47C,0.05118*%
%ADD48C,0.12000*%
%ADD49C,0.15748*%
%ADD50C,0.02559*%
G36*
X157919Y87529D02*
X141842D01*
X141257Y87413D01*
X140761Y87081D01*
X140429Y86585D01*
X140313Y86000D01*
Y81000D01*
X140429Y80415D01*
X140761Y79919D01*
X141257Y79587D01*
X141842Y79471D01*
X157919D01*
Y69950D01*
X142549Y69950D01*
X125049Y87450D01*
X55949Y87450D01*
X55949Y70061D01*
X55704Y69897D01*
X55594Y69733D01*
X52021Y69725D01*
X50915Y70831D01*
X50988Y71326D01*
X51236Y71459D01*
X52302Y72333D01*
X53177Y73399D01*
X53827Y74615D01*
X54188Y75807D01*
X47328D01*
X40468D01*
X40830Y74615D01*
X41480Y73399D01*
X42355Y72333D01*
X42968Y71830D01*
X42944Y71330D01*
X42819Y71247D01*
X41396Y69824D01*
X41315Y69703D01*
X33131Y69686D01*
X33130Y69688D01*
X32310Y70236D01*
X31343Y70428D01*
X30375Y70236D01*
X29555Y69688D01*
X29549Y69678D01*
X10196Y69638D01*
X9843Y69991D01*
Y104770D01*
X157919Y104770D01*
Y87529D01*
D02*
G37*
G36*
X55949Y37149D02*
Y18800D01*
X125049D01*
X142549Y36300D01*
X157919Y36300D01*
Y27029D01*
X141842D01*
X141257Y26913D01*
X140761Y26581D01*
X140429Y26085D01*
X140313Y25500D01*
Y20500D01*
X140429Y19915D01*
X140761Y19419D01*
X141257Y19087D01*
X141842Y18971D01*
X157919D01*
Y1529D01*
X9843Y1529D01*
Y37150D01*
X55945D01*
X55949Y37149D01*
D02*
G37*
%LPC*%
G36*
X21269Y103852D02*
Y98492D01*
X26629D01*
X26268Y99684D01*
X25618Y100900D01*
X24743Y101966D01*
X23677Y102841D01*
X22461Y103491D01*
X21269Y103852D01*
D02*
G37*
G36*
X18269Y103852D02*
X17077Y103491D01*
X15861Y102841D01*
X14796Y101966D01*
X13921Y100900D01*
X13271Y99684D01*
X12909Y98492D01*
X18269D01*
Y103852D01*
D02*
G37*
G36*
X48828D02*
Y98492D01*
X54188D01*
X53827Y99684D01*
X53177Y100900D01*
X52302Y101966D01*
X51236Y102841D01*
X50020Y103491D01*
X48828Y103852D01*
D02*
G37*
G36*
X45828Y103852D02*
X44637Y103491D01*
X43420Y102841D01*
X42355Y101966D01*
X41480Y100900D01*
X40830Y99684D01*
X40468Y98492D01*
X45828D01*
Y103852D01*
D02*
G37*
G36*
X18269Y95492D02*
X12909D01*
X13271Y94300D01*
X13921Y93084D01*
X14796Y92018D01*
X15861Y91144D01*
X17077Y90494D01*
X18269Y90132D01*
Y95492D01*
D02*
G37*
G36*
X54188Y95492D02*
X48828D01*
Y90132D01*
X50020Y90494D01*
X51236Y91144D01*
X52302Y92018D01*
X53177Y93084D01*
X53827Y94300D01*
X54188Y95492D01*
D02*
G37*
G36*
X45828D02*
X40468D01*
X40830Y94300D01*
X41480Y93084D01*
X42355Y92018D01*
X43420Y91144D01*
X44637Y90494D01*
X45828Y90132D01*
Y95492D01*
D02*
G37*
G36*
X26629Y95492D02*
X21269D01*
Y90132D01*
X22461Y90494D01*
X23677Y91144D01*
X24743Y92018D01*
X25618Y93084D01*
X26268Y94300D01*
X26629Y95492D01*
D02*
G37*
G36*
X35049Y95919D02*
Y88650D01*
X42318D01*
X42294Y88889D01*
X41787Y90562D01*
X40963Y92104D01*
X39854Y93455D01*
X38503Y94564D01*
X36961Y95388D01*
X35288Y95895D01*
X35049Y95919D01*
D02*
G37*
G36*
X32049D02*
X31809Y95895D01*
X30136Y95388D01*
X28595Y94564D01*
X27244Y93455D01*
X26135Y92104D01*
X25311Y90562D01*
X24803Y88889D01*
X24780Y88650D01*
X32049D01*
Y95919D01*
D02*
G37*
G36*
X21269Y84167D02*
Y78807D01*
X26629D01*
X26268Y79999D01*
X25618Y81215D01*
X24743Y82281D01*
X23677Y83156D01*
X22461Y83806D01*
X21269Y84167D01*
D02*
G37*
G36*
X18269Y84167D02*
X17077Y83806D01*
X15861Y83156D01*
X14796Y82281D01*
X13921Y81215D01*
X13271Y79999D01*
X12909Y78807D01*
X18269D01*
Y84167D01*
D02*
G37*
G36*
X48828Y84167D02*
Y78807D01*
X54188D01*
X53827Y79999D01*
X53177Y81215D01*
X52302Y82281D01*
X51236Y83156D01*
X50020Y83806D01*
X48828Y84167D01*
D02*
G37*
G36*
X45828Y84167D02*
X44637Y83806D01*
X43420Y83156D01*
X42355Y82281D01*
X41480Y81215D01*
X40830Y79999D01*
X40468Y78807D01*
X45828D01*
Y84167D01*
D02*
G37*
G36*
X42318Y85650D02*
X35049D01*
Y78380D01*
X35288Y78404D01*
X36961Y78911D01*
X38503Y79735D01*
X39854Y80844D01*
X40963Y82196D01*
X41787Y83737D01*
X42294Y85410D01*
X42318Y85650D01*
D02*
G37*
G36*
X32049D02*
X24780D01*
X24803Y85410D01*
X25311Y83737D01*
X26135Y82196D01*
X27244Y80844D01*
X28595Y79735D01*
X30136Y78911D01*
X31809Y78404D01*
X32049Y78380D01*
Y85650D01*
D02*
G37*
G36*
X18269Y75807D02*
X12909D01*
X13271Y74615D01*
X13921Y73399D01*
X14796Y72333D01*
X15861Y71459D01*
X17077Y70809D01*
X18269Y70447D01*
Y75807D01*
D02*
G37*
G36*
X26629D02*
X21269D01*
Y70447D01*
X22461Y70809D01*
X23677Y71459D01*
X24743Y72333D01*
X25618Y73399D01*
X26268Y74615D01*
X26629Y75807D01*
D02*
G37*
G36*
X21269Y35810D02*
Y30450D01*
X26629D01*
X26268Y31641D01*
X25618Y32857D01*
X24743Y33923D01*
X23677Y34798D01*
X22461Y35448D01*
X21269Y35810D01*
D02*
G37*
G36*
X18269Y35810D02*
X17077Y35448D01*
X15861Y34798D01*
X14796Y33923D01*
X13921Y32857D01*
X13271Y31641D01*
X12909Y30450D01*
X18269D01*
Y35810D01*
D02*
G37*
G36*
X48828D02*
Y30450D01*
X54188D01*
X53827Y31641D01*
X53177Y32857D01*
X52302Y33923D01*
X51236Y34798D01*
X50020Y35448D01*
X48828Y35810D01*
D02*
G37*
G36*
X45828Y35810D02*
X44637Y35448D01*
X43420Y34798D01*
X42355Y33923D01*
X41480Y32857D01*
X40830Y31641D01*
X40468Y30450D01*
X45828D01*
Y35810D01*
D02*
G37*
G36*
X18269Y27450D02*
X12909D01*
X13271Y26258D01*
X13921Y25042D01*
X14796Y23976D01*
X15861Y23101D01*
X17077Y22451D01*
X18269Y22090D01*
Y27450D01*
D02*
G37*
G36*
X54188Y27450D02*
X48828D01*
Y22090D01*
X50020Y22451D01*
X51236Y23101D01*
X52302Y23976D01*
X53177Y25042D01*
X53827Y26258D01*
X54188Y27450D01*
D02*
G37*
G36*
X45828D02*
X40468D01*
X40830Y26258D01*
X41480Y25042D01*
X42355Y23976D01*
X43420Y23101D01*
X44637Y22451D01*
X45828Y22090D01*
Y27450D01*
D02*
G37*
G36*
X26629Y27450D02*
X21269D01*
Y22090D01*
X22461Y22451D01*
X23677Y23101D01*
X24743Y23976D01*
X25618Y25042D01*
X26268Y26258D01*
X26629Y27450D01*
D02*
G37*
G36*
X35049Y27876D02*
Y20607D01*
X42318D01*
X42294Y20847D01*
X41787Y22520D01*
X40963Y24061D01*
X39854Y25412D01*
X38503Y26521D01*
X36961Y27345D01*
X35288Y27853D01*
X35049Y27876D01*
D02*
G37*
G36*
X32049D02*
X31809Y27853D01*
X30136Y27345D01*
X28595Y26521D01*
X27244Y25412D01*
X26135Y24061D01*
X25311Y22520D01*
X24803Y20847D01*
X24780Y20607D01*
X32049D01*
Y27876D01*
D02*
G37*
G36*
X21269Y16125D02*
Y10765D01*
X26629D01*
X26268Y11956D01*
X25618Y13172D01*
X24743Y14238D01*
X23677Y15113D01*
X22461Y15763D01*
X21269Y16125D01*
D02*
G37*
G36*
X18269Y16125D02*
X17077Y15763D01*
X15861Y15113D01*
X14796Y14238D01*
X13921Y13172D01*
X13271Y11956D01*
X12909Y10765D01*
X18269D01*
Y16125D01*
D02*
G37*
G36*
X48828Y16125D02*
Y10765D01*
X54188D01*
X53827Y11956D01*
X53177Y13172D01*
X52302Y14238D01*
X51236Y15113D01*
X50020Y15763D01*
X48828Y16125D01*
D02*
G37*
G36*
X45828Y16125D02*
X44637Y15763D01*
X43420Y15113D01*
X42355Y14238D01*
X41480Y13172D01*
X40830Y11956D01*
X40468Y10765D01*
X45828D01*
Y16125D01*
D02*
G37*
G36*
X42318Y17607D02*
X35049D01*
Y10338D01*
X35288Y10362D01*
X36961Y10869D01*
X38503Y11693D01*
X39854Y12802D01*
X40963Y14153D01*
X41787Y15695D01*
X42294Y17368D01*
X42318Y17607D01*
D02*
G37*
G36*
X32049D02*
X24780D01*
X24803Y17368D01*
X25311Y15695D01*
X26135Y14153D01*
X27244Y12802D01*
X28595Y11693D01*
X30136Y10869D01*
X31809Y10362D01*
X32049Y10338D01*
Y17607D01*
D02*
G37*
G36*
X18269Y7765D02*
X12909D01*
X13271Y6573D01*
X13921Y5357D01*
X14796Y4291D01*
X15861Y3416D01*
X17077Y2766D01*
X18269Y2405D01*
Y7765D01*
D02*
G37*
G36*
X45828Y7765D02*
X40468D01*
X40830Y6573D01*
X41480Y5357D01*
X42355Y4291D01*
X43420Y3416D01*
X44637Y2766D01*
X45828Y2405D01*
Y7765D01*
D02*
G37*
G36*
X54188D02*
X48828D01*
Y2405D01*
X50020Y2766D01*
X51236Y3416D01*
X52302Y4291D01*
X53177Y5357D01*
X53827Y6573D01*
X54188Y7765D01*
D02*
G37*
G36*
X26629Y7765D02*
X21269D01*
Y2405D01*
X22461Y2766D01*
X23677Y3416D01*
X24743Y4291D01*
X25618Y5357D01*
X26268Y6573D01*
X26629Y7765D01*
D02*
G37*
%LPD*%
D11*
X141149Y19685D02*
X159449D01*
X141149D02*
Y25984D01*
X159449Y50D02*
Y19685D01*
X141049Y86614D02*
X159449D01*
Y106250D01*
X141149Y25984D02*
X159449D01*
Y80315D01*
X141049D02*
X159449D01*
X141049D02*
Y86614D01*
X0Y0D02*
Y106299D01*
Y106299D02*
X159449Y106299D01*
X49Y0D02*
X159449Y0D01*
D28*
X75249Y47150D02*
D03*
Y41150D02*
D03*
D29*
X68902Y42850D02*
D03*
X64965D02*
D03*
X66933D02*
D03*
X62996D02*
D03*
X68902Y55449D02*
D03*
X66933D02*
D03*
X62996D02*
D03*
X64965D02*
D03*
D30*
X57949Y42050D02*
D03*
X51949D02*
D03*
X81449Y77150D02*
D03*
X75449D02*
D03*
X66249Y22750D02*
D03*
X72249D02*
D03*
X63149Y35350D02*
D03*
X69149D02*
D03*
X138449Y60150D02*
D03*
X132449D02*
D03*
X138449Y50650D02*
D03*
X132449D02*
D03*
X60949Y61150D02*
D03*
X66949D02*
D03*
X60949Y67650D02*
D03*
X66949D02*
D03*
D31*
X58149Y47450D02*
D03*
X52149D02*
D03*
X75249Y56150D02*
D03*
X81249D02*
D03*
X52449Y53550D02*
D03*
X58449D02*
D03*
X132449Y44150D02*
D03*
X138449D02*
D03*
D32*
X75949Y71851D02*
D03*
X72208D02*
D03*
X79689D02*
D03*
X72208Y61024D02*
D03*
X75949D02*
D03*
X79689D02*
D03*
D33*
X72245Y29050D02*
D03*
X59253D02*
D03*
D34*
X37343Y57000D02*
D03*
D35*
X31988Y53161D02*
D03*
Y55721D02*
D03*
Y58280D02*
D03*
Y60839D02*
D03*
X42697D02*
D03*
Y58280D02*
D03*
Y55721D02*
D03*
Y53161D02*
D03*
D36*
X151649Y53150D02*
D03*
D37*
X66649Y78650D02*
D03*
Y72650D02*
D03*
X81449Y51650D02*
D03*
Y45650D02*
D03*
X46643Y61700D02*
D03*
Y55700D02*
D03*
X81449Y41150D02*
D03*
Y35150D02*
D03*
D38*
X88445Y75650D02*
D03*
D39*
Y70650D02*
D03*
Y65650D02*
D03*
Y60650D02*
D03*
Y55650D02*
D03*
Y50650D02*
D03*
Y45650D02*
D03*
Y40650D02*
D03*
Y35650D02*
D03*
Y30650D02*
D03*
X125453Y75650D02*
D03*
Y70650D02*
D03*
Y65650D02*
D03*
Y60650D02*
D03*
Y55650D02*
D03*
Y50650D02*
D03*
Y45650D02*
D03*
Y40650D02*
D03*
Y35650D02*
D03*
Y30650D02*
D03*
D40*
X24749Y49213D02*
X28506Y52969D01*
Y54600D01*
X29626Y55721D02*
X31988D01*
X28506Y54600D02*
X29626Y55721D01*
X24749Y57187D02*
X25863D01*
X52449Y53550D02*
X52496Y53597D01*
X40106Y42100D02*
X40399D01*
X45511Y47212D01*
X25863Y57187D02*
X26956Y58280D01*
X31988D01*
X24749Y58537D02*
X24828Y58458D01*
X42886Y58469D02*
X44011D01*
X45300Y59758D02*
X46249Y61700D01*
X44011Y58469D02*
X45300Y59758D01*
X42697Y58280D02*
X42886Y58469D01*
X46249Y61700D02*
X46643D01*
X42697Y55721D02*
X42707Y55710D01*
X46632D01*
X46643Y55700D01*
X31343Y67600D02*
Y67900D01*
Y67600D02*
X31865Y67077D01*
X44943Y67278D02*
Y67700D01*
Y67278D02*
X46643Y65578D01*
Y61700D02*
Y65578D01*
X52299Y53400D02*
X52496Y53597D01*
Y58953D02*
X52543Y59000D01*
X52496Y53597D02*
Y58953D01*
X52149Y47450D02*
X52299Y47600D01*
X38622Y55721D02*
X43091D01*
X35243Y53809D02*
Y54200D01*
X151649Y53150D02*
X154949Y49850D01*
Y44650D02*
Y49850D01*
X151649Y53150D02*
X154949Y56450D01*
Y61150D01*
X132449Y44150D02*
Y44543D01*
X135055Y47150D01*
X135449D01*
X138449Y44400D02*
Y50650D01*
X142650Y44851D02*
X142949Y45150D01*
X139151Y44851D02*
X142650D01*
X138449Y44150D02*
X139151Y44851D01*
X76630Y69691D02*
X78671Y67650D01*
X78949D01*
X60649Y72634D02*
X60664Y72650D01*
X60549Y72734D02*
Y72750D01*
Y72734D02*
X60649Y72634D01*
X60664Y72650D02*
X66649D01*
X51911Y47212D02*
X52299Y47600D01*
Y53400D01*
X45511Y47212D02*
X51911D01*
X58049Y47350D02*
X58299Y47600D01*
X58049Y42150D02*
Y47350D01*
X57949Y42050D02*
X58049Y42150D01*
X58299Y47600D02*
Y53400D01*
X58449Y53550D01*
X46836Y41950D02*
X51849D01*
X51949Y42050D01*
X46630Y42156D02*
X46836Y41950D01*
X75249Y47150D02*
Y50150D01*
X66949D02*
X75249D01*
X64649Y51350D02*
X65749D01*
X66949Y50150D01*
X94259Y58169D02*
X94469Y58379D01*
X95567Y55800D02*
X97049Y57281D01*
X84699Y58169D02*
X94259D01*
X88445Y55650D02*
X88595Y55800D01*
X95567D01*
X142527Y53050D02*
X142949D01*
X141327Y54250D02*
X142527Y53050D01*
X133035Y54250D02*
X141327D01*
X88745Y75950D02*
X89445Y75250D01*
X81699Y31600D02*
Y35400D01*
X79099Y37500D02*
X81449Y35150D01*
X132449Y50650D02*
Y53664D01*
X133035Y54250D01*
X132449Y57150D02*
X133449Y56150D01*
X149449D01*
X151649Y53150D01*
X37343Y57000D02*
X38622Y55721D01*
X34595Y53161D02*
X35243Y53809D01*
X31988Y53161D02*
X34595D01*
X31865Y60961D02*
Y67077D01*
Y60961D02*
X31988Y60839D01*
X92449Y45650D02*
X94649Y43450D01*
X88445Y45650D02*
X92449D01*
X81449D02*
X88445D01*
X94327Y65250D02*
X94749D01*
X93927Y65650D02*
X94327Y65250D01*
X88445Y65650D02*
X93927D01*
X94769Y61850D02*
X97049Y59570D01*
X62996Y53002D02*
X64649Y51350D01*
X88467Y30671D02*
X93971D01*
X94649Y31350D02*
Y34950D01*
X93971Y30671D02*
X94649Y31350D01*
X88445Y35650D02*
X93949D01*
X94649Y34950D01*
X88445Y30650D02*
X88467Y30671D01*
X68936Y40762D02*
Y42816D01*
X71949Y37750D02*
X79349D01*
X68936Y40762D02*
X71949Y37750D01*
X81849Y28050D02*
X95549D01*
X69349Y35150D02*
X74749D01*
X81849Y28050D01*
X82649Y30650D02*
X88445D01*
X81699Y31600D02*
X82649Y30650D01*
X69149Y35350D02*
X69349Y35150D01*
X68902Y42850D02*
X68936Y42816D01*
X83381Y80221D02*
X84484Y79118D01*
X84906D01*
X75449Y77150D02*
X76234Y77935D01*
Y79636D01*
X76820Y80221D01*
X83381D01*
X81449Y77150D02*
X82170Y76429D01*
Y61488D02*
Y76429D01*
X83008Y60650D02*
X88445D01*
X82170Y61488D02*
X83008Y60650D01*
X69335Y78935D02*
X71549Y81150D01*
X88445Y75650D02*
X88745Y75950D01*
X89445Y75250D02*
X89645Y75450D01*
X94449D01*
X119949Y35650D02*
X125453D01*
X119849Y35750D02*
X119949Y35650D01*
X119849Y40650D02*
X125453D01*
X119849Y55650D02*
X125253D01*
X125353Y55550D01*
X125453Y55650D01*
X119849Y65650D02*
X125453D01*
X119949Y75750D02*
X119999Y75700D01*
X125403D01*
X125453Y75650D01*
X119949Y70450D02*
X120049Y70550D01*
X125353D01*
X125453Y70650D01*
X119649Y30650D02*
X125445D01*
X125449Y30646D01*
X125453Y30650D01*
X97049Y57281D02*
Y59570D01*
X62996Y53002D02*
Y53050D01*
X66649Y78650D02*
X66935Y78935D01*
X69335D01*
X93349Y50650D02*
X94449Y49550D01*
X88445Y50650D02*
X93349D01*
X94449Y49550D02*
X96649D01*
X97228Y48970D01*
Y38629D02*
Y48970D01*
X83952Y57421D02*
X84699Y58169D01*
X82127Y57421D02*
X83952D01*
X81249Y56543D02*
X82127Y57421D01*
X58949Y53050D02*
X62996D01*
X76630Y69691D02*
Y71170D01*
X75949Y71851D02*
X76630Y71170D01*
X62996Y53050D02*
Y55449D01*
X81249Y56150D02*
Y56543D01*
X93580Y38170D02*
X96769D01*
X92069Y39681D02*
X93580Y38170D01*
X92069Y39681D02*
Y39729D01*
X96769Y38170D02*
X97228Y38629D01*
X91149Y40650D02*
X92069Y39729D01*
X88445Y40650D02*
X91149D01*
X82842Y50650D02*
X88445D01*
X75249Y52650D02*
Y56150D01*
Y47150D02*
X75249Y47150D01*
X88195Y35400D02*
X88445Y35650D01*
X81699Y35400D02*
X88195D01*
X81449Y35150D02*
X81699Y35400D01*
X75949Y41150D02*
X81449D01*
X88195Y40900D02*
X88445Y40650D01*
X81699Y40900D02*
X88195D01*
X81449Y41150D02*
X81699Y40900D01*
X81842Y51650D02*
X82842Y50650D01*
X81449Y51650D02*
X81842D01*
X75267Y60343D02*
X75949Y61024D01*
X75267Y58989D02*
Y60343D01*
X75249Y58970D02*
X75267Y58989D01*
X75249Y56150D02*
Y58970D01*
X125453Y60650D02*
X131949D01*
X132449Y60150D01*
X125453Y50650D02*
X132449D01*
X132449Y50650D01*
X138449Y60150D02*
X141949D01*
X141949Y60150D01*
X132449Y57150D02*
Y60150D01*
D41*
X42513Y61023D02*
X42697Y60839D01*
X42513Y61023D02*
Y68706D01*
X43936Y70130D01*
X49382D01*
X55093Y64418D01*
X60539D01*
X60949Y64828D02*
Y67650D01*
X60539Y64418D02*
X60949Y64828D01*
X60427Y36771D02*
X62121D01*
X55349Y39650D02*
X56349Y38650D01*
X58549D02*
X60427Y36771D01*
X56349Y38650D02*
X58549D01*
X55349Y39650D02*
Y50550D01*
X63149Y35350D02*
Y35743D01*
Y38043D01*
X63883Y38777D02*
Y40183D01*
X63149Y38043D02*
X63883Y38777D01*
X62121Y36771D02*
X63149Y35743D01*
X63883Y40183D02*
X64872Y41173D01*
Y42758D01*
X66841Y39706D02*
Y42758D01*
X66567Y39432D02*
X66841Y39706D01*
X64872Y42758D02*
X64965Y42850D01*
X66841Y42758D02*
X66933Y42850D01*
X63749Y45950D02*
X70849D01*
X62996Y45197D02*
X63749Y45950D01*
X78249Y45374D02*
Y58650D01*
X79689Y60089D01*
X77497Y44622D02*
X78249Y45374D01*
X62996Y42850D02*
Y45197D01*
X70849Y45950D02*
X72177Y44622D01*
X77497D01*
X79689Y60089D02*
Y61024D01*
D42*
X42697Y53161D02*
X42736Y53122D01*
X48669D01*
X49871Y54324D01*
Y59835D01*
X51516Y61480D01*
X60619D01*
X60949Y61150D01*
X71525Y65070D02*
X75269D01*
X70512Y67213D02*
X70849Y67550D01*
X64777Y64678D02*
X68824D01*
X70512Y66366D02*
Y67213D01*
X75269Y65070D02*
X75649Y65450D01*
X69827Y63372D02*
X71525Y65070D01*
X68824Y64678D02*
X70512Y66366D01*
X66933Y53064D02*
X67283Y52714D01*
X71413D01*
X66933Y53064D02*
Y55449D01*
X72208Y53509D02*
Y61024D01*
X71413Y52714D02*
X72208Y53509D01*
X78908Y72632D02*
Y73621D01*
X77509Y75020D02*
X78908Y73621D01*
X77185Y75020D02*
X77509D01*
X75449Y76756D02*
X77185Y75020D01*
X75449Y76756D02*
Y77150D01*
X78908Y72632D02*
X79689Y71851D01*
X72208Y71131D02*
Y77390D01*
X71849Y77750D02*
X72208Y77390D01*
Y71131D02*
Y71851D01*
X69749Y70350D02*
X71427D01*
X72208Y71131D01*
X66849Y67450D02*
X69749Y70350D01*
X64049Y59203D02*
Y63950D01*
X64777Y64678D01*
X64049Y59203D02*
X64965Y58287D01*
X66849Y67450D02*
Y67650D01*
X66949D01*
Y61150D02*
X69359D01*
X69827Y61618D01*
Y63372D01*
X64965Y55449D02*
Y58287D01*
X68902Y55449D02*
Y58803D01*
X66949Y60756D02*
X68902Y58803D01*
X66949Y60756D02*
Y61150D01*
D43*
X63149Y29550D02*
X65649D01*
X75249Y50150D02*
Y52650D01*
X94849Y53150D02*
X94860Y53161D01*
X97344D02*
X97433Y53250D01*
X97449D01*
X94860Y53161D02*
X97344D01*
X63249Y26150D02*
X66149D01*
D44*
X66199Y22800D02*
Y26100D01*
Y22800D02*
X66249Y22750D01*
X66149Y26150D02*
X66199Y26100D01*
D45*
X59203Y29000D02*
X59253Y29050D01*
X47299Y29000D02*
X59203D01*
X47249Y28950D02*
X47299Y29000D01*
X72247Y22752D02*
X72249Y22750D01*
X72247Y22752D02*
Y29048D01*
X72245Y29050D02*
X72247Y29048D01*
X94649Y52950D02*
X94849Y53150D01*
D46*
X24749Y49213D02*
D03*
D47*
Y57087D02*
D03*
D48*
X47328Y9265D02*
D03*
Y28950D02*
D03*
X19769D02*
D03*
Y9265D02*
D03*
X47328Y77307D02*
D03*
Y96992D02*
D03*
X19769D02*
D03*
Y77307D02*
D03*
D49*
X33549Y19107D02*
D03*
Y87150D02*
D03*
D50*
X40106Y42100D02*
D03*
X37205Y45200D02*
D03*
X31343Y67900D02*
D03*
X52543Y59000D02*
D03*
X50343Y63900D02*
D03*
X44943Y67700D02*
D03*
X35243Y54200D02*
D03*
X13949Y19150D02*
D03*
Y87150D02*
D03*
X154949Y44650D02*
D03*
Y61150D02*
D03*
X151449Y44650D02*
D03*
Y61150D02*
D03*
X70849Y67550D02*
D03*
X149035Y9650D02*
D03*
X152432D02*
D03*
X145639D02*
D03*
X142242D02*
D03*
X138845D02*
D03*
X135449D02*
D03*
X149035Y96650D02*
D03*
X152432D02*
D03*
X145639D02*
D03*
X142242D02*
D03*
X138845D02*
D03*
X135449D02*
D03*
X141449Y16650D02*
D03*
Y29150D02*
D03*
X140449Y77150D02*
D03*
Y89650D02*
D03*
X137949Y19150D02*
D03*
Y22150D02*
D03*
Y25150D02*
D03*
Y80650D02*
D03*
Y84150D02*
D03*
Y87650D02*
D03*
X142949Y45150D02*
D03*
X135449Y47150D02*
D03*
X78949Y67650D02*
D03*
X121623Y89150D02*
D03*
X125188D02*
D03*
X118057D02*
D03*
X114492D02*
D03*
X110927D02*
D03*
X100231D02*
D03*
X103797D02*
D03*
X107362D02*
D03*
X96666D02*
D03*
X93101D02*
D03*
X89536D02*
D03*
X78840D02*
D03*
X82405D02*
D03*
X85970D02*
D03*
X75275D02*
D03*
X71710D02*
D03*
X68144D02*
D03*
X61014D02*
D03*
X64579D02*
D03*
X57449D02*
D03*
X121623Y17150D02*
D03*
X125188D02*
D03*
X118057D02*
D03*
X114492D02*
D03*
X110927D02*
D03*
X100231D02*
D03*
X103797D02*
D03*
X107362D02*
D03*
X96666D02*
D03*
X93101D02*
D03*
X89536D02*
D03*
X78840D02*
D03*
X82405D02*
D03*
X85970D02*
D03*
X75275D02*
D03*
X71710D02*
D03*
X68144D02*
D03*
X61014D02*
D03*
X64579D02*
D03*
X57449D02*
D03*
X135570Y103150D02*
D03*
X132173D02*
D03*
X128776D02*
D03*
X118587D02*
D03*
X121983D02*
D03*
X125380D02*
D03*
X115190D02*
D03*
X111794D02*
D03*
X108397D02*
D03*
X98207D02*
D03*
X101604D02*
D03*
X105000D02*
D03*
X94811D02*
D03*
X91414D02*
D03*
X88018D02*
D03*
X77828D02*
D03*
X81225D02*
D03*
X84621D02*
D03*
X74432D02*
D03*
X71035D02*
D03*
X67638D02*
D03*
X60845D02*
D03*
X64242D02*
D03*
X57449D02*
D03*
Y3150D02*
D03*
X64242D02*
D03*
X60845D02*
D03*
X67638D02*
D03*
X71035D02*
D03*
X74432D02*
D03*
X84621D02*
D03*
X81225D02*
D03*
X77828D02*
D03*
X88018D02*
D03*
X91414D02*
D03*
X94811D02*
D03*
X105000D02*
D03*
X101604D02*
D03*
X98207D02*
D03*
X108397D02*
D03*
X111794D02*
D03*
X115190D02*
D03*
X125380D02*
D03*
X121983D02*
D03*
X118587D02*
D03*
X128776D02*
D03*
X132173D02*
D03*
X135570D02*
D03*
X52449Y19150D02*
D03*
X49949D02*
D03*
X47449D02*
D03*
X44949D02*
D03*
X37449Y4650D02*
D03*
X34949D02*
D03*
X32449D02*
D03*
X29949D02*
D03*
X36949Y33150D02*
D03*
X34449D02*
D03*
X31949D02*
D03*
X29449D02*
D03*
X21449Y19150D02*
D03*
X18949D02*
D03*
X16449D02*
D03*
X53449Y87150D02*
D03*
X50949D02*
D03*
X48449D02*
D03*
X45949D02*
D03*
X21449D02*
D03*
X18949D02*
D03*
X16449D02*
D03*
X37949Y103150D02*
D03*
X35449D02*
D03*
X32949D02*
D03*
X30449D02*
D03*
X37949Y72650D02*
D03*
X35449D02*
D03*
X32949D02*
D03*
X30449D02*
D03*
X155949Y6525D02*
D03*
Y9900D02*
D03*
Y13275D02*
D03*
Y99775D02*
D03*
Y96400D02*
D03*
Y93025D02*
D03*
X144349Y29150D02*
D03*
X147249D02*
D03*
X155949D02*
D03*
X153049D02*
D03*
X150149D02*
D03*
X143549Y77150D02*
D03*
X146649D02*
D03*
X155949D02*
D03*
X152849D02*
D03*
X149749D02*
D03*
X143549Y89650D02*
D03*
X146649D02*
D03*
X155949D02*
D03*
X152849D02*
D03*
X149749D02*
D03*
X138966Y3150D02*
D03*
X142363D02*
D03*
X145759D02*
D03*
X155949D02*
D03*
X152552D02*
D03*
X149156D02*
D03*
X138966Y103150D02*
D03*
X142363D02*
D03*
X145759D02*
D03*
X155949D02*
D03*
X152552D02*
D03*
X149156D02*
D03*
X144349Y16650D02*
D03*
X147249D02*
D03*
X155949D02*
D03*
X153049D02*
D03*
X150149D02*
D03*
X143449Y71650D02*
D03*
X145949D02*
D03*
X148449D02*
D03*
X155949D02*
D03*
X153449D02*
D03*
X150949D02*
D03*
Y34650D02*
D03*
X153449D02*
D03*
X155949D02*
D03*
X148449D02*
D03*
X145949D02*
D03*
X143449D02*
D03*
X60549Y72750D02*
D03*
X61406Y39736D02*
D03*
X46349Y41950D02*
D03*
X94469Y58379D02*
D03*
X48667Y49792D02*
D03*
X55349Y50550D02*
D03*
X142949Y53050D02*
D03*
X94649Y40750D02*
D03*
Y43450D02*
D03*
X97449Y53250D02*
D03*
X94749Y65250D02*
D03*
X94769Y61850D02*
D03*
X63212Y49207D02*
D03*
X63149Y29550D02*
D03*
X63249Y26150D02*
D03*
X66149D02*
D03*
X65649Y29550D02*
D03*
X66567Y39432D02*
D03*
X95549Y28050D02*
D03*
X84906Y79118D02*
D03*
X71849Y77750D02*
D03*
X94371Y72091D02*
D03*
X75649Y65450D02*
D03*
X71549Y81150D02*
D03*
X94449Y75450D02*
D03*
X119849Y35750D02*
D03*
Y40650D02*
D03*
Y55650D02*
D03*
X119649Y30650D02*
D03*
X119849Y65650D02*
D03*
X119949Y70450D02*
D03*
Y75750D02*
D03*
X60349Y57250D02*
D03*
X94849Y53150D02*
D03*
X57491Y68109D02*
D03*
X79349Y37750D02*
D03*
X75249Y52650D02*
D03*
Y50150D02*
D03*
X76189Y25910D02*
D03*
X141949Y60150D02*
D03*
M02*
