M48
;Layer_Color=9474304
;FILE_FORMAT=2:5
INCH,LZ
;TYPE=PLATED
T1F00S00C0.01181
T2F00S00C0.03150
T3F00S00C0.07873
T4F00S00C0.12598
%
T01
X0013949Y001915
X0016449
X0018949
X0021449
X0029449Y003315
X0031949
X0034449
X0036949
X0040106Y00421
X0037205Y00452
X0035243Y00542
X0031343Y00679
X0030449Y007265
X0032949
X0035449
X0037949
X0044943Y00677
X0050343Y00639
X0052543Y0059
X0060349Y005725
X0063212Y0049207
X0055349Y005055
X0048667Y0049792
X0046349Y004195
X0061406Y0039736
X0066567Y0039432
X0065649Y002955
X0063149
X0063249Y002615
X0066149
X0076189Y002591
X0075275Y001715
X007884
X0082405
X008597
X0089536
X0093101
X0096666
X0100231
X0103797
X0107362
X0110927
X0114492
X0118057
X0121623
X0125188
X012538Y000315
X0121983
X0118587
X011519
X0111794
X0108397
X0105
X0101604
X0098207
X0094811
X0091414
X0088018
X0084621
X0081225
X0077828
X0074432
X0071035
X0067638
X0064242
X0060845
X0057449
Y001715
X0061014
X0064579
X0068144
X007171
X0052449Y001915
X0049949
X0047449
X0044949
X0037449Y000465
X0034949
X0032449
X0029949
X0079349Y003775
X0075249Y005015
Y005265
X0075649Y006545
X0078949Y006765
X0070849Y006755
X0057491Y0068109
X0060549Y007275
X0094371Y0072091
X0094749Y006525
X0094769Y006185
X0094469Y0058379
X0094849Y005315
X0097449Y005325
X0094649Y004345
Y004075
X0095549Y002805
X0119649Y003065
X0119849Y003575
Y004065
Y005565
Y006565
X0119949Y007045
X0143449Y007165
X0145949
X0148449
X0150949
X0153449
X0155949
X0154949Y006115
X0151449
X0141949Y006015
X0142949Y005305
Y004515
X0151449Y004465
X0154949
X0155949Y003465
X0153449
X0150949
X0148449
X0145949
X0143449
X0144349Y002915
X0141449
X0147249
X0150149
X0153049
X0155949
Y001665
X0153049
X0150149
X0147249
X0144349
X0141449
X0137949Y001915
Y002215
Y002515
X0138845Y000965
X0142242
X0145639
X0149035
X0152432
X0155949Y00099
Y0006525
X0155949Y000315
X0152552
X0149156
X0145759
X0142363
X0138966
X013557
X0132173
X0128776
X0135449Y000965
X0155949Y0013275
X0135449Y004715
X0140449Y007715
X0143549
X0146649
X0149749
X0152849
X0155949
Y008965
X0152849
X0149749
X0146649
X0143549
X0140449
X0137949Y008765
Y008415
Y008065
X0138845Y009665
X0142242
X0145639
X0149035
X0152432
X0155949Y00964
Y0099775
X0155949Y010315
X0152552
X0149156
X0145759
X0142363
X0138966
X013557
X0132173
X0128776
X012538
X0121983
X0118587
X011519
X0111794
X0108397
X0105
X0101604
X0098207
X0094811
X0091414
X0088018
X0084621
X0081225
X0077828
X0074432
X0071035
X0067638
X0064242
X0060845
X0057449
Y008915
X0061014
X0064579
X0068144
X007171
X0075275
X007884
X0082405
X008597
X0089536
X0093101
X0096666
X0100231
X0103797
X0107362
X0110927
X0114492
X0118057
X0121623
X0125188
X0135449Y009665
X0155949Y0093025
X0119949Y007575
X0094449Y007545
X0084906Y0079118
X0071849Y007775
X0071549Y008115
X0053449Y008715
X0050949
X0048449
X0045949
X0037949Y010315
X0035449
X0032949
X0030449
X0021449Y008715
X0018949
X0016449
X0013949
T02
X0024749Y0049213
Y0057087
T03
X0019769Y0009265
Y002895
X0047328
Y0009265
Y0077307
Y0096992
X0019769
Y0077307
T04
X0033549Y0019107
Y008715
M30
