M48
;Layer_Color=9474304
;FILE_FORMAT=2:5
INCH,LZ
;TYPE=PLATED
T1F00S00C0.00787
T2F00S00C0.01181
T3F00S00C0.01299
T4F00S00C0.05118
T5F00S00C0.05906
T6F00S00C0.11811
%
T01
X0092901Y0026535
Y0030865
X0097232
Y0026535
T02
X00195Y00423
Y00451
Y00479
Y00507
Y00535
Y00564
X00236Y00575
X00264
X00292
X0032
X00348
X00377
X00443Y00558
Y00529
Y00501
Y00473
Y00445
Y00417
X00377Y00411
X00348
X0032
X00292
X00264
X00236
X00714Y00249
X0074
X00766
X00793
X00886Y00037
X01051Y00192
X01159Y00258
X01184
X0121Y00259
X01222Y00281
X0119647Y0028
X01171
X01146Y00279
X01355Y00285
Y00257
Y00229
Y00201
Y00173
Y00144
X01375Y000735
X01403
X01431
X01459
X01487
X01516
X015285Y00143
Y00172
Y002
Y00228
Y00256
Y00284
X0153673Y00326
X0156473
X0159273
X0162073
X0164873
X0150773
X01477
X01449
X01421
X01393
X01365
X01336
X01687
X01716
X01744
X01772
X018
X01828
X01857Y00327
X01886
X01914
X01942
X0197
X01998
X01953Y00286
Y00258
Y0023
Y00202
Y00174
Y00145
X0195Y000735
X01921
X01893
X01865
X01837
X01809
X01797Y00142
Y00171
Y00199
Y00227
Y00255
Y00283
X02155Y00034
X01959Y0073
X0193
X01902
X01872
X01841
X01811
X0178
X0175Y00729
X01721
X0169
X01658
X02431Y007025
X0246
X02488
X02516
X02544
X02572
X02571Y00851
X02543
X02515
X02487
X02459
X0243
X02431Y00935
X0246
X02488
X02516
X02544
X02572
X02571Y01039
X02543
X02515
X02487
X02459
X0243
Y01127
X02459
X02487
X02515
X02543
X02571
Y01297
X02543
X02515
X02487
X02459
X0243
X0215Y01698
X0128Y01573
X01168Y01599
X01081
X009929Y01598
X00917Y01378
X0117Y01352
X01172Y01028
X01258Y01014
Y01042
X01257Y01068
X01285
X01286Y01042
X01289Y01015
X01301Y00992
X01327
X01356
X01383
X0141Y00993
X01274
X01208Y00839
X01256Y00788
Y00758
Y00729
X01285
X01313
X01341
X01369
X01397
X01425
X01455
X01484
X01514
X01543
X01572
X016
X01629
X01096Y01083
X0087939
X00867Y009311
X00864Y00886
X0092498Y0093402
X00667Y00867
X0043Y01186
Y01215
Y01243
Y01271
Y01299
Y01327
X00381Y01348
X00353
X00325
X00297
X00269
X0024
X00237Y01147
X00266
X00294
X00322
X0035
X00378
T03
X0097038Y0114838
X0101762
Y0119562
X0097038
T04
X00492Y00107
T05
X02656Y00196
X02653Y00396
X02654Y00596
Y00796
X00128Y00896
Y01253
T06
X0019685Y0015748
X0236221
Y015748
X0019685
M30
