M48
;Layer_Color=9474304
;FILE_FORMAT=2:5
INCH,LZ
;TYPE=PLATED
T1F00S00C0.01181
T2F00S00C0.03543
T3F00S00C0.03937
T4F00S00C0.04724
T5F00S00C0.05900
T6F00S00C0.07873
T7F00S00C0.12598
;TYPE=NON_PLATED
T8F00S00C0.11811
%
T01
X0072239Y00524
X00994Y005818
X01162Y005228
X01892Y01429
X01895Y018
X01993Y01843
Y01929
X01542Y02022
X01412Y0218331
X01305Y0218363
X0092656Y020418
X00838Y020228
X0078099Y020238
X00732Y021738
X00668Y021598
X00639Y021778
X0060347Y01805
X00557Y0184466
X00757Y017678
Y015978
X00724Y015878
X00664Y011418
X00581Y010868
X00523Y010878
X0047583Y010398
X00434Y008608
X0043377Y007088
X00417Y006868
X00761Y007898
X00665Y009638
X0103Y0086886
X01168Y0080134
X010585Y006813
X01065Y011088
X0116967Y0111607
X01119Y011928
X01341Y015978
X01396
X01506Y007738
Y007248
X01566Y007258
X01559Y007738
X00042Y01213
X0004286Y01243
X00512Y024668
X005618
X00639Y023798
X0074Y023528
X00742Y0243475
X00728Y0248487
X00639Y0255927
X0078099Y0230881
X00839Y022768
X00926Y0235053
X01085Y023488
X01163Y0234708
X01176Y022928
X0131415Y022828
X01377Y022858
X01122Y0264041
X01023Y025978
X01472Y02941
T02
X01913Y0157474
X0199174Y0152474
Y0162474
T03
X0115984Y0294213
Y0304213
X0125984
X0135984
Y0294213
X0125984
T04
X00133Y013648
Y015148
Y016648
Y018148
Y019648
T05
X00136Y005148
X0192913
Y0073134
Y0094787
Y0217728
X001378Y0217727
X00136Y0094787
Y0073134
X001378Y023938
Y0261034
X0192913Y0261035
Y0239382
T06
X008892Y0130338
Y0150023
X008882Y0168838
Y0188523
X0116379
Y0168838
X011648Y0150023
Y0130338
T07
X01027Y014018
X01026Y017868
T08
X0031496Y0035433
X0072239Y0009843
X0194286
X0173228Y0035433
X0072239Y0305118
X0031496Y0279528
X0173228
X0194286Y0305118
M30
