M48
;Layer_Color=9474304
;FILE_FORMAT=2:5
INCH,LZ
;TYPE=PLATED
T1F00S00C0.01181
T2F00S00C0.01299
T3F00S00C0.04724
T4F00S00C0.05118
T5F00S00C0.11811
%
T01
X003465Y00172
X00652Y00287
X00845
X00872Y0038728
X0092998Y0039019
X0088439Y0053917
X01101
X01177Y0048417
X01251Y00452
X0128
X01314
X01345Y00451
X01376
X01409Y004505
X01424Y0042361
X01392
X0136
X01328
X01296
X01264
X01213Y0029517
X01245Y0018017
X0153647Y0026041
X0156547
X0159547
X0162647Y0026055
X0164111Y0003
X0157555
X0151
X0170667
X0177222
X0183778
X0190333
X0196889
X0203444
X021
X021Y0007
Y0013555
Y0020111
Y0026667
Y0033222
X0201347Y0026155
X0198447
X0195647
X0192647
X0189547
X0186547
X0183447
X0180447Y0026055
X0177547
X0174447
X0171247
X0168347
X0165447
X0217565Y00245
X0220565
X0223465
X0227065
X0230065
X0232965
X0231965Y00191
Y00161
Y00132
Y00096
Y00066
Y0003
X0218065
Y00065
Y00095
Y00131
Y0016
Y0019
Y00984
Y01013
Y01043
X0218165Y01096
Y01125
Y01155
X0216726Y01195
X0223475
X0230224
X0232465Y01157
Y01127
Y01098
Y01043
Y01013
Y00984
X0227865Y00946
X0224865
X0221965
X0209977Y01195
X0203227
X0196478
X0189729
X018298
X0176231
X0169482
X0236973
X0243722
X0272465Y00841
Y00812
Y00782
Y00746
Y00717
Y00687
X0162733Y01195
X0155984
X0149235
X0142486
X0135737
X0128987
X0122238
X0115489
X010874
X0101991
X0095242
X0088493
X0081744
X0074995
X0068246
X0061496
X0054747
X0047998
X0041249
X00345
X00368Y00993
X00398
X00427
X00482
X00512
X00541
X00556Y00957
Y00927
Y00898
X0054Y0085917
X00511
X0058
X00615
X0059Y00825
X0056
X00659Y00732
X00819Y00733
X00922Y0083417
X01175Y0080817
X01173Y0105517
X01219Y0104651
X01086Y0105517
X009979Y0105417
T02
X0097538Y0060455
X0102262
Y006518
X0097538
T03
X00171Y0039019
Y0054019
X0264965Y00539
Y00389
Y00689
Y00839
X00171Y0084019
Y0069019
T04
X00963Y001285
T05
X0019685Y0015748
X0263779
X0263779Y0107283
X0019685Y0107283
M30
