G04*
G04 #@! TF.GenerationSoftware,Altium Limited,Altium Designer,19.0.14 (431)*
G04*
G04 Layer_Color=8388736*
%FSLAX25Y25*%
%MOIN*%
G70*
G01*
G75*
%ADD10C,0.00700*%
%ADD24R,0.03156X0.03943*%
%ADD25R,0.03943X0.03156*%
%ADD26C,0.04400*%
%ADD27R,0.07093X0.04731*%
%ADD28R,0.05124X0.14967*%
%ADD29O,0.05124X0.02762*%
%ADD30R,0.05124X0.02762*%
%ADD31R,0.05124X0.03943*%
%ADD32R,0.03943X0.05124*%
%ADD33R,0.02800X0.07900*%
%ADD34O,0.02800X0.07900*%
%ADD35O,0.07900X0.02800*%
%ADD36R,0.07900X0.02800*%
%ADD37R,0.13786X0.06306*%
%ADD38C,0.06699*%
%ADD39C,0.07093*%
%ADD40R,0.07093X0.07093*%
%ADD41R,0.10243X0.10243*%
%ADD42C,0.10243*%
%ADD43C,0.06400*%
%ADD44C,0.12400*%
%ADD45C,0.16148*%
D10*
X204724Y0D02*
X204724Y314961D01*
X0D02*
X204724D01*
X0Y0D02*
X204724D01*
X-0Y314961D02*
X0Y144380D01*
X-0Y0D02*
X0Y144380D01*
D24*
X199200Y142900D02*
D03*
X193200D02*
D03*
X121400Y283200D02*
D03*
X115400D02*
D03*
X125984D02*
D03*
X131984D02*
D03*
X60800Y52470D02*
D03*
X66800D02*
D03*
X43700Y76780D02*
D03*
X37700D02*
D03*
X40657Y196580D02*
D03*
X34657D02*
D03*
X45500Y161580D02*
D03*
X39500D02*
D03*
X73500Y102780D02*
D03*
X67500D02*
D03*
X106000Y80118D02*
D03*
X112000D02*
D03*
X112200Y114780D02*
D03*
X106200D02*
D03*
X67600Y108880D02*
D03*
X73600D02*
D03*
X131300Y63480D02*
D03*
X137300D02*
D03*
X131300Y58180D02*
D03*
X137300D02*
D03*
X72700Y73380D02*
D03*
X66700D02*
D03*
X72700Y79080D02*
D03*
X66700D02*
D03*
X72600Y67380D02*
D03*
X66600D02*
D03*
X72700Y61780D02*
D03*
X66700D02*
D03*
X137600Y103680D02*
D03*
X131600D02*
D03*
Y97580D02*
D03*
X137600D02*
D03*
X112144Y86680D02*
D03*
X106144D02*
D03*
X125800Y254580D02*
D03*
X119800D02*
D03*
X106300Y259880D02*
D03*
X112300D02*
D03*
X92600Y260006D02*
D03*
X98600D02*
D03*
X97500Y229180D02*
D03*
X103500D02*
D03*
X120401Y206980D02*
D03*
X126401D02*
D03*
X166900Y261580D02*
D03*
X160900D02*
D03*
X119900Y234620D02*
D03*
X125900D02*
D03*
X131500Y234705D02*
D03*
X137500D02*
D03*
X131500Y243380D02*
D03*
X137500D02*
D03*
X78100Y235480D02*
D03*
X84100D02*
D03*
Y248880D02*
D03*
X78100D02*
D03*
X84100Y243475D02*
D03*
X78100D02*
D03*
X114000Y229180D02*
D03*
X108000D02*
D03*
X66600Y223280D02*
D03*
X72600D02*
D03*
D25*
X55700Y180700D02*
D03*
Y174700D02*
D03*
X54700Y83680D02*
D03*
Y89680D02*
D03*
Y78780D02*
D03*
Y72780D02*
D03*
X34380Y161980D02*
D03*
Y155980D02*
D03*
X125400Y91880D02*
D03*
Y85880D02*
D03*
X78500Y98280D02*
D03*
Y92280D02*
D03*
X84000Y102780D02*
D03*
Y108780D02*
D03*
Y98280D02*
D03*
Y92280D02*
D03*
X78500Y108780D02*
D03*
Y102780D02*
D03*
X120000Y63280D02*
D03*
Y69280D02*
D03*
X125400D02*
D03*
Y63280D02*
D03*
X120200Y52280D02*
D03*
Y58280D02*
D03*
X78700Y73380D02*
D03*
Y67380D02*
D03*
X84500D02*
D03*
Y73380D02*
D03*
Y57180D02*
D03*
Y63180D02*
D03*
X120100Y97780D02*
D03*
Y103780D02*
D03*
X125700D02*
D03*
Y97780D02*
D03*
X72400Y212248D02*
D03*
Y206248D02*
D03*
X126200Y218396D02*
D03*
Y212396D02*
D03*
X120400Y212331D02*
D03*
Y218331D02*
D03*
X120300Y243475D02*
D03*
Y249475D02*
D03*
X125800D02*
D03*
Y243475D02*
D03*
X83901Y212247D02*
D03*
Y206247D02*
D03*
X72700Y253880D02*
D03*
Y259880D02*
D03*
X84100Y259980D02*
D03*
Y253980D02*
D03*
X78500D02*
D03*
Y259980D02*
D03*
X78100Y212247D02*
D03*
Y206247D02*
D03*
X83900Y217365D02*
D03*
Y223365D02*
D03*
X78100Y223280D02*
D03*
Y217280D02*
D03*
D26*
X117600Y86580D02*
D03*
X54769Y52600D02*
D03*
X39700Y156080D02*
D03*
X125300Y77680D02*
D03*
X99100Y115580D02*
D03*
X78600Y84780D02*
D03*
X125600Y260080D02*
D03*
X67100Y212180D02*
D03*
X112200Y201280D02*
D03*
X78400Y265680D02*
D03*
D27*
X29400Y89490D02*
D03*
Y78270D02*
D03*
X47100Y63691D02*
D03*
Y52470D02*
D03*
D28*
X28788Y58780D02*
D03*
X39812D02*
D03*
D29*
X37758Y86046D02*
D03*
Y82306D02*
D03*
Y89786D02*
D03*
X47600D02*
D03*
Y86046D02*
D03*
D30*
Y82306D02*
D03*
D31*
X13100Y120798D02*
D03*
Y107806D02*
D03*
D32*
X47446Y70780D02*
D03*
X34454D02*
D03*
D33*
X34500Y169780D02*
D03*
D34*
X39500Y169780D02*
D03*
X44500D02*
D03*
X49500D02*
D03*
X34500Y189269D02*
D03*
X39500D02*
D03*
X44500D02*
D03*
X49500Y189269D02*
D03*
D35*
X112144Y93280D02*
D03*
X112144Y98280D02*
D03*
Y103280D02*
D03*
Y108280D02*
D03*
X92656Y93280D02*
D03*
Y98280D02*
D03*
Y103280D02*
D03*
X112044Y58280D02*
D03*
X112044Y63280D02*
D03*
Y68280D02*
D03*
Y73280D02*
D03*
X92556Y58280D02*
D03*
Y63280D02*
D03*
Y68280D02*
D03*
X112144Y238380D02*
D03*
X112144Y243380D02*
D03*
Y248380D02*
D03*
Y253380D02*
D03*
X92656Y238380D02*
D03*
Y243380D02*
D03*
Y248380D02*
D03*
X112144Y207380D02*
D03*
X112144Y212380D02*
D03*
Y217380D02*
D03*
Y222380D02*
D03*
X92656Y207380D02*
D03*
Y212380D02*
D03*
Y217380D02*
D03*
D36*
X92656Y108280D02*
D03*
X92556Y73280D02*
D03*
X92656Y253380D02*
D03*
Y222380D02*
D03*
D37*
X152862Y82921D02*
D03*
Y60480D02*
D03*
X169762Y82921D02*
D03*
Y60480D02*
D03*
X52800Y120121D02*
D03*
Y97680D02*
D03*
X35600Y120121D02*
D03*
Y97680D02*
D03*
X152400Y195960D02*
D03*
Y218401D02*
D03*
X169500Y195960D02*
D03*
Y218401D02*
D03*
X52500Y238639D02*
D03*
Y261080D02*
D03*
X35600Y238639D02*
D03*
Y261080D02*
D03*
D38*
X199174Y152474D02*
D03*
Y162474D02*
D03*
X191300Y157474D02*
D03*
D39*
X115984Y294213D02*
D03*
Y304213D02*
D03*
X125984D02*
D03*
X135984Y294213D02*
D03*
X125984D02*
D03*
D40*
X135984Y304213D02*
D03*
D41*
X13300Y136480D02*
D03*
D42*
Y151480D02*
D03*
Y166480D02*
D03*
Y181480D02*
D03*
Y196480D02*
D03*
D43*
X194286Y9843D02*
D03*
X72239D02*
D03*
Y305118D02*
D03*
X194286D02*
D03*
X173228Y279528D02*
D03*
X31496D02*
D03*
X173228Y35433D02*
D03*
X31496D02*
D03*
D44*
X192913Y94787D02*
D03*
Y51480D02*
D03*
Y73134D02*
D03*
X88920Y150023D02*
D03*
Y130338D02*
D03*
X116480D02*
D03*
Y150023D02*
D03*
X116379Y168838D02*
D03*
Y188523D02*
D03*
X88820D02*
D03*
Y168838D02*
D03*
X192913Y239382D02*
D03*
Y217728D02*
D03*
Y261035D02*
D03*
X13600Y73134D02*
D03*
Y94787D02*
D03*
Y51480D02*
D03*
X13780Y239380D02*
D03*
Y261034D02*
D03*
Y217727D02*
D03*
D45*
X102700Y140180D02*
D03*
X102600Y178680D02*
D03*
M02*
