G04*
G04 #@! TF.GenerationSoftware,Altium Limited,Altium Designer,19.0.14 (431)*
G04*
G04 Layer_Color=10517442*
%FSLAX25Y25*%
%MOIN*%
G70*
G01*
G75*
%ADD10C,0.00700*%
%ADD38C,0.06699*%
%ADD39C,0.07093*%
%ADD40R,0.07093X0.07093*%
%ADD41R,0.10243X0.10243*%
%ADD42C,0.10243*%
%ADD43C,0.06400*%
%ADD44C,0.12400*%
%ADD45C,0.16148*%
D10*
X204724Y0D02*
X204724Y314961D01*
X0D02*
X204724D01*
X0Y0D02*
X204724D01*
X-0Y314961D02*
X0Y144380D01*
X-0Y0D02*
X0Y144380D01*
D38*
X199174Y152474D02*
D03*
Y162474D02*
D03*
X191300Y157474D02*
D03*
D39*
X115984Y294213D02*
D03*
Y304213D02*
D03*
X125984D02*
D03*
X135984Y294213D02*
D03*
X125984D02*
D03*
D40*
X135984Y304213D02*
D03*
D41*
X13300Y136480D02*
D03*
D42*
Y151480D02*
D03*
Y166480D02*
D03*
Y181480D02*
D03*
Y196480D02*
D03*
D43*
X194286Y9843D02*
D03*
X72239D02*
D03*
Y305118D02*
D03*
X194286D02*
D03*
X173228Y279528D02*
D03*
X31496D02*
D03*
X173228Y35433D02*
D03*
X31496D02*
D03*
D44*
X192913Y94787D02*
D03*
Y51480D02*
D03*
Y73134D02*
D03*
X88920Y150023D02*
D03*
Y130338D02*
D03*
X116480D02*
D03*
Y150023D02*
D03*
X116379Y168838D02*
D03*
Y188523D02*
D03*
X88820D02*
D03*
Y168838D02*
D03*
X192913Y239382D02*
D03*
Y217728D02*
D03*
Y261035D02*
D03*
X13600Y73134D02*
D03*
Y94787D02*
D03*
Y51480D02*
D03*
X13780Y239380D02*
D03*
Y261034D02*
D03*
Y217727D02*
D03*
D45*
X102700Y140180D02*
D03*
X102600Y178680D02*
D03*
M02*
