G04*
G04 #@! TF.GenerationSoftware,Altium Limited,Altium Designer,19.0.14 (431)*
G04*
G04 Layer_Physical_Order=1*
G04 Layer_Color=152*
%FSLAX25Y25*%
%MOIN*%
G70*
G01*
G75*
%ADD10C,0.00700*%
%ADD11R,0.02756X0.03543*%
%ADD12R,0.03543X0.02756*%
%ADD13R,0.06693X0.04331*%
%ADD14R,0.04724X0.14567*%
%ADD15O,0.04724X0.02362*%
%ADD16R,0.04724X0.02362*%
%ADD17R,0.04724X0.03543*%
%ADD18R,0.03543X0.04724*%
%ADD19R,0.02400X0.07500*%
%ADD20O,0.02400X0.07500*%
%ADD21O,0.07500X0.02400*%
%ADD22R,0.07500X0.02400*%
%ADD23R,0.13386X0.05906*%
%ADD46C,0.04000*%
%ADD47C,0.06000*%
%ADD48C,0.01000*%
%ADD49C,0.02000*%
%ADD50C,0.01500*%
%ADD51C,0.01200*%
%ADD52C,0.03000*%
%ADD53C,0.04000*%
%ADD54R,0.39440X0.31496*%
%ADD55R,0.40000X0.32000*%
%ADD56C,0.06299*%
%ADD57C,0.06693*%
%ADD58R,0.06693X0.06693*%
%ADD59R,0.09843X0.09843*%
%ADD60C,0.09843*%
%ADD61C,0.06000*%
%ADD62C,0.12000*%
%ADD63C,0.15748*%
%ADD64C,0.02559*%
G36*
X84100Y174280D02*
X65100Y174280D01*
X45700Y154880D01*
X45700Y139680D01*
X29300Y123280D01*
X29300Y117480D01*
X59700D01*
Y150680D01*
X71952Y162932D01*
X82980D01*
X84000Y163952D01*
Y174280D01*
X84100Y174380D01*
Y174280D01*
D02*
G37*
G36*
X172220Y178580D02*
X176200Y174600D01*
Y82480D01*
X146200D01*
Y159880D01*
X143400Y162680D01*
X119400D01*
Y178580D01*
X172220Y178580D01*
D02*
G37*
G36*
X89000Y194680D02*
X76900D01*
X59200Y212380D01*
Y239080D01*
X29057Y239080D01*
X29057Y205796D01*
X30800Y204053D01*
X46427D01*
X67600Y182880D01*
X89000D01*
Y194680D01*
D02*
G37*
G36*
X111800Y194280D02*
X130500D01*
X135000Y198780D01*
X175900D01*
X176100Y198580D01*
X176100Y184080D01*
X173300Y181280D01*
X113800D01*
X111700Y183380D01*
Y194428D01*
X111800Y194280D01*
D02*
G37*
D10*
X204724Y0D02*
X204724Y314961D01*
X0D02*
X204724D01*
X0Y0D02*
X204724D01*
X-0Y314961D02*
X0Y144380D01*
X-0Y0D02*
X0Y144380D01*
D11*
X199200Y142900D02*
D03*
X193200D02*
D03*
X121400Y283200D02*
D03*
X115400D02*
D03*
X125984D02*
D03*
X131984D02*
D03*
X60800Y52470D02*
D03*
X66800D02*
D03*
X43700Y76780D02*
D03*
X37700D02*
D03*
X40657Y196580D02*
D03*
X34657D02*
D03*
X45500Y161580D02*
D03*
X39500D02*
D03*
X73500Y102780D02*
D03*
X67500D02*
D03*
X106000Y80118D02*
D03*
X112000D02*
D03*
X112200Y114780D02*
D03*
X106200D02*
D03*
X67600Y108880D02*
D03*
X73600D02*
D03*
X131300Y63480D02*
D03*
X137300D02*
D03*
X131300Y58180D02*
D03*
X137300D02*
D03*
X72700Y73380D02*
D03*
X66700D02*
D03*
X72700Y79080D02*
D03*
X66700D02*
D03*
X72600Y67380D02*
D03*
X66600D02*
D03*
X72700Y61780D02*
D03*
X66700D02*
D03*
X137600Y103680D02*
D03*
X131600D02*
D03*
Y97580D02*
D03*
X137600D02*
D03*
X112144Y86680D02*
D03*
X106144D02*
D03*
X125800Y254580D02*
D03*
X119800D02*
D03*
X106300Y259880D02*
D03*
X112300D02*
D03*
X92600Y260006D02*
D03*
X98600D02*
D03*
X97500Y229180D02*
D03*
X103500D02*
D03*
X120401Y206980D02*
D03*
X126401D02*
D03*
X166900Y261580D02*
D03*
X160900D02*
D03*
X119900Y234620D02*
D03*
X125900D02*
D03*
X131500Y234705D02*
D03*
X137500D02*
D03*
X131500Y243380D02*
D03*
X137500D02*
D03*
X78100Y235480D02*
D03*
X84100D02*
D03*
Y248880D02*
D03*
X78100D02*
D03*
X84100Y243475D02*
D03*
X78100D02*
D03*
X114000Y229180D02*
D03*
X108000D02*
D03*
X66600Y223280D02*
D03*
X72600D02*
D03*
D12*
X55700Y180700D02*
D03*
Y174700D02*
D03*
X54700Y83680D02*
D03*
Y89680D02*
D03*
Y78780D02*
D03*
Y72780D02*
D03*
X34380Y161980D02*
D03*
Y155980D02*
D03*
X125400Y91880D02*
D03*
Y85880D02*
D03*
X78500Y98280D02*
D03*
Y92280D02*
D03*
X84000Y102780D02*
D03*
Y108780D02*
D03*
Y98280D02*
D03*
Y92280D02*
D03*
X78500Y108780D02*
D03*
Y102780D02*
D03*
X120000Y63280D02*
D03*
Y69280D02*
D03*
X125400D02*
D03*
Y63280D02*
D03*
X120200Y52280D02*
D03*
Y58280D02*
D03*
X78700Y73380D02*
D03*
Y67380D02*
D03*
X84500D02*
D03*
Y73380D02*
D03*
Y57180D02*
D03*
Y63180D02*
D03*
X120100Y97780D02*
D03*
Y103780D02*
D03*
X125700D02*
D03*
Y97780D02*
D03*
X72400Y212248D02*
D03*
Y206248D02*
D03*
X126200Y218396D02*
D03*
Y212396D02*
D03*
X120400Y212331D02*
D03*
Y218331D02*
D03*
X120300Y243475D02*
D03*
Y249475D02*
D03*
X125800D02*
D03*
Y243475D02*
D03*
X83901Y212247D02*
D03*
Y206247D02*
D03*
X72700Y253880D02*
D03*
Y259880D02*
D03*
X84100Y259980D02*
D03*
Y253980D02*
D03*
X78500D02*
D03*
Y259980D02*
D03*
X78100Y212247D02*
D03*
Y206247D02*
D03*
X83900Y217365D02*
D03*
Y223365D02*
D03*
X78100Y223280D02*
D03*
Y217280D02*
D03*
D13*
X29400Y89490D02*
D03*
Y78270D02*
D03*
X47100Y63691D02*
D03*
Y52470D02*
D03*
D14*
X28788Y58780D02*
D03*
X39812D02*
D03*
D15*
X37758Y86046D02*
D03*
Y82306D02*
D03*
Y89786D02*
D03*
X47600D02*
D03*
Y86046D02*
D03*
D16*
Y82306D02*
D03*
D17*
X13100Y120798D02*
D03*
Y107806D02*
D03*
D18*
X47446Y70780D02*
D03*
X34454D02*
D03*
D19*
X34500Y169780D02*
D03*
D20*
X39500Y169780D02*
D03*
X44500D02*
D03*
X49500D02*
D03*
X34500Y189269D02*
D03*
X39500D02*
D03*
X44500D02*
D03*
X49500Y189269D02*
D03*
D21*
X112144Y93280D02*
D03*
X112144Y98280D02*
D03*
Y103280D02*
D03*
Y108280D02*
D03*
X92656Y93280D02*
D03*
Y98280D02*
D03*
Y103280D02*
D03*
X112044Y58280D02*
D03*
X112044Y63280D02*
D03*
Y68280D02*
D03*
Y73280D02*
D03*
X92556Y58280D02*
D03*
Y63280D02*
D03*
Y68280D02*
D03*
X112144Y238380D02*
D03*
X112144Y243380D02*
D03*
Y248380D02*
D03*
Y253380D02*
D03*
X92656Y238380D02*
D03*
Y243380D02*
D03*
Y248380D02*
D03*
X112144Y207380D02*
D03*
X112144Y212380D02*
D03*
Y217380D02*
D03*
Y222380D02*
D03*
X92656Y207380D02*
D03*
Y212380D02*
D03*
Y217380D02*
D03*
D22*
X92656Y108280D02*
D03*
X92556Y73280D02*
D03*
X92656Y253380D02*
D03*
Y222380D02*
D03*
D23*
X152862Y82921D02*
D03*
Y60480D02*
D03*
X169762Y82921D02*
D03*
Y60480D02*
D03*
X52800Y120121D02*
D03*
Y97680D02*
D03*
X35600Y120121D02*
D03*
Y97680D02*
D03*
X152400Y195960D02*
D03*
Y218401D02*
D03*
X169500Y195960D02*
D03*
Y218401D02*
D03*
X52500Y238639D02*
D03*
Y261080D02*
D03*
X35600Y238639D02*
D03*
Y261080D02*
D03*
D46*
X117600Y86580D02*
D03*
X54769Y52600D02*
D03*
X39700Y156080D02*
D03*
X125300Y77680D02*
D03*
X99100Y115580D02*
D03*
X78600Y84780D02*
D03*
X125600Y260080D02*
D03*
X67100Y212180D02*
D03*
X112200Y201280D02*
D03*
X78400Y265680D02*
D03*
D47*
X116100Y165680D02*
X145600D01*
X88820Y167980D02*
X115600D01*
X35600Y97680D02*
X52800D01*
X18116D02*
X35600D01*
X13600Y94787D02*
X15224D01*
X18116Y97680D01*
X69358Y168838D02*
X88820D01*
X52500Y151980D02*
X69358Y168838D01*
X116379Y188523D02*
X119237Y191380D01*
X145600Y165680D02*
X152862Y158418D01*
X85763Y191580D02*
X88820Y188523D01*
X152862Y82921D02*
Y158418D01*
X153400Y82921D02*
X169762D01*
X153400Y60480D02*
X156900D01*
X169762D01*
X182290D01*
X152862D02*
X153400D01*
X191137Y51633D02*
X192761D01*
X182290Y60480D02*
X191137Y51633D01*
X116100Y188523D02*
X116379D01*
X192761Y51633D02*
X192913Y51480D01*
X13780Y93887D02*
X14260Y93407D01*
D48*
X153400Y70980D02*
Y82921D01*
X106072Y86680D02*
Y87052D01*
Y80190D02*
Y86680D01*
X95000D02*
X106072D01*
X99350Y58230D02*
X99400Y58280D01*
X77800Y235180D02*
X78099Y234881D01*
X40600Y196980D02*
X41000Y196580D01*
X112200Y259387D02*
Y260180D01*
X112400Y259587D02*
Y259980D01*
X196200Y156462D02*
X200462Y152200D01*
X191300Y158612D02*
X192587Y157325D01*
X196300Y185500D02*
X202600Y191800D01*
X196300Y180500D02*
Y185500D01*
X191300Y175500D02*
X196300Y180500D01*
X191300Y158612D02*
Y175500D01*
X194824Y175224D02*
X199300Y179700D01*
X194824Y160100D02*
Y175224D01*
Y160100D02*
X196200Y158725D01*
Y156462D02*
Y158725D01*
X199300Y179700D02*
Y184300D01*
X192587Y157200D02*
Y157325D01*
X190637Y158261D02*
X191300Y157598D01*
X202600Y191800D02*
Y280200D01*
X49232Y165312D02*
Y169512D01*
X150420Y198413D02*
Y207191D01*
Y198413D02*
X151753Y197080D01*
X152200D01*
X149331Y208280D02*
X150420Y207191D01*
X189200Y142900D02*
X193200D01*
X117600Y180000D02*
X189500D01*
X117500Y179900D02*
X117600Y180000D01*
X188400Y294400D02*
X202600Y280200D01*
X153200Y294400D02*
X188400D01*
X142000Y283200D02*
X153200Y294400D01*
X131984Y283200D02*
X142000D01*
X136097Y294100D02*
X147200D01*
X135984Y294213D02*
X136097Y294100D01*
X49672Y169952D02*
X49768Y170048D01*
X49500Y169780D02*
X49672Y169952D01*
X46361Y177278D02*
X57125D01*
X60347Y180500D01*
X44500Y175417D02*
X46361Y177278D01*
X44500Y169780D02*
Y175417D01*
Y166974D02*
Y169780D01*
X13300Y151480D02*
X40603D01*
X65903Y176780D02*
X75700D01*
X40603Y151480D02*
X65903Y176780D01*
X45500Y161580D02*
X49232Y165312D01*
X55553Y184318D02*
X55700Y184171D01*
Y180700D02*
Y184171D01*
X30800Y156080D02*
X39700D01*
X29200Y166480D02*
Y174200D01*
Y157680D02*
Y166480D01*
X13300D02*
X29200D01*
X39318Y184318D02*
X55553D01*
X29200Y174200D02*
X39318Y184318D01*
X55553D02*
X55700Y184466D01*
X54700Y52470D02*
Y72780D01*
X99200Y98280D02*
Y115580D01*
X67100Y212180D02*
X72400D01*
X6000Y114780D02*
X18400D01*
X2100Y110880D02*
X6000Y114780D01*
X2100Y62680D02*
Y110880D01*
X119800Y254580D02*
Y268880D01*
X98600D02*
X119800D01*
X58960Y246427D02*
X66600Y238787D01*
X56433Y246427D02*
X58960D01*
X56180Y246680D02*
X56433Y246427D01*
X66600Y223280D02*
Y238787D01*
X53701Y248001D02*
X55280Y249580D01*
X53701Y239037D02*
Y248001D01*
Y239037D02*
X54000Y238738D01*
X55280Y249580D02*
X62075D01*
X72375Y239280D01*
X67180Y268880D02*
X98600D01*
X63900Y265600D02*
X67180Y268880D01*
X63900Y255927D02*
Y265600D01*
X80900Y115580D02*
X99100D01*
X75700Y120780D02*
X80900Y115580D01*
X75700Y120780D02*
Y159780D01*
X72400Y120180D02*
Y158780D01*
X66400Y114180D02*
X72400Y120180D01*
X114000Y222380D02*
Y229180D01*
X64100Y67380D02*
X66600D01*
X63100Y68380D02*
X64100Y67380D01*
X36822Y75902D02*
X37700Y76780D01*
X30150Y65064D02*
X30650Y65564D01*
X34454Y70780D02*
Y71371D01*
X43275Y86206D02*
X43400Y86080D01*
X29400Y89490D02*
X30581D01*
X56139Y105780D02*
X60600D01*
X55200Y106720D02*
X56139Y105780D01*
X55200Y106720D02*
Y112780D01*
X67700Y102980D02*
X67900Y102780D01*
Y99380D02*
Y102780D01*
X52800Y97680D02*
Y102780D01*
X54154Y104134D01*
X57647D02*
X60900Y100880D01*
X54154Y104134D02*
X57647D01*
X60600Y105780D02*
X63100Y103280D01*
Y68380D02*
Y103280D01*
X66800Y215980D02*
X66950Y215830D01*
Y212330D02*
Y215830D01*
Y212330D02*
X67100Y212180D01*
X52800Y115180D02*
Y120121D01*
Y115180D02*
X55200Y112780D01*
X98600Y260006D02*
Y268880D01*
X37686Y199552D02*
X40657Y196580D01*
X28572Y199552D02*
X37686D01*
X27300Y198280D02*
X28572Y199552D01*
X27300Y183280D02*
Y198280D01*
X18400Y114780D02*
X24400Y108780D01*
X25500Y181480D02*
X27300Y183280D01*
X13300Y181480D02*
X25500D01*
X39500Y161580D02*
Y161974D01*
X44500Y166974D01*
X49500Y166880D02*
Y169780D01*
X49232Y169512D02*
X49500Y169780D01*
X29200Y157680D02*
X30800Y156080D01*
X95205Y86886D02*
X103000D01*
X95000Y86680D02*
X95205Y86886D01*
X92656Y204180D02*
Y207380D01*
X125400Y69580D02*
X125600Y69380D01*
X125400Y69580D02*
Y85880D01*
X112312Y68548D02*
X124668D01*
X75900Y78980D02*
X76100Y79180D01*
X105850Y68130D02*
X111894D01*
X28788Y63702D02*
X30150Y65064D01*
X43400Y86080D02*
X43417Y86063D01*
X47583D02*
X47600Y86046D01*
X47100Y63691D02*
X47446Y64037D01*
X28788Y58780D02*
Y63702D01*
X46419Y82306D02*
X47600D01*
X43700Y76780D02*
X44165Y77246D01*
X37729Y82277D02*
X37758Y82306D01*
X37700Y76780D02*
X37729Y76809D01*
X58400Y82087D02*
Y86374D01*
X55094Y78780D02*
X58400Y82087D01*
X54700Y78780D02*
X55094D01*
Y89680D02*
X58400Y86374D01*
X54700Y89680D02*
X55094D01*
X54647Y89733D02*
X54700Y89680D01*
X47653Y89733D02*
X54647D01*
X47600Y89786D02*
X47653Y89733D01*
X54306Y83680D02*
X54700D01*
X51941Y86046D02*
X54306Y83680D01*
X47600Y86046D02*
X51941D01*
X2100Y62680D02*
X13200Y51580D01*
X24400Y108780D02*
X52300D01*
X63131Y61780D02*
X66700D01*
X60900Y64012D02*
X63131Y61780D01*
X60900Y64012D02*
Y100880D01*
X66500Y96380D02*
X66600Y96280D01*
Y79180D02*
Y96280D01*
Y79180D02*
X66700Y79080D01*
X69700Y65174D02*
Y97580D01*
X67900Y99380D02*
X69700Y97580D01*
X141600Y72480D02*
X150600D01*
X137600Y76480D02*
X141600Y72480D01*
X152626Y212706D02*
Y218627D01*
X143100Y209880D02*
X149800D01*
X137700Y215280D02*
X143100Y209880D01*
X137700Y215280D02*
Y228580D01*
X134922Y215558D02*
X142200Y208280D01*
X149331D01*
X134922Y215558D02*
Y240409D01*
X149800Y209880D02*
X152626Y212706D01*
X63900Y217780D02*
Y237980D01*
X34500Y186369D02*
X34550Y186418D01*
X58100Y108680D02*
X67400D01*
X67600Y108880D01*
X55500Y120121D02*
X56540D01*
X112200Y264041D02*
X112250Y263991D01*
Y259930D02*
Y263991D01*
Y259930D02*
X112300Y259880D01*
X126233Y218363D02*
X130500D01*
X126200Y218396D02*
X126233Y218363D01*
X134922Y240409D02*
X137500Y242987D01*
X131415Y228280D02*
X133300Y226395D01*
Y210180D02*
Y226395D01*
X130100Y206980D02*
X133300Y210180D01*
X156600Y61780D02*
Y72580D01*
Y61780D02*
X156900Y61480D01*
X152500Y61380D02*
X153400Y60480D01*
X140400Y63280D02*
X143800Y66680D01*
X140400Y61302D02*
Y63280D01*
X137300Y58202D02*
X140400Y61302D01*
X137600Y76480D02*
Y97580D01*
X150800Y68380D02*
X153400Y70980D01*
X143200Y68380D02*
X150800D01*
X138300Y63480D02*
X143200Y68380D01*
X143800Y66680D02*
X151500D01*
X152500Y65680D01*
Y61380D02*
Y65680D01*
X137300Y63480D02*
X138300D01*
X137300Y58180D02*
Y58202D01*
X94900Y86680D02*
X95000D01*
X106072D02*
X106144D01*
X106072Y87052D02*
X106300Y87280D01*
X106000Y80118D02*
X106072Y80190D01*
X66700Y73380D02*
Y79080D01*
Y62174D02*
X69700Y65174D01*
X99400Y58480D02*
Y77980D01*
Y58280D02*
Y58480D01*
Y58180D02*
Y58280D01*
X99300Y58580D02*
X99400Y58480D01*
X72800Y78980D02*
X75900D01*
X72700Y79080D02*
X72800Y78980D01*
X78750Y73330D02*
X92506D01*
X78500Y92280D02*
X78600Y92180D01*
Y73780D02*
Y92180D01*
Y73780D02*
X78700Y73680D01*
X111894Y68130D02*
X112044Y68280D01*
X125500Y97580D02*
X126100D01*
X120500D02*
X125500D01*
Y91780D02*
Y97580D01*
X125700Y97780D01*
X120500Y103280D02*
X126100D01*
X131200D01*
X99400Y77980D02*
X101538Y80118D01*
X106000D01*
X116784D02*
X116800Y80134D01*
X112000Y73324D02*
X112044Y73280D01*
X125400Y69280D02*
X125500Y69180D01*
X124668Y68548D02*
X125400Y69280D01*
X112044Y68280D02*
X112312Y68548D01*
X125400Y63280D02*
X131100D01*
X120000D02*
X125400D01*
X112044D02*
X120000D01*
X131100D02*
X131300Y63480D01*
X120200Y58280D02*
X131200D01*
X112044D02*
X120200D01*
X131200D02*
X131300Y58180D01*
X116200Y52280D02*
X120200D01*
X99350Y58230D02*
X99400Y58180D01*
X92606Y58230D02*
X99350D01*
X92556Y58280D02*
X92606Y58230D01*
X92288Y58012D02*
X92556Y58280D01*
X85332Y58012D02*
X92288D01*
X84500Y57180D02*
X85332Y58012D01*
X72700Y61780D02*
X76600D01*
X78000Y63180D01*
X84500D01*
X92506Y63230D02*
X92556Y63280D01*
X84550Y63230D02*
X92506D01*
X84500Y63180D02*
X84550Y63230D01*
X92288Y68012D02*
X92556Y68280D01*
X85132Y68012D02*
X92288D01*
X84500Y67380D02*
X85132Y68012D01*
X72600Y67380D02*
X78700D01*
X84500D01*
X72700Y73380D02*
X78700D01*
X92506Y73330D02*
X92556Y73280D01*
X78700Y73380D02*
X78750Y73330D01*
X56540Y120121D02*
X58993Y117668D01*
X65722Y68652D02*
X66600Y67774D01*
Y67380D02*
Y67774D01*
X92388Y93012D02*
X92656Y93280D01*
X84732Y93012D02*
X92388D01*
X84000Y92280D02*
X84732Y93012D01*
X92656Y88924D02*
Y93280D01*
Y88924D02*
X94900Y86680D01*
X120068Y98012D02*
X120500Y97580D01*
X112412Y98012D02*
X120068D01*
X112144Y98280D02*
X112412Y98012D01*
X126100Y97580D02*
X131600D01*
X126100D02*
Y97680D01*
X112144Y103280D02*
X120500D01*
X131200D02*
X131600Y103680D01*
X112144Y108280D02*
X112200Y108336D01*
X112244Y86580D02*
X117600D01*
X112144Y86680D02*
X112244Y86580D01*
X112144Y86680D02*
Y93280D01*
X104200D02*
X112144D01*
X99200Y98280D02*
X104200Y93280D01*
X92656Y98280D02*
X99200D01*
X84000D02*
X92656D01*
X73500Y102780D02*
X78500D01*
Y98280D02*
Y102780D01*
X92406Y103030D02*
X92656Y103280D01*
X84250Y103030D02*
X92406D01*
X84000Y102780D02*
X84250Y103030D01*
X78500Y102780D02*
X84000D01*
X92406Y108530D02*
X92656Y108280D01*
X84250Y108530D02*
X92406D01*
X84000Y108780D02*
X84250Y108530D01*
X78500Y108780D02*
X84000D01*
X73700D02*
X78500D01*
X73600Y108880D02*
X73700Y108780D01*
X167253Y261934D02*
X188300D01*
X166900Y261580D02*
X167253Y261934D01*
X97600Y229080D02*
X102900Y223780D01*
Y216349D02*
Y223780D01*
Y216349D02*
X106869Y212380D01*
X112144D01*
X137700Y228580D02*
Y234704D01*
X78150Y217330D02*
X83900D01*
X73200Y217380D02*
X73250Y217330D01*
X78050D01*
X78100Y217280D01*
X83900Y217330D02*
X92606D01*
X75575Y227680D02*
X83900D01*
X74000Y229256D02*
X75575Y227680D01*
X74000Y229256D02*
Y235280D01*
X72700Y248587D02*
X72800Y248487D01*
X72700Y248587D02*
Y253880D01*
X78400Y260080D02*
Y265680D01*
Y260080D02*
X78500Y259980D01*
X72700Y259880D02*
X72750Y259930D01*
X78450D01*
X78500Y259980D01*
X74200Y243475D02*
X78100D01*
X71684D02*
X74200D01*
X72375Y239280D02*
X79700D01*
X125700Y254680D02*
X125800Y254580D01*
X125700Y254680D02*
Y259980D01*
X125600Y260080D02*
X125700Y259980D01*
X125800Y249475D02*
Y254580D01*
X52700Y254380D02*
Y260982D01*
X78099Y230881D02*
Y234881D01*
X77800Y235180D02*
X78100Y235480D01*
X112144Y222380D02*
X114000D01*
X102300Y259780D02*
X106200D01*
X63178Y251980D02*
X71684Y243475D01*
X55100Y251980D02*
X63178D01*
X52700Y254380D02*
X55100Y251980D01*
X126401Y206980D02*
X130100D01*
X120400Y212331D02*
X120401Y212330D01*
Y206980D02*
Y212330D01*
X112200Y201280D02*
Y207324D01*
X112144Y207380D02*
X112200Y207324D01*
X103200Y207380D02*
X112144D01*
X98200Y212380D02*
X103200Y207380D01*
X92656Y212380D02*
X98200D01*
X78099Y202380D02*
X78100Y202381D01*
Y206247D01*
X83800Y202280D02*
Y206147D01*
X83901Y206247D01*
X72400Y206248D02*
X72400Y206247D01*
X78100D01*
X78100Y206247D01*
X72400Y212180D02*
X72433Y212214D01*
X78067D01*
X78100Y212247D01*
X78494D02*
X81493Y209248D01*
X78100Y212247D02*
X78494D01*
X81493Y209248D02*
X86767D01*
X89900Y212380D01*
X92656D01*
X83900Y217330D02*
Y217365D01*
Y212248D02*
Y217330D01*
Y212248D02*
X83901Y212247D01*
X78100Y217280D02*
X78150Y217330D01*
X92606D02*
X92656Y217380D01*
X72600Y223280D02*
X78100D01*
X78142Y223322D01*
X83858D01*
X83900Y223365D01*
X84392Y222872D01*
X92164D01*
X92656Y222380D01*
X145673Y261580D02*
X160900D01*
X141200Y257107D02*
X145673Y261580D01*
X141200Y218331D02*
Y257107D01*
X112200Y253436D02*
Y259387D01*
X112400Y259587D01*
X112300Y259880D02*
X112400Y259980D01*
X92600Y235053D02*
Y238324D01*
X92656Y238380D01*
X108500Y229680D02*
Y234880D01*
X108000Y229180D02*
X108500Y229680D01*
X103600Y229180D02*
Y246180D01*
X105800Y248380D01*
X112144D01*
X119811Y234708D02*
X119900Y234620D01*
X116300Y234708D02*
X119811D01*
X84100Y235480D02*
Y243475D01*
X131415Y234620D02*
X131500Y234705D01*
X125900Y234620D02*
X131415D01*
X131500Y234705D02*
Y237280D01*
X130400Y238380D02*
X131500Y237280D01*
X112144Y238380D02*
X130400D01*
X92574Y259980D02*
X92600Y260006D01*
Y253436D02*
Y260006D01*
Y253436D02*
X92656Y253380D01*
X84100Y259980D02*
X92574D01*
X78500D02*
X84100D01*
X78500Y253980D02*
X84100D01*
Y248880D02*
Y253980D01*
X79700Y239280D02*
X80899Y240480D01*
Y245687D01*
X78100Y248487D02*
X80899Y245687D01*
X78100Y248487D02*
Y248880D01*
X84100D02*
X84600Y248380D01*
X92656D01*
X84100Y243475D02*
X84195Y243380D01*
X92656D01*
X137500Y242987D02*
Y243380D01*
X119450Y217380D02*
X120400Y218331D01*
X112144Y217380D02*
X119450D01*
X126167Y218363D02*
X126200Y218396D01*
X120433Y218363D02*
X126167D01*
X120400Y218331D02*
X120433Y218363D01*
X126167Y212363D02*
X126200Y212396D01*
X120433Y212363D02*
X126167D01*
X120400Y212331D02*
X120433Y212363D01*
X120375Y212355D02*
X120400Y212331D01*
X112169Y212355D02*
X120375D01*
X112144Y212380D02*
X112169Y212355D01*
X112144Y253380D02*
X112200Y253436D01*
X120300Y249475D02*
X125800D01*
X119473Y248648D02*
X120300Y249475D01*
X112412Y248648D02*
X119473D01*
X112144Y248380D02*
X112412Y248648D01*
X112144Y243380D02*
X131500D01*
D49*
X106500Y114480D02*
Y118529D01*
X199500Y150763D02*
X200637Y151900D01*
X199500Y142900D02*
Y150763D01*
X111956Y73280D02*
X112000Y73324D01*
X66800Y52470D02*
X101390D01*
X106300Y259880D02*
X106300Y259880D01*
X54700Y52470D02*
X60800D01*
X47100D02*
X54700D01*
X39812Y53859D02*
Y58780D01*
Y53859D02*
X41174Y52497D01*
X47073D01*
X47100Y52470D01*
X47100Y52470D01*
X37019Y75705D02*
X37700Y76387D01*
X6880Y196480D02*
X13300D01*
X4286Y193886D02*
X6880Y196480D01*
X4286Y174080D02*
Y193886D01*
Y124300D02*
Y174080D01*
X4200Y121300D02*
Y124200D01*
X6126Y107806D02*
X13100D01*
X4400Y106080D02*
X6126Y107806D01*
X4400Y85880D02*
Y106080D01*
X41700Y69203D02*
X43377Y70880D01*
X41700Y68680D02*
Y69203D01*
X102362Y59432D02*
X102380Y59414D01*
Y56946D02*
Y59414D01*
X102362Y56929D02*
X102380Y56946D01*
X102362Y53443D02*
Y56929D01*
X101390Y52470D02*
X102362Y53443D01*
X111900Y119280D02*
X112007Y119173D01*
Y114973D02*
Y119173D01*
Y114973D02*
X112200Y114780D01*
X47483Y104080D02*
X47583Y103980D01*
X23100Y104080D02*
X47483D01*
X19374Y107806D02*
X23100Y104080D01*
X13100Y107806D02*
X19374D01*
X37729Y76809D02*
Y82277D01*
X35226Y73912D02*
X37019Y75705D01*
X17100Y83580D02*
X22410Y78270D01*
X6700Y83580D02*
X17100D01*
X105449Y119580D02*
X106500Y118529D01*
X81150Y119580D02*
X105449D01*
X78500Y122230D02*
X81150Y119580D01*
X78500Y122230D02*
Y158280D01*
X87400Y167180D01*
X13100Y136280D02*
X13300Y136480D01*
X13100Y120798D02*
Y136280D01*
X106500Y110880D02*
Y114480D01*
X106200Y114780D02*
X106500Y114480D01*
X139600Y118180D02*
Y159780D01*
X133027Y111607D02*
X139600Y118180D01*
X116967Y111607D02*
X133027D01*
X102362Y70742D02*
X104900Y73280D01*
X111956D01*
X102362Y59432D02*
Y70742D01*
X30150Y65064D02*
Y65886D01*
Y60142D02*
Y65064D01*
X28788Y58780D02*
X30150Y60142D01*
Y65886D02*
X34454Y70190D01*
Y70780D01*
X35226Y71552D01*
Y73912D01*
X37700Y76387D02*
Y76780D01*
X43377Y70880D02*
X43427Y70830D01*
X47396D01*
X47446Y70780D01*
X43417Y86063D02*
X47583D01*
X31747Y79435D02*
Y83243D01*
X30581Y78270D02*
X31747Y79435D01*
X29400Y78270D02*
X30581D01*
X31747Y83243D02*
X34480Y85976D01*
X37688D01*
X37758Y86046D01*
Y89786D01*
X22410Y78270D02*
X29400D01*
X4400Y85880D02*
X6700Y83580D01*
X112000Y80118D02*
X116784D01*
X112000Y73324D02*
Y80118D01*
X112200Y108336D02*
Y114780D01*
D50*
X65880Y179780D02*
X103100D01*
X199200Y193000D02*
Y199170D01*
Y193000D02*
X199300Y192900D01*
X154200Y202200D02*
X196170D01*
X199200Y199170D01*
X115400Y283200D02*
X115984Y283784D01*
Y294213D01*
X121400Y283200D02*
X125984D01*
Y294213D01*
X49080Y196580D02*
X65880Y179780D01*
X41000Y196580D02*
X49080D01*
X49672Y173994D02*
X50379Y174700D01*
X49672Y169952D02*
Y173994D01*
X50379Y174700D02*
X55700D01*
X60800D01*
X65880Y179780D01*
X43400Y78011D02*
X44165Y77246D01*
X43400Y79287D02*
X46419Y82306D01*
X43400Y78011D02*
Y79287D01*
X43275Y86206D02*
Y91359D01*
X41600Y93034D02*
X43275Y91359D01*
X34124Y93034D02*
X41600D01*
X30581Y89490D02*
X34124Y93034D01*
X117550Y229230D02*
X117600Y229280D01*
X114050Y229230D02*
X117550D01*
X114000Y229180D02*
X114050Y229230D01*
X134100Y118380D02*
Y159780D01*
X130500Y114780D02*
X134100Y118380D01*
X112200Y114780D02*
X130500D01*
X192300Y94680D02*
X192800Y95180D01*
X192300Y94680D02*
X193100D01*
X140300Y103580D02*
X143000Y100880D01*
Y79280D02*
Y100880D01*
Y79280D02*
X144900Y77380D01*
X150600D01*
X182400Y81180D02*
Y92380D01*
X184700Y94680D02*
X192300D01*
X182400Y92380D02*
X184700Y94680D01*
X190400Y92780D02*
X192300Y94680D01*
X178600Y77380D02*
X182400Y81180D01*
X155900Y77380D02*
X178600D01*
X137700Y103580D02*
X140300D01*
X137600Y103680D02*
X137700Y103580D01*
X26800Y246680D02*
X51200D01*
X24900Y244780D02*
X26800Y246680D01*
X24900Y227727D02*
Y244780D01*
X14900Y217727D02*
X24900Y227727D01*
D51*
X34550Y196580D02*
Y196930D01*
Y189319D02*
Y196580D01*
X35400Y176980D02*
X39009D01*
X34500Y176080D02*
X35400Y176980D01*
X34500Y169780D02*
Y176080D01*
X39009Y176980D02*
X39712Y176277D01*
Y169992D02*
Y176277D01*
X4286Y174080D02*
X24911D01*
X29800Y178969D01*
X34550Y196930D02*
X34600Y196980D01*
X29800Y178969D02*
Y195180D01*
X34550Y196580D02*
X34657D01*
X31200D02*
X34550D01*
X29800Y195180D02*
X31200Y196580D01*
X39500Y169780D02*
X39712Y169992D01*
X34440Y169720D02*
X34500Y169780D01*
Y189269D02*
X34550Y189319D01*
X34440Y162040D02*
Y169720D01*
X34380Y161980D02*
X34440Y162040D01*
D52*
X47446Y64037D02*
Y70780D01*
D53*
X35600Y238639D02*
X52500D01*
X152626Y218627D02*
X188300D01*
X152400Y195960D02*
X169500D01*
X52500Y238639D02*
X52700D01*
X52625Y261057D02*
X52700Y260982D01*
X14923Y261057D02*
X52625D01*
X152400Y218401D02*
X152626Y218627D01*
X14900Y261034D02*
X14923Y261057D01*
D54*
X102600Y178680D02*
D03*
D55*
X102700Y139980D02*
D03*
D56*
X199174Y152474D02*
D03*
Y162474D02*
D03*
X191300Y157474D02*
D03*
D57*
X115984Y294213D02*
D03*
Y304213D02*
D03*
X125984D02*
D03*
X135984Y294213D02*
D03*
X125984D02*
D03*
D58*
X135984Y304213D02*
D03*
D59*
X13300Y136480D02*
D03*
D60*
Y151480D02*
D03*
Y166480D02*
D03*
Y181480D02*
D03*
Y196480D02*
D03*
D61*
X194286Y9843D02*
D03*
X72239D02*
D03*
Y305118D02*
D03*
X194286D02*
D03*
X173228Y279528D02*
D03*
X31496D02*
D03*
X173228Y35433D02*
D03*
X31496D02*
D03*
D62*
X192913Y94787D02*
D03*
Y51480D02*
D03*
Y73134D02*
D03*
X88920Y150023D02*
D03*
Y130338D02*
D03*
X116480D02*
D03*
Y150023D02*
D03*
X116379Y168838D02*
D03*
Y188523D02*
D03*
X88820D02*
D03*
Y168838D02*
D03*
X192913Y239382D02*
D03*
Y217728D02*
D03*
Y261035D02*
D03*
X13600Y73134D02*
D03*
Y94787D02*
D03*
Y51480D02*
D03*
X13780Y239380D02*
D03*
Y261034D02*
D03*
Y217727D02*
D03*
D63*
X102700Y140180D02*
D03*
X102600Y178680D02*
D03*
D64*
X199300Y184300D02*
D03*
Y192900D02*
D03*
X189500Y180000D02*
D03*
X154200Y202200D02*
D03*
X189200Y142900D02*
D03*
X147200Y294100D02*
D03*
X60347Y180500D02*
D03*
X55700Y184466D02*
D03*
X72239Y52400D02*
D03*
X4200Y121300D02*
D03*
X4286Y124300D02*
D03*
X56180Y246680D02*
D03*
X63900Y255927D02*
D03*
X41700Y68680D02*
D03*
X111900Y119280D02*
D03*
X47583Y103980D02*
D03*
X66800Y215980D02*
D03*
X66400Y114180D02*
D03*
X75700Y176780D02*
D03*
Y159780D02*
D03*
X72400Y158780D02*
D03*
X103000Y86886D02*
D03*
X106500Y110880D02*
D03*
X92656Y204180D02*
D03*
X116967Y111607D02*
D03*
X105850Y68130D02*
D03*
X43377Y70880D02*
D03*
X43400Y86080D02*
D03*
X66500Y96380D02*
D03*
X150600Y72480D02*
D03*
X63900Y217780D02*
D03*
X52300Y108780D02*
D03*
X58100Y108680D02*
D03*
X112200Y264041D02*
D03*
X130500Y218363D02*
D03*
X117600Y229280D02*
D03*
X63900Y237980D02*
D03*
X134100Y159780D02*
D03*
X139600D02*
D03*
X156600Y72580D02*
D03*
X155900Y77380D02*
D03*
X150600D02*
D03*
X76100Y78980D02*
D03*
X116800Y80134D02*
D03*
X116200Y52280D02*
D03*
X99400Y58180D02*
D03*
X131415Y228280D02*
D03*
X137700Y228580D02*
D03*
X74000Y235280D02*
D03*
X73200Y217380D02*
D03*
X72800Y248487D02*
D03*
X83900Y227680D02*
D03*
X74200Y243475D02*
D03*
X78099Y230881D02*
D03*
X102300Y259780D02*
D03*
X51200Y246680D02*
D03*
X78099Y202380D02*
D03*
X83800Y202280D02*
D03*
X92600Y235053D02*
D03*
X108500Y234880D02*
D03*
X116300Y234708D02*
D03*
X141200Y218331D02*
D03*
M02*
