M48
;Layer_Color=9474304
;FILE_FORMAT=2:5
INCH,LZ
;TYPE=PLATED
T1F00S00C0.01181
T2F00S00C0.03937
T3F00S00C0.04000
T4F00S00C0.04724
T5F00S00C0.08661
T6F00S00C0.10630
;TYPE=NON_PLATED
T7F00S00C0.11811
%
T01
X00526Y00367
X01149Y0030332
X0114637Y00125
X01184Y00076
X0118121Y00042
X01279Y00043
X0128Y00077
X01377
X01376Y00044
X0141314Y00126
X0149251Y00102
Y00077
Y00052
X0151751
Y00077
Y00102
X0147Y00343
X0125417Y00219
X01067Y00102
X01042
Y00077
Y00052
X01067
Y00077
X01733Y0164719
X01731Y0174938
X0173162Y0184938
X01438Y01851
Y0182412
X01307Y01787
X012641Y017
X0123145Y0162521
X01145Y01644
X01113Y01673
X0106421Y0168171
X00992Y01682
X0092883Y01695
X00869Y01728
X0097522Y0178722
X01113Y01787
X01152Y0174317
X01121Y0189
X00973Y01925
X00754Y018676
X0071624Y01878
X0069569Y0184384
X00752Y0179967
X0065271Y017072
X00603
X0069569Y0154622
X00689Y0151363
X00715Y01489
X00727Y01561
X00898Y01556
X00899Y01589
X00935Y01557
X0097Y01567
X00967Y0161
X00954Y01453
X0099Y01456
X0106599Y0145726
X01122Y01459
X01129Y01519
X01054Y0135861
X01053Y01318
X01078Y01265
X01101
X01026Y01218
X01059Y01131
X00971Y01088
X00892Y0106802
X00714Y0118725
X0069Y01215
X00871Y01375
Y01414
X00431Y01431
Y01523
X00525Y00947
Y00561
X01057Y00757
X01058Y00783
X01238Y00656
X01267Y00657
X01228Y00445
X01375
X0155Y0076
X0150584Y01028
X0147859Y01027
X01424Y0123991
X0139553Y0123953
X01317Y0126525
X01285Y0126513
X01222Y01219
X0152Y0128
X0154341Y01279
X0154291Y01489
X01542Y0151504
X0143635Y0156449
Y01591
X01509Y01941
X01325Y01944
X01277Y02048
X01249Y02028
X012158Y02029
X011902Y0200679
X0112078Y020045
X0099Y02004
X0098427Y02141
X01046
X01165Y0214
X0136084Y0211
X0130856Y02385
X01508Y02384
X00521Y02348
Y02136
Y0199916
X00352Y03058
X01732Y02539
X01828
X018Y02596
X0187Y0244
X0172838Y0234938
T02
X0012795Y0030332
X0038386
Y0048048
X0012795
Y0089387
Y0107103
X0038386
Y0089387
X005315Y0147458
Y01573
Y0167142
X0038386Y0207497
Y0225213
X0012795
Y0207497
Y0266552
Y0284268
X0038386
Y0266552
X0115984Y0294213
X0125984
X0135984
Y0304213
X0125984
X0115984
T03
X0194324Y0134938
Y0144938
Y0154938
Y0164938
Y0174938
Y0184938
Y0194938
Y0204938
Y0214938
Y0224938
Y0234938
Y0244938
Y0254938
Y0264938
Y0274938
Y0284938
T04
X01727Y00415
Y00565
Y00715
Y00865
Y01015
T05
X0025591Y0136434
Y0178166
T06
X0072276Y0009662
X0194324
X0072276Y0304938
X0194324
T07
X0173266Y0279347
M30
