G04*
G04 #@! TF.GenerationSoftware,Altium Limited,Altium Designer,19.0.14 (431)*
G04*
G04 Layer_Color=10517442*
%FSLAX25Y25*%
%MOIN*%
G70*
G01*
G75*
%ADD10C,0.01000*%
%ADD11C,0.00700*%
%ADD17C,0.10243*%
%ADD18R,0.10243X0.10243*%
%ADD19C,0.07093*%
%ADD20R,0.07093X0.07093*%
%ADD21C,0.06400*%
%ADD22O,0.16148X0.12211*%
%ADD23O,0.10243X0.08274*%
%ADD24C,0.08274*%
%ADD25C,0.20085*%
%ADD26C,0.07900*%
%ADD27R,0.08400X0.08400*%
%ADD71R,0.04600X0.04527*%
%ADD73R,0.03943X0.03156*%
%ADD74R,0.03943X0.05124*%
%ADD75R,0.05124X0.03943*%
%ADD76R,0.06400X0.03313*%
%ADD77O,0.01975X0.05912*%
%ADD78R,0.01975X0.05912*%
%ADD79O,0.02762X0.04731*%
%ADD80R,0.05124X0.02762*%
%ADD81O,0.05124X0.02762*%
%ADD82R,0.03156X0.03943*%
%ADD83C,0.04400*%
%ADD84R,0.01581X0.05124*%
%ADD85O,0.01581X0.05124*%
%ADD86O,0.05124X0.01581*%
%ADD87O,0.04731X0.02762*%
%ADD88R,0.07900X0.02800*%
%ADD89O,0.07900X0.02800*%
%ADD90R,0.05518X0.03943*%
%ADD91R,0.05518X0.04337*%
%ADD92R,0.04337X0.05518*%
%ADD93R,0.04731X0.07093*%
%ADD94R,0.05124X0.14967*%
%ADD95R,0.07093X0.04731*%
G36*
X200500Y119091D02*
X199525D01*
Y122309D01*
X197958D01*
Y119421D01*
X196983D01*
Y122309D01*
X195707D01*
Y119204D01*
X194732D01*
Y123471D01*
X200500D01*
Y119091D01*
D02*
G37*
G36*
Y117014D02*
X194732D01*
Y118116D01*
X200500D01*
Y117014D01*
D02*
G37*
G36*
X198602Y116196D02*
X198760Y116189D01*
X198902Y116166D01*
X199038Y116136D01*
X199165Y116106D01*
X199285Y116076D01*
X199390Y116039D01*
X199487Y115994D01*
X199577Y115956D01*
X199660Y115919D01*
X199727Y115889D01*
X199780Y115859D01*
X199825Y115829D01*
X199855Y115806D01*
X199878Y115799D01*
X199885Y115791D01*
X200012Y115686D01*
X200117Y115574D01*
X200215Y115454D01*
X200297Y115319D01*
X200365Y115191D01*
X200425Y115056D01*
X200470Y114921D01*
X200507Y114794D01*
X200537Y114674D01*
X200560Y114554D01*
X200575Y114456D01*
X200583Y114366D01*
X200590Y114291D01*
X200598Y114231D01*
Y114186D01*
X200583Y113939D01*
X200545Y113714D01*
X200500Y113519D01*
X200470Y113436D01*
X200440Y113354D01*
X200410Y113279D01*
X200380Y113219D01*
X200358Y113166D01*
X200335Y113121D01*
X200312Y113084D01*
X200297Y113061D01*
X200283Y113046D01*
Y113039D01*
X200155Y112881D01*
X200005Y112739D01*
X199855Y112626D01*
X199705Y112529D01*
X199570Y112454D01*
X199510Y112431D01*
X199458Y112401D01*
X199420Y112386D01*
X199390Y112371D01*
X199367Y112364D01*
X199360D01*
X199172Y113466D01*
X199285Y113504D01*
X199382Y113549D01*
X199458Y113594D01*
X199525Y113639D01*
X199577Y113684D01*
X199608Y113714D01*
X199630Y113736D01*
X199637Y113744D01*
X199682Y113811D01*
X199713Y113886D01*
X199742Y113954D01*
X199758Y114021D01*
X199765Y114081D01*
X199773Y114126D01*
Y114171D01*
X199758Y114306D01*
X199727Y114434D01*
X199690Y114539D01*
X199637Y114636D01*
X199585Y114711D01*
X199548Y114764D01*
X199518Y114794D01*
X199503Y114809D01*
X199390Y114891D01*
X199262Y114959D01*
X199135Y115004D01*
X199015Y115034D01*
X198902Y115056D01*
X198812Y115064D01*
X198775Y115071D01*
X198752D01*
X198738D01*
X198730D01*
Y112304D01*
X198497D01*
X198287Y112319D01*
X198085Y112341D01*
X197898Y112371D01*
X197732Y112416D01*
X197575Y112454D01*
X197440Y112506D01*
X197312Y112551D01*
X197200Y112604D01*
X197110Y112649D01*
X197028Y112694D01*
X196960Y112739D01*
X196915Y112769D01*
X196878Y112799D01*
X196855Y112814D01*
X196847Y112821D01*
X196735Y112926D01*
X196645Y113039D01*
X196555Y113159D01*
X196487Y113279D01*
X196428Y113399D01*
X196375Y113526D01*
X196337Y113646D01*
X196300Y113759D01*
X196277Y113871D01*
X196255Y113969D01*
X196247Y114059D01*
X196232Y114134D01*
Y114201D01*
X196225Y114246D01*
Y114291D01*
X196232Y114441D01*
X196247Y114591D01*
X196277Y114726D01*
X196315Y114854D01*
X196360Y114981D01*
X196413Y115094D01*
X196465Y115191D01*
X196518Y115289D01*
X196578Y115371D01*
X196630Y115446D01*
X196683Y115514D01*
X196728Y115566D01*
X196765Y115611D01*
X196795Y115641D01*
X196810Y115656D01*
X196818Y115664D01*
X196930Y115761D01*
X197057Y115844D01*
X197185Y115911D01*
X197320Y115979D01*
X197455Y116031D01*
X197590Y116069D01*
X197725Y116106D01*
X197853Y116136D01*
X197973Y116159D01*
X198085Y116174D01*
X198190Y116189D01*
X198273Y116196D01*
X198347D01*
X198400Y116204D01*
X198430D01*
X198445D01*
X198602Y116196D01*
D02*
G37*
G36*
X198610Y111636D02*
X198783Y111621D01*
X198948Y111591D01*
X199105Y111561D01*
X199248Y111516D01*
X199375Y111471D01*
X199495Y111426D01*
X199600Y111374D01*
X199697Y111321D01*
X199780Y111276D01*
X199855Y111231D01*
X199915Y111186D01*
X199960Y111156D01*
X199990Y111126D01*
X200012Y111111D01*
X200020Y111104D01*
X200125Y110999D01*
X200207Y110886D01*
X200290Y110766D01*
X200350Y110646D01*
X200410Y110519D01*
X200455Y110399D01*
X200493Y110279D01*
X200522Y110166D01*
X200553Y110061D01*
X200568Y109956D01*
X200583Y109866D01*
X200590Y109791D01*
Y109731D01*
X200598Y109679D01*
Y109641D01*
X200590Y109491D01*
X200583Y109356D01*
X200560Y109221D01*
X200537Y109101D01*
X200507Y108989D01*
X200478Y108884D01*
X200448Y108786D01*
X200410Y108696D01*
X200373Y108621D01*
X200342Y108554D01*
X200312Y108494D01*
X200283Y108449D01*
X200260Y108411D01*
X200237Y108381D01*
X200230Y108366D01*
X200222Y108359D01*
X200148Y108269D01*
X200065Y108194D01*
X199885Y108051D01*
X199697Y107939D01*
X199510Y107849D01*
X199427Y107819D01*
X199345Y107789D01*
X199277Y107759D01*
X199210Y107744D01*
X199165Y107729D01*
X199120Y107714D01*
X199098Y107706D01*
X199090D01*
X198902Y108794D01*
X199053Y108831D01*
X199188Y108876D01*
X199293Y108921D01*
X199382Y108966D01*
X199443Y109011D01*
X199487Y109049D01*
X199518Y109071D01*
X199525Y109079D01*
X199585Y109161D01*
X199622Y109244D01*
X199653Y109334D01*
X199675Y109416D01*
X199690Y109484D01*
X199697Y109544D01*
Y109596D01*
X199682Y109746D01*
X199653Y109874D01*
X199600Y109994D01*
X199540Y110084D01*
X199487Y110166D01*
X199435Y110219D01*
X199405Y110249D01*
X199390Y110264D01*
X199330Y110309D01*
X199255Y110346D01*
X199098Y110406D01*
X198925Y110451D01*
X198752Y110481D01*
X198588Y110496D01*
X198520Y110504D01*
X198460D01*
X198407Y110511D01*
X198370D01*
X198347D01*
X198340D01*
X198220D01*
X198108Y110504D01*
X198003Y110489D01*
X197913Y110474D01*
X197822Y110459D01*
X197748Y110436D01*
X197672Y110414D01*
X197613Y110391D01*
X197560Y110369D01*
X197515Y110346D01*
X197470Y110324D01*
X197440Y110309D01*
X197403Y110279D01*
X197388Y110271D01*
X197290Y110174D01*
X197215Y110061D01*
X197162Y109949D01*
X197133Y109844D01*
X197110Y109746D01*
X197102Y109671D01*
X197095Y109641D01*
Y109604D01*
X197102Y109491D01*
X197117Y109394D01*
X197148Y109311D01*
X197178Y109236D01*
X197207Y109176D01*
X197238Y109139D01*
X197253Y109109D01*
X197260Y109101D01*
X197327Y109034D01*
X197403Y108981D01*
X197485Y108936D01*
X197567Y108899D01*
X197635Y108876D01*
X197695Y108861D01*
X197732Y108846D01*
X197740D01*
X197748D01*
X197553Y107759D01*
X197432Y107796D01*
X197320Y107841D01*
X197215Y107894D01*
X197117Y107946D01*
X197028Y107999D01*
X196945Y108051D01*
X196870Y108111D01*
X196802Y108164D01*
X196742Y108209D01*
X196697Y108261D01*
X196652Y108299D01*
X196615Y108336D01*
X196592Y108366D01*
X196570Y108389D01*
X196555Y108404D01*
Y108411D01*
X196495Y108501D01*
X196442Y108591D01*
X196368Y108786D01*
X196308Y108989D01*
X196263Y109184D01*
X196255Y109274D01*
X196240Y109356D01*
X196232Y109431D01*
Y109491D01*
X196225Y109544D01*
Y109619D01*
X196232Y109791D01*
X196247Y109949D01*
X196277Y110106D01*
X196315Y110249D01*
X196360Y110376D01*
X196405Y110504D01*
X196458Y110609D01*
X196510Y110714D01*
X196570Y110804D01*
X196623Y110879D01*
X196668Y110946D01*
X196713Y111006D01*
X196750Y111044D01*
X196780Y111081D01*
X196795Y111096D01*
X196802Y111104D01*
X196915Y111201D01*
X197035Y111284D01*
X197162Y111351D01*
X197298Y111419D01*
X197432Y111471D01*
X197567Y111509D01*
X197703Y111546D01*
X197830Y111576D01*
X197950Y111599D01*
X198063Y111614D01*
X198160Y111629D01*
X198250Y111636D01*
X198325D01*
X198378Y111644D01*
X198407D01*
X198423D01*
X198610Y111636D01*
D02*
G37*
G36*
X197200Y106874D02*
X199030D01*
X199135D01*
X199232D01*
X199322D01*
X199398Y106866D01*
X199472D01*
X199532D01*
X199637Y106859D01*
X199720Y106851D01*
X199773D01*
X199802Y106844D01*
X199810D01*
X199908Y106821D01*
X199990Y106799D01*
X200065Y106776D01*
X200125Y106746D01*
X200178Y106724D01*
X200215Y106701D01*
X200237Y106694D01*
X200245Y106686D01*
X200297Y106641D01*
X200350Y106581D01*
X200432Y106469D01*
X200463Y106416D01*
X200485Y106371D01*
X200493Y106341D01*
X200500Y106334D01*
X200530Y106244D01*
X200553Y106146D01*
X200575Y106056D01*
X200583Y105974D01*
X200590Y105906D01*
X200598Y105854D01*
Y105801D01*
X200590Y105621D01*
X200575Y105456D01*
X200545Y105306D01*
X200515Y105179D01*
X200493Y105074D01*
X200463Y104991D01*
X200455Y104961D01*
X200448Y104939D01*
X200440Y104931D01*
Y104924D01*
X199577Y105021D01*
X199615Y105126D01*
X199637Y105216D01*
X199660Y105291D01*
X199668Y105351D01*
X199675Y105404D01*
X199682Y105434D01*
Y105464D01*
X199675Y105539D01*
X199653Y105606D01*
X199637Y105644D01*
X199630Y105651D01*
Y105659D01*
X199585Y105704D01*
X199540Y105734D01*
X199510Y105749D01*
X199495Y105756D01*
X199472D01*
X199443Y105764D01*
X199360D01*
X199262D01*
X199158Y105771D01*
X199060D01*
X198977D01*
X198940D01*
X198917D01*
X198902D01*
X198895D01*
X197200D01*
Y105014D01*
X196323D01*
Y105771D01*
X194837D01*
X195490Y106874D01*
X196323D01*
Y107384D01*
X197200D01*
Y106874D01*
D02*
G37*
G36*
X200500Y103184D02*
X199210D01*
X199015D01*
X198843Y103176D01*
X198685D01*
X198542Y103169D01*
X198415Y103161D01*
X198302Y103154D01*
X198197Y103146D01*
X198115Y103139D01*
X198040Y103131D01*
X197973Y103124D01*
X197927Y103116D01*
X197882Y103109D01*
X197853Y103101D01*
X197830Y103094D01*
X197815D01*
X197695Y103056D01*
X197598Y103019D01*
X197522Y102974D01*
X197455Y102936D01*
X197410Y102899D01*
X197372Y102869D01*
X197357Y102854D01*
X197350Y102846D01*
X197305Y102779D01*
X197275Y102711D01*
X197245Y102644D01*
X197230Y102584D01*
X197222Y102524D01*
X197215Y102479D01*
Y102441D01*
X197222Y102351D01*
X197245Y102261D01*
X197275Y102171D01*
X197305Y102089D01*
X197343Y102021D01*
X197372Y101969D01*
X197395Y101939D01*
X197403Y101924D01*
X196435Y101579D01*
X196368Y101714D01*
X196315Y101841D01*
X196277Y101969D01*
X196247Y102081D01*
X196232Y102171D01*
X196225Y102246D01*
Y102314D01*
X196232Y102411D01*
X196247Y102501D01*
X196270Y102576D01*
X196292Y102651D01*
X196323Y102704D01*
X196345Y102749D01*
X196360Y102779D01*
X196368Y102786D01*
X196428Y102869D01*
X196510Y102951D01*
X196600Y103026D01*
X196697Y103101D01*
X196780Y103161D01*
X196855Y103214D01*
X196885Y103236D01*
X196907Y103244D01*
X196915Y103259D01*
X196323D01*
Y104286D01*
X200500D01*
Y103184D01*
D02*
G37*
G36*
X198617Y101346D02*
X198850Y101316D01*
X198955Y101301D01*
X199060Y101279D01*
X199150Y101249D01*
X199232Y101226D01*
X199315Y101204D01*
X199382Y101174D01*
X199435Y101151D01*
X199487Y101136D01*
X199525Y101114D01*
X199555Y101106D01*
X199570Y101091D01*
X199577D01*
X199758Y100979D01*
X199908Y100851D01*
X200043Y100724D01*
X200148Y100596D01*
X200230Y100484D01*
X200268Y100431D01*
X200290Y100386D01*
X200312Y100356D01*
X200327Y100326D01*
X200342Y100311D01*
Y100304D01*
X200425Y100109D01*
X200493Y99906D01*
X200537Y99726D01*
X200568Y99554D01*
X200575Y99479D01*
X200583Y99411D01*
X200590Y99351D01*
Y99299D01*
X200598Y99261D01*
Y99201D01*
X200590Y99029D01*
X200568Y98871D01*
X200537Y98714D01*
X200500Y98571D01*
X200455Y98436D01*
X200402Y98309D01*
X200342Y98196D01*
X200283Y98084D01*
X200230Y97994D01*
X200170Y97904D01*
X200117Y97836D01*
X200073Y97776D01*
X200035Y97724D01*
X200005Y97694D01*
X199983Y97671D01*
X199975Y97664D01*
X199855Y97559D01*
X199727Y97461D01*
X199600Y97379D01*
X199465Y97311D01*
X199330Y97251D01*
X199203Y97199D01*
X199075Y97161D01*
X198955Y97124D01*
X198843Y97101D01*
X198738Y97079D01*
X198640Y97064D01*
X198557Y97056D01*
X198490D01*
X198445Y97049D01*
X198407D01*
X198400D01*
X198228Y97056D01*
X198063Y97071D01*
X197905Y97101D01*
X197763Y97146D01*
X197627Y97191D01*
X197500Y97244D01*
X197380Y97296D01*
X197275Y97349D01*
X197178Y97409D01*
X197095Y97461D01*
X197020Y97514D01*
X196960Y97559D01*
X196907Y97596D01*
X196878Y97626D01*
X196855Y97649D01*
X196847Y97656D01*
X196735Y97776D01*
X196645Y97896D01*
X196555Y98024D01*
X196487Y98159D01*
X196428Y98286D01*
X196375Y98414D01*
X196337Y98541D01*
X196300Y98661D01*
X196277Y98781D01*
X196255Y98886D01*
X196247Y98976D01*
X196232Y99059D01*
Y99126D01*
X196225Y99171D01*
Y99216D01*
X196240Y99441D01*
X196270Y99644D01*
X196315Y99831D01*
X196360Y99996D01*
X196390Y100071D01*
X196413Y100131D01*
X196435Y100191D01*
X196458Y100236D01*
X196480Y100274D01*
X196487Y100304D01*
X196502Y100319D01*
Y100326D01*
X196615Y100499D01*
X196742Y100656D01*
X196870Y100784D01*
X196997Y100896D01*
X197110Y100979D01*
X197162Y101016D01*
X197207Y101039D01*
X197238Y101061D01*
X197267Y101076D01*
X197283Y101091D01*
X197290D01*
X197485Y101181D01*
X197672Y101249D01*
X197853Y101294D01*
X198018Y101324D01*
X198085Y101339D01*
X198152Y101346D01*
X198213Y101354D01*
X198258D01*
X198302Y101361D01*
X198333D01*
X198347D01*
X198355D01*
X198617Y101346D01*
D02*
G37*
G36*
X200500Y95099D02*
X198610D01*
X198483D01*
X198370Y95091D01*
X198265D01*
X198168Y95084D01*
X198077Y95076D01*
X198003Y95069D01*
X197927Y95061D01*
X197868Y95054D01*
X197815Y95046D01*
X197770Y95039D01*
X197732D01*
X197703Y95031D01*
X197665Y95016D01*
X197650D01*
X197560Y94979D01*
X197470Y94934D01*
X197403Y94881D01*
X197343Y94829D01*
X197290Y94776D01*
X197260Y94739D01*
X197238Y94709D01*
X197230Y94701D01*
X197178Y94611D01*
X197140Y94521D01*
X197110Y94439D01*
X197095Y94356D01*
X197080Y94289D01*
X197073Y94229D01*
Y94184D01*
X197080Y94101D01*
X197088Y94026D01*
X197110Y93959D01*
X197125Y93899D01*
X197148Y93854D01*
X197170Y93824D01*
X197178Y93801D01*
X197185Y93794D01*
X197230Y93741D01*
X197283Y93689D01*
X197335Y93651D01*
X197388Y93621D01*
X197432Y93591D01*
X197470Y93576D01*
X197493Y93561D01*
X197500D01*
X197545Y93546D01*
X197590Y93539D01*
X197650Y93524D01*
X197717Y93516D01*
X197860Y93501D01*
X198010Y93494D01*
X198145Y93486D01*
X198205D01*
X198258D01*
X198302D01*
X198340D01*
X198363D01*
X198370D01*
X200500D01*
Y92384D01*
X197905D01*
X197732D01*
X197582Y92391D01*
X197462Y92406D01*
X197350Y92414D01*
X197267Y92429D01*
X197207Y92444D01*
X197178Y92451D01*
X197162D01*
X197065Y92481D01*
X196983Y92511D01*
X196900Y92549D01*
X196833Y92579D01*
X196773Y92616D01*
X196735Y92646D01*
X196705Y92661D01*
X196697Y92669D01*
X196623Y92729D01*
X196563Y92804D01*
X196502Y92879D01*
X196450Y92954D01*
X196413Y93021D01*
X196382Y93074D01*
X196368Y93111D01*
X196360Y93126D01*
X196315Y93239D01*
X196285Y93359D01*
X196255Y93471D01*
X196240Y93569D01*
X196232Y93659D01*
X196225Y93734D01*
Y93794D01*
X196232Y93944D01*
X196255Y94094D01*
X196292Y94229D01*
X196337Y94364D01*
X196390Y94484D01*
X196450Y94596D01*
X196518Y94701D01*
X196578Y94799D01*
X196645Y94881D01*
X196713Y94956D01*
X196773Y95024D01*
X196825Y95076D01*
X196870Y95121D01*
X196907Y95151D01*
X196930Y95166D01*
X196938Y95174D01*
X196323D01*
Y96201D01*
X200500D01*
Y95099D01*
D02*
G37*
G36*
Y90164D02*
X196323D01*
Y91266D01*
X200500D01*
Y90164D01*
D02*
G37*
G36*
X195753D02*
X194732D01*
Y91266D01*
X195753D01*
Y90164D01*
D02*
G37*
G36*
X198610Y89264D02*
X198783Y89249D01*
X198948Y89219D01*
X199105Y89189D01*
X199248Y89144D01*
X199375Y89099D01*
X199495Y89054D01*
X199600Y89001D01*
X199697Y88949D01*
X199780Y88904D01*
X199855Y88859D01*
X199915Y88814D01*
X199960Y88784D01*
X199990Y88754D01*
X200012Y88739D01*
X200020Y88731D01*
X200125Y88626D01*
X200207Y88514D01*
X200290Y88394D01*
X200350Y88274D01*
X200410Y88146D01*
X200455Y88026D01*
X200493Y87906D01*
X200522Y87794D01*
X200553Y87689D01*
X200568Y87584D01*
X200583Y87494D01*
X200590Y87419D01*
Y87359D01*
X200598Y87306D01*
Y87269D01*
X200590Y87119D01*
X200583Y86984D01*
X200560Y86849D01*
X200537Y86729D01*
X200507Y86616D01*
X200478Y86511D01*
X200448Y86414D01*
X200410Y86324D01*
X200373Y86249D01*
X200342Y86181D01*
X200312Y86121D01*
X200283Y86076D01*
X200260Y86039D01*
X200237Y86009D01*
X200230Y85994D01*
X200222Y85986D01*
X200148Y85896D01*
X200065Y85821D01*
X199885Y85679D01*
X199697Y85566D01*
X199510Y85476D01*
X199427Y85446D01*
X199345Y85416D01*
X199277Y85386D01*
X199210Y85371D01*
X199165Y85356D01*
X199120Y85341D01*
X199098Y85334D01*
X199090D01*
X198902Y86421D01*
X199053Y86459D01*
X199188Y86504D01*
X199293Y86549D01*
X199382Y86594D01*
X199443Y86639D01*
X199487Y86676D01*
X199518Y86699D01*
X199525Y86706D01*
X199585Y86789D01*
X199622Y86871D01*
X199653Y86961D01*
X199675Y87044D01*
X199690Y87111D01*
X199697Y87171D01*
Y87224D01*
X199682Y87374D01*
X199653Y87501D01*
X199600Y87621D01*
X199540Y87711D01*
X199487Y87794D01*
X199435Y87846D01*
X199405Y87876D01*
X199390Y87891D01*
X199330Y87936D01*
X199255Y87974D01*
X199098Y88034D01*
X198925Y88079D01*
X198752Y88109D01*
X198588Y88124D01*
X198520Y88131D01*
X198460D01*
X198407Y88139D01*
X198370D01*
X198347D01*
X198340D01*
X198220D01*
X198108Y88131D01*
X198003Y88116D01*
X197913Y88101D01*
X197822Y88086D01*
X197748Y88064D01*
X197672Y88041D01*
X197613Y88019D01*
X197560Y87996D01*
X197515Y87974D01*
X197470Y87951D01*
X197440Y87936D01*
X197403Y87906D01*
X197388Y87899D01*
X197290Y87801D01*
X197215Y87689D01*
X197162Y87576D01*
X197133Y87471D01*
X197110Y87374D01*
X197102Y87299D01*
X197095Y87269D01*
Y87231D01*
X197102Y87119D01*
X197117Y87021D01*
X197148Y86939D01*
X197178Y86864D01*
X197207Y86804D01*
X197238Y86766D01*
X197253Y86736D01*
X197260Y86729D01*
X197327Y86661D01*
X197403Y86609D01*
X197485Y86564D01*
X197567Y86526D01*
X197635Y86504D01*
X197695Y86489D01*
X197732Y86474D01*
X197740D01*
X197748D01*
X197553Y85386D01*
X197432Y85424D01*
X197320Y85469D01*
X197215Y85521D01*
X197117Y85574D01*
X197028Y85626D01*
X196945Y85679D01*
X196870Y85739D01*
X196802Y85791D01*
X196742Y85836D01*
X196697Y85889D01*
X196652Y85926D01*
X196615Y85964D01*
X196592Y85994D01*
X196570Y86016D01*
X196555Y86031D01*
Y86039D01*
X196495Y86129D01*
X196442Y86219D01*
X196368Y86414D01*
X196308Y86616D01*
X196263Y86811D01*
X196255Y86901D01*
X196240Y86984D01*
X196232Y87059D01*
Y87119D01*
X196225Y87171D01*
Y87246D01*
X196232Y87419D01*
X196247Y87576D01*
X196277Y87734D01*
X196315Y87876D01*
X196360Y88004D01*
X196405Y88131D01*
X196458Y88236D01*
X196510Y88341D01*
X196570Y88431D01*
X196623Y88506D01*
X196668Y88574D01*
X196713Y88634D01*
X196750Y88671D01*
X196780Y88709D01*
X196795Y88724D01*
X196802Y88731D01*
X196915Y88829D01*
X197035Y88911D01*
X197162Y88979D01*
X197298Y89046D01*
X197432Y89099D01*
X197567Y89136D01*
X197703Y89174D01*
X197830Y89204D01*
X197950Y89226D01*
X198063Y89241D01*
X198160Y89256D01*
X198250Y89264D01*
X198325D01*
X198378Y89271D01*
X198407D01*
X198423D01*
X198610Y89264D01*
D02*
G37*
G36*
X200500Y81216D02*
X194732D01*
Y82319D01*
X200500D01*
Y81216D01*
D02*
G37*
G36*
X198617Y80324D02*
X198850Y80294D01*
X198955Y80279D01*
X199060Y80256D01*
X199150Y80226D01*
X199232Y80204D01*
X199315Y80181D01*
X199382Y80151D01*
X199435Y80129D01*
X199487Y80114D01*
X199525Y80091D01*
X199555Y80084D01*
X199570Y80069D01*
X199577D01*
X199758Y79956D01*
X199908Y79829D01*
X200043Y79701D01*
X200148Y79574D01*
X200230Y79461D01*
X200268Y79409D01*
X200290Y79364D01*
X200312Y79334D01*
X200327Y79304D01*
X200342Y79289D01*
Y79281D01*
X200425Y79086D01*
X200493Y78884D01*
X200537Y78704D01*
X200568Y78531D01*
X200575Y78456D01*
X200583Y78389D01*
X200590Y78329D01*
Y78276D01*
X200598Y78239D01*
Y78179D01*
X200590Y78006D01*
X200568Y77849D01*
X200537Y77691D01*
X200500Y77549D01*
X200455Y77414D01*
X200402Y77286D01*
X200342Y77174D01*
X200283Y77061D01*
X200230Y76971D01*
X200170Y76881D01*
X200117Y76814D01*
X200073Y76754D01*
X200035Y76701D01*
X200005Y76671D01*
X199983Y76649D01*
X199975Y76641D01*
X199855Y76536D01*
X199727Y76439D01*
X199600Y76356D01*
X199465Y76289D01*
X199330Y76229D01*
X199203Y76176D01*
X199075Y76139D01*
X198955Y76101D01*
X198843Y76079D01*
X198738Y76056D01*
X198640Y76041D01*
X198557Y76034D01*
X198490D01*
X198445Y76026D01*
X198407D01*
X198400D01*
X198228Y76034D01*
X198063Y76049D01*
X197905Y76079D01*
X197763Y76124D01*
X197627Y76169D01*
X197500Y76221D01*
X197380Y76274D01*
X197275Y76326D01*
X197178Y76386D01*
X197095Y76439D01*
X197020Y76491D01*
X196960Y76536D01*
X196907Y76574D01*
X196878Y76604D01*
X196855Y76626D01*
X196847Y76634D01*
X196735Y76754D01*
X196645Y76874D01*
X196555Y77001D01*
X196487Y77136D01*
X196428Y77264D01*
X196375Y77391D01*
X196337Y77519D01*
X196300Y77639D01*
X196277Y77759D01*
X196255Y77864D01*
X196247Y77954D01*
X196232Y78036D01*
Y78104D01*
X196225Y78149D01*
Y78194D01*
X196240Y78419D01*
X196270Y78621D01*
X196315Y78809D01*
X196360Y78974D01*
X196390Y79049D01*
X196413Y79109D01*
X196435Y79169D01*
X196458Y79214D01*
X196480Y79251D01*
X196487Y79281D01*
X196502Y79296D01*
Y79304D01*
X196615Y79476D01*
X196742Y79634D01*
X196870Y79761D01*
X196997Y79874D01*
X197110Y79956D01*
X197162Y79994D01*
X197207Y80016D01*
X197238Y80039D01*
X197267Y80054D01*
X197283Y80069D01*
X197290D01*
X197485Y80159D01*
X197672Y80226D01*
X197853Y80271D01*
X198018Y80301D01*
X198085Y80316D01*
X198152Y80324D01*
X198213Y80331D01*
X198258D01*
X198302Y80339D01*
X198333D01*
X198347D01*
X198355D01*
X198617Y80324D01*
D02*
G37*
G36*
X199465Y75449D02*
X199555Y75441D01*
X199727Y75396D01*
X199885Y75336D01*
X200012Y75269D01*
X200110Y75201D01*
X200192Y75149D01*
X200215Y75119D01*
X200237Y75104D01*
X200245Y75096D01*
X200253Y75089D01*
X200312Y75014D01*
X200365Y74939D01*
X200455Y74774D01*
X200515Y74601D01*
X200553Y74436D01*
X200583Y74294D01*
X200590Y74226D01*
Y74174D01*
X200598Y74129D01*
Y74069D01*
X200590Y73934D01*
X200575Y73806D01*
X200553Y73694D01*
X200530Y73589D01*
X200507Y73506D01*
X200485Y73439D01*
X200470Y73401D01*
X200463Y73386D01*
X200402Y73266D01*
X200342Y73154D01*
X200275Y73049D01*
X200207Y72959D01*
X200148Y72884D01*
X200095Y72831D01*
X200065Y72794D01*
X200050Y72779D01*
X200080Y72764D01*
X200125Y72756D01*
X200163Y72741D01*
X200170D01*
X200178D01*
X200253Y72719D01*
X200320Y72696D01*
X200373Y72674D01*
X200417Y72659D01*
X200455Y72644D01*
X200478Y72636D01*
X200493Y72629D01*
X200500D01*
Y71534D01*
X200395Y71586D01*
X200290Y71631D01*
X200192Y71661D01*
X200110Y71691D01*
X200043Y71714D01*
X199990Y71729D01*
X199960Y71736D01*
X199945D01*
X199832Y71751D01*
X199705Y71766D01*
X199570Y71774D01*
X199435Y71781D01*
X199315Y71789D01*
X199262D01*
X199217D01*
X199180D01*
X199150D01*
X199135D01*
X199127D01*
X197837Y71774D01*
X197710D01*
X197590Y71781D01*
X197477Y71789D01*
X197380Y71796D01*
X197290Y71811D01*
X197207Y71819D01*
X197133Y71834D01*
X197073Y71849D01*
X197020Y71864D01*
X196967Y71879D01*
X196930Y71886D01*
X196900Y71901D01*
X196862Y71916D01*
X196847Y71924D01*
X196750Y71991D01*
X196668Y72066D01*
X196585Y72149D01*
X196525Y72231D01*
X196473Y72314D01*
X196435Y72374D01*
X196413Y72419D01*
X196405Y72426D01*
Y72434D01*
X196375Y72509D01*
X196345Y72584D01*
X196300Y72756D01*
X196270Y72944D01*
X196247Y73116D01*
X196240Y73206D01*
X196232Y73281D01*
Y73356D01*
X196225Y73416D01*
Y73686D01*
X196240Y73821D01*
X196255Y73956D01*
X196270Y74076D01*
X196292Y74181D01*
X196323Y74286D01*
X196345Y74376D01*
X196375Y74459D01*
X196405Y74526D01*
X196428Y74594D01*
X196458Y74646D01*
X196480Y74691D01*
X196495Y74721D01*
X196510Y74744D01*
X196525Y74759D01*
Y74766D01*
X196645Y74909D01*
X196788Y75029D01*
X196938Y75134D01*
X197088Y75209D01*
X197215Y75269D01*
X197275Y75291D01*
X197327Y75314D01*
X197365Y75329D01*
X197395Y75336D01*
X197417Y75344D01*
X197425D01*
X197605Y74346D01*
X197500Y74309D01*
X197417Y74264D01*
X197343Y74219D01*
X197290Y74181D01*
X197245Y74144D01*
X197215Y74114D01*
X197200Y74091D01*
X197193Y74084D01*
X197155Y74016D01*
X197125Y73941D01*
X197102Y73866D01*
X197088Y73791D01*
X197080Y73724D01*
X197073Y73671D01*
Y73619D01*
X197080Y73469D01*
X197095Y73341D01*
X197117Y73236D01*
X197140Y73161D01*
X197170Y73101D01*
X197193Y73056D01*
X197207Y73034D01*
X197215Y73026D01*
X197275Y72974D01*
X197343Y72929D01*
X197417Y72899D01*
X197500Y72884D01*
X197567Y72869D01*
X197627Y72861D01*
X197665D01*
X197672D01*
X197680D01*
X197785D01*
X197808Y72921D01*
X197830Y72996D01*
X197860Y73071D01*
X197882Y73154D01*
X197927Y73334D01*
X197973Y73514D01*
X198010Y73679D01*
X198025Y73754D01*
X198040Y73814D01*
X198047Y73866D01*
X198055Y73904D01*
X198063Y73934D01*
Y73941D01*
X198100Y74144D01*
X198145Y74316D01*
X198190Y74466D01*
X198228Y74594D01*
X198265Y74691D01*
X198295Y74759D01*
X198310Y74804D01*
X198318Y74819D01*
X198378Y74924D01*
X198445Y75021D01*
X198512Y75096D01*
X198580Y75164D01*
X198640Y75224D01*
X198693Y75261D01*
X198723Y75284D01*
X198738Y75291D01*
X198843Y75344D01*
X198955Y75389D01*
X199060Y75419D01*
X199158Y75434D01*
X199240Y75449D01*
X199308Y75456D01*
X199353D01*
X199360D01*
X199367D01*
X199465Y75449D01*
D02*
G37*
G36*
X198588Y70926D02*
X198767Y70911D01*
X198940Y70889D01*
X199090Y70851D01*
X199240Y70814D01*
X199367Y70769D01*
X199495Y70724D01*
X199600Y70679D01*
X199697Y70634D01*
X199780Y70581D01*
X199855Y70544D01*
X199915Y70506D01*
X199960Y70469D01*
X199990Y70446D01*
X200012Y70431D01*
X200020Y70424D01*
X200125Y70326D01*
X200207Y70221D01*
X200290Y70124D01*
X200350Y70019D01*
X200410Y69914D01*
X200455Y69809D01*
X200493Y69711D01*
X200522Y69614D01*
X200553Y69531D01*
X200568Y69449D01*
X200583Y69374D01*
X200590Y69314D01*
Y69261D01*
X200598Y69224D01*
Y69194D01*
X200590Y69059D01*
X200568Y68931D01*
X200545Y68811D01*
X200507Y68706D01*
X200478Y68616D01*
X200455Y68549D01*
X200432Y68504D01*
X200425Y68489D01*
X200350Y68361D01*
X200268Y68249D01*
X200178Y68144D01*
X200087Y68054D01*
X200012Y67979D01*
X199952Y67926D01*
X199908Y67896D01*
X199900Y67881D01*
X200500D01*
Y66854D01*
X194732D01*
Y67956D01*
X196810D01*
X196705Y68054D01*
X196615Y68159D01*
X196540Y68264D01*
X196473Y68361D01*
X196413Y68466D01*
X196368Y68571D01*
X196330Y68669D01*
X196300Y68759D01*
X196277Y68841D01*
X196255Y68924D01*
X196240Y68991D01*
X196232Y69051D01*
X196225Y69104D01*
Y69171D01*
X196232Y69314D01*
X196247Y69449D01*
X196277Y69569D01*
X196315Y69689D01*
X196353Y69801D01*
X196397Y69906D01*
X196450Y70004D01*
X196502Y70094D01*
X196555Y70169D01*
X196607Y70236D01*
X196652Y70296D01*
X196690Y70349D01*
X196728Y70386D01*
X196757Y70416D01*
X196773Y70431D01*
X196780Y70439D01*
X196892Y70529D01*
X197005Y70604D01*
X197133Y70671D01*
X197267Y70724D01*
X197403Y70776D01*
X197538Y70814D01*
X197800Y70874D01*
X197920Y70889D01*
X198032Y70904D01*
X198137Y70919D01*
X198228Y70926D01*
X198295Y70934D01*
X198355D01*
X198385D01*
X198400D01*
X198588Y70926D01*
D02*
G37*
G36*
X200500Y62354D02*
X197980D01*
Y60066D01*
X200500D01*
Y58904D01*
X194732D01*
Y60066D01*
X197005D01*
Y62354D01*
X194732D01*
Y63516D01*
X200500D01*
Y62354D01*
D02*
G37*
G36*
Y56639D02*
X195963D01*
X200500Y55506D01*
Y54381D01*
X195963Y53241D01*
X200500Y53234D01*
Y52154D01*
X194732D01*
Y53901D01*
X198670Y54936D01*
X194732Y55979D01*
Y57719D01*
X200500D01*
Y56639D01*
D02*
G37*
G36*
Y49866D02*
X194732D01*
Y51029D01*
X200500D01*
Y49866D01*
D02*
G37*
G36*
X197057Y46176D02*
X196923Y45899D01*
X196855Y45779D01*
X196788Y45659D01*
X196720Y45546D01*
X196652Y45449D01*
X196585Y45359D01*
X196532Y45276D01*
X196473Y45209D01*
X196428Y45149D01*
X196390Y45104D01*
X196360Y45074D01*
X196345Y45051D01*
X196337Y45044D01*
X200500D01*
Y43941D01*
X194702D01*
Y44841D01*
X194800Y44879D01*
X194897Y44924D01*
X195070Y45029D01*
X195228Y45141D01*
X195370Y45261D01*
X195475Y45366D01*
X195528Y45411D01*
X195565Y45456D01*
X195595Y45494D01*
X195617Y45516D01*
X195625Y45531D01*
X195633Y45539D01*
X195767Y45726D01*
X195880Y45899D01*
X195977Y46056D01*
X196045Y46191D01*
X196098Y46304D01*
X196120Y46356D01*
X196135Y46394D01*
X196150Y46424D01*
X196158Y46446D01*
X196165Y46461D01*
Y46469D01*
X197170D01*
X197057Y46176D01*
D02*
G37*
G36*
X200500Y40949D02*
X199398D01*
Y42051D01*
X200500D01*
Y40949D01*
D02*
G37*
G36*
X197950Y40049D02*
X198228Y40034D01*
X198483Y40011D01*
X198715Y39974D01*
X198925Y39936D01*
X199112Y39891D01*
X199277Y39846D01*
X199427Y39801D01*
X199555Y39756D01*
X199668Y39704D01*
X199758Y39666D01*
X199832Y39629D01*
X199892Y39591D01*
X199930Y39569D01*
X199952Y39554D01*
X199960Y39546D01*
X200073Y39449D01*
X200170Y39336D01*
X200260Y39231D01*
X200335Y39119D01*
X200395Y38999D01*
X200448Y38886D01*
X200493Y38781D01*
X200522Y38676D01*
X200553Y38571D01*
X200568Y38481D01*
X200583Y38399D01*
X200598Y38331D01*
Y38271D01*
X200605Y38226D01*
Y38189D01*
X200598Y38039D01*
X200583Y37889D01*
X200553Y37754D01*
X200515Y37634D01*
X200470Y37514D01*
X200417Y37409D01*
X200365Y37311D01*
X200312Y37221D01*
X200260Y37146D01*
X200207Y37071D01*
X200155Y37019D01*
X200110Y36966D01*
X200073Y36929D01*
X200043Y36906D01*
X200027Y36891D01*
X200020Y36884D01*
X199878Y36786D01*
X199713Y36696D01*
X199532Y36621D01*
X199345Y36554D01*
X199150Y36501D01*
X198955Y36456D01*
X198760Y36411D01*
X198565Y36381D01*
X198385Y36359D01*
X198213Y36344D01*
X198063Y36329D01*
X197927Y36321D01*
X197815Y36314D01*
X197770D01*
X197732D01*
X197695D01*
X197672D01*
X197665D01*
X197658D01*
X197357Y36321D01*
X197088Y36336D01*
X196833Y36366D01*
X196600Y36404D01*
X196382Y36441D01*
X196187Y36494D01*
X196015Y36539D01*
X195865Y36591D01*
X195730Y36644D01*
X195617Y36696D01*
X195520Y36749D01*
X195438Y36786D01*
X195378Y36824D01*
X195333Y36854D01*
X195310Y36869D01*
X195302Y36876D01*
X195197Y36966D01*
X195107Y37071D01*
X195025Y37176D01*
X194957Y37281D01*
X194897Y37386D01*
X194845Y37499D01*
X194808Y37604D01*
X194778Y37709D01*
X194755Y37806D01*
X194732Y37896D01*
X194718Y37979D01*
X194710Y38046D01*
X194702Y38106D01*
Y38189D01*
X194710Y38339D01*
X194725Y38489D01*
X194755Y38624D01*
X194792Y38744D01*
X194837Y38864D01*
X194890Y38969D01*
X194942Y39066D01*
X194995Y39156D01*
X195055Y39231D01*
X195107Y39299D01*
X195160Y39359D01*
X195205Y39411D01*
X195243Y39449D01*
X195273Y39471D01*
X195288Y39486D01*
X195295Y39494D01*
X195438Y39591D01*
X195603Y39681D01*
X195782Y39756D01*
X195970Y39816D01*
X196158Y39876D01*
X196360Y39921D01*
X196555Y39959D01*
X196742Y39989D01*
X196923Y40011D01*
X197095Y40026D01*
X197245Y40041D01*
X197380Y40049D01*
X197493D01*
X197538Y40056D01*
X197575D01*
X197613D01*
X197627D01*
X197643D01*
X197650D01*
X197950Y40049D01*
D02*
G37*
%LPC*%
G36*
X198055Y115056D02*
X197898Y115049D01*
X197755Y115019D01*
X197635Y114981D01*
X197530Y114936D01*
X197448Y114899D01*
X197388Y114861D01*
X197357Y114831D01*
X197343Y114824D01*
X197253Y114726D01*
X197185Y114629D01*
X197140Y114531D01*
X197102Y114434D01*
X197088Y114351D01*
X197080Y114284D01*
X197073Y114239D01*
Y114224D01*
X197080Y114104D01*
X197110Y113991D01*
X197155Y113894D01*
X197200Y113811D01*
X197245Y113744D01*
X197290Y113699D01*
X197320Y113661D01*
X197327Y113654D01*
X197432Y113571D01*
X197545Y113511D01*
X197665Y113466D01*
X197785Y113436D01*
X197890Y113414D01*
X197973Y113406D01*
X198010Y113399D01*
X198032D01*
X198047D01*
X198055D01*
Y115056D01*
D02*
G37*
G36*
X198475Y100229D02*
X198445D01*
X198423D01*
X198415D01*
X198197Y100214D01*
X198003Y100184D01*
X197837Y100139D01*
X197703Y100079D01*
X197598Y100026D01*
X197560Y100004D01*
X197522Y99981D01*
X197500Y99966D01*
X197477Y99951D01*
X197462Y99936D01*
X197403Y99876D01*
X197350Y99824D01*
X197267Y99696D01*
X197207Y99576D01*
X197170Y99464D01*
X197140Y99359D01*
X197133Y99284D01*
X197125Y99254D01*
Y99126D01*
X197140Y99051D01*
X197178Y98916D01*
X197230Y98796D01*
X197290Y98691D01*
X197357Y98601D01*
X197410Y98541D01*
X197448Y98504D01*
X197455Y98489D01*
X197462D01*
X197598Y98391D01*
X197748Y98316D01*
X197905Y98264D01*
X198055Y98226D01*
X198197Y98204D01*
X198258Y98196D01*
X198302D01*
X198347Y98189D01*
X198378D01*
X198400D01*
X198407D01*
X198633Y98204D01*
X198820Y98234D01*
X198985Y98286D01*
X199120Y98339D01*
X199232Y98391D01*
X199270Y98421D01*
X199308Y98444D01*
X199330Y98459D01*
X199353Y98474D01*
X199360Y98489D01*
X199367D01*
X199427Y98541D01*
X199472Y98601D01*
X199555Y98721D01*
X199615Y98841D01*
X199653Y98961D01*
X199682Y99059D01*
X199690Y99134D01*
X199697Y99164D01*
Y99209D01*
X199690Y99291D01*
X199682Y99366D01*
X199645Y99509D01*
X199592Y99629D01*
X199532Y99734D01*
X199472Y99824D01*
X199420Y99884D01*
X199382Y99921D01*
X199367Y99936D01*
X199232Y100034D01*
X199083Y100109D01*
X198917Y100154D01*
X198767Y100191D01*
X198633Y100214D01*
X198573Y100221D01*
X198520D01*
X198475Y100229D01*
D02*
G37*
G36*
Y79206D02*
X198445D01*
X198423D01*
X198415D01*
X198197Y79191D01*
X198003Y79161D01*
X197837Y79116D01*
X197703Y79056D01*
X197598Y79004D01*
X197560Y78981D01*
X197522Y78959D01*
X197500Y78944D01*
X197477Y78929D01*
X197462Y78914D01*
X197403Y78854D01*
X197350Y78801D01*
X197267Y78674D01*
X197207Y78554D01*
X197170Y78441D01*
X197140Y78336D01*
X197133Y78261D01*
X197125Y78231D01*
Y78104D01*
X197140Y78029D01*
X197178Y77894D01*
X197230Y77774D01*
X197290Y77669D01*
X197357Y77579D01*
X197410Y77519D01*
X197448Y77481D01*
X197455Y77466D01*
X197462D01*
X197598Y77369D01*
X197748Y77294D01*
X197905Y77241D01*
X198055Y77204D01*
X198197Y77181D01*
X198258Y77174D01*
X198302D01*
X198347Y77166D01*
X198378D01*
X198400D01*
X198407D01*
X198633Y77181D01*
X198820Y77211D01*
X198985Y77264D01*
X199120Y77316D01*
X199232Y77369D01*
X199270Y77399D01*
X199308Y77421D01*
X199330Y77436D01*
X199353Y77451D01*
X199360Y77466D01*
X199367D01*
X199427Y77519D01*
X199472Y77579D01*
X199555Y77699D01*
X199615Y77819D01*
X199653Y77939D01*
X199682Y78036D01*
X199690Y78111D01*
X199697Y78141D01*
Y78186D01*
X199690Y78269D01*
X199682Y78344D01*
X199645Y78486D01*
X199592Y78606D01*
X199532Y78711D01*
X199472Y78801D01*
X199420Y78861D01*
X199382Y78899D01*
X199367Y78914D01*
X199232Y79011D01*
X199083Y79086D01*
X198917Y79131D01*
X198767Y79169D01*
X198633Y79191D01*
X198573Y79199D01*
X198520D01*
X198475Y79206D01*
D02*
G37*
G36*
X199293Y74354D02*
X199262D01*
X199255D01*
X199172Y74346D01*
X199098Y74324D01*
X199030Y74286D01*
X198970Y74249D01*
X198925Y74211D01*
X198895Y74174D01*
X198872Y74151D01*
X198865Y74144D01*
X198828Y74076D01*
X198798Y73986D01*
X198767Y73889D01*
X198738Y73791D01*
X198715Y73694D01*
X198693Y73619D01*
X198685Y73589D01*
Y73566D01*
X198678Y73551D01*
Y73544D01*
X198640Y73379D01*
X198610Y73244D01*
X198580Y73124D01*
X198557Y73026D01*
X198535Y72951D01*
X198520Y72899D01*
X198505Y72869D01*
Y72861D01*
X198730D01*
X198865D01*
X198977Y72869D01*
X199067Y72876D01*
X199143Y72884D01*
X199195Y72891D01*
X199232Y72899D01*
X199255Y72906D01*
X199262D01*
X199337Y72936D01*
X199413Y72974D01*
X199472Y73019D01*
X199525Y73064D01*
X199563Y73101D01*
X199600Y73139D01*
X199615Y73161D01*
X199622Y73169D01*
X199690Y73274D01*
X199735Y73379D01*
X199773Y73476D01*
X199795Y73559D01*
X199810Y73634D01*
X199818Y73694D01*
Y73746D01*
X199810Y73844D01*
X199795Y73926D01*
X199765Y74001D01*
X199735Y74061D01*
X199705Y74114D01*
X199675Y74151D01*
X199660Y74174D01*
X199653Y74181D01*
X199585Y74241D01*
X199518Y74279D01*
X199458Y74309D01*
X199390Y74331D01*
X199337Y74346D01*
X199293Y74354D01*
D02*
G37*
G36*
X198438Y69801D02*
X198392D01*
X198355D01*
X198333D01*
X198325D01*
X198108Y69786D01*
X197913Y69756D01*
X197755Y69719D01*
X197620Y69666D01*
X197522Y69621D01*
X197448Y69576D01*
X197403Y69546D01*
X197388Y69539D01*
X197283Y69434D01*
X197207Y69321D01*
X197148Y69216D01*
X197110Y69111D01*
X197088Y69021D01*
X197080Y68946D01*
X197073Y68916D01*
Y68804D01*
X197088Y68736D01*
X197125Y68601D01*
X197178Y68489D01*
X197230Y68391D01*
X197290Y68316D01*
X197343Y68256D01*
X197380Y68226D01*
X197388Y68211D01*
X197395D01*
X197455Y68166D01*
X197530Y68121D01*
X197687Y68061D01*
X197860Y68016D01*
X198032Y67979D01*
X198182Y67964D01*
X198250Y67956D01*
X198310D01*
X198363Y67949D01*
X198400D01*
X198423D01*
X198430D01*
X198550D01*
X198662Y67964D01*
X198760Y67971D01*
X198857Y67994D01*
X198948Y68009D01*
X199022Y68031D01*
X199098Y68061D01*
X199165Y68084D01*
X199217Y68106D01*
X199270Y68136D01*
X199308Y68159D01*
X199345Y68174D01*
X199367Y68196D01*
X199390Y68204D01*
X199398Y68219D01*
X199405D01*
X199465Y68271D01*
X199510Y68324D01*
X199592Y68436D01*
X199645Y68541D01*
X199690Y68646D01*
X199713Y68736D01*
X199720Y68804D01*
X199727Y68834D01*
Y68871D01*
X199720Y68961D01*
X199713Y69044D01*
X199690Y69119D01*
X199660Y69194D01*
X199592Y69321D01*
X199510Y69426D01*
X199435Y69509D01*
X199367Y69569D01*
X199337Y69591D01*
X199315Y69606D01*
X199308Y69621D01*
X199300D01*
X199240Y69651D01*
X199172Y69681D01*
X199022Y69726D01*
X198857Y69756D01*
X198700Y69779D01*
X198557Y69794D01*
X198490D01*
X198438Y69801D01*
D02*
G37*
G36*
X197905Y38901D02*
X197822D01*
X197755D01*
X197703D01*
X197672D01*
X197658D01*
X197470D01*
X197305Y38894D01*
X197148D01*
X196997Y38886D01*
X196870Y38871D01*
X196750Y38864D01*
X196645Y38856D01*
X196547Y38841D01*
X196473Y38834D01*
X196397Y38826D01*
X196337Y38811D01*
X196292Y38804D01*
X196255Y38796D01*
X196232D01*
X196218Y38789D01*
X196210D01*
X196098Y38751D01*
X196000Y38714D01*
X195917Y38676D01*
X195858Y38639D01*
X195812Y38601D01*
X195775Y38571D01*
X195760Y38556D01*
X195753Y38549D01*
X195707Y38489D01*
X195677Y38429D01*
X195648Y38369D01*
X195633Y38309D01*
X195625Y38264D01*
X195617Y38226D01*
Y38189D01*
X195625Y38114D01*
X195640Y38046D01*
X195662Y37986D01*
X195685Y37934D01*
X195707Y37896D01*
X195730Y37866D01*
X195745Y37844D01*
X195753Y37836D01*
X195812Y37776D01*
X195887Y37731D01*
X195970Y37686D01*
X196053Y37649D01*
X196135Y37619D01*
X196203Y37589D01*
X196247Y37581D01*
X196255Y37574D01*
X196263D01*
X196337Y37559D01*
X196428Y37536D01*
X196532Y37521D01*
X196637Y37514D01*
X196870Y37491D01*
X197102Y37484D01*
X197207Y37476D01*
X197312D01*
X197410Y37469D01*
X197493D01*
X197560D01*
X197613D01*
X197643D01*
X197658D01*
X197845D01*
X198010Y37476D01*
X198168D01*
X198310Y37484D01*
X198445Y37499D01*
X198565Y37506D01*
X198670Y37514D01*
X198760Y37529D01*
X198843Y37536D01*
X198917Y37551D01*
X198977Y37559D01*
X199022Y37566D01*
X199060Y37574D01*
X199083Y37581D01*
X199098Y37589D01*
X199105D01*
X199217Y37626D01*
X199315Y37664D01*
X199398Y37701D01*
X199458Y37739D01*
X199503Y37776D01*
X199540Y37806D01*
X199555Y37821D01*
X199563Y37829D01*
X199608Y37889D01*
X199637Y37949D01*
X199660Y38009D01*
X199675Y38069D01*
X199682Y38114D01*
X199690Y38151D01*
Y38189D01*
X199682Y38264D01*
X199668Y38331D01*
X199653Y38391D01*
X199630Y38444D01*
X199608Y38489D01*
X199585Y38519D01*
X199577Y38541D01*
X199570Y38549D01*
X199510Y38601D01*
X199435Y38654D01*
X199353Y38699D01*
X199270Y38729D01*
X199188Y38759D01*
X199120Y38781D01*
X199075Y38796D01*
X199067Y38804D01*
X199060D01*
X198977Y38819D01*
X198888Y38834D01*
X198790Y38849D01*
X198678Y38856D01*
X198445Y38879D01*
X198213Y38886D01*
X198108Y38894D01*
X198003D01*
X197905Y38901D01*
D02*
G37*
%LPD*%
D10*
X204724Y314961D02*
X204724Y0D01*
X0Y314961D02*
X204724D01*
X0Y0D02*
Y314961D01*
Y0D02*
X204724D01*
D11*
X0D02*
X204724D01*
D17*
X172700Y86500D02*
D03*
Y71500D02*
D03*
Y56500D02*
D03*
Y101500D02*
D03*
D18*
Y41500D02*
D03*
D19*
X125984Y294213D02*
D03*
X135984D02*
D03*
X125984Y304213D02*
D03*
X115984D02*
D03*
Y294213D02*
D03*
D20*
X135984Y304213D02*
D03*
D21*
X173266Y279347D02*
D03*
D22*
X25591Y178166D02*
D03*
Y136434D02*
D03*
D23*
X53150Y167142D02*
D03*
Y157300D02*
D03*
Y147458D02*
D03*
D24*
X38386Y48048D02*
D03*
X12795D02*
D03*
Y30332D02*
D03*
X38386D02*
D03*
Y107103D02*
D03*
X12795D02*
D03*
Y89387D02*
D03*
X38386D02*
D03*
Y225213D02*
D03*
X12795D02*
D03*
Y207497D02*
D03*
X38386D02*
D03*
Y284268D02*
D03*
X12795D02*
D03*
Y266552D02*
D03*
X38386D02*
D03*
D25*
X194324Y304938D02*
D03*
X72276Y9662D02*
D03*
Y304938D02*
D03*
X194324Y9662D02*
D03*
D26*
Y224938D02*
D03*
Y144938D02*
D03*
Y154938D02*
D03*
Y164938D02*
D03*
Y174938D02*
D03*
Y184938D02*
D03*
Y194938D02*
D03*
Y204938D02*
D03*
Y214938D02*
D03*
Y234938D02*
D03*
Y244938D02*
D03*
Y254938D02*
D03*
Y264938D02*
D03*
Y274938D02*
D03*
Y134938D02*
D03*
D27*
Y284938D02*
D03*
D71*
X58600Y127063D02*
D03*
D73*
X130600Y169200D02*
D03*
Y175200D02*
D03*
X137500Y107100D02*
D03*
Y101100D02*
D03*
X124139Y233800D02*
D03*
Y239800D02*
D03*
X92400Y200500D02*
D03*
Y194500D02*
D03*
X111278Y226800D02*
D03*
Y220800D02*
D03*
X132100Y107100D02*
D03*
Y101100D02*
D03*
X136084Y215000D02*
D03*
Y221000D02*
D03*
X130000Y215000D02*
D03*
Y221000D02*
D03*
X136084Y226222D02*
D03*
Y232222D02*
D03*
X131700Y116600D02*
D03*
Y122600D02*
D03*
X125984Y141800D02*
D03*
Y147800D02*
D03*
X105900Y87800D02*
D03*
Y81800D02*
D03*
X126500Y107200D02*
D03*
Y101200D02*
D03*
X121200Y107200D02*
D03*
Y101200D02*
D03*
X115800Y107200D02*
D03*
Y101200D02*
D03*
X184500Y259700D02*
D03*
Y265700D02*
D03*
X97500Y188885D02*
D03*
Y182885D02*
D03*
X146800Y44400D02*
D03*
Y38400D02*
D03*
X52400Y106400D02*
D03*
Y100400D02*
D03*
X52000Y225213D02*
D03*
Y219213D02*
D03*
Y284268D02*
D03*
Y278269D02*
D03*
X52400Y48300D02*
D03*
Y42300D02*
D03*
X53200Y186500D02*
D03*
Y192500D02*
D03*
X46300Y284300D02*
D03*
Y278300D02*
D03*
Y106500D02*
D03*
Y100500D02*
D03*
Y225300D02*
D03*
Y219300D02*
D03*
Y48300D02*
D03*
Y42300D02*
D03*
X89200Y88100D02*
D03*
Y82100D02*
D03*
X94600Y88000D02*
D03*
Y82000D02*
D03*
X100100Y87900D02*
D03*
Y81900D02*
D03*
X71800Y236300D02*
D03*
Y242300D02*
D03*
X70800Y166600D02*
D03*
Y160600D02*
D03*
X76300Y164400D02*
D03*
Y170400D02*
D03*
X143241Y141300D02*
D03*
Y147300D02*
D03*
X137741Y147200D02*
D03*
Y141200D02*
D03*
D74*
X160837Y127900D02*
D03*
X147845D02*
D03*
D75*
X161200Y101192D02*
D03*
Y88200D02*
D03*
X168841Y131196D02*
D03*
Y118204D02*
D03*
D76*
X66300Y127000D02*
D03*
X76300Y132000D02*
D03*
X66300Y137000D02*
D03*
X76300Y142000D02*
D03*
X66300Y147000D02*
D03*
D77*
X124139Y209042D02*
D03*
X121580D02*
D03*
X119020D02*
D03*
X121580Y226758D02*
D03*
X124139D02*
D03*
X116461Y209042D02*
D03*
X119020Y226758D02*
D03*
D78*
X116461D02*
D03*
D79*
X139960Y183071D02*
D03*
X147440D02*
D03*
X143700Y191929D02*
D03*
D80*
X149420Y140060D02*
D03*
D81*
Y143800D02*
D03*
Y147540D02*
D03*
X159262D02*
D03*
Y140060D02*
D03*
Y143800D02*
D03*
D82*
X108700Y200500D02*
D03*
X102700D02*
D03*
X119000Y175000D02*
D03*
X125000D02*
D03*
X110500Y182800D02*
D03*
X104500D02*
D03*
X102633Y194400D02*
D03*
X108633D02*
D03*
X102600Y188900D02*
D03*
X108600D02*
D03*
X176900Y234938D02*
D03*
X182900D02*
D03*
X176900Y249700D02*
D03*
X182900D02*
D03*
X176900Y164500D02*
D03*
X182900D02*
D03*
X176900Y174800D02*
D03*
X182900D02*
D03*
X176900Y155700D02*
D03*
X182900D02*
D03*
X176900Y184872D02*
D03*
X182900D02*
D03*
X133200Y39000D02*
D03*
X127200D02*
D03*
X86300Y182776D02*
D03*
X92300D02*
D03*
X110400Y30332D02*
D03*
X104400D02*
D03*
X110500Y35800D02*
D03*
X104500D02*
D03*
X133094Y44500D02*
D03*
X127094D02*
D03*
X115800Y182700D02*
D03*
X121800D02*
D03*
X93300Y133200D02*
D03*
X87300D02*
D03*
X149541Y134300D02*
D03*
X155541D02*
D03*
D83*
X124139Y245200D02*
D03*
X126400Y182900D02*
D03*
X141165Y111100D02*
D03*
D84*
X90673Y174282D02*
D03*
D85*
X92642D02*
D03*
X94610D02*
D03*
X96579D02*
D03*
X98547D02*
D03*
X100516D02*
D03*
X102484D02*
D03*
X104453D02*
D03*
X106421D02*
D03*
X108390D02*
D03*
X110358D02*
D03*
X112327D02*
D03*
X90673Y140918D02*
D03*
X92642D02*
D03*
X94610D02*
D03*
X96579D02*
D03*
X98547D02*
D03*
X100516D02*
D03*
X102484D02*
D03*
X104453D02*
D03*
X106421D02*
D03*
X108390D02*
D03*
X110358D02*
D03*
X112327D02*
D03*
D86*
X118182Y168427D02*
D03*
Y166458D02*
D03*
Y164490D02*
D03*
Y162521D02*
D03*
Y160553D02*
D03*
Y158584D02*
D03*
Y156616D02*
D03*
Y154647D02*
D03*
Y152679D02*
D03*
Y150710D02*
D03*
Y148742D02*
D03*
Y146773D02*
D03*
X84818D02*
D03*
Y148742D02*
D03*
Y150710D02*
D03*
Y152679D02*
D03*
Y154647D02*
D03*
Y156616D02*
D03*
Y158584D02*
D03*
Y160553D02*
D03*
Y162521D02*
D03*
Y164490D02*
D03*
Y166458D02*
D03*
Y168427D02*
D03*
D87*
X152913Y99100D02*
D03*
X144055Y95360D02*
D03*
Y102840D02*
D03*
D88*
X113456Y77500D02*
D03*
Y50800D02*
D03*
D89*
X113456Y82500D02*
D03*
Y87500D02*
D03*
Y92500D02*
D03*
X132944Y77500D02*
D03*
Y82500D02*
D03*
Y87500D02*
D03*
X132944Y92500D02*
D03*
X113456Y55800D02*
D03*
Y60800D02*
D03*
Y65800D02*
D03*
X132944Y50800D02*
D03*
Y55800D02*
D03*
Y60800D02*
D03*
X132944Y65800D02*
D03*
D90*
X143600Y88440D02*
D03*
Y80960D02*
D03*
D91*
X132600Y183100D02*
D03*
Y190187D02*
D03*
D92*
X143897Y198800D02*
D03*
X150984D02*
D03*
D93*
X158221Y53800D02*
D03*
X147000D02*
D03*
X158221Y62400D02*
D03*
X147000D02*
D03*
D94*
X160841Y115900D02*
D03*
X149817D02*
D03*
D95*
X168941Y149221D02*
D03*
Y138000D02*
D03*
X141241Y127900D02*
D03*
Y116680D02*
D03*
M02*
