G04*
G04 #@! TF.GenerationSoftware,Altium Limited,Altium Designer,19.0.14 (431)*
G04*
G04 Layer_Color=8388736*
%FSLAX25Y25*%
%MOIN*%
G70*
G01*
G75*
%ADD10C,0.01000*%
%ADD11C,0.00700*%
%ADD12R,0.03550X0.03550*%
%ADD13R,0.07087X0.07480*%
%ADD14R,0.07480X0.07480*%
%ADD15R,0.08268X0.06299*%
%ADD16R,0.01575X0.05315*%
%ADD17C,0.10243*%
%ADD18R,0.10243X0.10243*%
%ADD19C,0.07093*%
%ADD20R,0.07093X0.07093*%
%ADD21C,0.06400*%
%ADD22O,0.16148X0.12211*%
%ADD23O,0.10243X0.08274*%
%ADD24C,0.08274*%
%ADD25C,0.20085*%
%ADD26C,0.07900*%
%ADD27R,0.08400X0.08400*%
D10*
X204724Y314961D02*
X204724Y0D01*
X0Y314961D02*
X204724D01*
X0Y0D02*
Y314961D01*
Y0D02*
X204724D01*
D11*
X0D02*
X204724D01*
D12*
X31448Y305800D02*
D03*
X24952D02*
D03*
D13*
X113015Y6200D02*
D03*
X142936D02*
D03*
D14*
X123251D02*
D03*
X132700D02*
D03*
D15*
X115771Y16239D02*
D03*
X140180D02*
D03*
D16*
X122857Y16732D02*
D03*
X125417D02*
D03*
X127976D02*
D03*
X130535D02*
D03*
X133094D02*
D03*
D17*
X172700Y86500D02*
D03*
Y71500D02*
D03*
Y56500D02*
D03*
Y101500D02*
D03*
D18*
Y41500D02*
D03*
D19*
X125984Y294213D02*
D03*
X135984D02*
D03*
X125984Y304213D02*
D03*
X115984D02*
D03*
Y294213D02*
D03*
D20*
X135984Y304213D02*
D03*
D21*
X173266Y279347D02*
D03*
D22*
X25591Y178166D02*
D03*
Y136434D02*
D03*
D23*
X53150Y167142D02*
D03*
Y157300D02*
D03*
Y147458D02*
D03*
D24*
X38386Y48048D02*
D03*
X12795D02*
D03*
Y30332D02*
D03*
X38386D02*
D03*
Y107103D02*
D03*
X12795D02*
D03*
Y89387D02*
D03*
X38386D02*
D03*
Y225213D02*
D03*
X12795D02*
D03*
Y207497D02*
D03*
X38386D02*
D03*
Y284268D02*
D03*
X12795D02*
D03*
Y266552D02*
D03*
X38386D02*
D03*
D25*
X194324Y304938D02*
D03*
X72276Y9662D02*
D03*
Y304938D02*
D03*
X194324Y9662D02*
D03*
D26*
Y224938D02*
D03*
Y144938D02*
D03*
Y154938D02*
D03*
Y164938D02*
D03*
Y174938D02*
D03*
Y184938D02*
D03*
Y194938D02*
D03*
Y204938D02*
D03*
Y214938D02*
D03*
Y234938D02*
D03*
Y244938D02*
D03*
Y254938D02*
D03*
Y264938D02*
D03*
Y274938D02*
D03*
Y134938D02*
D03*
D27*
Y284938D02*
D03*
M02*
