G04*
G04 #@! TF.GenerationSoftware,Altium Limited,Altium Designer,19.0.14 (431)*
G04*
G04 Layer_Physical_Order=1*
G04 Layer_Color=152*
%FSLAX25Y25*%
%MOIN*%
G70*
G01*
G75*
%ADD10C,0.01000*%
%ADD11C,0.00700*%
%ADD13R,0.07087X0.07480*%
%ADD14R,0.07480X0.07480*%
%ADD15R,0.08268X0.06299*%
%ADD16R,0.01575X0.05315*%
%ADD28R,0.03150X0.03150*%
%ADD29C,0.06000*%
%ADD30C,0.01200*%
%ADD31C,0.02000*%
%ADD32C,0.01500*%
%ADD33R,0.53130X0.10100*%
%ADD34C,0.09843*%
%ADD35R,0.09843X0.09843*%
%ADD36C,0.06693*%
%ADD37R,0.06693X0.06693*%
%ADD38C,0.06000*%
%ADD39O,0.15748X0.11811*%
%ADD40O,0.09843X0.07874*%
%ADD41C,0.07874*%
%ADD42C,0.19685*%
%ADD43C,0.07500*%
%ADD44R,0.08000X0.08000*%
%ADD45C,0.02559*%
G36*
X189304Y314461D02*
X187990Y313655D01*
X186704Y312557D01*
X185606Y311272D01*
X184722Y309830D01*
X184075Y308268D01*
X183680Y306624D01*
X183548Y304938D01*
X183680Y303252D01*
X184075Y301608D01*
X184722Y300046D01*
X185606Y298604D01*
X186704Y297318D01*
X187990Y296220D01*
X189432Y295337D01*
X190994Y294689D01*
X192638Y294295D01*
X194324Y294162D01*
X196009Y294295D01*
X197653Y294689D01*
X199216Y295337D01*
X200657Y296220D01*
X201943Y297318D01*
X203041Y298604D01*
X203925Y300046D01*
X204224Y300769D01*
X204724Y300669D01*
Y13931D01*
X204224Y13831D01*
X203925Y14554D01*
X203041Y15996D01*
X201943Y17282D01*
X200657Y18380D01*
X199216Y19263D01*
X197653Y19910D01*
X196009Y20305D01*
X194324Y20438D01*
X192638Y20305D01*
X190994Y19910D01*
X189432Y19263D01*
X187990Y18380D01*
X186704Y17282D01*
X185606Y15996D01*
X184722Y14554D01*
X184075Y12992D01*
X183680Y11348D01*
X183548Y9662D01*
X183680Y7976D01*
X184075Y6332D01*
X184722Y4770D01*
X185606Y3328D01*
X186704Y2043D01*
X187990Y944D01*
X188715Y500D01*
X188574Y0D01*
X78026D01*
X77885Y500D01*
X78610Y944D01*
X79896Y2043D01*
X80994Y3328D01*
X81878Y4770D01*
X82525Y6332D01*
X82919Y7976D01*
X83052Y9662D01*
X82919Y11348D01*
X82525Y12992D01*
X81878Y14554D01*
X80994Y15996D01*
X79896Y17282D01*
X78610Y18380D01*
X77169Y19263D01*
X75606Y19910D01*
X73962Y20305D01*
X72276Y20438D01*
X70591Y20305D01*
X68946Y19910D01*
X67384Y19263D01*
X65943Y18380D01*
X64657Y17282D01*
X63559Y15996D01*
X62675Y14554D01*
X62028Y12992D01*
X61633Y11348D01*
X61501Y9662D01*
X61633Y7976D01*
X62028Y6332D01*
X62675Y4770D01*
X63559Y3328D01*
X64657Y2043D01*
X65943Y944D01*
X66668Y500D01*
X66527Y0D01*
X0D01*
X0Y0D01*
Y314961D01*
X67115D01*
X67256Y314461D01*
X65943Y313655D01*
X64657Y312557D01*
X63559Y311272D01*
X62675Y309830D01*
X62028Y308268D01*
X61633Y306624D01*
X61501Y304938D01*
X61633Y303252D01*
X62028Y301608D01*
X62675Y300046D01*
X63559Y298604D01*
X64657Y297318D01*
X65943Y296220D01*
X67384Y295337D01*
X68946Y294689D01*
X70591Y294295D01*
X72276Y294162D01*
X73962Y294295D01*
X75606Y294689D01*
X77169Y295337D01*
X78610Y296220D01*
X79896Y297318D01*
X80994Y298604D01*
X81878Y300046D01*
X82525Y301608D01*
X82919Y303252D01*
X83052Y304938D01*
X82919Y306624D01*
X82525Y308268D01*
X81878Y309830D01*
X80994Y311272D01*
X79896Y312557D01*
X78610Y313655D01*
X77296Y314461D01*
X77437Y314961D01*
X189163D01*
X189304Y314461D01*
D02*
G37*
%LPC*%
G36*
X27327Y308175D02*
X25452D01*
Y306300D01*
X27327D01*
Y308175D01*
D02*
G37*
G36*
X24452D02*
X22577D01*
Y306300D01*
X24452D01*
Y308175D01*
D02*
G37*
G36*
X33923Y308275D02*
X28973D01*
Y303325D01*
X33923D01*
Y303519D01*
X33971Y303545D01*
X34423Y303732D01*
X35200Y303578D01*
X36050Y303747D01*
X36771Y304229D01*
X37253Y304950D01*
X37422Y305800D01*
X37253Y306650D01*
X36771Y307371D01*
X36050Y307853D01*
X35200Y308022D01*
X34423Y307868D01*
X33971Y308055D01*
X33923Y308081D01*
Y308275D01*
D02*
G37*
G36*
X27327Y305300D02*
X25452D01*
Y303425D01*
X27327D01*
Y305300D01*
D02*
G37*
G36*
X24452D02*
X22577D01*
Y303425D01*
X24452D01*
Y305300D01*
D02*
G37*
G36*
X140231Y308459D02*
X131738D01*
Y299966D01*
X140231D01*
Y308459D01*
D02*
G37*
G36*
X125984Y308496D02*
X124876Y308350D01*
X123843Y307922D01*
X122956Y307241D01*
X122275Y306354D01*
X121847Y305321D01*
X121701Y304213D01*
X121847Y303104D01*
X122275Y302071D01*
X122956Y301184D01*
X123843Y300503D01*
X124876Y300076D01*
X125984Y299929D01*
X127093Y300076D01*
X128126Y300503D01*
X129013Y301184D01*
X129693Y302071D01*
X130121Y303104D01*
X130267Y304213D01*
X130121Y305321D01*
X129693Y306354D01*
X129013Y307241D01*
X128126Y307922D01*
X127093Y308350D01*
X125984Y308496D01*
D02*
G37*
G36*
X115984D02*
X114876Y308350D01*
X113843Y307922D01*
X112956Y307241D01*
X112275Y306354D01*
X111847Y305321D01*
X111701Y304213D01*
X111847Y303104D01*
X112275Y302071D01*
X112956Y301184D01*
X113843Y300503D01*
X114876Y300076D01*
X115984Y299929D01*
X117093Y300076D01*
X118126Y300503D01*
X119013Y301184D01*
X119694Y302071D01*
X120121Y303104D01*
X120267Y304213D01*
X120121Y305321D01*
X119694Y306354D01*
X119013Y307241D01*
X118126Y307922D01*
X117093Y308350D01*
X115984Y308496D01*
D02*
G37*
G36*
X116484Y298329D02*
Y294713D01*
X120101D01*
X120024Y295295D01*
X119606Y296304D01*
X118941Y297170D01*
X118075Y297834D01*
X117067Y298252D01*
X116484Y298329D01*
D02*
G37*
G36*
X115484Y298329D02*
X114902Y298252D01*
X113893Y297834D01*
X113027Y297170D01*
X112362Y296304D01*
X111944Y295295D01*
X111868Y294713D01*
X115484D01*
Y298329D01*
D02*
G37*
G36*
X120101Y293713D02*
X116484D01*
Y290096D01*
X117067Y290173D01*
X118075Y290591D01*
X118941Y291255D01*
X119606Y292122D01*
X120024Y293130D01*
X120101Y293713D01*
D02*
G37*
G36*
X115484D02*
X111868D01*
X111944Y293130D01*
X112362Y292122D01*
X113027Y291255D01*
X113893Y290591D01*
X114902Y290173D01*
X115484Y290096D01*
Y293713D01*
D02*
G37*
G36*
X135984Y298496D02*
X134876Y298350D01*
X133843Y297922D01*
X132956Y297241D01*
X132275Y296354D01*
X131847Y295321D01*
X131701Y294213D01*
X131847Y293104D01*
X132275Y292071D01*
X132956Y291184D01*
X133843Y290503D01*
X134876Y290075D01*
X135984Y289930D01*
X137093Y290075D01*
X138126Y290503D01*
X139013Y291184D01*
X139693Y292071D01*
X140121Y293104D01*
X140267Y294213D01*
X140121Y295321D01*
X139693Y296354D01*
X139013Y297241D01*
X138126Y297922D01*
X137093Y298350D01*
X135984Y298496D01*
D02*
G37*
G36*
X125984D02*
X124876Y298350D01*
X123843Y297922D01*
X122956Y297241D01*
X122275Y296354D01*
X121847Y295321D01*
X121701Y294213D01*
X121847Y293104D01*
X122275Y292071D01*
X122956Y291184D01*
X123843Y290503D01*
X124876Y290075D01*
X125984Y289930D01*
X127093Y290075D01*
X128126Y290503D01*
X129013Y291184D01*
X129693Y292071D01*
X130121Y293104D01*
X130267Y294213D01*
X130121Y295321D01*
X129693Y296354D01*
X129013Y297241D01*
X128126Y297922D01*
X127093Y298350D01*
X125984Y298496D01*
D02*
G37*
G36*
X199124Y289738D02*
X194824D01*
Y285438D01*
X199124D01*
Y289738D01*
D02*
G37*
G36*
X193824D02*
X189524D01*
Y285438D01*
X193824D01*
Y289738D01*
D02*
G37*
G36*
X199124Y284438D02*
X194824D01*
Y280138D01*
X199124D01*
Y284438D01*
D02*
G37*
G36*
X193824D02*
X189524D01*
Y280138D01*
X193824D01*
Y284438D01*
D02*
G37*
G36*
X38386Y289147D02*
X37123Y288981D01*
X35946Y288494D01*
X34936Y287718D01*
X34161Y286708D01*
X33673Y285531D01*
X33507Y284268D01*
X33673Y283006D01*
X34161Y281829D01*
X34936Y280819D01*
X35946Y280043D01*
X37123Y279556D01*
X38386Y279390D01*
X39649Y279556D01*
X40825Y280043D01*
X41836Y280819D01*
X42611Y281829D01*
X43098Y283006D01*
X43265Y284268D01*
X43098Y285531D01*
X42611Y286708D01*
X41836Y287718D01*
X40825Y288494D01*
X39649Y288981D01*
X38386Y289147D01*
D02*
G37*
G36*
X12795D02*
X11533Y288981D01*
X10356Y288494D01*
X9346Y287718D01*
X8570Y286708D01*
X8083Y285531D01*
X7916Y284268D01*
X8083Y283006D01*
X8570Y281829D01*
X9346Y280819D01*
X10356Y280043D01*
X11533Y279556D01*
X12795Y279390D01*
X14058Y279556D01*
X15235Y280043D01*
X16245Y280819D01*
X17020Y281829D01*
X17508Y283006D01*
X17674Y284268D01*
X17508Y285531D01*
X17020Y286708D01*
X16245Y287718D01*
X15235Y288494D01*
X14058Y288981D01*
X12795Y289147D01*
D02*
G37*
G36*
X173266Y286186D02*
X171932Y286054D01*
X170649Y285665D01*
X169467Y285033D01*
X168431Y284183D01*
X167580Y283147D01*
X166948Y281964D01*
X166559Y280681D01*
X166428Y279347D01*
X166559Y278013D01*
X166948Y276730D01*
X167580Y275548D01*
X168431Y274512D01*
X169467Y273661D01*
X170649Y273029D01*
X171932Y272640D01*
X173266Y272509D01*
X174600Y272640D01*
X175883Y273029D01*
X177065Y273661D01*
X178102Y274512D01*
X178952Y275548D01*
X179584Y276730D01*
X179973Y278013D01*
X180105Y279347D01*
X179973Y280681D01*
X179584Y281964D01*
X178952Y283147D01*
X178102Y284183D01*
X177065Y285033D01*
X175883Y285665D01*
X174600Y286054D01*
X173266Y286186D01*
D02*
G37*
G36*
X194324Y279628D02*
X193110Y279468D01*
X191979Y278999D01*
X191007Y278254D01*
X190262Y277283D01*
X189793Y276152D01*
X189634Y274938D01*
X189793Y273724D01*
X190262Y272593D01*
X191007Y271621D01*
X191979Y270876D01*
X193110Y270408D01*
X194324Y270248D01*
X195537Y270408D01*
X196669Y270876D01*
X197640Y271621D01*
X198385Y272593D01*
X198854Y273724D01*
X199014Y274938D01*
X198854Y276152D01*
X198385Y277283D01*
X197640Y278254D01*
X196669Y278999D01*
X195537Y279468D01*
X194324Y279628D01*
D02*
G37*
G36*
X13295Y271264D02*
Y267052D01*
X17507D01*
X17410Y267789D01*
X16933Y268941D01*
X16174Y269931D01*
X15184Y270690D01*
X14032Y271167D01*
X13295Y271264D01*
D02*
G37*
G36*
X12295D02*
X11559Y271167D01*
X10406Y270690D01*
X9417Y269931D01*
X8658Y268941D01*
X8180Y267789D01*
X8083Y267052D01*
X12295D01*
Y271264D01*
D02*
G37*
G36*
X38886D02*
Y267052D01*
X43098D01*
X43001Y267789D01*
X42524Y268941D01*
X41764Y269931D01*
X40775Y270690D01*
X39622Y271167D01*
X38886Y271264D01*
D02*
G37*
G36*
X37886Y271264D02*
X37149Y271167D01*
X35997Y270690D01*
X35007Y269931D01*
X34248Y268941D01*
X33771Y267789D01*
X33674Y267052D01*
X37886D01*
Y271264D01*
D02*
G37*
G36*
X43098Y266052D02*
X38886D01*
Y261840D01*
X39622Y261937D01*
X40775Y262414D01*
X41764Y263174D01*
X42524Y264163D01*
X43001Y265315D01*
X43098Y266052D01*
D02*
G37*
G36*
X17507Y266052D02*
X13295D01*
Y261840D01*
X14032Y261937D01*
X15184Y262414D01*
X16174Y263174D01*
X16933Y264163D01*
X17410Y265315D01*
X17507Y266052D01*
D02*
G37*
G36*
X12295D02*
X8083D01*
X8180Y265315D01*
X8658Y264163D01*
X9417Y263174D01*
X10406Y262414D01*
X11559Y261937D01*
X12295Y261840D01*
Y266052D01*
D02*
G37*
G36*
X37886Y266052D02*
X33674D01*
X33771Y265315D01*
X34248Y264163D01*
X35007Y263174D01*
X35997Y262414D01*
X37149Y261937D01*
X37886Y261840D01*
Y266052D01*
D02*
G37*
G36*
X194324Y269628D02*
X193110Y269468D01*
X191979Y269000D01*
X191007Y268254D01*
X190262Y267283D01*
X189793Y266152D01*
X189634Y264938D01*
X189793Y263724D01*
X190262Y262593D01*
X191007Y261621D01*
X191979Y260876D01*
X193110Y260407D01*
X194324Y260248D01*
X195537Y260407D01*
X196669Y260876D01*
X197640Y261621D01*
X198385Y262593D01*
X198854Y263724D01*
X199014Y264938D01*
X198854Y266152D01*
X198385Y267283D01*
X197640Y268254D01*
X196669Y269000D01*
X195537Y269468D01*
X194324Y269628D01*
D02*
G37*
G36*
X182800Y256122D02*
X181950Y255953D01*
X181229Y255471D01*
X181201Y255429D01*
X174799D01*
X174771Y255471D01*
X174050Y255953D01*
X173200Y256122D01*
X172350Y255953D01*
X171629Y255471D01*
X171147Y254750D01*
X170978Y253900D01*
X171147Y253050D01*
X171629Y252329D01*
X172350Y251847D01*
X173200Y251678D01*
X174050Y251847D01*
X174771Y252329D01*
X174799Y252371D01*
X181201D01*
X181229Y252329D01*
X181950Y251847D01*
X182800Y251678D01*
X183650Y251847D01*
X184371Y252329D01*
X184853Y253050D01*
X185022Y253900D01*
X184853Y254750D01*
X184371Y255471D01*
X183650Y255953D01*
X182800Y256122D01*
D02*
G37*
G36*
X194324Y259628D02*
X193110Y259468D01*
X191979Y258999D01*
X191007Y258254D01*
X190262Y257283D01*
X189793Y256152D01*
X189634Y254938D01*
X189793Y253724D01*
X190262Y252593D01*
X191007Y251621D01*
X191979Y250876D01*
X193110Y250408D01*
X194324Y250248D01*
X195537Y250408D01*
X196669Y250876D01*
X197640Y251621D01*
X198385Y252593D01*
X198854Y253724D01*
X199014Y254938D01*
X198854Y256152D01*
X198385Y257283D01*
X197640Y258254D01*
X196669Y258999D01*
X195537Y259468D01*
X194324Y259628D01*
D02*
G37*
G36*
X194824Y249461D02*
Y245438D01*
X198847D01*
X198757Y246126D01*
X198298Y247232D01*
X197569Y248183D01*
X196618Y248912D01*
X195511Y249371D01*
X194824Y249461D01*
D02*
G37*
G36*
X193824Y249461D02*
X193136Y249371D01*
X192029Y248912D01*
X191078Y248183D01*
X190349Y247232D01*
X189891Y246126D01*
X189800Y245438D01*
X193824D01*
Y249461D01*
D02*
G37*
G36*
X198847Y244438D02*
X194824D01*
Y240414D01*
X195511Y240505D01*
X196618Y240963D01*
X197569Y241693D01*
X198298Y242643D01*
X198757Y243750D01*
X198847Y244438D01*
D02*
G37*
G36*
X193824D02*
X189800D01*
X189891Y243750D01*
X190349Y242643D01*
X191078Y241693D01*
X192029Y240963D01*
X193136Y240505D01*
X193824Y240414D01*
Y244438D01*
D02*
G37*
G36*
X194324Y239628D02*
X193110Y239468D01*
X191979Y239000D01*
X191007Y238254D01*
X190262Y237283D01*
X189924Y236467D01*
X174437D01*
X174409Y236509D01*
X173688Y236991D01*
X172838Y237160D01*
X171987Y236991D01*
X171266Y236509D01*
X170785Y235788D01*
X170616Y234938D01*
X170785Y234087D01*
X171266Y233366D01*
X171987Y232885D01*
X172838Y232716D01*
X173688Y232885D01*
X174409Y233366D01*
X174437Y233408D01*
X189924D01*
X190262Y232593D01*
X191007Y231621D01*
X191979Y230876D01*
X193110Y230408D01*
X194324Y230248D01*
X195537Y230408D01*
X196669Y230876D01*
X197640Y231621D01*
X198385Y232593D01*
X198854Y233724D01*
X199014Y234938D01*
X198854Y236152D01*
X198385Y237283D01*
X197640Y238254D01*
X196669Y239000D01*
X195537Y239468D01*
X194324Y239628D01*
D02*
G37*
G36*
X130856Y240722D02*
X130006Y240553D01*
X129285Y240071D01*
X128803Y239350D01*
X128634Y238500D01*
X128803Y237650D01*
X129285Y236929D01*
X130006Y236447D01*
X130856Y236278D01*
X131706Y236447D01*
X132427Y236929D01*
X132490Y237023D01*
X149099D01*
X149229Y236829D01*
X149950Y236347D01*
X150800Y236178D01*
X151650Y236347D01*
X152371Y236829D01*
X152853Y237550D01*
X153022Y238400D01*
X152853Y239250D01*
X152371Y239971D01*
X151650Y240453D01*
X150800Y240622D01*
X149950Y240453D01*
X149229Y239971D01*
X149166Y239877D01*
X132557D01*
X132427Y240071D01*
X131706Y240553D01*
X130856Y240722D01*
D02*
G37*
G36*
X38386Y230092D02*
X37123Y229926D01*
X35946Y229438D01*
X34936Y228663D01*
X34161Y227653D01*
X33673Y226476D01*
X33507Y225213D01*
X33673Y223951D01*
X34161Y222774D01*
X34936Y221764D01*
X35946Y220988D01*
X37123Y220501D01*
X38386Y220335D01*
X39649Y220501D01*
X40825Y220988D01*
X41836Y221764D01*
X42611Y222774D01*
X43098Y223951D01*
X43265Y225213D01*
X43098Y226476D01*
X42611Y227653D01*
X41836Y228663D01*
X40825Y229438D01*
X39649Y229926D01*
X38386Y230092D01*
D02*
G37*
G36*
X12795D02*
X11533Y229926D01*
X10356Y229438D01*
X9346Y228663D01*
X8570Y227653D01*
X8083Y226476D01*
X7916Y225213D01*
X8083Y223951D01*
X8570Y222774D01*
X9346Y221764D01*
X10356Y220988D01*
X11533Y220501D01*
X12795Y220335D01*
X14058Y220501D01*
X15235Y220988D01*
X16245Y221764D01*
X17020Y222774D01*
X17508Y223951D01*
X17674Y225213D01*
X17508Y226476D01*
X17020Y227653D01*
X16245Y228663D01*
X15235Y229438D01*
X14058Y229926D01*
X12795Y230092D01*
D02*
G37*
G36*
X194324Y229628D02*
X193110Y229468D01*
X191979Y228999D01*
X191007Y228254D01*
X190262Y227283D01*
X189793Y226152D01*
X189634Y224938D01*
X189793Y223724D01*
X190262Y222593D01*
X191007Y221621D01*
X191979Y220876D01*
X193110Y220408D01*
X194324Y220248D01*
X195537Y220408D01*
X196669Y220876D01*
X197640Y221621D01*
X198385Y222593D01*
X198854Y223724D01*
X199014Y224938D01*
X198854Y226152D01*
X198385Y227283D01*
X197640Y228254D01*
X196669Y228999D01*
X195537Y229468D01*
X194324Y229628D01*
D02*
G37*
G36*
X104600Y216322D02*
X103750Y216153D01*
X103029Y215671D01*
X103001Y215629D01*
X100027D01*
X99999Y215671D01*
X99278Y216153D01*
X98427Y216322D01*
X97577Y216153D01*
X96856Y215671D01*
X96374Y214950D01*
X96205Y214100D01*
X96374Y213250D01*
X96856Y212529D01*
X97577Y212047D01*
X98427Y211878D01*
X99278Y212047D01*
X99999Y212529D01*
X100027Y212571D01*
X103001D01*
X103029Y212529D01*
X103750Y212047D01*
X104600Y211878D01*
X105450Y212047D01*
X106171Y212529D01*
X106653Y213250D01*
X106822Y214100D01*
X106653Y214950D01*
X106171Y215671D01*
X105450Y216153D01*
X104600Y216322D01*
D02*
G37*
G36*
X52100Y237022D02*
X51250Y236853D01*
X50529Y236371D01*
X50047Y235650D01*
X49878Y234800D01*
X50047Y233950D01*
X50529Y233229D01*
X50673Y233133D01*
Y215267D01*
X50529Y215171D01*
X50047Y214450D01*
X49878Y213600D01*
X50047Y212750D01*
X50529Y212029D01*
X51250Y211547D01*
X52100Y211378D01*
X52950Y211547D01*
X53671Y212029D01*
X54153Y212750D01*
X54322Y213600D01*
X54153Y214450D01*
X53671Y215171D01*
X53527Y215267D01*
Y233133D01*
X53671Y233229D01*
X54153Y233950D01*
X54322Y234800D01*
X54153Y235650D01*
X53671Y236371D01*
X52950Y236853D01*
X52100Y237022D01*
D02*
G37*
G36*
X194324Y219628D02*
X193110Y219468D01*
X191979Y219000D01*
X191007Y218254D01*
X190262Y217283D01*
X189793Y216152D01*
X189634Y214938D01*
X189793Y213724D01*
X190262Y212593D01*
X191007Y211621D01*
X191979Y210876D01*
X193110Y210407D01*
X194324Y210248D01*
X195537Y210407D01*
X196669Y210876D01*
X197640Y211621D01*
X198385Y212593D01*
X198854Y213724D01*
X199014Y214938D01*
X198854Y216152D01*
X198385Y217283D01*
X197640Y218254D01*
X196669Y219000D01*
X195537Y219468D01*
X194324Y219628D01*
D02*
G37*
G36*
X13295Y212209D02*
Y207997D01*
X17507D01*
X17410Y208734D01*
X16933Y209886D01*
X16174Y210875D01*
X15184Y211635D01*
X14032Y212112D01*
X13295Y212209D01*
D02*
G37*
G36*
X12295D02*
X11559Y212112D01*
X10406Y211635D01*
X9417Y210875D01*
X8658Y209886D01*
X8180Y208734D01*
X8083Y207997D01*
X12295D01*
Y212209D01*
D02*
G37*
G36*
X38886D02*
Y207997D01*
X43098D01*
X43001Y208734D01*
X42524Y209886D01*
X41764Y210875D01*
X40775Y211635D01*
X39622Y212112D01*
X38886Y212209D01*
D02*
G37*
G36*
X37886Y212209D02*
X37149Y212112D01*
X35997Y211635D01*
X35007Y210875D01*
X34248Y209886D01*
X33771Y208734D01*
X33674Y207997D01*
X37886D01*
Y212209D01*
D02*
G37*
G36*
X127700Y207022D02*
X126850Y206853D01*
X126129Y206371D01*
X125647Y205650D01*
X125498Y204903D01*
X124900Y205022D01*
X124050Y204853D01*
X123668Y204598D01*
X123151Y204471D01*
X122430Y204953D01*
X121580Y205122D01*
X120729Y204953D01*
X120008Y204471D01*
X119527Y203750D01*
X119439Y203310D01*
X119020Y202902D01*
X118170Y202733D01*
X117449Y202251D01*
X116967Y201530D01*
X116798Y200679D01*
X116967Y199829D01*
X117449Y199108D01*
X118170Y198626D01*
X118473Y198566D01*
Y171391D01*
X115809Y168727D01*
X112968D01*
X112871Y168871D01*
X112150Y169353D01*
X111300Y169522D01*
X110450Y169353D01*
X109729Y168871D01*
X109247Y168150D01*
X109078Y167300D01*
X109247Y166450D01*
X109729Y165729D01*
X110450Y165247D01*
X111300Y165078D01*
X111928Y165203D01*
X112345Y164850D01*
X112361Y164818D01*
X112278Y164400D01*
X112447Y163550D01*
X112929Y162829D01*
X113650Y162347D01*
X114500Y162178D01*
X115350Y162347D01*
X116071Y162829D01*
X116167Y162973D01*
X118800D01*
X118800Y162973D01*
X119346Y163081D01*
X119809Y163391D01*
X121256Y164837D01*
X121694Y164655D01*
X121710Y164183D01*
X121574Y164093D01*
X121092Y163372D01*
X120923Y162521D01*
X121092Y161671D01*
X121574Y160950D01*
X122294Y160468D01*
X123145Y160299D01*
X123995Y160468D01*
X124716Y160950D01*
X125198Y161671D01*
X125367Y162521D01*
X125198Y163372D01*
X124716Y164093D01*
X124572Y164189D01*
Y168005D01*
X125072Y168273D01*
X125560Y167947D01*
X126410Y167778D01*
X127261Y167947D01*
X127982Y168429D01*
X128463Y169150D01*
X128632Y170000D01*
X128463Y170850D01*
X127982Y171571D01*
X127261Y172053D01*
X126651Y172174D01*
X126337Y172488D01*
Y197119D01*
X128709Y199491D01*
X128709Y199491D01*
X129019Y199954D01*
X129127Y200500D01*
Y203133D01*
X129271Y203229D01*
X129753Y203950D01*
X129922Y204800D01*
X129753Y205650D01*
X129271Y206371D01*
X128550Y206853D01*
X127700Y207022D01*
D02*
G37*
G36*
X43098Y206997D02*
X38886D01*
Y202785D01*
X39622Y202882D01*
X40775Y203359D01*
X41764Y204118D01*
X42524Y205108D01*
X43001Y206260D01*
X43098Y206997D01*
D02*
G37*
G36*
X17507Y206997D02*
X13295D01*
Y202785D01*
X14032Y202882D01*
X15184Y203359D01*
X16174Y204118D01*
X16933Y205108D01*
X17410Y206260D01*
X17507Y206997D01*
D02*
G37*
G36*
X12295D02*
X8083D01*
X8180Y206260D01*
X8658Y205108D01*
X9417Y204118D01*
X10406Y203359D01*
X11559Y202882D01*
X12295Y202785D01*
Y206997D01*
D02*
G37*
G36*
X37886Y206997D02*
X33674D01*
X33771Y206260D01*
X34248Y205108D01*
X35007Y204118D01*
X35997Y203359D01*
X37149Y202882D01*
X37886Y202785D01*
Y206997D01*
D02*
G37*
G36*
X52100Y202138D02*
X51250Y201969D01*
X50529Y201487D01*
X50432Y201343D01*
X46916D01*
X46916Y201343D01*
X46369Y201235D01*
X45906Y200925D01*
X45906Y200925D01*
X41891Y196909D01*
X41581Y196446D01*
X41473Y195900D01*
X41473Y195900D01*
Y153787D01*
X41047Y153150D01*
X40878Y152300D01*
X41047Y151450D01*
X41529Y150729D01*
X42250Y150247D01*
X43100Y150078D01*
X43950Y150247D01*
X44671Y150729D01*
X45153Y151450D01*
X45322Y152300D01*
X45153Y153150D01*
X44671Y153871D01*
X44327Y154101D01*
Y195309D01*
X47507Y198488D01*
X50432D01*
X50529Y198344D01*
X51250Y197863D01*
X52100Y197694D01*
X52950Y197863D01*
X53671Y198344D01*
X54153Y199065D01*
X54322Y199916D01*
X54153Y200766D01*
X53671Y201487D01*
X52950Y201969D01*
X52100Y202138D01*
D02*
G37*
G36*
X194324Y209628D02*
X193110Y209468D01*
X191979Y208999D01*
X191007Y208254D01*
X190262Y207283D01*
X189793Y206152D01*
X189634Y204938D01*
X189793Y203724D01*
X190262Y202593D01*
X191007Y201621D01*
X191979Y200876D01*
X193110Y200408D01*
X194324Y200248D01*
X195537Y200408D01*
X196669Y200876D01*
X197640Y201621D01*
X198385Y202593D01*
X198854Y203724D01*
X199014Y204938D01*
X198854Y206152D01*
X198385Y207283D01*
X197640Y208254D01*
X196669Y208999D01*
X195537Y209468D01*
X194324Y209628D01*
D02*
G37*
G36*
Y199628D02*
X193110Y199468D01*
X191979Y199000D01*
X191007Y198254D01*
X190262Y197283D01*
X189793Y196152D01*
X189634Y194938D01*
X189793Y193724D01*
X190262Y192593D01*
X191007Y191621D01*
X191979Y190876D01*
X193110Y190408D01*
X194324Y190248D01*
X195537Y190408D01*
X196669Y190876D01*
X197640Y191621D01*
X198385Y192593D01*
X198854Y193724D01*
X199014Y194938D01*
X198854Y196152D01*
X198385Y197283D01*
X197640Y198254D01*
X196669Y199000D01*
X195537Y199468D01*
X194324Y199628D01*
D02*
G37*
G36*
Y189628D02*
X193110Y189468D01*
X191979Y188999D01*
X191007Y188254D01*
X190262Y187283D01*
X189882Y186365D01*
X174830D01*
X174734Y186509D01*
X174013Y186991D01*
X173162Y187160D01*
X172312Y186991D01*
X171591Y186509D01*
X171109Y185788D01*
X170940Y184938D01*
X171109Y184087D01*
X171591Y183366D01*
X172312Y182885D01*
X173162Y182716D01*
X174013Y182885D01*
X174734Y183366D01*
X174830Y183510D01*
X189882D01*
X190262Y182593D01*
X191007Y181621D01*
X191979Y180876D01*
X193110Y180408D01*
X194324Y180248D01*
X195537Y180408D01*
X196669Y180876D01*
X197640Y181621D01*
X198385Y182593D01*
X198854Y183724D01*
X199014Y184938D01*
X198854Y186152D01*
X198385Y187283D01*
X197640Y188254D01*
X196669Y188999D01*
X195537Y189468D01*
X194324Y189628D01*
D02*
G37*
G36*
X112078Y202672D02*
X111228Y202503D01*
X110507Y202021D01*
X110025Y201300D01*
X109856Y200450D01*
X110025Y199600D01*
X110507Y198879D01*
X111228Y198397D01*
X112078Y198228D01*
X112248Y198261D01*
X113773Y196737D01*
Y179809D01*
X113273Y179671D01*
X112871Y180271D01*
X112150Y180753D01*
X111300Y180922D01*
X110450Y180753D01*
X109729Y180271D01*
X109647Y180149D01*
X99190D01*
X99093Y180293D01*
X98373Y180775D01*
X97522Y180944D01*
X96672Y180775D01*
X95951Y180293D01*
X95469Y179572D01*
X95300Y178722D01*
X95469Y177872D01*
X95951Y177151D01*
X96672Y176669D01*
X97522Y176500D01*
X98373Y176669D01*
X99093Y177151D01*
X99190Y177295D01*
X109618D01*
X109729Y177129D01*
X110450Y176647D01*
X111300Y176478D01*
X112150Y176647D01*
X112871Y177129D01*
X113273Y177729D01*
X113773Y177591D01*
Y175984D01*
X113629Y175888D01*
X113147Y175167D01*
X112978Y174317D01*
X113147Y173467D01*
X113629Y172746D01*
X114350Y172264D01*
X115200Y172095D01*
X116050Y172264D01*
X116771Y172746D01*
X117253Y173467D01*
X117422Y174317D01*
X117253Y175167D01*
X116771Y175888D01*
X116627Y175984D01*
Y197328D01*
X116627Y197328D01*
X116519Y197874D01*
X116209Y198337D01*
X116209Y198337D01*
X114266Y200280D01*
X114300Y200450D01*
X114131Y201300D01*
X113649Y202021D01*
X112928Y202503D01*
X112078Y202672D01*
D02*
G37*
G36*
X71624Y190022D02*
X70773Y189853D01*
X70052Y189371D01*
X69571Y188650D01*
X69401Y187800D01*
X69546Y187072D01*
X69553Y186928D01*
X69242Y186541D01*
X68718Y186437D01*
X67997Y185955D01*
X67516Y185234D01*
X67347Y184384D01*
X67516Y183533D01*
X67997Y182812D01*
X68141Y182716D01*
Y156290D01*
X67997Y156194D01*
X67516Y155473D01*
X67347Y154622D01*
X67516Y153772D01*
X67845Y153279D01*
X67329Y152935D01*
X66847Y152214D01*
X66678Y151363D01*
X66847Y150513D01*
X67329Y149792D01*
X67573Y149629D01*
Y123168D01*
X67429Y123071D01*
X66947Y122350D01*
X66778Y121500D01*
X66947Y120650D01*
X67429Y119929D01*
X68150Y119447D01*
X69000Y119278D01*
X69240Y119038D01*
X69178Y118725D01*
X69347Y117875D01*
X69829Y117154D01*
X70550Y116672D01*
X71400Y116503D01*
X72250Y116672D01*
X72971Y117154D01*
X73453Y117875D01*
X73622Y118725D01*
X73453Y119576D01*
X72971Y120297D01*
X72907Y120340D01*
Y147219D01*
X73071Y147329D01*
X73553Y148050D01*
X73722Y148900D01*
X73553Y149750D01*
X73071Y150471D01*
X72350Y150953D01*
X71581Y151106D01*
X71122Y151363D01*
X70953Y152214D01*
X70624Y152706D01*
X71140Y153051D01*
X71622Y153772D01*
X72174Y153982D01*
X72700Y153878D01*
X73550Y154047D01*
X74271Y154529D01*
X74753Y155250D01*
X74922Y156100D01*
X74753Y156950D01*
X74271Y157671D01*
X73550Y158153D01*
X73051Y158252D01*
Y178361D01*
X73551Y178512D01*
X73629Y178396D01*
X74350Y177914D01*
X75200Y177745D01*
X76050Y177914D01*
X76771Y178396D01*
X77253Y179117D01*
X77422Y179967D01*
X77253Y180818D01*
X76771Y181539D01*
X76627Y181635D01*
Y184959D01*
X76971Y185189D01*
X77453Y185910D01*
X77622Y186760D01*
X77453Y187611D01*
X76971Y188332D01*
X76250Y188813D01*
X75400Y188982D01*
X74550Y188813D01*
X74200Y188580D01*
X73677Y188650D01*
X73195Y189371D01*
X72474Y189853D01*
X71624Y190022D01*
D02*
G37*
G36*
X194324Y179628D02*
X193110Y179468D01*
X191979Y178999D01*
X191007Y178254D01*
X190262Y177283D01*
X189882Y176365D01*
X174767D01*
X174671Y176509D01*
X173950Y176991D01*
X173100Y177160D01*
X172250Y176991D01*
X171529Y176509D01*
X171047Y175788D01*
X170878Y174938D01*
X171047Y174087D01*
X171529Y173366D01*
X172250Y172885D01*
X173100Y172716D01*
X173950Y172885D01*
X174671Y173366D01*
X174767Y173510D01*
X189882D01*
X190262Y172593D01*
X191007Y171621D01*
X191979Y170876D01*
X193110Y170407D01*
X194324Y170248D01*
X195537Y170407D01*
X196669Y170876D01*
X197640Y171621D01*
X198385Y172593D01*
X198854Y173724D01*
X199014Y174938D01*
X198854Y176152D01*
X198385Y177283D01*
X197640Y178254D01*
X196669Y178999D01*
X195537Y179468D01*
X194324Y179628D01*
D02*
G37*
G36*
X65271Y172942D02*
X64420Y172773D01*
X63700Y172291D01*
X63603Y172148D01*
X61967D01*
X61871Y172291D01*
X61150Y172773D01*
X60300Y172942D01*
X59450Y172773D01*
X58729Y172291D01*
X58247Y171571D01*
X58086Y170759D01*
X57952Y170682D01*
X57597Y170575D01*
X57584Y170592D01*
X56573Y171368D01*
X55397Y171855D01*
X54134Y172021D01*
X52165D01*
X50903Y171855D01*
X49726Y171368D01*
X48716Y170592D01*
X47940Y169582D01*
X47453Y168405D01*
X47287Y167142D01*
X47453Y165880D01*
X47940Y164703D01*
X48716Y163693D01*
X49726Y162917D01*
X50786Y162478D01*
X50795Y162440D01*
Y162002D01*
X50786Y161964D01*
X49726Y161525D01*
X48716Y160750D01*
X47940Y159739D01*
X47453Y158563D01*
X47287Y157300D01*
X47453Y156037D01*
X47940Y154861D01*
X48716Y153850D01*
X49726Y153075D01*
X50903Y152587D01*
X50956Y152580D01*
Y152076D01*
X50929Y152073D01*
X49776Y151595D01*
X48787Y150836D01*
X48028Y149846D01*
X47550Y148694D01*
X47453Y147958D01*
X53150D01*
X58846D01*
X58749Y148694D01*
X58272Y149846D01*
X57512Y150836D01*
X56523Y151595D01*
X55370Y152073D01*
X55343Y152076D01*
Y152580D01*
X55397Y152587D01*
X56573Y153075D01*
X57584Y153850D01*
X58359Y154861D01*
X58846Y156037D01*
X59013Y157300D01*
X58846Y158563D01*
X58359Y159739D01*
X57584Y160750D01*
X56573Y161525D01*
X55514Y161964D01*
X55504Y162002D01*
Y162440D01*
X55514Y162478D01*
X56573Y162917D01*
X57584Y163693D01*
X58359Y164703D01*
X58846Y165880D01*
X59013Y167142D01*
X58846Y168405D01*
X58810Y168493D01*
X59214Y168825D01*
X59450Y168667D01*
X60300Y168498D01*
X61150Y168667D01*
X61871Y169149D01*
X61967Y169293D01*
X63603D01*
X63700Y169149D01*
X64420Y168667D01*
X65271Y168498D01*
X66121Y168667D01*
X66842Y169149D01*
X67324Y169870D01*
X67493Y170720D01*
X67324Y171571D01*
X66842Y172291D01*
X66121Y172773D01*
X65271Y172942D01*
D02*
G37*
G36*
X27559Y185005D02*
X23622D01*
X22288Y184873D01*
X21005Y184484D01*
X19823Y183852D01*
X18787Y183002D01*
X17936Y181965D01*
X17304Y180783D01*
X16915Y179500D01*
X16784Y178166D01*
X16915Y176832D01*
X17304Y175549D01*
X17936Y174367D01*
X18787Y173331D01*
X19823Y172480D01*
X21005Y171848D01*
X22288Y171459D01*
X23622Y171328D01*
X27559D01*
X28893Y171459D01*
X30176Y171848D01*
X31358Y172480D01*
X32395Y173331D01*
X33245Y174367D01*
X33877Y175549D01*
X34266Y176832D01*
X34398Y178166D01*
X34266Y179500D01*
X33877Y180783D01*
X33245Y181965D01*
X32395Y183002D01*
X31358Y183852D01*
X30176Y184484D01*
X28893Y184873D01*
X27559Y185005D01*
D02*
G37*
G36*
X194324Y169628D02*
X193110Y169468D01*
X191979Y169000D01*
X191007Y168254D01*
X190262Y167283D01*
X189882Y166365D01*
X174759D01*
X174150Y166772D01*
X173300Y166941D01*
X172450Y166772D01*
X171729Y166290D01*
X171247Y165569D01*
X171078Y164719D01*
X171247Y163868D01*
X171729Y163147D01*
X172450Y162666D01*
X173300Y162497D01*
X174150Y162666D01*
X174871Y163147D01*
X175114Y163510D01*
X189882D01*
X190262Y162593D01*
X191007Y161621D01*
X191979Y160876D01*
X193110Y160407D01*
X194324Y160248D01*
X195537Y160407D01*
X196669Y160876D01*
X197640Y161621D01*
X198385Y162593D01*
X198854Y163724D01*
X199014Y164938D01*
X198854Y166152D01*
X198385Y167283D01*
X197640Y168254D01*
X196669Y169000D01*
X195537Y169468D01*
X194324Y169628D01*
D02*
G37*
G36*
X86900Y175022D02*
X86050Y174853D01*
X85329Y174371D01*
X84847Y173650D01*
X84678Y172800D01*
X84847Y171950D01*
X85329Y171229D01*
X86050Y170747D01*
X86900Y170578D01*
X87750Y170747D01*
X88471Y171229D01*
X88568Y171373D01*
X90931D01*
X91179Y170873D01*
X90830Y170350D01*
X90661Y169500D01*
X90830Y168650D01*
X91312Y167929D01*
X92033Y167447D01*
X92073Y167439D01*
Y160472D01*
X91573Y160320D01*
X91471Y160471D01*
X90750Y160953D01*
X89900Y161122D01*
X89050Y160953D01*
X88329Y160471D01*
X88232Y160327D01*
X84000D01*
X84000Y160327D01*
X83454Y160219D01*
X82991Y159909D01*
X82991Y159909D01*
X78691Y155609D01*
X78381Y155146D01*
X78273Y154600D01*
X78273Y154600D01*
Y110800D01*
X78273Y110800D01*
X78381Y110254D01*
X78691Y109791D01*
X82689Y105792D01*
X83152Y105483D01*
X83698Y105374D01*
X83698Y105374D01*
X87533D01*
X87629Y105230D01*
X88350Y104748D01*
X89200Y104579D01*
X90050Y104748D01*
X90771Y105230D01*
X91253Y105951D01*
X91422Y106802D01*
X91312Y107354D01*
X91674Y107854D01*
X95111D01*
X95529Y107229D01*
X96250Y106747D01*
X97100Y106578D01*
X97950Y106747D01*
X98671Y107229D01*
X99153Y107950D01*
X99322Y108800D01*
X99153Y109650D01*
X98671Y110371D01*
X97950Y110853D01*
X97100Y111022D01*
X96250Y110853D01*
X96033Y110708D01*
X84910D01*
X83127Y112491D01*
Y153609D01*
X83691Y154173D01*
X88133D01*
X88229Y154029D01*
X88950Y153547D01*
X89800Y153378D01*
X90650Y153547D01*
X91371Y154029D01*
X91438Y154129D01*
X91707D01*
X92005Y154077D01*
X92650Y153647D01*
X93500Y153478D01*
X94350Y153647D01*
X95071Y154129D01*
X95391Y154607D01*
X96003Y154745D01*
X96150Y154647D01*
X97000Y154478D01*
X97170Y154511D01*
X101092Y150589D01*
Y147292D01*
X100592Y147140D01*
X100571Y147171D01*
X99850Y147653D01*
X99000Y147822D01*
X98150Y147653D01*
X97429Y147171D01*
X97228Y146871D01*
X96971D01*
X96250Y147353D01*
X95400Y147522D01*
X94550Y147353D01*
X93829Y146871D01*
X93347Y146150D01*
X93178Y145300D01*
X93347Y144450D01*
X93829Y143729D01*
X93973Y143632D01*
Y142891D01*
X93909Y142827D01*
X88767D01*
X88671Y142971D01*
X87950Y143453D01*
X87100Y143622D01*
X86250Y143453D01*
X85529Y142971D01*
X85047Y142250D01*
X84878Y141400D01*
X85047Y140550D01*
X85529Y139829D01*
X85721Y139700D01*
Y139200D01*
X85529Y139071D01*
X85047Y138350D01*
X84878Y137500D01*
X85047Y136650D01*
X85529Y135929D01*
X86250Y135447D01*
X87100Y135278D01*
X87950Y135447D01*
X88671Y135929D01*
X88767Y136073D01*
X95300D01*
X95300Y136073D01*
X95846Y136181D01*
X96309Y136491D01*
X100009Y140191D01*
X100319Y140654D01*
X100427Y141200D01*
X100427Y141200D01*
Y143598D01*
X100592Y143721D01*
X101092Y143470D01*
Y134580D01*
X101092Y134580D01*
X101201Y134034D01*
X101510Y133571D01*
X103112Y131970D01*
X103078Y131800D01*
X103247Y130950D01*
X103729Y130229D01*
X104450Y129747D01*
X105300Y129578D01*
X106150Y129747D01*
X106871Y130229D01*
X107353Y130950D01*
X107522Y131800D01*
X107353Y132650D01*
X106871Y133371D01*
X106685Y133496D01*
Y134098D01*
X106971Y134289D01*
X107453Y135010D01*
X107622Y135861D01*
X107453Y136711D01*
X106971Y137432D01*
X106250Y137914D01*
X105547Y138054D01*
Y143252D01*
X106047Y143613D01*
X106599Y143503D01*
X107450Y143673D01*
X108171Y144154D01*
X108652Y144875D01*
X108821Y145726D01*
X108652Y146576D01*
X108171Y147297D01*
X108027Y147393D01*
Y155701D01*
X108027Y155701D01*
X107918Y156247D01*
X107609Y156710D01*
X107608Y156710D01*
X98939Y165380D01*
X99140Y165886D01*
X99465Y165917D01*
X108993Y156388D01*
Y150873D01*
X108993Y150873D01*
X109102Y150327D01*
X109411Y149864D01*
X110773Y148502D01*
Y147567D01*
X110629Y147471D01*
X110147Y146750D01*
X109978Y145900D01*
X110147Y145050D01*
X110629Y144329D01*
X111350Y143847D01*
X112200Y143678D01*
X113050Y143847D01*
X113771Y144329D01*
X114253Y145050D01*
X114422Y145900D01*
X114253Y146750D01*
X113771Y147471D01*
X113627Y147567D01*
Y149093D01*
X113627Y149093D01*
X113519Y149640D01*
X113209Y150103D01*
X113209Y150103D01*
X111848Y151464D01*
Y156980D01*
X111848Y156980D01*
X111739Y157526D01*
X111430Y157989D01*
X111430Y157989D01*
X103108Y166311D01*
X103299Y166773D01*
X104735D01*
X104850Y166600D01*
X105571Y166118D01*
X106421Y165949D01*
X107272Y166118D01*
X107993Y166600D01*
X108474Y167321D01*
X108643Y168171D01*
X108474Y169022D01*
X107993Y169743D01*
X107272Y170224D01*
X106421Y170394D01*
X105571Y170224D01*
X104850Y169743D01*
X104773Y169627D01*
X100867D01*
X100771Y169771D01*
X100050Y170253D01*
X99200Y170422D01*
X98350Y170253D01*
X98027Y170038D01*
X97527Y170300D01*
X97419Y170846D01*
X97109Y171309D01*
X97109Y171309D01*
X94609Y173809D01*
X94146Y174119D01*
X93600Y174227D01*
X93600Y174227D01*
X88568D01*
X88471Y174371D01*
X87750Y174853D01*
X86900Y175022D01*
D02*
G37*
G36*
X143800Y187322D02*
X142950Y187153D01*
X142229Y186671D01*
X141747Y185950D01*
X141578Y185100D01*
X141747Y184250D01*
X142077Y183756D01*
X141747Y183262D01*
X141578Y182412D01*
X141747Y181561D01*
X141780Y181512D01*
Y160248D01*
X141582Y159950D01*
X141412Y159100D01*
X141582Y158250D01*
X141697Y158076D01*
Y157473D01*
X141582Y157299D01*
X141412Y156449D01*
X141582Y155598D01*
X142063Y154877D01*
X142784Y154396D01*
X143635Y154227D01*
X144485Y154396D01*
X145206Y154877D01*
X145688Y155598D01*
X145857Y156449D01*
X145688Y157299D01*
X145572Y157473D01*
Y158076D01*
X145688Y158250D01*
X145857Y159100D01*
X145688Y159950D01*
X145654Y160000D01*
Y181264D01*
X145853Y181561D01*
X146022Y182412D01*
X145853Y183262D01*
X145523Y183756D01*
X145853Y184250D01*
X146022Y185100D01*
X145853Y185950D01*
X145371Y186671D01*
X144650Y187153D01*
X143800Y187322D01*
D02*
G37*
G36*
X194324Y159628D02*
X193110Y159468D01*
X191979Y159000D01*
X191007Y158254D01*
X190262Y157283D01*
X189793Y156152D01*
X189634Y154938D01*
X189793Y153724D01*
X190262Y152593D01*
X191007Y151621D01*
X191979Y150876D01*
X193110Y150408D01*
X194324Y150248D01*
X195537Y150408D01*
X196669Y150876D01*
X197640Y151621D01*
X198385Y152593D01*
X198854Y153724D01*
X199014Y154938D01*
X198854Y156152D01*
X198385Y157283D01*
X197640Y158254D01*
X196669Y159000D01*
X195537Y159468D01*
X194324Y159628D01*
D02*
G37*
G36*
X58846Y146958D02*
X53650D01*
Y142680D01*
X54134D01*
X55370Y142842D01*
X56523Y143320D01*
X57512Y144079D01*
X58272Y145069D01*
X58749Y146221D01*
X58846Y146958D01*
D02*
G37*
G36*
X52650D02*
X47453D01*
X47550Y146221D01*
X48028Y145069D01*
X48787Y144079D01*
X49776Y143320D01*
X50929Y142842D01*
X52165Y142680D01*
X52650D01*
Y146958D01*
D02*
G37*
G36*
X194324Y149628D02*
X193110Y149468D01*
X191979Y149000D01*
X191007Y148254D01*
X190262Y147283D01*
X189793Y146152D01*
X189634Y144938D01*
X189793Y143724D01*
X190262Y142593D01*
X191007Y141621D01*
X191979Y140876D01*
X193110Y140408D01*
X194324Y140248D01*
X195537Y140408D01*
X196669Y140876D01*
X197640Y141621D01*
X198385Y142593D01*
X198854Y143724D01*
X199014Y144938D01*
X198854Y146152D01*
X198385Y147283D01*
X197640Y148254D01*
X196669Y149000D01*
X195537Y149468D01*
X194324Y149628D01*
D02*
G37*
G36*
Y139628D02*
X193110Y139468D01*
X191979Y138999D01*
X191007Y138254D01*
X190262Y137283D01*
X189793Y136152D01*
X189634Y134938D01*
X189793Y133724D01*
X190262Y132593D01*
X191007Y131621D01*
X191979Y130876D01*
X193110Y130408D01*
X194324Y130248D01*
X195537Y130408D01*
X196669Y130876D01*
X197640Y131621D01*
X198385Y132593D01*
X198854Y133724D01*
X199014Y134938D01*
X198854Y136152D01*
X198385Y137283D01*
X197640Y138254D01*
X196669Y138999D01*
X195537Y139468D01*
X194324Y139628D01*
D02*
G37*
G36*
X27559Y143272D02*
X23622D01*
X22288Y143141D01*
X21005Y142752D01*
X19823Y142120D01*
X18787Y141269D01*
X17936Y140233D01*
X17304Y139051D01*
X16915Y137768D01*
X16784Y136434D01*
X16915Y135100D01*
X17304Y133817D01*
X17936Y132635D01*
X18787Y131598D01*
X19823Y130748D01*
X21005Y130116D01*
X22288Y129727D01*
X23622Y129595D01*
X27559D01*
X28893Y129727D01*
X30176Y130116D01*
X31358Y130748D01*
X32395Y131598D01*
X33245Y132635D01*
X33877Y133817D01*
X34266Y135100D01*
X34398Y136434D01*
X34266Y137768D01*
X33877Y139051D01*
X33245Y140233D01*
X32395Y141269D01*
X31358Y142120D01*
X30176Y142752D01*
X28893Y143141D01*
X27559Y143272D01*
D02*
G37*
G36*
X131700Y128747D02*
X130850Y128578D01*
X130667Y128456D01*
X129514D01*
X129350Y128566D01*
X128500Y128735D01*
X127650Y128566D01*
X127476Y128450D01*
X111105D01*
X110950Y128553D01*
X110100Y128722D01*
X109250Y128553D01*
X109095Y128450D01*
X108805D01*
X108650Y128553D01*
X107800Y128722D01*
X106950Y128553D01*
X106229Y128071D01*
X105747Y127350D01*
X105578Y126500D01*
X105747Y125650D01*
X106229Y124929D01*
X106950Y124447D01*
X107800Y124278D01*
X108650Y124447D01*
X108843Y124575D01*
X109057D01*
X109250Y124447D01*
X110100Y124278D01*
X110950Y124447D01*
X111143Y124575D01*
X121590D01*
X121949Y124234D01*
X121949Y124234D01*
X121949D01*
X121965Y124075D01*
X121953Y124073D01*
X121350Y123953D01*
X120629Y123471D01*
X120466Y123227D01*
X104268D01*
X104171Y123371D01*
X103450Y123853D01*
X102600Y124022D01*
X101750Y123853D01*
X101029Y123371D01*
X100547Y122650D01*
X100378Y121800D01*
X100547Y120950D01*
X101029Y120229D01*
X101750Y119747D01*
X102600Y119578D01*
X103450Y119747D01*
X104171Y120229D01*
X104268Y120373D01*
X120599D01*
X120629Y120329D01*
X121350Y119847D01*
X122200Y119678D01*
X123050Y119847D01*
X123771Y120329D01*
X124253Y121050D01*
X124422Y121900D01*
X124253Y122750D01*
X123771Y123471D01*
X123050Y123953D01*
X122447Y124073D01*
X122436Y124075D01*
X122451Y124234D01*
X122451D01*
X122451Y124234D01*
X122810Y124575D01*
X127476D01*
X127650Y124460D01*
X128500Y124290D01*
X129350Y124460D01*
X129533Y124582D01*
X130686D01*
X130850Y124472D01*
X131700Y124303D01*
X132550Y124472D01*
X133271Y124954D01*
X133753Y125675D01*
X133922Y126525D01*
X133753Y127376D01*
X133271Y128096D01*
X132550Y128578D01*
X131700Y128747D01*
D02*
G37*
G36*
X38386Y111982D02*
X37123Y111816D01*
X35946Y111328D01*
X34936Y110553D01*
X34161Y109543D01*
X33673Y108366D01*
X33507Y107103D01*
X33673Y105840D01*
X34161Y104664D01*
X34936Y103653D01*
X35946Y102878D01*
X37123Y102391D01*
X38386Y102224D01*
X39649Y102391D01*
X40825Y102878D01*
X41836Y103653D01*
X42611Y104664D01*
X43098Y105840D01*
X43265Y107103D01*
X43098Y108366D01*
X42611Y109543D01*
X41836Y110553D01*
X40825Y111328D01*
X39649Y111816D01*
X38386Y111982D01*
D02*
G37*
G36*
X12795D02*
X11533Y111816D01*
X10356Y111328D01*
X9346Y110553D01*
X8570Y109543D01*
X8083Y108366D01*
X7916Y107103D01*
X8083Y105840D01*
X8570Y104664D01*
X9346Y103653D01*
X10356Y102878D01*
X11533Y102391D01*
X12795Y102224D01*
X14058Y102391D01*
X15235Y102878D01*
X16245Y103653D01*
X17020Y104664D01*
X17508Y105840D01*
X17674Y107103D01*
X17508Y108366D01*
X17020Y109543D01*
X16245Y110553D01*
X15235Y111328D01*
X14058Y111816D01*
X12795Y111982D01*
D02*
G37*
G36*
X172700Y107349D02*
X171559Y107237D01*
X170461Y106904D01*
X169450Y106364D01*
X168564Y105636D01*
X167836Y104750D01*
X167296Y103738D01*
X166963Y102641D01*
X166851Y101500D01*
X166963Y100359D01*
X167296Y99261D01*
X167836Y98250D01*
X168564Y97364D01*
X169450Y96636D01*
X170461Y96096D01*
X171559Y95763D01*
X172700Y95651D01*
X173841Y95763D01*
X174938Y96096D01*
X175950Y96636D01*
X176836Y97364D01*
X177564Y98250D01*
X178104Y99261D01*
X178437Y100359D01*
X178549Y101500D01*
X178437Y102641D01*
X178104Y103738D01*
X177564Y104750D01*
X176836Y105636D01*
X175950Y106364D01*
X174938Y106904D01*
X173841Y107237D01*
X172700Y107349D01*
D02*
G37*
G36*
X43100Y145322D02*
X42250Y145153D01*
X41529Y144671D01*
X41047Y143950D01*
X40878Y143100D01*
X41047Y142250D01*
X41529Y141529D01*
X41673Y141432D01*
Y124300D01*
X41673Y124300D01*
X41781Y123754D01*
X42091Y123291D01*
X51073Y114309D01*
Y96368D01*
X50929Y96271D01*
X50447Y95550D01*
X50278Y94700D01*
X50447Y93850D01*
X50929Y93129D01*
X51650Y92647D01*
X52500Y92478D01*
X53350Y92647D01*
X54071Y93129D01*
X54553Y93850D01*
X54722Y94700D01*
X54553Y95550D01*
X54071Y96271D01*
X53927Y96368D01*
Y114900D01*
X53927Y114900D01*
X53819Y115446D01*
X53509Y115909D01*
X53509Y115909D01*
X44527Y124891D01*
Y141432D01*
X44671Y141529D01*
X45153Y142250D01*
X45322Y143100D01*
X45153Y143950D01*
X44671Y144671D01*
X43950Y145153D01*
X43100Y145322D01*
D02*
G37*
G36*
X13295Y94099D02*
Y89887D01*
X17507D01*
X17410Y90623D01*
X16933Y91776D01*
X16174Y92765D01*
X15184Y93524D01*
X14032Y94002D01*
X13295Y94099D01*
D02*
G37*
G36*
X12295D02*
X11559Y94002D01*
X10406Y93524D01*
X9417Y92765D01*
X8658Y91776D01*
X8180Y90623D01*
X8083Y89887D01*
X12295D01*
Y94099D01*
D02*
G37*
G36*
X38886D02*
Y89887D01*
X43098D01*
X43001Y90623D01*
X42524Y91776D01*
X41764Y92765D01*
X40775Y93524D01*
X39622Y94002D01*
X38886Y94099D01*
D02*
G37*
G36*
X37886Y94099D02*
X37149Y94002D01*
X35997Y93524D01*
X35007Y92765D01*
X34248Y91776D01*
X33771Y90623D01*
X33674Y89887D01*
X37886D01*
Y94099D01*
D02*
G37*
G36*
X43098Y88887D02*
X38886D01*
Y84675D01*
X39622Y84772D01*
X40775Y85249D01*
X41764Y86008D01*
X42524Y86998D01*
X43001Y88150D01*
X43098Y88887D01*
D02*
G37*
G36*
X17507Y88887D02*
X13295D01*
Y84675D01*
X14032Y84772D01*
X15184Y85249D01*
X16174Y86008D01*
X16933Y86998D01*
X17410Y88150D01*
X17507Y88887D01*
D02*
G37*
G36*
X12295D02*
X8083D01*
X8180Y88150D01*
X8658Y86998D01*
X9417Y86008D01*
X10406Y85249D01*
X11559Y84772D01*
X12295Y84675D01*
Y88887D01*
D02*
G37*
G36*
X37886Y88887D02*
X33674D01*
X33771Y88150D01*
X34248Y86998D01*
X35007Y86008D01*
X35997Y85249D01*
X37149Y84772D01*
X37886Y84675D01*
Y88887D01*
D02*
G37*
G36*
X172700Y92349D02*
X171559Y92237D01*
X170461Y91904D01*
X169450Y91364D01*
X168564Y90636D01*
X167836Y89750D01*
X167296Y88739D01*
X166963Y87641D01*
X166851Y86500D01*
X166963Y85359D01*
X167296Y84262D01*
X167836Y83250D01*
X168564Y82364D01*
X169450Y81636D01*
X170461Y81096D01*
X171559Y80763D01*
X172700Y80651D01*
X173841Y80763D01*
X174938Y81096D01*
X175950Y81636D01*
X176836Y82364D01*
X177564Y83250D01*
X178104Y84262D01*
X178437Y85359D01*
X178549Y86500D01*
X178437Y87641D01*
X178104Y88739D01*
X177564Y89750D01*
X176836Y90636D01*
X175950Y91364D01*
X174938Y91904D01*
X173841Y92237D01*
X172700Y92349D01*
D02*
G37*
G36*
Y77349D02*
X171559Y77237D01*
X170461Y76904D01*
X169450Y76364D01*
X168564Y75636D01*
X167836Y74750D01*
X167296Y73738D01*
X166963Y72641D01*
X166851Y71500D01*
X166963Y70359D01*
X167296Y69261D01*
X167836Y68250D01*
X168564Y67364D01*
X169450Y66636D01*
X170461Y66096D01*
X171559Y65763D01*
X172700Y65651D01*
X173841Y65763D01*
X174938Y66096D01*
X175950Y66636D01*
X176836Y67364D01*
X177564Y68250D01*
X178104Y69261D01*
X178437Y70359D01*
X178549Y71500D01*
X178437Y72641D01*
X178104Y73738D01*
X177564Y74750D01*
X176836Y75636D01*
X175950Y76364D01*
X174938Y76904D01*
X173841Y77237D01*
X172700Y77349D01*
D02*
G37*
G36*
X155000Y78222D02*
X154150Y78053D01*
X153429Y77571D01*
X152947Y76850D01*
X152778Y76000D01*
X152947Y75150D01*
X153263Y74677D01*
Y60400D01*
X153410Y59659D01*
X153830Y59030D01*
X157730Y55130D01*
X158359Y54710D01*
X159100Y54563D01*
X167204D01*
X167296Y54261D01*
X167836Y53250D01*
X168564Y52364D01*
X169450Y51636D01*
X170461Y51096D01*
X171559Y50763D01*
X172700Y50651D01*
X173841Y50763D01*
X174938Y51096D01*
X175950Y51636D01*
X176836Y52364D01*
X177564Y53250D01*
X178104Y54261D01*
X178437Y55359D01*
X178549Y56500D01*
X178437Y57641D01*
X178104Y58738D01*
X177564Y59750D01*
X176836Y60636D01*
X175950Y61364D01*
X174938Y61904D01*
X173841Y62237D01*
X172700Y62349D01*
X171559Y62237D01*
X170461Y61904D01*
X169450Y61364D01*
X168564Y60636D01*
X167836Y59750D01*
X167296Y58738D01*
X167204Y58437D01*
X159902D01*
X157137Y61202D01*
Y75573D01*
X157222Y76000D01*
X157053Y76850D01*
X156571Y77571D01*
X155850Y78053D01*
X155000Y78222D01*
D02*
G37*
G36*
X38386Y52927D02*
X37123Y52760D01*
X35946Y52273D01*
X34936Y51498D01*
X34161Y50487D01*
X33673Y49311D01*
X33507Y48048D01*
X33673Y46785D01*
X34161Y45609D01*
X34936Y44598D01*
X35946Y43823D01*
X37123Y43336D01*
X38386Y43169D01*
X39649Y43336D01*
X40825Y43823D01*
X41836Y44598D01*
X42611Y45609D01*
X43098Y46785D01*
X43265Y48048D01*
X43098Y49311D01*
X42611Y50487D01*
X41836Y51498D01*
X40825Y52273D01*
X39649Y52760D01*
X38386Y52927D01*
D02*
G37*
G36*
X12795D02*
X11533Y52760D01*
X10356Y52273D01*
X9346Y51498D01*
X8570Y50487D01*
X8083Y49311D01*
X7916Y48048D01*
X8083Y46785D01*
X8570Y45609D01*
X9346Y44598D01*
X10356Y43823D01*
X11533Y43336D01*
X12795Y43169D01*
X14058Y43336D01*
X15235Y43823D01*
X16245Y44598D01*
X17020Y45609D01*
X17508Y46785D01*
X17674Y48048D01*
X17508Y49311D01*
X17020Y50487D01*
X16245Y51498D01*
X15235Y52273D01*
X14058Y52760D01*
X12795Y52927D01*
D02*
G37*
G36*
X105900Y115322D02*
X105050Y115153D01*
X104329Y114671D01*
X103847Y113950D01*
X103678Y113100D01*
X103847Y112250D01*
X103963Y112076D01*
Y110602D01*
X99263Y105903D01*
X98843Y105274D01*
X98696Y104533D01*
Y56867D01*
X98843Y56126D01*
X99263Y55497D01*
X105504Y49257D01*
X106132Y48837D01*
X106874Y48689D01*
X133541D01*
X135563Y46668D01*
Y45524D01*
X135447Y45350D01*
X135278Y44500D01*
X135447Y43650D01*
X135929Y42929D01*
X136650Y42447D01*
X137500Y42278D01*
X138350Y42447D01*
X139071Y42929D01*
X139553Y43650D01*
X139722Y44500D01*
X139553Y45350D01*
X139437Y45524D01*
Y47470D01*
X139290Y48211D01*
X138870Y48840D01*
X135714Y51996D01*
X135085Y52416D01*
X134344Y52564D01*
X107676D01*
X102570Y57669D01*
Y103731D01*
X107270Y108430D01*
X107690Y109059D01*
X107837Y109800D01*
Y112076D01*
X107953Y112250D01*
X108122Y113100D01*
X107953Y113950D01*
X107471Y114671D01*
X106750Y115153D01*
X105900Y115322D01*
D02*
G37*
G36*
X178421Y47221D02*
X173200D01*
Y42000D01*
X178421D01*
Y47221D01*
D02*
G37*
G36*
X172200D02*
X166979D01*
Y42000D01*
X172200D01*
Y47221D01*
D02*
G37*
G36*
X178421Y41000D02*
X173200D01*
Y35779D01*
X178421D01*
Y41000D01*
D02*
G37*
G36*
X172200D02*
X166979D01*
Y35779D01*
X172200D01*
Y41000D01*
D02*
G37*
G36*
X52500Y58322D02*
X51650Y58153D01*
X50929Y57671D01*
X50447Y56950D01*
X50278Y56100D01*
X50447Y55250D01*
X50929Y54529D01*
X51073Y54432D01*
Y38301D01*
X51029Y38271D01*
X50547Y37550D01*
X50378Y36700D01*
X50547Y35850D01*
X51029Y35129D01*
X51750Y34647D01*
X52600Y34478D01*
X53450Y34647D01*
X54171Y35129D01*
X54653Y35850D01*
X54822Y36700D01*
X54653Y37550D01*
X54171Y38271D01*
X53927Y38434D01*
Y54432D01*
X54071Y54529D01*
X54553Y55250D01*
X54722Y56100D01*
X54553Y56950D01*
X54071Y57671D01*
X53350Y58153D01*
X52500Y58322D01*
D02*
G37*
G36*
X13295Y35044D02*
Y30832D01*
X17507D01*
X17410Y31568D01*
X16933Y32720D01*
X16174Y33710D01*
X15184Y34469D01*
X14032Y34947D01*
X13295Y35044D01*
D02*
G37*
G36*
X12295Y35043D02*
X11559Y34947D01*
X10406Y34469D01*
X9417Y33710D01*
X8658Y32720D01*
X8180Y31568D01*
X8083Y30832D01*
X12295D01*
Y35043D01*
D02*
G37*
G36*
X38886D02*
Y30832D01*
X43098D01*
X43001Y31568D01*
X42524Y32720D01*
X41764Y33710D01*
X40775Y34469D01*
X39622Y34947D01*
X38886Y35043D01*
D02*
G37*
G36*
X37886D02*
X37149Y34947D01*
X35997Y34469D01*
X35007Y33710D01*
X34248Y32720D01*
X33771Y31568D01*
X33674Y30832D01*
X37886D01*
Y35043D01*
D02*
G37*
G36*
X12295Y29831D02*
X8083D01*
X8180Y29095D01*
X8658Y27942D01*
X9417Y26953D01*
X10406Y26194D01*
X11559Y25716D01*
X12295Y25619D01*
Y29831D01*
D02*
G37*
G36*
X43098Y29831D02*
X38886D01*
Y25619D01*
X39622Y25716D01*
X40775Y26194D01*
X41764Y26953D01*
X42524Y27942D01*
X43001Y29095D01*
X43098Y29831D01*
D02*
G37*
G36*
X37886D02*
X33674D01*
X33771Y29095D01*
X34248Y27942D01*
X35007Y26953D01*
X35997Y26194D01*
X37149Y25716D01*
X37886Y25619D01*
Y29831D01*
D02*
G37*
G36*
X17507Y29831D02*
X13295D01*
Y25619D01*
X14032Y25716D01*
X15184Y26194D01*
X16174Y26953D01*
X16933Y27942D01*
X17410Y29095D01*
X17507Y29831D01*
D02*
G37*
G36*
X114900Y32554D02*
X114050Y32385D01*
X113329Y31903D01*
X112847Y31182D01*
X112678Y30332D01*
X112847Y29481D01*
X113329Y28760D01*
X114050Y28278D01*
X114900Y28109D01*
X115750Y28278D01*
X116471Y28760D01*
X116568Y28904D01*
X121494D01*
X125853Y24545D01*
X125606Y24084D01*
X125417Y24122D01*
X124566Y23953D01*
X123845Y23471D01*
X123363Y22750D01*
X123194Y21900D01*
X123363Y21050D01*
X123538Y20789D01*
X123270Y20289D01*
X121170D01*
Y20273D01*
X120705Y20189D01*
X120670Y20189D01*
X116271D01*
Y16239D01*
Y12290D01*
X120705D01*
Y13090D01*
X121170Y13174D01*
X121205Y13174D01*
X132222D01*
Y13274D01*
X132594D01*
Y16732D01*
Y20189D01*
X132222D01*
Y20289D01*
X129403D01*
Y24441D01*
X129403Y24441D01*
X129294Y24987D01*
X128985Y25450D01*
X128985Y25450D01*
X123094Y31341D01*
X122631Y31650D01*
X122085Y31759D01*
X122085Y31759D01*
X116568D01*
X116471Y31903D01*
X115750Y32385D01*
X114900Y32554D01*
D02*
G37*
G36*
X134681Y20189D02*
X133594D01*
Y17232D01*
X134681D01*
Y20189D01*
D02*
G37*
G36*
X145114Y20189D02*
X140680D01*
Y16739D01*
X145114D01*
Y20189D01*
D02*
G37*
G36*
X139680D02*
X135247D01*
Y16739D01*
X139680D01*
Y20189D01*
D02*
G37*
G36*
X115271D02*
X110837D01*
Y16739D01*
X115271D01*
Y20189D01*
D02*
G37*
G36*
X134681Y16231D02*
X133594D01*
Y13274D01*
X134681D01*
Y16231D01*
D02*
G37*
G36*
X145114Y15739D02*
X140680D01*
Y12290D01*
X145114D01*
Y15739D01*
D02*
G37*
G36*
X139680D02*
X135247D01*
Y12290D01*
X139680D01*
Y15739D01*
D02*
G37*
G36*
X115271D02*
X110837D01*
Y12290D01*
X115271D01*
Y15739D01*
D02*
G37*
G36*
X147280Y10740D02*
X143436D01*
Y6700D01*
X147280D01*
Y10740D01*
D02*
G37*
G36*
X142436D02*
X138593D01*
Y6700D01*
X142436D01*
Y10740D01*
D02*
G37*
G36*
X133200D02*
Y6700D01*
X137240D01*
Y10740D01*
X133200D01*
D02*
G37*
G36*
X122751D02*
X118711D01*
Y6700D01*
X122751D01*
Y10740D01*
D02*
G37*
G36*
X117358D02*
X113515D01*
Y6700D01*
X117358D01*
Y10740D01*
D02*
G37*
G36*
X112515D02*
X108672D01*
Y6700D01*
X112515D01*
Y10740D01*
D02*
G37*
G36*
X147280Y5700D02*
X143436D01*
Y1660D01*
X147280D01*
Y5700D01*
D02*
G37*
G36*
X142436D02*
X138593D01*
Y1660D01*
X142436D01*
Y5700D01*
D02*
G37*
G36*
X137240D02*
X133200D01*
Y1660D01*
X137240D01*
Y5700D01*
D02*
G37*
G36*
X117358D02*
X113515D01*
Y1660D01*
X117358D01*
Y5700D01*
D02*
G37*
G36*
X112515D02*
X108672D01*
Y1660D01*
X112515D01*
Y5700D01*
D02*
G37*
G36*
X122751D02*
X118711D01*
Y1660D01*
X122751D01*
Y5700D01*
D02*
G37*
G36*
X128160Y10740D02*
X127791D01*
X127660Y10740D01*
X123751D01*
Y6200D01*
Y1660D01*
X127660D01*
X127791Y1660D01*
X128160D01*
X128291Y1660D01*
X132200D01*
Y6200D01*
Y10740D01*
X128291D01*
X128160Y10740D01*
D02*
G37*
%LPD*%
D10*
X115200Y174317D02*
Y197328D01*
X112078Y200450D02*
X115200Y197328D01*
X71624Y185835D02*
X72600Y184859D01*
Y182100D02*
Y184859D01*
X71624Y181124D02*
X72600Y182100D01*
X71624Y157176D02*
Y181124D01*
X75200Y179967D02*
Y186560D01*
X75400Y186760D01*
X71624Y157176D02*
X72700Y156100D01*
X69569Y154622D02*
Y184384D01*
X154341Y127900D02*
Y151441D01*
X141314Y16090D02*
Y16614D01*
X38386Y256586D02*
Y266552D01*
X26800Y245000D02*
X38386Y256586D01*
X26800Y207497D02*
Y245000D01*
Y207497D02*
X38386D01*
X69000Y121500D02*
Y151263D01*
X68900Y151363D02*
X69000Y151263D01*
X71479Y118805D02*
Y148880D01*
X71400Y118725D02*
X71479Y118805D01*
Y148880D02*
X71500Y148900D01*
X96619Y109281D02*
X97100Y108800D01*
X84319Y109281D02*
X96619D01*
X102520Y134580D02*
X105300Y131800D01*
X102520Y134580D02*
Y151180D01*
X104120Y137141D02*
Y153580D01*
Y137141D02*
X105400Y135861D01*
X106599Y145726D02*
Y155701D01*
X96100Y166200D02*
X106599Y155701D01*
X96700Y161000D02*
X104120Y153580D01*
X97000Y156700D02*
X102520Y151180D01*
X130700Y178700D02*
Y181400D01*
X132500Y183200D01*
Y194400D01*
X150750Y238450D02*
X150800Y238400D01*
X130906Y238450D02*
X150750D01*
X130856Y238500D02*
X130906Y238450D01*
X38386Y150200D02*
Y207497D01*
Y150200D02*
X41128Y147458D01*
X38300Y144629D02*
X41128Y147458D01*
X38300Y124700D02*
Y144629D01*
X23900Y110300D02*
X38300Y124700D01*
X81700Y111900D02*
X84319Y109281D01*
X81700Y111900D02*
Y154200D01*
X83100Y155600D01*
X89800D01*
X132500Y194400D02*
Y199300D01*
X136084Y202884D01*
X124910Y171897D02*
X126410Y170396D01*
Y170000D02*
Y170396D01*
X136084Y202884D02*
Y211000D01*
X99200Y168200D02*
X106393D01*
X106421Y168171D01*
X124910Y171897D02*
Y197710D01*
X127700Y200500D02*
Y204800D01*
X124910Y197710D02*
X127700Y200500D01*
X124059Y201959D02*
X124900Y202800D01*
X124059Y201873D02*
Y201959D01*
X123145Y200959D02*
X124059Y201873D01*
X123145Y162521D02*
Y200959D01*
X121500Y167100D02*
Y202820D01*
X119900Y170800D02*
Y199800D01*
X116400Y167300D02*
X119900Y170800D01*
X119020Y200679D02*
X119900Y199800D01*
X111300Y167300D02*
X116400D01*
X118800Y164400D02*
X121500Y167100D01*
X114500Y164400D02*
X118800D01*
X134200Y214000D02*
X135079Y213121D01*
Y212427D02*
Y213121D01*
Y212427D02*
X136084Y211422D01*
Y211000D02*
Y211422D01*
X116500Y214000D02*
X134200D01*
X116500Y209200D02*
Y214000D01*
X114400Y207100D02*
X116500Y209200D01*
X100300Y207100D02*
X114400D01*
X99000Y205800D02*
X100300Y207100D01*
X99000Y200400D02*
Y205800D01*
X121500Y202820D02*
X121580Y202900D01*
X97300Y192500D02*
X100800Y189000D01*
X112100D01*
X112053Y200475D02*
X112078Y200450D01*
X154341Y151441D02*
X160700Y157800D01*
Y240700D01*
X164000Y244000D01*
X187000D01*
X83698Y106802D02*
X89200D01*
X79700Y110800D02*
X83698Y106802D01*
X79700Y110800D02*
Y154600D01*
X122100Y121800D02*
X122200Y121900D01*
X102600Y121800D02*
X122100D01*
X96100Y166200D02*
Y170300D01*
X93600Y172800D02*
X96100Y170300D01*
X86900Y172800D02*
X93600D01*
X154002Y151702D02*
X154200Y151504D01*
X113098Y151702D02*
X154002D01*
X112900Y151900D02*
X113098Y151702D01*
X112200Y145900D02*
Y149093D01*
X110421Y150873D02*
X112200Y149093D01*
X110421Y150873D02*
Y156980D01*
X99200Y168200D02*
X110421Y156980D01*
X187000Y244000D02*
Y258800D01*
X186200Y259600D02*
X187000Y258800D01*
X180000Y259600D02*
X186200D01*
X71624Y185835D02*
Y187800D01*
X93500Y155700D02*
Y168883D01*
X84000Y158900D02*
X89900D01*
X79700Y154600D02*
X84000Y158900D01*
X60300Y170720D02*
X65271D01*
X135000Y38000D02*
X141200D01*
X128500Y44500D02*
X135000Y38000D01*
X122800Y44500D02*
X128500D01*
X141314Y12600D02*
Y16090D01*
X147000Y22300D02*
Y34300D01*
X141314Y16614D02*
X147000Y22300D01*
X142300Y65700D02*
X144700Y63300D01*
X126700Y65700D02*
X142300D01*
X144700Y41500D02*
Y63300D01*
X141200Y38000D02*
X144700Y41500D01*
X172700D01*
X92883Y169500D02*
X93500Y168883D01*
X95400Y142300D02*
Y145300D01*
X94500Y141400D02*
X95400Y142300D01*
X87100Y141400D02*
X94500D01*
X99000Y141200D02*
Y145600D01*
X95300Y137500D02*
X99000Y141200D01*
X46916Y199916D02*
X52100D01*
X42900Y195900D02*
X46916Y199916D01*
X42900Y152704D02*
Y195900D01*
Y152704D02*
X43100Y152504D01*
Y152300D02*
Y152504D01*
X87100Y137500D02*
X95300D01*
X97522Y178722D02*
X111278D01*
X111300Y178700D01*
X125417Y16732D02*
Y21900D01*
X114900Y30332D02*
X122085D01*
X127976Y24441D01*
Y16732D02*
Y24441D01*
X31448Y305800D02*
X35200D01*
X12795Y266552D02*
X22652D01*
X24952Y268852D01*
Y305800D01*
X24752Y306000D02*
X24952Y305800D01*
X52500Y36800D02*
X52600Y36700D01*
X52500Y36800D02*
Y56100D01*
Y94700D02*
Y114900D01*
X43100Y124300D02*
X52500Y114900D01*
X43100Y124300D02*
Y143100D01*
X41128Y147458D02*
X53150D01*
X52100Y213600D02*
Y234800D01*
X23900Y89500D02*
Y110300D01*
Y35400D02*
Y89500D01*
X38272D01*
X38386Y89387D01*
X18832Y30332D02*
X23900Y35400D01*
X12795Y30332D02*
X18832D01*
X173300Y164719D02*
X173519Y164938D01*
X180000Y259600D02*
X185400Y265000D01*
Y283700D01*
X186638Y284938D01*
X194324D01*
X173100Y174938D02*
X194324D01*
X173519Y164938D02*
X194324D01*
X173162Y184938D02*
X194324D01*
X204724Y314961D02*
X204724Y0D01*
X0Y314961D02*
X204724D01*
X0Y0D02*
Y314961D01*
Y0D02*
X204724D01*
D11*
X0D02*
X204724D01*
D13*
X113015Y6200D02*
D03*
X142936D02*
D03*
D14*
X123251D02*
D03*
X132700D02*
D03*
D15*
X115771Y16239D02*
D03*
X140180D02*
D03*
D16*
X122857Y16732D02*
D03*
X125417D02*
D03*
X127976D02*
D03*
X130535D02*
D03*
X133094D02*
D03*
D28*
X31448Y305800D02*
D03*
X24952D02*
D03*
D29*
X132700Y6200D02*
X142936D01*
X123251D02*
X132700D01*
X113015D02*
X123251D01*
X141314Y8019D02*
Y12600D01*
X114637Y12500D02*
Y16090D01*
Y8019D02*
Y12500D01*
X142936Y6200D02*
Y6397D01*
X141314Y8019D02*
X142936Y6397D01*
X141165Y16239D02*
X141314Y16090D01*
X140180Y16239D02*
X141165D01*
X113015Y6200D02*
Y6397D01*
X114637Y8019D01*
Y16090D02*
X114787Y16239D01*
X115771D01*
D30*
X98427Y214100D02*
X104600D01*
X173200Y253900D02*
X182800D01*
X172838Y234938D02*
X194324D01*
D31*
X107813Y126513D02*
X110113D01*
X150030Y110000D02*
X152000D01*
X110224D02*
X150030D01*
X106874Y50626D02*
X134344D01*
X100633Y56867D02*
X106874Y50626D01*
X100633Y56867D02*
Y104533D01*
X143717Y182329D02*
X143800Y182412D01*
X143717Y159183D02*
Y182329D01*
X143635Y159100D02*
X143717Y159183D01*
X143635Y156449D02*
Y159100D01*
X152000Y110000D02*
Y128000D01*
X155000Y76000D02*
X155200Y75800D01*
Y60400D02*
Y75800D01*
Y60400D02*
X159100Y56500D01*
X172700D01*
X137500Y44500D02*
Y47470D01*
X134344Y50626D02*
X137500Y47470D01*
X105900Y109800D02*
Y113100D01*
X100633Y104533D02*
X105900Y109800D01*
X105800Y105576D02*
X110224Y110000D01*
X105800Y78300D02*
Y105576D01*
X150749Y194100D02*
X150900D01*
X150449Y194400D02*
X150749Y194100D01*
X132500Y194400D02*
X150449D01*
X123800Y65600D02*
X123850Y65650D01*
X126650D01*
X126700Y65700D01*
X131694Y126519D02*
X131700Y126525D01*
X128506Y126519D02*
X131694D01*
X128500Y126513D02*
X128506Y126519D01*
X110113Y126513D02*
X128500D01*
X107800Y126500D02*
X107813Y126513D01*
X110100Y126500D02*
X110113Y126513D01*
X105700Y75700D02*
X105750Y75750D01*
Y78250D01*
X105800Y78300D01*
X154291Y127950D02*
X154341Y127900D01*
X152050Y127950D02*
X154291D01*
X152000Y128000D02*
X152050Y127950D01*
D32*
X150030Y110000D02*
X150584Y109445D01*
Y102800D02*
Y109445D01*
X150534Y102750D02*
X150584Y102800D01*
X147909Y102750D02*
X150534D01*
X147859Y102700D02*
X147909Y102750D01*
X147950Y102950D02*
X148000Y103000D01*
X139688Y16732D02*
X140180Y16239D01*
X133094Y16732D02*
X139688D01*
X132700Y6200D02*
X133094Y6594D01*
Y16732D01*
D33*
X127235Y7250D02*
D03*
D34*
X172700Y86500D02*
D03*
Y71500D02*
D03*
Y56500D02*
D03*
Y101500D02*
D03*
D35*
Y41500D02*
D03*
D36*
X125984Y294213D02*
D03*
X135984D02*
D03*
X125984Y304213D02*
D03*
X115984D02*
D03*
Y294213D02*
D03*
D37*
X135984Y304213D02*
D03*
D38*
X173266Y279347D02*
D03*
D39*
X25591Y178166D02*
D03*
Y136434D02*
D03*
D40*
X53150Y167142D02*
D03*
Y157300D02*
D03*
Y147458D02*
D03*
D41*
X38386Y48048D02*
D03*
X12795D02*
D03*
Y30332D02*
D03*
X38386D02*
D03*
Y107103D02*
D03*
X12795D02*
D03*
Y89387D02*
D03*
X38386D02*
D03*
Y225213D02*
D03*
X12795D02*
D03*
Y207497D02*
D03*
X38386D02*
D03*
Y284268D02*
D03*
X12795D02*
D03*
Y266552D02*
D03*
X38386D02*
D03*
D42*
X194324Y304938D02*
D03*
X72276Y9662D02*
D03*
Y304938D02*
D03*
X194324Y9662D02*
D03*
D43*
Y224938D02*
D03*
Y144938D02*
D03*
Y154938D02*
D03*
Y164938D02*
D03*
Y174938D02*
D03*
Y184938D02*
D03*
Y194938D02*
D03*
Y204938D02*
D03*
Y214938D02*
D03*
Y234938D02*
D03*
Y244938D02*
D03*
Y254938D02*
D03*
Y264938D02*
D03*
Y274938D02*
D03*
Y134938D02*
D03*
D44*
Y284938D02*
D03*
D45*
X75200Y179967D02*
D03*
X69569Y184384D02*
D03*
Y154622D02*
D03*
X69000Y121500D02*
D03*
X71400Y118725D02*
D03*
X105300Y131800D02*
D03*
X105400Y135861D02*
D03*
X106599Y145726D02*
D03*
X142400Y123991D02*
D03*
X139553Y123953D02*
D03*
X104600Y214100D02*
D03*
X98427D02*
D03*
X130700Y178700D02*
D03*
X150800Y238400D02*
D03*
X130856Y238500D02*
D03*
X97100Y108800D02*
D03*
X106421Y168171D02*
D03*
X126410Y170000D02*
D03*
X127700Y204800D02*
D03*
X124900Y202800D02*
D03*
X143635Y156449D02*
D03*
Y159100D02*
D03*
X116500Y214000D02*
D03*
X119020Y200679D02*
D03*
X121580Y202900D02*
D03*
X97300Y192500D02*
D03*
X112078Y200450D02*
D03*
X99000Y200400D02*
D03*
X115200Y174317D02*
D03*
X111300Y167300D02*
D03*
X114500Y164400D02*
D03*
X123145Y162521D02*
D03*
X136084Y211000D02*
D03*
X122200Y121900D02*
D03*
X102600Y121800D02*
D03*
X150584Y102800D02*
D03*
X147859Y102700D02*
D03*
X155000Y76000D02*
D03*
X86900Y172800D02*
D03*
X75400Y186760D02*
D03*
X112200Y145900D02*
D03*
X112900Y151900D02*
D03*
X173200Y253900D02*
D03*
X182800D02*
D03*
X118121Y4200D02*
D03*
X118400Y7600D02*
D03*
X137600Y4400D02*
D03*
X137700Y7700D02*
D03*
X127900Y4300D02*
D03*
X128000Y7700D02*
D03*
X71624Y187800D02*
D03*
X72700Y156100D02*
D03*
X68900Y151363D02*
D03*
X71500Y148900D02*
D03*
X93500Y155700D02*
D03*
X97000Y156700D02*
D03*
X89900Y158900D02*
D03*
X65271Y170720D02*
D03*
X60300D02*
D03*
X89200Y106802D02*
D03*
X137500Y44500D02*
D03*
X105900Y113100D02*
D03*
X147000Y34300D02*
D03*
X122800Y44500D02*
D03*
X89800Y155600D02*
D03*
X96700Y161000D02*
D03*
X154291Y148900D02*
D03*
X154200Y151504D02*
D03*
X99000Y145600D02*
D03*
X99200Y168200D02*
D03*
X52100Y199916D02*
D03*
X92883Y169500D02*
D03*
X87100Y141400D02*
D03*
X95400Y145300D02*
D03*
X87100Y137500D02*
D03*
X111300Y178700D02*
D03*
X97522Y178722D02*
D03*
X150900Y194100D02*
D03*
X132500Y194400D02*
D03*
X112100Y189000D02*
D03*
X141314Y12600D02*
D03*
X114637Y12500D02*
D03*
X149251Y10200D02*
D03*
Y7700D02*
D03*
Y5200D02*
D03*
X151751Y10200D02*
D03*
Y7700D02*
D03*
Y5200D02*
D03*
X104200D02*
D03*
Y7700D02*
D03*
Y10200D02*
D03*
X106700Y5200D02*
D03*
Y7700D02*
D03*
Y10200D02*
D03*
X125417Y21900D02*
D03*
X114900Y30332D02*
D03*
X123800Y65600D02*
D03*
X126700Y65700D02*
D03*
X128500Y126513D02*
D03*
X107800Y126500D02*
D03*
X110100D02*
D03*
X105700Y75700D02*
D03*
X105800Y78300D02*
D03*
X143800Y185100D02*
D03*
Y182412D02*
D03*
X131700Y126525D02*
D03*
X172838Y234938D02*
D03*
X154341Y127900D02*
D03*
X152000Y128000D02*
D03*
X35200Y305800D02*
D03*
X52600Y36700D02*
D03*
X52500Y56100D02*
D03*
Y94700D02*
D03*
X43100Y143100D02*
D03*
Y152300D02*
D03*
X52100Y213600D02*
D03*
Y234800D02*
D03*
X173300Y164719D02*
D03*
X173100Y174938D02*
D03*
X173162Y184938D02*
D03*
X187000Y244000D02*
D03*
X180000Y259600D02*
D03*
M02*
